<svg width="160" height="160" viewBox="0 0 160 160" fill="none" xmlns="http://www.w3.org/2000/svg">
<circle opacity="0.1" cx="80" cy="80" r="80" fill="#34CCA9"/>
<path d="M48.0132 101.843V65.9265C48.2235 65.9265 48.4322 65.94 48.6425 65.94H111.367C111.577 65.94 111.788 65.9316 111.996 65.9265C111.996 77.9391 111.996 89.9528 111.996 101.968C111.379 103.385 110.218 103.623 108.799 103.62C89.5215 103.594 70.2445 103.594 50.9681 103.62C49.5495 103.625 48.55 103.188 48.0132 101.843ZM107.34 100.807L107.445 100.707C107.445 100.623 107.463 100.539 107.463 100.457C107.463 95.0235 107.463 89.5905 107.463 84.1574C107.456 84.017 107.441 83.8771 107.418 83.7384H87.6823V86.3601C87.689 91.1425 87.6963 95.9249 87.7042 100.707L87.8119 100.807C90.0937 100.807 92.3755 100.827 94.6556 100.825C98.8849 100.824 103.113 100.818 107.34 100.807ZM52.602 69.6538V100.785H67.1107V69.6538H52.602ZM70.1127 100.785H84.6264V69.7043H70.1127V100.785ZM107.429 69.6673H87.7412V80.7599H107.429V69.6673Z" fill="#434396"/>
<path d="M111.991 65.9265C111.783 65.9265 111.572 65.94 111.362 65.94H48.6476C48.4373 65.94 48.2286 65.9316 48.0183 65.9265C48.0183 63.4024 48.0384 60.8884 48.0014 58.371C47.9904 58.0642 48.0412 57.7582 48.1508 57.4714C48.2604 57.1846 48.4266 56.9228 48.6395 56.7016C48.8524 56.4804 49.1077 56.3043 49.3901 56.1837C49.6724 56.0632 49.9762 56.0007 50.2832 56C50.4094 56 50.5356 56 50.6619 56C70.1986 56 89.7358 56 109.274 56C110.329 56 111.222 56.3164 111.705 57.3075C111.893 57.7219 111.99 58.1717 111.99 58.6268C112.01 61.0567 111.995 63.4916 111.991 65.9265ZM99.6551 61.1038C99.6551 60.4542 99.2394 60.0134 98.6236 60.0218C98.0666 60.0218 97.5163 60.5586 97.5146 61.0886C97.5146 61.5935 98.0447 62.1471 98.5377 62.1622C99.2142 62.1807 99.65 61.7685 99.6551 61.1038ZM101.419 61.0382C101.419 61.6944 101.824 62.1538 102.41 62.1589C102.995 62.1639 103.567 61.6355 103.559 61.0769C103.551 60.572 103.016 60.042 102.506 60.0235C102.366 60.0101 102.225 60.0265 102.091 60.0718C101.958 60.1171 101.836 60.1901 101.734 60.286C101.631 60.3819 101.55 60.4986 101.495 60.6282C101.441 60.7579 101.415 60.8976 101.419 61.0382ZM105.324 61.1088C105.324 61.7399 105.723 62.1555 106.317 62.1605C106.602 62.1557 106.874 62.0464 107.084 61.8533C107.293 61.6603 107.424 61.3971 107.451 61.1139C107.47 60.5535 106.877 59.9982 106.292 60.0268C105.706 60.0554 105.318 60.4677 105.324 61.1088Z" fill="#39398C"/>
<path d="M52.6021 69.6538H67.1107V100.785H52.6021V69.6538Z" fill="#34CCA9"/>
<path d="M70.1128 100.771V69.7043H84.6265V100.771H70.1128Z" fill="#34CCA9"/>
<path d="M87.7042 100.707C87.6975 95.925 87.6902 91.1426 87.6823 86.3602V83.7385H107.416C107.439 83.8772 107.455 84.0171 107.461 84.1575C107.461 89.5917 107.461 95.0247 107.461 100.457C107.461 100.541 107.448 100.625 107.443 100.707L107.338 100.807C103.11 100.813 98.8821 100.82 94.6539 100.825C92.3738 100.825 90.092 100.813 87.8102 100.807L87.7042 100.707Z" fill="#34CCA9"/>
<path d="M107.429 69.6672V80.7599H87.7412V69.6672H107.429Z" fill="#34CCA9"/>
<path d="M87.7042 100.707L87.8119 100.807L87.7042 100.707Z" fill="#EF8379"/>
<path d="M107.34 100.807L107.444 100.707L107.34 100.807Z" fill="#EF8379"/>
<path d="M99.655 61.1039C99.655 61.7685 99.2142 62.1808 98.5377 62.1623C98.0447 62.1472 97.5129 61.5902 97.5146 61.0887C97.5146 60.5586 98.0665 60.0286 98.6235 60.0218C99.2394 60.0134 99.6601 60.4543 99.655 61.1039Z" fill="#5AC6AD"/>
<path d="M101.419 61.0381C101.416 60.898 101.442 60.7588 101.497 60.6298C101.552 60.5007 101.633 60.3847 101.736 60.2893C101.838 60.1939 101.96 60.1214 102.093 60.0764C102.225 60.0314 102.366 60.0151 102.506 60.0284C103.011 60.0469 103.551 60.5821 103.559 61.0818C103.559 61.6405 103.005 62.1706 102.41 62.1638C101.814 62.1571 101.419 61.6944 101.419 61.0381Z" fill="#F9D884"/>
<path d="M105.324 61.1088C105.324 60.4677 105.684 60.0571 106.292 60.0268C106.899 59.9965 107.47 60.5535 107.451 61.1139C107.424 61.3971 107.293 61.6603 107.084 61.8533C106.874 62.0463 106.602 62.1557 106.317 62.1605C105.723 62.1555 105.331 61.7449 105.324 61.1088Z" fill="#EF786B"/>
</svg>
