<svg width="160" height="160" viewBox="0 0 160 160" fill="none" xmlns="http://www.w3.org/2000/svg">
<circle opacity="0.1" cx="80" cy="80" r="80" fill="#34CCA9"/>
<path d="M93.2338 64.1638C96.0527 67.7432 98.8465 71.3459 101.714 74.8868C102.336 75.6568 102.478 76.3733 102.358 77.3154C101.702 82.453 101.105 87.5974 100.482 92.7401C99.8357 98.0849 99.1859 103.432 98.5328 108.783C98.4026 109.855 98.2607 110.927 98.1239 112H97.3728C97.2727 111.942 97.1656 111.898 97.0541 111.868C94.3281 111.523 91.6043 111.183 88.8828 110.849L77.1283 109.369C75.4593 109.159 73.802 108.943 72.0947 108.724C72.2149 107.742 72.33 106.817 72.4385 105.885C72.661 103.965 72.8836 102.045 73.1061 100.124C73.3614 99.8537 73.6068 99.5748 73.8738 99.3109C79.9221 93.2568 85.9732 87.206 92.0271 81.1586C92.1836 81.0128 92.3065 80.8346 92.3872 80.6364C92.4679 80.4383 92.5045 80.2249 92.4945 80.0111C92.4828 74.9302 92.4945 69.8477 92.4945 64.7668L93.2338 64.1638Z" fill="#434396"/>
<path d="M48.005 87.9934C48.1719 87.8431 48.3555 87.7028 48.5157 87.5424C53.9677 82.1008 59.4196 76.658 64.8716 71.2141C67.7911 68.3045 70.7218 65.4066 73.6637 62.5204C73.9298 62.2801 74.2718 62.1406 74.63 62.1263C79.7504 62.0979 84.8708 62.1012 89.9845 62.0962L92.4879 62.1229C92.4961 62.1582 92.4925 62.1951 92.4779 62.2281C92.311 62.3818 92.1358 62.5305 91.9772 62.6925C88.6526 66.0163 85.3281 69.3395 82.0035 72.6622C81.8039 72.8348 81.5913 72.9917 81.3676 73.1315L80.0992 71.9356C79.2547 72.7858 78.4302 73.6059 77.6241 74.441C77.3421 74.7333 77.0867 74.75 76.6878 74.6682C75.87 74.5011 75.0189 74.3341 74.1961 74.3759C70.8281 74.5429 68.3547 78.1039 69.4863 81.5462C69.7583 82.3713 70.3207 83.0979 70.763 83.8712L68.1227 86.395C67.3617 85.5465 67.5836 84.6896 68.0426 83.9798L65.4023 81.3692C63.947 82.9593 63.523 84.855 64.2507 86.9963C64.4176 87.4673 64.3308 87.7546 63.9803 88.0819C63.1642 88.8452 62.3848 89.6486 61.5637 90.4604L62.7603 91.7398C62.3865 92.1724 62.031 92.6267 61.6321 93.0375C60.2152 94.4957 58.7815 95.9404 57.3562 97.3919C54.4088 94.4511 51.4603 91.5098 48.5107 88.568C48.3438 88.4009 48.1769 88.2673 48 88.117L48.005 87.9934Z" fill="#434396"/>
<path d="M92.4696 62.2283C92.4842 62.1952 92.4877 62.1583 92.4796 62.1231C92.6465 61.9377 92.8017 61.7422 92.9803 61.5685C97.2829 57.2593 101.586 52.9501 105.89 48.6408C106.064 48.4428 106.225 48.233 106.37 48.0128C109.151 47.799 111.878 50.2944 111.993 53.1288C112.072 54.9443 111.481 56.4693 110.181 57.7286C109.044 58.8293 107.976 60.0119 106.751 61.0023C103.85 63.3407 99.6211 63.5979 96.4033 61.6938C95.9928 61.45 95.7741 61.49 95.4687 61.8224C94.741 62.6208 93.975 63.3858 93.2256 64.1608L92.5046 64.7637L92.4696 62.2283ZM98.7215 58.6105C99.7085 59.0843 100.814 59.253 101.897 59.095C102.981 58.937 103.992 58.4596 104.803 57.7236C105.791 56.8 106.741 55.8312 107.681 54.8592C108.019 54.5154 108.209 54.0528 108.211 53.5704C108.213 53.0879 108.026 52.6239 107.691 52.2774C107.355 51.931 106.898 51.7297 106.416 51.7165C105.934 51.7033 105.466 51.8792 105.112 52.2068C102.976 54.3096 100.874 56.4492 98.7215 58.6105V58.6105Z" fill="#20B895"/>
<path d="M106.367 48.0128C106.221 48.233 106.061 48.4429 105.886 48.6409C101.586 52.9512 97.2829 57.2605 92.9769 61.5686C92.81 61.7356 92.6432 61.9377 92.4763 62.1231L89.9728 62.0964C91.2829 60.7602 92.5881 59.424 93.9049 58.0961C96.6843 55.3046 99.4648 52.5181 102.246 49.7365C103.381 48.5908 104.73 47.9577 106.367 48.0128Z" fill="#34CCA9"/>
<path d="M92.4696 62.2283L92.5047 64.7671C92.5047 69.8479 92.4897 74.9305 92.5047 80.0114C92.5147 80.2252 92.4781 80.4385 92.3974 80.6367C92.3167 80.8349 92.1939 81.013 92.0374 81.1589C85.9757 87.2018 79.9213 93.2526 73.874 99.3111C73.612 99.575 73.3617 99.854 73.1063 100.125C71.3361 101.884 69.5659 103.642 67.7957 105.399C67.3985 105.795 67.0229 106.214 66.6508 106.608L57.3513 97.392C58.7766 95.9406 60.2102 94.4958 61.6272 93.0377C62.0261 92.6268 62.3815 92.1725 62.7554 91.7399L62.8605 91.7499L64.1774 93.1496C65.0519 92.2744 65.9014 91.4509 66.7158 90.5941C66.9912 90.3035 67.2249 90.2601 67.5787 90.4154C68.5781 90.8497 69.6927 90.9418 70.7497 90.6776C72.8727 90.1649 74.2813 88.8403 74.8971 86.7642C75.513 84.6881 74.9655 82.8274 73.4985 81.239C73.4985 81.2006 73.4985 81.1639 73.4902 81.1271C74.0426 80.5927 74.6067 80.0699 75.1408 79.5187C75.4545 79.1963 75.7199 78.8305 76.007 78.4848L76.1138 78.4948C76.6846 79.2598 76.8348 80.0532 76.3558 80.9351C76.3253 81.0312 76.3183 81.1333 76.3354 81.2327C76.3526 81.3321 76.3933 81.4259 76.4543 81.5063C77.1068 82.2044 77.8011 82.8659 78.4687 83.5507C78.719 83.8062 78.8926 83.7945 79.1179 83.5089C80.4297 81.8604 80.7251 80.0248 80.0575 78.0606C79.8907 77.5695 79.9724 77.3206 80.3112 76.9983C81.1357 76.2133 81.9301 75.3948 82.773 74.5514L81.3694 73.2369C81.3694 73.2018 81.3694 73.1667 81.3577 73.1333C81.581 72.9924 81.7936 72.8349 81.9935 72.6623C85.3215 69.3419 88.646 66.0186 91.9673 62.6926C92.1275 62.5306 92.3011 62.3819 92.4696 62.2283Z" fill="#39398C"/>
<path d="M76.1137 78.4947L76.0068 78.4847C75.1807 77.7815 74.1059 77.8433 73.4166 78.6333C73.0983 78.9749 72.9275 79.4284 72.9413 79.8953C72.955 80.3621 73.1522 80.8048 73.49 81.127C73.49 81.1638 73.49 81.2005 73.4984 81.2389C73.1695 81.477 72.8557 81.7352 72.5588 82.0122C71.973 82.6169 71.4239 83.2532 70.8598 83.8779L70.7529 83.8645C70.319 83.0912 69.7516 82.3613 69.4762 81.5396C68.3396 78.0972 70.8114 74.5329 74.186 74.3692C75.0121 74.3291 75.855 74.4911 76.6778 74.6615C77.0766 74.7433 77.332 74.7266 77.6141 74.4343C78.4185 73.5992 79.2446 72.7858 80.0891 71.929L81.3575 73.1249C81.3575 73.1599 81.3659 73.195 81.3692 73.2301L76.1137 78.4947Z" fill="#34CCA9"/>
<path d="M62.8589 91.75L62.7537 91.74L61.5571 90.4605C62.3782 89.6488 63.1576 88.8454 63.9738 88.0821C64.3242 87.7481 64.4044 87.4675 64.2441 86.9965C63.5165 84.8552 63.9404 82.9595 65.3957 81.3694L68.0327 83.9733C67.5737 84.6832 67.3517 85.54 68.1128 86.3885C68.1128 86.4236 68.1128 86.4586 68.1211 86.4937L62.8589 91.75Z" fill="#34CCA9"/>
<path d="M68.1211 86.4935C68.1211 86.4584 68.1211 86.4233 68.1128 86.3882L70.7531 83.8645L70.8599 83.8779C71.5675 85.017 71.5119 85.9267 70.693 86.607C69.9954 87.1883 69.0841 87.1482 68.1211 86.4935Z" fill="#39398C"/>
<path d="M68.1211 86.4936C69.0841 87.1484 69.9954 87.1884 70.6963 86.6072C71.5141 85.9291 71.5697 85.0193 70.8632 83.878C71.4273 83.2533 71.9764 82.617 72.5622 82.0123C72.8591 81.7353 73.1729 81.4771 73.5018 81.239C74.9689 82.8274 75.518 84.6781 74.9004 86.7642C74.2829 88.8503 72.8726 90.1648 70.7497 90.6776C69.6927 90.9418 68.5781 90.8496 67.5787 90.4154C67.2249 90.2634 66.9912 90.3035 66.7158 90.5941C65.9014 91.4509 65.0469 92.2743 64.1773 93.1496L62.8589 91.7499L68.1211 86.4936Z" fill="#20B895"/>
<path d="M76.1137 78.495L81.3693 73.2371L82.7729 74.5515C81.9301 75.395 81.1357 76.2134 80.3112 76.9985C79.9774 77.3208 79.8923 77.5697 80.0575 78.0607C80.7251 80.025 80.4297 81.8606 79.1179 83.5091C78.8926 83.7947 78.719 83.8064 78.4686 83.5508C77.8011 82.866 77.1068 82.2046 76.4542 81.5065C76.3933 81.4261 76.3525 81.3323 76.3354 81.2329C76.3183 81.1335 76.3252 81.0314 76.3557 80.9352C76.8347 80.0533 76.6845 79.26 76.1137 78.495Z" fill="#20B895"/>
<path d="M73.49 81.1268C73.1521 80.8046 72.9549 80.362 72.9412 79.8951C72.9275 79.4282 73.0983 78.9748 73.4166 78.6331C74.1058 77.8431 75.1806 77.7813 76.0068 78.4845C75.7197 78.8302 75.4544 79.196 75.1406 79.5184C74.6065 80.0696 74.0407 80.5923 73.49 81.1268Z" fill="#434396"/>
</svg>
