<svg width="160" height="160" viewBox="0 0 160 160" fill="none" xmlns="http://www.w3.org/2000/svg">
<circle opacity="0.1" cx="80" cy="80" r="80" fill="#34CCA9"/>
<path d="M92.2024 92.0569C94.208 92.4808 96.2313 92.837 98.2172 93.3393C101.714 94.2298 105.078 95.4552 108.035 97.5908C109.67 98.7717 111.063 100.179 111.69 102.165C112.439 104.551 111.789 106.632 110.185 108.468C108.428 110.479 106.159 111.751 103.751 112.762C99.5477 114.529 95.1341 115.532 90.619 116.073C88.5547 116.323 86.4797 116.465 84.4101 116.663C84.3047 116.689 84.2042 116.733 84.1126 116.791H79.984L79.9929 109.385C81.0242 109.271 81.6404 108.639 82.1641 107.791C83.6638 105.364 85.2116 102.968 86.7469 100.565C88.5601 97.7262 90.3786 94.89 92.2024 92.0569Z" fill="#20B895"/>
<path d="M79.9931 109.385L79.9842 116.791H75.7184C75.006 116.7 74.2935 116.581 73.5811 116.526C68.4693 116.127 63.4412 115.291 58.5752 113.642C55.9196 112.752 53.3708 111.606 51.189 109.797C49.7071 108.568 48.4852 107.146 48.1148 105.166C47.6998 102.963 48.4407 101.11 49.8656 99.4859C51.6253 97.4803 53.8962 96.2175 56.3061 95.1863C59.8683 93.6616 63.6086 92.7657 67.4345 92.1744C67.5724 92.1453 67.7086 92.1084 67.8423 92.064C68.0115 92.3204 68.1861 92.5716 68.35 92.8298C71.556 97.8751 74.756 102.922 77.9501 107.969C78.4293 108.724 78.9832 109.326 79.9699 109.282L79.9931 109.385Z" fill="#34CCA9"/>
<path d="M79.9931 109.385L79.9717 109.282C79.9717 108.951 79.9841 108.619 79.9841 108.29C79.9841 98.2372 79.9841 88.1846 79.9841 78.132C80.7322 78.0323 81.4981 78.0002 82.2283 77.8221C86.5155 76.7766 89.3261 74.1067 90.3164 69.8267C91.3174 65.5039 89.921 61.8616 86.4799 59.0456C84.5972 57.505 82.3673 56.9083 79.9841 56.7551V44.0024C84.0682 43.9436 87.878 44.9784 91.4207 46.9679C95.4076 49.1941 98.6584 52.5351 100.775 56.5815C102.891 60.6279 103.78 65.2038 103.335 69.7483C102.937 73.836 101.482 77.5015 99.238 80.9177C96.9225 84.4318 94.7157 88.0118 92.4697 91.5634C92.37 91.7219 92.2916 91.8929 92.2008 92.0567C90.3841 94.8923 88.5667 97.7284 86.7488 100.565C85.2135 102.968 83.6657 105.363 82.166 107.791C81.6406 108.639 81.0243 109.271 79.9931 109.385Z" fill="#39398C"/>
<path d="M79.986 78.1321C79.986 88.1847 79.986 98.2373 79.986 108.29C79.986 108.619 79.986 108.951 79.9735 109.282C78.9868 109.327 78.4328 108.724 77.9537 107.969C74.7584 102.919 71.5583 97.8728 68.3535 92.8298C68.1897 92.5716 68.0151 92.3205 67.8459 92.064C65.3274 88.085 62.8083 84.1072 60.2887 80.1305C57.031 74.992 55.8572 69.4243 56.9045 63.4201C58.561 53.8823 65.8796 46.3322 75.3355 44.4673C76.8583 44.1663 78.4382 44.1539 79.9913 44.0078V56.7606C79.473 56.8122 78.9547 56.8478 78.44 56.9173C70.6031 57.986 66.6401 67.3439 71.3565 73.6847C73.5009 76.5701 76.4113 77.9985 79.986 78.1321Z" fill="#434396"/>
<path d="M79.9859 78.132C76.4112 77.9984 73.4991 76.57 71.3511 73.6792C66.6347 67.3385 70.5906 57.977 78.4346 56.9119C78.9493 56.8424 79.4676 56.8068 79.9859 56.7551C82.3691 56.9012 84.599 57.505 86.4816 59.0456C89.9227 61.8616 91.3191 65.5039 90.3182 69.8267C89.3279 74.1014 86.5173 76.773 82.2301 77.8221C81.4999 78.0002 80.734 78.0323 79.9859 78.132Z" fill="#34CCA9"/>
</svg>
