<svg width="87" height="87" viewBox="0 0 87 87" fill="none" xmlns="http://www.w3.org/2000/svg">
<ellipse opacity="0.1" cx="43.8866" cy="43.6483" rx="42.8951" ry="42.7059" fill="#34CCA9"/>
<path d="M50.4293 50.085C51.5047 50.3113 52.5896 50.5014 53.6544 50.7695C55.5291 51.2449 57.3331 51.8991 58.9184 53.0391C59.7951 53.6695 60.542 54.4206 60.8781 55.4807C61.2802 56.7548 60.9316 57.8654 60.0711 58.8456C59.1295 59.9191 57.9128 60.5979 56.6216 61.138C54.3678 62.0812 52.0013 62.6165 49.5803 62.9055C48.4735 63.0386 47.3609 63.1147 46.2511 63.2203C46.1946 63.2344 46.1408 63.2575 46.0916 63.2887H43.8779L43.8827 59.3353C44.4357 59.2744 44.7661 58.9369 45.0469 58.4843C45.851 57.1884 46.6809 55.9096 47.5041 54.6269C48.4763 53.1114 49.4514 51.5974 50.4293 50.085Z" fill="#20B895"/>
<path d="M43.8828 59.3349L43.878 63.2883H41.5908C41.2088 63.2398 40.8268 63.1761 40.4448 63.1467C37.7039 62.9337 35.0079 62.4877 32.3988 61.6073C30.9748 61.1319 29.6082 60.5205 28.4383 59.5545C27.6438 58.8985 26.9886 58.1397 26.79 57.0825C26.5675 55.9063 26.9647 54.9175 27.7288 54.0504C28.6723 52.9798 29.89 52.3056 31.1821 51.7551C33.0921 50.9412 35.0976 50.463 37.149 50.1473C37.223 50.1318 37.296 50.1121 37.3677 50.0884C37.4584 50.2253 37.552 50.3594 37.6399 50.4972C39.3589 53.1905 41.0747 55.8845 42.7874 58.579C43.0443 58.9822 43.3413 59.3035 43.8704 59.2798L43.8828 59.3349Z" fill="#34CCA9"/>
<path d="M43.8826 59.3348L43.8711 59.2797C43.8711 59.1028 43.8778 58.926 43.8778 58.7501C43.8778 53.3838 43.8778 48.0175 43.8778 42.6511C44.2789 42.5979 44.6895 42.5808 45.0811 42.4857C47.3798 41.9276 48.8868 40.5023 49.4178 38.2176C49.9545 35.91 49.2058 33.9656 47.3607 32.4624C46.3513 31.6399 45.1556 31.3214 43.8778 31.2397V24.4319C46.0676 24.4006 48.1104 24.953 50.0099 26.015C52.1477 27.2034 53.8907 28.9869 55.0254 31.147C56.1601 33.307 56.6371 35.7498 56.398 38.1757C56.185 40.3578 55.4048 42.3146 54.2015 44.1382C52.96 46.0141 51.7767 47.9252 50.5724 49.8211C50.5189 49.9057 50.4769 49.997 50.4282 50.0845C49.4541 51.5982 48.4797 53.1122 47.5049 54.6265C46.6817 55.9091 45.8518 57.1879 45.0477 58.4839C44.7659 58.9364 44.4355 59.274 43.8826 59.3348Z" fill="#39398C"/>
<path d="M43.8788 42.6509C43.8788 48.0172 43.8788 53.3836 43.8788 58.7499C43.8788 58.9258 43.8788 59.1026 43.8721 59.2795C43.343 59.3032 43.046 58.9819 42.7891 58.5787C41.0758 55.8829 39.36 53.189 37.6416 50.4969C37.5537 50.3591 37.4602 50.225 37.3694 50.0881C36.019 47.964 34.6683 45.8405 33.3173 43.7177C31.5706 40.9747 30.9412 38.0025 31.5028 34.7973C32.3909 29.7058 36.3151 25.6754 41.3853 24.6799C42.2018 24.5192 43.0489 24.5125 43.8817 24.4346V31.2423C43.6038 31.2699 43.3258 31.2889 43.0498 31.326C38.8478 31.8964 36.7229 36.8919 39.2518 40.2768C40.4016 41.8171 41.9621 42.5796 43.8788 42.6509Z" fill="#434396"/>
<path d="M43.8785 42.6512C41.9618 42.5799 40.4004 41.8174 39.2486 40.2742C36.7198 36.8894 38.8408 31.892 43.0467 31.3234C43.3227 31.2863 43.6006 31.2673 43.8785 31.2397C45.1563 31.3177 46.352 31.64 47.3615 32.4625C49.2065 33.9657 49.9553 35.9101 49.4186 38.2177C48.8876 40.4996 47.3806 41.9258 45.0818 42.4858C44.6903 42.5809 44.2796 42.598 43.8785 42.6512Z" fill="#34CCA9"/>
</svg>
