<svg width="87" height="87" viewBox="0 0 87 87" fill="none" xmlns="http://www.w3.org/2000/svg">
<ellipse opacity="0.1" cx="43.4191" cy="43.6483" rx="42.8951" ry="42.7059" fill="#34CCA9"/>
<path d="M50.515 35.1943C52.0264 37.1051 53.5245 39.0283 55.0619 40.9185C55.3957 41.3296 55.4717 41.7121 55.4073 42.2149C55.0556 44.9576 54.7352 47.7037 54.4015 50.449C54.0548 53.3022 53.7064 56.1569 53.3562 59.013C53.2864 59.5854 53.2104 60.1579 53.137 60.7303H52.7343C52.6806 60.6995 52.6232 60.6759 52.5634 60.6598C51.1017 60.4756 49.6413 60.2943 48.182 60.116L41.8794 59.326C40.9845 59.2136 40.0959 59.0986 39.1804 58.9818C39.2449 58.4575 39.3066 57.9636 39.3648 57.4661C39.4841 56.4413 39.6034 55.4162 39.7227 54.3909C39.8596 54.2464 39.9912 54.0975 40.1344 53.9567C43.3774 50.7248 46.622 47.4948 49.868 44.2665C49.9519 44.1887 50.0178 44.0936 50.061 43.9878C50.1043 43.882 50.1239 43.7681 50.1186 43.654C50.1123 40.9417 50.1186 38.2285 50.1186 35.5162L50.515 35.1943Z" fill="#434396"/>
<path d="M26.2639 47.9154C26.3534 47.8351 26.4518 47.7602 26.5377 47.6746C29.461 44.7697 32.3843 41.8642 35.3076 38.9582C36.873 37.405 38.4444 35.858 40.0218 34.3173C40.1645 34.189 40.3479 34.1145 40.54 34.1069C43.2854 34.0917 46.0309 34.0935 48.7729 34.0908L50.1152 34.1051C50.1195 34.1239 50.1177 34.1436 50.1098 34.1613C50.0203 34.2433 49.9264 34.3226 49.8413 34.4091C48.0587 36.1834 46.2761 37.9575 44.4935 39.7312C44.3865 39.8233 44.2725 39.9071 44.1526 39.9817L43.4725 39.3433C43.0197 39.7972 42.5776 40.235 42.1454 40.6808C41.9941 40.8368 41.8572 40.8457 41.6433 40.802C41.2048 40.7129 40.7485 40.6237 40.3073 40.646C38.5014 40.7352 37.1752 42.6361 37.7819 44.4737C37.9278 44.9142 38.2294 45.302 38.4665 45.7148L37.0508 47.0621C36.6427 46.6091 36.7618 46.1517 37.0079 45.7728L35.5922 44.3792C34.8118 45.228 34.5845 46.24 34.9747 47.3831C35.0642 47.6345 35.0176 47.7879 34.8297 47.9626C34.3921 48.3701 33.9742 48.799 33.5339 49.2323L34.1756 49.9153C33.9751 50.1462 33.7845 50.3887 33.5706 50.608C32.8109 51.3864 32.0422 52.1577 31.2779 52.9325C29.6976 51.3627 28.1166 49.7925 26.5351 48.2221C26.4456 48.1329 26.3561 48.0616 26.2612 47.9813L26.2639 47.9154Z" fill="#434396"/>
<path d="M50.1047 34.1613C50.1126 34.1437 50.1145 34.1239 50.1101 34.1051C50.1996 34.0062 50.2828 33.9019 50.3786 33.8091C52.6856 31.5088 54.9929 29.2084 57.3005 26.908C57.394 26.8023 57.4801 26.6903 57.5582 26.5728C59.0491 26.4586 60.5113 27.7907 60.5731 29.3038C60.6151 30.273 60.2983 31.087 59.6012 31.7593C58.9918 32.3469 58.4191 32.9781 57.7622 33.5069C56.2069 34.7551 53.9393 34.8924 52.214 33.876C51.9938 33.7458 51.8766 33.7672 51.7128 33.9447C51.3227 34.3708 50.9119 34.7792 50.5101 35.1929L50.1235 35.5148L50.1047 34.1613ZM53.457 32.2301C53.9862 32.483 54.5791 32.573 55.1599 32.4887C55.7407 32.4044 56.2831 32.1495 56.7179 31.7566C57.2477 31.2636 57.7569 30.7464 58.2607 30.2275C58.442 30.044 58.5441 29.7971 58.5452 29.5395C58.5462 29.282 58.4461 29.0343 58.2662 28.8493C58.0863 28.6644 57.8409 28.5569 57.5825 28.5498C57.3241 28.5428 57.0732 28.6367 56.8835 28.8116C55.738 29.9342 54.6114 31.0763 53.457 32.2301Z" fill="#20B895"/>
<path d="M57.5575 26.5731C57.4795 26.6906 57.3933 26.8026 57.2998 26.9083C54.994 29.2093 52.6867 31.5097 50.3779 33.8094C50.2884 33.8986 50.1989 34.0065 50.1094 34.1055L48.7671 34.0912C49.4696 33.3779 50.1694 32.6646 50.8754 31.9558C52.3657 30.4656 53.8566 28.9781 55.348 27.4932C55.9566 26.8816 56.6796 26.5436 57.5575 26.5731Z" fill="#34CCA9"/>
<path d="M50.1055 34.1611L50.1243 35.5164C50.1243 38.2287 50.1162 40.9419 50.1243 43.6542C50.1297 43.7683 50.11 43.8822 50.0668 43.988C50.0235 44.0938 49.9576 44.1889 49.8737 44.2667C46.6235 47.4926 43.3772 50.7226 40.1347 53.9568C39.9942 54.0977 39.86 54.2466 39.7231 54.3911C38.7739 55.3302 37.8247 56.2688 36.8756 57.2068C36.6626 57.4181 36.4612 57.6419 36.2617 57.8523L31.2754 52.9324C32.0396 52.1576 32.8083 51.3863 33.5681 50.6079C33.782 50.3886 33.9726 50.1461 34.173 49.9151L34.2294 49.9205L34.9355 50.6677C35.4044 50.2004 35.8599 49.7609 36.2966 49.3035C36.4442 49.1483 36.5695 49.1252 36.7592 49.2081C37.2951 49.4399 37.8927 49.4891 38.4595 49.3481C39.5978 49.0743 40.3531 48.3673 40.6833 47.259C41.0135 46.1507 40.72 45.1575 39.9334 44.3095C39.9334 44.289 39.9334 44.2694 39.9289 44.2498C40.2251 43.9645 40.5276 43.6854 40.8139 43.3912C40.9822 43.2191 41.1245 43.0238 41.2784 42.8393L41.3356 42.8446C41.6417 43.253 41.7222 43.6765 41.4654 44.1473C41.449 44.1986 41.4453 44.2531 41.4545 44.3061C41.4637 44.3592 41.4855 44.4093 41.5182 44.4522C41.8681 44.8249 42.2404 45.178 42.5983 45.5435C42.7326 45.6799 42.8256 45.6737 42.9464 45.5212C43.6498 44.6412 43.8082 43.6613 43.4502 42.6128C43.3608 42.3506 43.4046 42.2178 43.5863 42.0457C44.0283 41.6266 44.4543 41.1898 44.9062 40.7395L44.1536 40.0378C44.1536 40.0191 44.1536 40.0003 44.1474 39.9825C44.2671 39.9073 44.3811 39.8232 44.4883 39.7311C46.2727 37.9585 48.0553 36.1845 49.8361 34.409C49.922 34.3225 50.0151 34.2432 50.1055 34.1611Z" fill="#39398C"/>
<path d="M41.3351 42.8448L41.2779 42.8394C40.8349 42.4641 40.2586 42.4971 39.889 42.9188C39.7183 43.1012 39.6267 43.3432 39.6341 43.5925C39.6415 43.8417 39.7472 44.078 39.9284 44.25C39.9284 44.2696 39.9284 44.2892 39.9328 44.3097C39.7565 44.4368 39.5882 44.5747 39.429 44.7225C39.1149 45.0453 38.8205 45.385 38.518 45.7185L38.4608 45.7113C38.2281 45.2985 37.9238 44.9089 37.7762 44.4702C37.1668 42.6326 38.4921 40.7299 40.3015 40.6425C40.7445 40.6211 41.1964 40.7076 41.6376 40.7985C41.8515 40.8422 41.9884 40.8333 42.1396 40.6773C42.571 40.2315 43.0139 39.7972 43.4667 39.3398L44.1468 39.9782C44.1468 39.997 44.1513 40.0157 44.1531 40.0344L41.3351 42.8448Z" fill="#34CCA9"/>
<path d="M34.2283 49.9208L34.1719 49.9155L33.5303 49.2325C33.9706 48.7991 34.3885 48.3703 34.8261 47.9628C35.014 47.7845 35.0569 47.6347 34.971 47.3833C34.5809 46.2402 34.8082 45.2282 35.5885 44.3794L37.0024 45.7694C36.7563 46.1484 36.6373 46.6058 37.0454 47.0587C37.0454 47.0774 37.0454 47.0962 37.0498 47.1149L34.2283 49.9208Z" fill="#34CCA9"/>
<path d="M37.0504 47.1148C37.0504 47.0961 37.0504 47.0774 37.0459 47.0587L38.4616 45.7114L38.5189 45.7186C38.8983 46.3266 38.8685 46.8123 38.4294 47.1755C38.0553 47.4857 37.5667 47.4643 37.0504 47.1148Z" fill="#39398C"/>
<path d="M37.0498 47.1146C37.5662 47.4641 38.0548 47.4855 38.4306 47.1752C38.8691 46.8132 38.899 46.3276 38.5201 45.7183C38.8226 45.3849 39.117 45.0452 39.4311 44.7224C39.5903 44.5745 39.7586 44.4366 39.9349 44.3096C40.7215 45.1575 41.0159 46.1454 40.6848 47.259C40.3537 48.3727 39.5976 49.0744 38.4593 49.3481C37.8925 49.4891 37.2948 49.4399 36.759 49.2081C36.5693 49.127 36.444 49.1484 36.2963 49.3035C35.8596 49.7609 35.4015 50.2005 34.9352 50.6677L34.2283 49.9205L37.0498 47.1146Z" fill="#20B895"/>
<path d="M41.3357 42.8449L44.1537 40.0381L44.9063 40.7398C44.4544 41.1901 44.0284 41.6269 43.5863 42.046C43.4073 42.2181 43.3617 42.3509 43.4503 42.6131C43.8082 43.6616 43.6499 44.6415 42.9465 45.5215C42.8257 45.674 42.7326 45.6802 42.5984 45.5438C42.2404 45.1783 41.8681 44.8252 41.5182 44.4525C41.4856 44.4096 41.4637 44.3595 41.4545 44.3064C41.4454 44.2534 41.4491 44.1989 41.4654 44.1476C41.7223 43.6768 41.6417 43.2533 41.3357 42.8449Z" fill="#20B895"/>
<path d="M39.9289 44.2499C39.7478 44.0778 39.6421 43.8416 39.6347 43.5923C39.6273 43.3431 39.7189 43.101 39.8896 42.9187C40.2592 42.497 40.8355 42.464 41.2784 42.8393C41.1245 43.0239 40.9822 43.2192 40.814 43.3912C40.5276 43.6855 40.2243 43.9646 39.9289 44.2499Z" fill="#434396"/>
</svg>
