<svg width="87" height="87" viewBox="0 0 87 87" fill="none" xmlns="http://www.w3.org/2000/svg">
<ellipse opacity="0.1" cx="43.4191" cy="43.6483" rx="42.8951" ry="42.7059" fill="#34CCA9"/>
<path d="M26.2678 55.3089V36.1357C26.3806 36.1357 26.4925 36.1429 26.6053 36.1429H60.2375C60.3502 36.1429 60.463 36.1384 60.5749 36.1357C60.5749 42.5483 60.5749 48.9615 60.5749 55.3753C60.2438 56.1317 59.6212 56.2593 58.8606 56.2575C48.5242 56.2437 38.188 56.2437 27.8522 56.2575C27.0916 56.2602 26.5556 56.0266 26.2678 55.3089ZM58.0783 54.7555L58.1343 54.7025C58.1343 54.6576 58.1442 54.6127 58.1442 54.5687C58.1442 51.6684 58.1442 48.7681 58.1442 45.8678C58.1405 45.7929 58.1324 45.7182 58.1198 45.6442H47.538V47.0437C47.5416 49.5966 47.5455 52.1496 47.5497 54.7025L47.6075 54.7555C48.8309 54.7555 50.0544 54.7663 51.277 54.7654C53.5447 54.7648 55.8118 54.7615 58.0783 54.7555ZM28.7283 38.1255V54.7438H36.5077V38.1255H28.7283ZM38.1174 54.7438H45.8995V38.1524H38.1174V54.7438ZM58.1261 38.1326H47.5696V44.0542H58.1261V38.1326Z" fill="#434396"/>
<path d="M60.5722 36.1359C60.4604 36.1359 60.3476 36.1431 60.2348 36.1431H26.608C26.4952 36.1431 26.3833 36.1386 26.2706 36.1359C26.2706 34.7885 26.2814 33.4465 26.2615 32.1026C26.2556 31.9388 26.2828 31.7755 26.3416 31.6224C26.4004 31.4693 26.4895 31.3295 26.6037 31.2114C26.7178 31.0934 26.8547 30.9993 27.0061 30.935C27.1575 30.8706 27.3204 30.8373 27.485 30.8369C27.5527 30.8369 27.6204 30.8369 27.688 30.8369C38.1634 30.8369 48.6391 30.8369 59.1151 30.8369C59.6808 30.8369 60.1599 31.0058 60.4188 31.5349C60.5196 31.7561 60.5716 31.9962 60.5713 32.2391C60.5822 33.5363 60.574 34.8361 60.5722 36.1359ZM53.9577 33.5614C53.9577 33.2147 53.7348 32.9793 53.4046 32.9838C53.1059 32.9838 52.8109 33.2704 52.81 33.5533C52.81 33.8228 53.0942 34.1184 53.3586 34.1265C53.7213 34.1363 53.955 33.9163 53.9577 33.5614ZM54.9033 33.5264C54.9033 33.8767 55.1207 34.122 55.4347 34.1247C55.7487 34.1274 56.0555 33.8453 56.051 33.5471C56.0464 33.2776 55.7595 32.9946 55.4861 32.9847C55.4111 32.9776 55.3354 32.9864 55.264 33.0105C55.1927 33.0347 55.1273 33.0737 55.0722 33.1249C55.0171 33.1761 54.9735 33.2384 54.9444 33.3076C54.9153 33.3768 54.9013 33.4514 54.9033 33.5264ZM56.9974 33.5641C56.9974 33.901 57.2113 34.1229 57.5298 34.1256C57.6824 34.123 57.8286 34.0646 57.9408 33.9616C58.0529 33.8585 58.1231 33.718 58.1379 33.5668C58.1478 33.2677 57.8302 32.9713 57.5162 32.9865C57.2022 33.0018 56.9938 33.2219 56.9974 33.5641Z" fill="#39398C"/>
<path d="M28.7285 38.1255H36.5079V54.7439H28.7285V38.1255Z" fill="#34CCA9"/>
<path d="M38.1172 54.7366V38.1523H45.8993V54.7366H38.1172Z" fill="#34CCA9"/>
<path d="M47.5496 54.7029C47.546 52.15 47.5421 49.597 47.5378 47.0441V45.6445H58.1188C58.1314 45.7185 58.1395 45.7932 58.1431 45.8682C58.1431 48.7691 58.1431 51.6694 58.1431 54.5691C58.1431 54.614 58.1359 54.6589 58.1332 54.7029L58.0773 54.7559C55.8102 54.7595 53.5431 54.7628 51.276 54.7658C50.0534 54.7658 48.8299 54.7595 47.6064 54.7559L47.5496 54.7029Z" fill="#34CCA9"/>
<path d="M58.1259 38.1328V44.0543H47.5693V38.1328H58.1259Z" fill="#34CCA9"/>
<path d="M47.5498 54.7026L47.6079 54.7562L47.5498 54.7026Z" fill="#EF8379"/>
<path d="M58.0781 54.7562L58.1344 54.7026L58.0781 54.7562Z" fill="#EF8379"/>
<path d="M53.9578 33.5616C53.9578 33.9164 53.7214 34.1365 53.3586 34.1266C53.0943 34.1185 52.8092 33.8212 52.8101 33.5535C52.8101 33.2705 53.106 32.9875 53.4047 32.9839C53.7349 32.9795 53.9605 33.2148 53.9578 33.5616Z" fill="#5AC6AD"/>
<path d="M54.9037 33.5262C54.9021 33.4514 54.9164 33.3772 54.9457 33.3083C54.975 33.2394 55.0186 33.1774 55.0736 33.1265C55.1287 33.0756 55.1939 33.0369 55.2651 33.0129C55.3363 32.9889 55.4118 32.9801 55.4866 32.9873C55.7572 32.9971 56.0469 33.2828 56.0514 33.5496C56.0514 33.8478 55.7545 34.1308 55.4351 34.1272C55.1157 34.1236 54.9037 33.8766 54.9037 33.5262Z" fill="#F9D884"/>
<path d="M56.9971 33.5641C56.9971 33.2218 57.1902 33.0026 57.5159 32.9865C57.8416 32.9703 58.1475 33.2676 58.1375 33.5668C58.1227 33.718 58.0526 33.8585 57.9404 33.9615C57.8283 34.0645 57.682 34.1229 57.5294 34.1255C57.2109 34.1228 57.0007 33.9036 56.9971 33.5641Z" fill="#EF786B"/>
</svg>
