<svg width="34" height="38" viewBox="0 0 34 38" fill="none" xmlns="http://www.w3.org/2000/svg">
<circle cx="21.8926" cy="12.1348" r="11.25" fill="white" fill-opacity="0.2"/>
<path d="M13.8576 22.4202C16.5204 22.4202 18.679 20.2616 18.679 17.5988C18.679 14.936 16.5204 12.7773 13.8576 12.7773C11.1948 12.7773 9.03613 14.936 9.03613 17.5988C9.03613 20.2616 11.1948 22.4202 13.8576 22.4202Z" stroke="#F8F8F8" stroke-width="1.5" stroke-linecap="round" stroke-linejoin="round"/>
<path d="M13.8571 4.7417C10.4472 4.7417 7.17695 6.09629 4.76577 8.50747C2.35459 10.9187 1 14.1889 1 17.5988C1 20.6396 1.64607 22.6292 3.41071 24.831L13.8571 36.8846L24.3036 24.831C26.0682 22.6292 26.7143 20.6396 26.7143 17.5988C26.7143 14.1889 25.3597 10.9187 22.9485 8.50747C20.5373 6.09629 17.2671 4.7417 13.8571 4.7417V4.7417Z" stroke="#F8F8F8" stroke-width="1.5" stroke-linecap="round" stroke-linejoin="round"/>
</svg>
