<svg width="40" height="38" viewBox="0 0 40 38" fill="none" xmlns="http://www.w3.org/2000/svg">
<circle cx="29.0079" cy="11.0694" r="10.1847" fill="#F6F5FC" fill-opacity="0.2"/>
<path d="M9.84085 16.9928V13.0144C9.84085 10.3628 11.2554 5.05762 16.9135 5.05762C22.5717 5.05762 23.9862 10.3628 23.9862 13.0144V16.9928M1 16.9928H2.76817H1ZM32.8271 16.9928H31.0589H32.8271ZM31.0589 16.9928L29.2907 36.8847H4.53634L2.76817 16.9928H31.0589ZM31.0589 16.9928H23.9862H31.0589ZM2.76817 16.9928H9.84085H2.76817ZM16.9135 24.9495V28.9279V24.9495ZM22.218 24.9495V28.9279V24.9495ZM11.609 24.9495V28.9279V24.9495ZM9.84085 16.9928H23.9862H9.84085Z" stroke="#F8F8F8" stroke-width="1.5" stroke-linecap="round" stroke-linejoin="round"/>
</svg>
