<svg width="51" height="57" viewBox="0 0 51 57" fill="none" xmlns="http://www.w3.org/2000/svg">
<circle cx="33.5" cy="17.5" r="17.5" fill="#D3CFF2" fill-opacity="0.2"/>
<path d="M20.7781 45.8809C23.6111 45.8809 25.9076 43.5655 25.9076 40.7093C25.9076 37.853 23.6111 35.5376 20.7781 35.5376C17.9451 35.5376 15.6486 37.853 15.6486 40.7093C15.6486 43.5655 17.9451 45.8809 20.7781 45.8809Z" stroke="#434396" stroke-width="1.5" stroke-linecap="round" stroke-linejoin="round"/>
<path d="M7.76352 24.9239V19.3343C7.76352 15.7978 9.15693 12.4062 11.6372 9.90552C14.1175 7.40486 17.4815 6 20.9892 6C24.4969 6 27.8609 7.40486 30.3412 9.90552M3.41472 24.9239H38.5865C39.2269 24.9246 39.8407 25.1815 40.2933 25.6382C40.7458 26.095 41 26.7141 41 27.3597V53.5642C41 54.21 40.7456 54.8293 40.2928 55.2861C39.84 55.7429 39.2258 55.9997 38.5853 56H3.416C2.77523 56 2.16072 55.7434 1.70763 55.2866C1.25454 54.8298 1 54.2102 1 53.5642V27.3597C1 26.7137 1.25454 26.0941 1.70763 25.6373C2.16072 25.1805 2.77396 24.9239 3.41472 24.9239Z" stroke="#434396" stroke-width="1.5" stroke-linecap="round" stroke-linejoin="round"/>
</svg>
