<svg width="61" height="53" viewBox="0 0 61 53" fill="none" xmlns="http://www.w3.org/2000/svg">
<ellipse cx="43.5" cy="18.2224" rx="17.5" ry="17.3977" fill="white" fill-opacity="0.2"/>
<path d="M5.49976 41.6287V46.7312C5.49976 49.4776 7.79322 51.702 10.6248 51.702H41.3752C44.2068 51.702 46.5002 49.4776 46.5002 46.7312V26.2119" stroke="white" stroke-width="1.5" stroke-linecap="round" stroke-linejoin="round"/>
<path d="M5.49976 32.9301V11.9361C5.49976 9.18975 7.79322 6.96533 10.6248 6.96533H41.3752C44.2068 6.96533 46.5002 9.18975 46.5002 11.9361V17.5133" stroke="white" stroke-width="1.5" stroke-linecap="round" stroke-linejoin="round"/>
<path d="M8.65533 34.2046C10.4066 35.9031 10.4066 38.657 8.65533 40.3556C6.90405 42.0541 4.06466 42.0541 2.3134 40.3556C0.562119 38.657 0.562119 35.9031 2.3134 34.2046C4.06468 32.506 6.90407 32.506 8.65533 34.2046" stroke="white" stroke-width="1.5" stroke-linecap="round" stroke-linejoin="round"/>
<path d="M28.4318 36.782C28.4318 34.3812 30.4383 32.4326 32.9162 32.4326C35.3942 32.4326 37.4007 34.3787 37.4007 36.782C37.4007 39.1854 35.3942 41.1315 32.9162 41.1315C30.4485 41.1414 28.4421 39.2103 28.4318 36.8168C28.4318 36.8044 28.4318 36.7945 28.4318 36.782Z" stroke="white" stroke-width="1.5" stroke-linecap="round" stroke-linejoin="round"/>
<path d="M22.4775 18.7871C24.2287 20.4857 24.2287 23.2396 22.4775 24.9381C20.7262 26.6366 17.8868 26.6366 16.1355 24.9381C14.3843 23.2395 14.3843 20.4856 16.1355 18.7871C17.8868 17.0885 20.7262 17.0885 22.4775 18.7871" stroke="white" stroke-width="1.5" stroke-linecap="round" stroke-linejoin="round"/>
<path d="M49.6865 18.7871C51.4378 20.4857 51.4378 23.2396 49.6865 24.9381C47.9352 26.6366 45.0958 26.6366 43.3446 24.9381C41.5933 23.2395 41.5933 20.4856 43.3446 18.7871C45.0959 17.0885 47.9353 17.0885 49.6865 18.7871" stroke="white" stroke-width="1.5" stroke-linecap="round" stroke-linejoin="round"/>
<path d="M43.3995 24.9839L35.9682 33.6082" stroke="white" stroke-width="1.5" stroke-linecap="round" stroke-linejoin="round"/>
<path d="M8.5235 34.0805L16.2623 25.0337" stroke="white" stroke-width="1.5" stroke-linecap="round" stroke-linejoin="round"/>
<path d="M29.8694 33.6083L22.3611 25.0337" stroke="white" stroke-width="1.5" stroke-linecap="round" stroke-linejoin="round"/>
</svg>
