<svg width="51" height="57" viewBox="0 0 51 57" fill="none" xmlns="http://www.w3.org/2000/svg">
<circle cx="33.5" cy="17.5" r="17.5" fill="white" fill-opacity="0.2"/>
<path d="M20.9998 33.5C25.142 33.5 28.4998 30.1421 28.4998 26C28.4998 21.8579 25.142 18.5 20.9998 18.5C16.8577 18.5 13.4998 21.8579 13.4998 26C13.4998 30.1421 16.8577 33.5 20.9998 33.5Z" stroke="#F8F8F8" stroke-width="1.5" stroke-linecap="round" stroke-linejoin="round"/>
<path d="M20.9999 6C15.6956 6 10.6085 8.10714 6.8578 11.8579C3.10708 15.6086 0.999939 20.6957 0.999939 26C0.999939 30.73 2.00494 33.825 4.74994 37.25L20.9999 56L37.2499 37.25C39.9949 33.825 40.9999 30.73 40.9999 26C40.9999 20.6957 38.8928 15.6086 35.1421 11.8579C31.3913 8.10714 26.3043 6 20.9999 6V6Z" stroke="#F8F8F8" stroke-width="1.5" stroke-linecap="round" stroke-linejoin="round"/>
</svg>
