<svg width="61" height="58" viewBox="0 0 61 58" fill="none" xmlns="http://www.w3.org/2000/svg">
<circle cx="45" cy="16" r="16" fill="#F6F5FC" fill-opacity="0.2"/>
<path d="M14.8889 25.3057V19.0557C14.8889 14.89 17.1111 6.55566 26 6.55566C34.8889 6.55566 37.1111 14.89 37.1111 19.0557V25.3057M1 25.3057H3.77778H1ZM51 25.3057H48.2222H51ZM48.2222 25.3057L45.4444 56.5557H6.55556L3.77778 25.3057H48.2222ZM48.2222 25.3057H37.1111H48.2222ZM3.77778 25.3057H14.8889H3.77778ZM26 37.8057V44.0557V37.8057ZM34.3333 37.8057V44.0557V37.8057ZM17.6667 37.8057V44.0557V37.8057ZM14.8889 25.3057H37.1111H14.8889Z" stroke="#F8F8F8" stroke-width="1.5" stroke-linecap="round" stroke-linejoin="round"/>
</svg>
