<svg width="43" height="38" viewBox="0 0 43 38" fill="none" xmlns="http://www.w3.org/2000/svg">
<circle cx="30.1024" cy="12.868" r="11.9832" fill="white" fill-opacity="0.2"/>
<path d="M4.08105 29.7312V33.3548C4.08105 35.3052 5.65152 36.8849 7.59048 36.8849H28.647C30.586 36.8849 32.1564 35.3052 32.1564 33.3548V18.7827" stroke="white" stroke-width="1.5" stroke-linecap="round" stroke-linejoin="round"/>
<path d="M4.08105 23.5536V8.64432C4.08105 6.69396 5.65152 5.11426 7.59048 5.11426H28.647C30.586 5.11426 32.1564 6.69396 32.1564 8.64432V12.6051" stroke="white" stroke-width="1.5" stroke-linecap="round" stroke-linejoin="round"/>
<path d="M6.24208 24.4589C7.44128 25.6651 7.44128 27.6209 6.24208 28.8271C5.04288 30.0334 3.09859 30.0334 1.8994 28.8271C0.7002 27.6209 0.7002 25.6651 1.8994 24.4589C3.0986 23.2526 5.04289 23.2526 6.24208 24.4589" stroke="white" stroke-width="1.5" stroke-linecap="round" stroke-linejoin="round"/>
<path d="M19.7844 26.2895C19.7844 24.5845 21.1584 23.2007 22.8552 23.2007C24.552 23.2007 25.9259 24.5827 25.9259 26.2895C25.9259 27.9963 24.552 29.3783 22.8552 29.3783C21.1654 29.3854 19.7914 28.0139 19.7844 26.3142C19.7844 26.3054 19.7844 26.2983 19.7844 26.2895Z" stroke="white" stroke-width="1.5" stroke-linecap="round" stroke-linejoin="round"/>
<path d="M15.7069 13.5097C16.9061 14.7159 16.9061 16.6717 15.7069 17.8779C14.5077 19.0841 12.5634 19.0841 11.3642 17.8779C10.165 16.6716 10.165 14.7159 11.3642 13.5097C12.5634 12.3034 14.5077 12.3034 15.7069 13.5097" stroke="white" stroke-width="1.5" stroke-linecap="round" stroke-linejoin="round"/>
<path d="M34.3388 13.5097C35.538 14.7159 35.538 16.6717 34.3388 17.8779C33.1396 19.0841 31.1953 19.0841 29.9961 17.8779C28.7969 16.6716 28.7969 14.7159 29.9961 13.5097C31.1953 12.3034 33.1396 12.3034 34.3388 13.5097" stroke="white" stroke-width="1.5" stroke-linecap="round" stroke-linejoin="round"/>
<path d="M30.0337 17.9106L24.9451 24.0353" stroke="white" stroke-width="1.5" stroke-linecap="round" stroke-linejoin="round"/>
<path d="M6.15137 24.3705L11.4506 17.9458" stroke="white" stroke-width="1.5" stroke-linecap="round" stroke-linejoin="round"/>
<path d="M20.7692 24.0352L15.6279 17.9458" stroke="white" stroke-width="1.5" stroke-linecap="round" stroke-linejoin="round"/>
</svg>
