<svg width="34" height="38" viewBox="0 0 34 38" fill="none" xmlns="http://www.w3.org/2000/svg">
<circle cx="21.8926" cy="12.1348" r="11.25" fill="#D3CFF2" fill-opacity="0.2"/>
<path d="M13.7143 30.3793C15.5355 30.3793 17.0119 28.8908 17.0119 27.0546C17.0119 25.2185 15.5355 23.73 13.7143 23.73C11.8931 23.73 10.4167 25.2185 10.4167 27.0546C10.4167 28.8908 11.8931 30.3793 13.7143 30.3793Z" stroke="#434396" stroke-width="1.5" stroke-linecap="round" stroke-linejoin="round"/>
<path d="M5.34798 16.907V13.3137C5.34798 11.0403 6.24374 8.85996 7.83822 7.25239C9.43269 5.64482 11.5953 4.7417 13.8502 4.7417C16.1051 4.7417 18.2677 5.64482 19.8622 7.25239M2.55232 16.907H25.1628C25.5744 16.9075 25.969 17.0727 26.26 17.3663C26.5509 17.6599 26.7143 18.0579 26.7143 18.4729V35.3187C26.7143 35.7338 26.5508 36.132 26.2597 36.4256C25.9686 36.7193 25.5737 36.8843 25.162 36.8846H2.55314C2.14122 36.8846 1.74618 36.7196 1.4549 36.4259C1.16363 36.1323 1 35.734 1 35.3187V18.4729C1 18.0576 1.16363 17.6593 1.4549 17.3657C1.74618 17.072 2.1404 16.907 2.55232 16.907Z" stroke="#434396" stroke-width="1.5" stroke-linecap="round" stroke-linejoin="round"/>
</svg>
