<svg width="1440" height="667" viewBox="0 0 1440 667" fill="none" xmlns="http://www.w3.org/2000/svg">
<g opacity="0.6">
<path d="M143.664 489.878C115.154 449.161 59.035 439.266 18.3194 467.776C-22.3974 496.286 -32.2933 552.405 -3.78297 593.122C24.7274 633.839 80.8464 643.733 121.563 615.223C162.279 586.714 172.175 530.595 143.664 489.878Z" fill="#F6F7F8"/>
<path d="M101.979 515.264C99.1674 511.249 93.6356 510.274 89.6212 513.085L79.3185 520.299C77.0815 510.77 73.0247 504.514 71.6365 502.572C71.4838 502.359 70.999 501.564 70.8808 501.395L70.6437 501.056C65.4771 494.137 61.7968 493.489 58.2952 494.405C55.4441 496.401 54.7503 500.329 56.7463 503.18L57.1078 503.696C58.3171 505.483 58.3869 510.868 58.3869 510.868L52.8595 543.285L52.8148 543.901L57.8393 563.338L80.3225 583.186C80.8297 583.911 81.8274 584.086 82.5509 583.579L118.209 558.611C120.635 556.912 121.459 553.7 120.146 551.045C115.129 540.895 103.451 517.366 101.979 515.264V515.264Z" fill="#291A7A"/>
<path d="M79.1659 590.289L66.1877 599.377C63.9161 600.967 60.7848 600.416 59.1937 598.143L31.9145 559.185C30.3234 556.912 30.8765 553.782 33.1481 552.192L46.1263 543.104C48.3979 541.514 51.5284 542.064 53.1195 544.337L80.3987 583.295C81.9898 585.568 81.4375 588.699 79.1659 590.289Z" fill="white"/>
<path d="M73.74 582.539L60.7618 591.627C58.4902 593.217 55.359 592.665 53.7678 590.393L59.1942 598.143C60.7853 600.415 63.9166 600.967 66.1882 599.376L79.1664 590.289C81.438 588.698 81.9904 585.567 80.3992 583.295L74.9728 575.545C76.564 577.818 76.0116 580.949 73.74 582.539V582.539Z" fill="#DDDDE8"/>
</g>
<path d="M1504.78 412.161H1309.3C1306.92 412.161 1305 414.005 1305 416.28V489.289C1305 491.564 1306.92 493.409 1309.3 493.409H1504.78C1507.15 493.409 1509.08 491.564 1509.08 489.289V416.28C1509.08 414.005 1507.15 412.161 1504.78 412.161Z" fill="#434396"/>
<path d="M1337.69 428.411C1332.34 428.411 1328 432.571 1328 437.696C1328 442.822 1332.34 446.982 1337.69 446.982C1343.03 446.982 1347.37 442.822 1347.37 437.696C1347.37 432.571 1343.03 428.411 1337.69 428.411ZM1335.75 442.339L1330.91 437.696L1332.27 436.387L1335.75 439.711L1343.1 432.663L1344.47 433.982L1335.75 442.339Z" fill="#34CCA9"/>
<path d="M1337.69 456.847C1332.34 456.847 1328 461.007 1328 466.133C1328 471.258 1332.34 475.418 1337.69 475.418C1343.03 475.418 1347.37 471.258 1347.37 466.133C1347.37 461.007 1343.03 456.847 1337.69 456.847ZM1335.75 470.775L1330.91 466.133L1332.27 464.823L1335.75 468.148L1343.1 461.1L1344.47 462.418L1335.75 470.775Z" fill="#34CCA9"/>
<path d="M1423.2 432.129H1356.91V435.652H1423.2V432.129Z" fill="#34CCA9"/>
<path d="M1485.85 440.133H1356.91V443.655H1485.85V440.133Z" fill="white"/>
<path d="M1390.76 460.166H1356.91V463.688H1390.76V460.166Z" fill="#34CCA9"/>
<path d="M1485.85 468.186H1356.91V471.708H1485.85V468.186Z" fill="white"/>
<path d="M1537.01 499.752H1341.53C1339.15 499.752 1337.23 501.596 1337.23 503.872V576.88C1337.23 579.155 1339.15 581 1341.53 581H1537.01C1539.38 581 1541.31 579.155 1541.31 576.88V503.872C1541.31 501.596 1539.38 499.752 1537.01 499.752Z" fill="url(#paint0_linear_4372_22870)"/>
<path d="M1379.63 525.43C1379.63 527.234 1379.07 528.997 1378.02 530.497C1376.98 531.996 1375.49 533.165 1373.76 533.856C1372.02 534.546 1370.1 534.727 1368.26 534.375C1366.41 534.023 1364.72 533.154 1363.39 531.879C1362.06 530.603 1361.15 528.978 1360.79 527.209C1360.42 525.44 1360.61 523.606 1361.33 521.94C1362.05 520.273 1363.27 518.849 1364.83 517.847C1366.39 516.844 1368.23 516.31 1370.12 516.31C1371.36 516.31 1372.6 516.545 1373.76 517.004C1374.91 517.462 1375.96 518.134 1376.84 518.981C1377.72 519.828 1378.43 520.833 1378.9 521.94C1379.38 523.046 1379.63 524.232 1379.63 525.43V525.43Z" fill="#DDDDE8"/>
<path d="M1455.43 519.14H1389.14V522.662H1455.43V519.14Z" fill="#DDDDE8"/>
<path d="M1518.08 527.144H1389.14V530.666H1518.08V527.144Z" fill="#DDDDE8"/>
<path opacity="0.12" d="M1379.63 553.467C1379.63 555.271 1379.07 557.034 1378.02 558.534C1376.98 560.034 1375.49 561.202 1373.76 561.893C1372.02 562.583 1370.1 562.764 1368.26 562.412C1366.41 562.06 1364.72 561.191 1363.39 559.916C1362.06 558.64 1361.15 557.015 1360.79 555.246C1360.42 553.477 1360.61 551.643 1361.33 549.977C1362.05 548.31 1363.27 546.886 1364.83 545.884C1366.39 544.882 1368.23 544.347 1370.12 544.347C1372.64 544.351 1375.05 545.313 1376.84 547.023C1378.62 548.732 1379.62 551.049 1379.63 553.467V553.467Z" fill="#DDDDE8"/>
<path opacity="0.12" d="M1422.99 547.177H1389.14V550.699H1422.99V547.177Z" fill="#DDDDE8"/>
<path opacity="0.12" d="M1518.08 555.196H1389.14V558.719H1518.08V555.196Z" fill="#7D7D82"/>
<g opacity="0.6">
<path d="M1305.76 82.4642C1326.77 37.415 1380.32 17.9258 1425.36 38.9318C1470.41 59.9385 1489.9 113.486 1468.9 158.535C1447.89 203.585 1394.34 223.074 1349.29 202.067C1304.25 181.061 1284.75 127.513 1305.76 82.4642Z" fill="#F6F7F8"/>
<path d="M1351.22 100.225C1353.29 95.7832 1358.57 93.8625 1363.01 95.9336L1374.41 101.249C1374.96 91.4767 1377.87 84.6113 1378.9 82.458C1379.01 82.2215 1379.35 81.3539 1379.44 81.1672L1379.61 80.7926C1383.5 73.0816 1387.01 71.8037 1390.62 72.098C1393.77 73.5689 1395.14 77.3164 1393.67 80.4703L1393.4 81.0416C1392.52 83.0114 1393.39 88.3263 1393.39 88.3263L1404.46 119.291L1404.61 119.891L1403.04 139.904L1384.34 163.355C1383.97 164.157 1383.02 164.502 1382.22 164.129L1342.77 145.732C1340.08 144.481 1338.71 141.46 1339.54 138.617C1342.72 127.751 1350.14 102.551 1351.22 100.225V100.225Z" fill="#34CCA9"/>
<path d="M1386.72 170.151L1401.08 176.846C1403.59 178.018 1406.58 176.931 1407.75 174.417L1427.85 131.313C1429.02 128.799 1427.93 125.812 1425.42 124.64L1411.06 117.945C1408.55 116.773 1405.56 117.859 1404.39 120.373L1384.29 163.477C1383.12 165.991 1384.2 168.979 1386.72 170.151Z" fill="white"/>
<path d="M1390.71 161.576L1405.07 168.272C1407.59 169.444 1410.57 168.356 1411.75 165.842L1407.75 174.417C1406.58 176.931 1403.59 178.018 1401.07 176.846L1386.72 170.15C1384.2 168.978 1383.11 165.991 1384.29 163.476L1388.29 154.902C1387.11 157.416 1388.2 160.404 1390.71 161.576V161.576Z" fill="#DDDDE8"/>
</g>
<defs>
<linearGradient id="paint0_linear_4372_22870" x1="1439.27" y1="499.752" x2="1439.27" y2="581" gradientUnits="userSpaceOnUse">
<stop stop-color="#F3F4F8"/>
<stop offset="1" stop-color="#F3F4F8" stop-opacity="0"/>
</linearGradient>
</defs>
</svg>
