<svg width="40" height="72" viewBox="0 0 40 72" fill="none" xmlns="http://www.w3.org/2000/svg">
<path fill-rule="evenodd" clip-rule="evenodd" d="M2 40.3314C2 39.7767 2.44772 39.327 3 39.327H23C23.5523 39.327 24 39.7767 24 40.3314V48.2773C23.9974 48.3067 23.9961 48.3365 23.9961 48.3666C23.9961 48.3968 23.9974 48.4266 24 48.456V54.3921C24 54.9467 23.5523 55.3964 23 55.3964H11C10.7348 55.3964 10.4804 55.5022 10.2929 55.6906L8 57.9934V56.4007C8 55.846 7.55228 55.3964 7 55.3964H3C2.44772 55.3964 2 54.9467 2 54.3921V40.3314ZM26 49.371V54.3921C26 56.0561 24.6569 57.4051 23 57.4051H16V64.436C16 64.9907 16.4477 65.4403 17 65.4403H31.0579C31.3256 65.4403 31.5822 65.5482 31.7701 65.7397L34 68.0121V66.4447C34 65.89 34.4477 65.4403 35 65.4403H37C37.5523 65.4403 38 64.9907 38 64.436V50.3753C38 49.8206 37.5523 49.371 37 49.371H26ZM14 57.4051H11.4142L7.70711 61.1282C7.42111 61.4155 6.99099 61.5014 6.61732 61.3459C6.24364 61.1905 6 60.8243 6 60.4181V57.4051H3C1.34315 57.4051 0 56.0561 0 54.3921V40.3314C0 38.6673 1.34315 37.3184 3 37.3184H23C24.6569 37.3184 26 38.6673 26 40.3314V47.3623H37C38.6569 47.3623 40 48.7113 40 50.3753V64.436C40 66.1 38.6569 67.449 37 67.449H36V70.462C36 70.8696 35.7548 71.2367 35.3793 71.3913C35.0039 71.5459 34.5726 71.4573 34.2878 71.167L30.6394 67.449H17C15.3431 67.449 14 66.1 14 64.436V57.4051Z" fill="#A9A3CA"/>
</svg>
