<svg width="15" height="14" viewBox="0 0 15 14" fill="none" xmlns="http://www.w3.org/2000/svg">
<path d="M12.3225 9.91699C12.3225 10.5616 11.4084 11.0837 10.2808 11.0837C9.15325 11.0837 8.23975 10.561 8.23975 9.91699" stroke="#7D7D82" stroke-width="0.610083" stroke-linecap="round" stroke-linejoin="round"/>
<path d="M8.23975 8.16699C8.23975 8.81158 9.15383 9.33366 10.2814 9.33366C11.409 9.33366 12.3231 8.81158 12.3231 8.16699" stroke="#7D7D82" stroke-width="0.610083" stroke-linecap="round" stroke-linejoin="round"/>
<path d="M8.23975 8.16691C8.24033 7.52291 9.15441 7.00024 10.2814 7.00024C11.4084 7.00024 12.3231 7.52233 12.3225 8.16691V11.6669C12.3225 12.3115 11.4084 12.8336 10.2808 12.8336C9.15325 12.8336 8.23975 12.3109 8.23975 11.6669V8.16691V8.16691Z" stroke="#7D7D82" stroke-width="0.610083" stroke-linecap="round" stroke-linejoin="round"/>
<path d="M3.573 6.125H4.73894" stroke="#7D7D82" stroke-width="0.610083" stroke-linecap="round" stroke-linejoin="round"/>
<path d="M5.323 7.58341H2.98966C2.34508 7.58341 1.823 7.06133 1.823 6.41675V2.33341C1.823 1.68883 2.34508 1.16675 2.98966 1.16675H5.323C5.96758 1.16675 6.48966 1.68883 6.48966 2.33341V6.41675C6.48966 7.06133 5.96758 7.58341 5.323 7.58341Z" stroke="#7D7D82" stroke-width="0.610083" stroke-linecap="round" stroke-linejoin="round"/>
<path d="M5.90625 12.2503H3.40608C2.85425 12.2503 2.40625 11.8023 2.40625 11.2505V9.91699" stroke="#7D7D82" stroke-width="0.610083" stroke-linecap="round" stroke-linejoin="round"/>
<path d="M8.823 1.75049H10.7398C11.2917 1.75049 11.7397 2.19849 11.7397 2.75032V4.66715" stroke="#7D7D82" stroke-width="0.610083" stroke-linecap="round" stroke-linejoin="round"/>
</svg>
