<svg width="36" height="37" viewBox="0 0 36 37" fill="none" xmlns="http://www.w3.org/2000/svg">
<path d="M36 18.8848C36 8.94351 27.9411 0.884766 18.0001 0.884766C8.05894 0.884766 0 8.94351 0 18.8848C0 28.826 8.05894 36.8848 18.0001 36.8848C27.9411 36.8848 36 28.826 36 18.8848Z" fill="#434396"/>
<path d="M26.2589 18.2619C26.2589 17.2817 25.4644 16.4874 24.4843 16.4874H21.9689C22.6954 14.6697 22.7485 13.1794 22.7438 12.702C22.7432 12.6496 22.7551 12.4636 22.7551 12.4224V12.3398C22.7023 10.6135 22.1738 10.0851 21.495 9.8335C20.7989 9.8335 20.2347 10.3974 20.2347 11.0934V11.2194C20.2278 11.6509 19.6215 12.5411 19.6215 12.5411L14.9972 17.218L14.9192 17.3138L13.5127 21.0744L14.9192 26.9054C14.9192 27.0823 15.0626 27.2254 15.2392 27.2254H23.9453C24.5376 27.2254 25.0411 26.7936 25.1307 26.2081C25.473 23.9696 26.2589 18.7753 26.2589 18.2619Z" fill="white"/>
<path d="M13.9142 27.9361H10.7455C10.1909 27.9361 9.74121 27.4865 9.74121 26.9316V17.4197C9.74121 16.8649 10.1909 16.4155 10.7455 16.4155H13.9142C14.4688 16.4155 14.9185 16.8649 14.9185 17.4197V26.9316C14.9185 27.4865 14.4688 27.9361 13.9142 27.9361Z" fill="#34CCA9"/>
<path d="M13.9142 26.0445H10.7455C10.1909 26.0445 9.74121 25.5948 9.74121 25.04V26.9322C9.74121 27.487 10.1909 27.9366 10.7455 27.9366H13.9142C14.4688 27.9366 14.9185 27.487 14.9185 26.9322V25.04C14.9185 25.5948 14.4688 26.0445 13.9142 26.0445Z" fill="#25BD9A"/>
</svg>
