<svg width="32" height="33" viewBox="0 0 32 33" fill="none" xmlns="http://www.w3.org/2000/svg">
<circle cx="16.0002" cy="16.4033" r="16" fill="#3E2FB7"/>
<g clip-path="url(#clip0_4395_4246)">
<path d="M11.0226 9.11426C10.0602 9.11426 9.43091 9.74623 9.43091 10.5769C9.43091 11.3892 10.0414 12.0392 10.9857 12.0392H11.0039C11.9852 12.0392 12.5958 11.3892 12.5958 10.5769C12.5775 9.74623 11.9852 9.11426 11.0226 9.11426Z" fill="white"/>
<path d="M9.59717 13.1953H12.4107V21.6601H9.59717V13.1953Z" fill="white"/>
<path d="M19.3168 12.9961C17.799 12.9961 16.7812 14.4224 16.7812 14.4224V13.1948H13.9675V21.6595H16.781V16.9325C16.781 16.6794 16.7994 16.4268 16.8737 16.2458C17.0771 15.7405 17.54 15.2169 18.3173 15.2169C19.3354 15.2169 19.7426 15.9932 19.7426 17.1311V21.6595H22.5559V16.806C22.5559 14.206 21.1678 12.9961 19.3168 12.9961Z" fill="white"/>
</g>
<defs>
<clipPath id="clip0_4395_4246">
<rect width="14" height="14" fill="white" transform="translate(9.00024 8.40332)"/>
</clipPath>
</defs>
</svg>
