<svg width="161" height="37" viewBox="0 0 161 37" fill="none" xmlns="http://www.w3.org/2000/svg">
<path opacity="0.396508" fill-rule="evenodd" clip-rule="evenodd" d="M9.72414 18.2577L6.64917 19.9858L5.18131 19.387L1.75879 16.5521L9.72414 12.0752C9.82518 12.0206 9.93984 11.993 10.0547 11.993C10.1696 11.993 10.2843 12.0206 10.3853 12.0752L18.306 16.5302L14.5641 19.7063L13.4878 20.0026L10.3853 18.2577C10.2843 18.2028 10.1696 18.1755 10.0547 18.1755C9.93984 18.1755 9.82518 18.2028 9.72414 18.2577ZM11.2498 9.35328L8.40223 8.85175L1.75879 4.73609L9.72414 0.259396C9.82518 0.204552 9.93984 0.177246 10.0547 0.177246C10.1696 0.177246 10.2843 0.204552 10.3853 0.259396L18.306 4.71439L15.731 7.30094L11.2498 9.35328ZM8.44905 33.6621L1.75879 28.9171L1.83714 28.8732L9.72414 24.4401C9.82518 24.3855 9.93984 24.358 10.0547 24.358C10.1696 24.358 10.2843 24.3855 10.3853 24.4401L18.306 28.8951L16.5245 30.7888L13.0236 33.0694L8.44905 33.6621Z" fill="url(#paint0_linear_4429_22828)"/>
<path fill-rule="evenodd" clip-rule="evenodd" d="M0.943359 18.2242V17.7868C0.971236 17.574 1.04034 17.3629 1.15356 17.1652C1.31026 16.9024 1.51187 16.7055 1.75838 16.5524L1.83673 16.5085C2.35221 16.2457 2.99071 16.2347 3.52865 16.5412L8.1331 19.1247L9.34703 19.8071C9.78846 20.0554 10.3314 20.0554 10.7728 19.8071L16.5802 16.5412C17.1404 16.2238 17.7901 16.2457 18.3056 16.5304C18.5631 16.6725 18.7872 16.8915 18.9553 17.1652C19.3363 17.811 19.2353 18.5991 18.7649 19.1247C18.6417 19.2558 18.4848 19.3763 18.3168 19.4747L11.113 23.5356C10.7881 23.7108 10.4184 23.8093 10.0601 23.8093C9.69029 23.8093 9.33174 23.7108 9.00688 23.5356L1.79182 19.4747C1.6239 19.3763 1.4672 19.2558 1.35517 19.1247C1.12771 18.8706 0.986645 18.5552 0.943359 18.2242V18.2242ZM0.943359 6.40828V5.9709C0.971236 5.75809 1.04034 5.54698 1.15356 5.34918C1.31026 5.08662 1.51187 4.88942 1.75838 4.73632L1.83673 4.69244C2.35221 4.42989 2.99071 4.41892 3.52865 4.72535L8.1331 7.30864L9.34703 7.99127C9.78846 8.23936 10.3314 8.23936 10.7728 7.99127L16.5802 4.72535C17.1404 4.40795 17.7901 4.42989 18.3056 4.71438C18.5631 4.85674 18.7872 5.07565 18.9553 5.34918C19.3363 5.99517 19.2353 6.78306 18.7649 7.30864C18.6417 7.44003 18.4848 7.56022 18.3168 7.65871L11.113 11.7198C10.7881 11.895 10.4184 11.9933 10.0601 11.9933C9.69029 11.9933 9.33174 11.895 9.00688 11.7198L1.79182 7.65871C1.6239 7.56022 1.4672 7.44003 1.35517 7.30864C1.12771 7.05459 0.986645 6.73926 0.943359 6.40828V6.40828ZM0.943359 24.4066V23.9692C0.971236 23.7564 1.04034 23.5453 1.15356 23.3475C1.31026 23.0849 1.51187 22.8879 1.75838 22.7346L1.83673 22.691C2.35221 22.4282 2.99071 22.4172 3.52865 22.7236L8.1331 25.3069L9.34703 25.9898C9.78846 26.2379 10.3314 26.2379 10.7728 25.9898L16.5802 22.7236C17.1404 22.4062 17.7901 22.4282 18.3056 22.7129C18.5631 22.855 18.7872 23.0739 18.9553 23.3475C19.3363 23.9934 19.2353 24.7816 18.7649 25.3069C18.6417 25.4383 18.4848 25.5587 18.3168 25.6572L11.113 29.718C10.7881 29.8931 10.4184 29.9916 10.0601 29.9916C9.69029 29.9916 9.33174 29.8931 9.00688 29.718L1.79182 25.6572C1.6239 25.5587 1.4672 25.4383 1.35517 25.3069C1.12771 25.053 0.986645 24.7376 0.943359 24.4066V24.4066ZM10.297 36.16H9.81845C9.53453 36.1271 9.26045 36.0371 9.00688 35.9003L1.79182 31.8395C1.6239 31.741 1.4672 31.6208 1.35517 31.4894C1.12771 31.2353 0.986645 30.92 0.943359 30.5891V30.1517C0.971236 29.939 1.04034 29.7279 1.15356 29.5302C1.31026 29.2674 1.51187 29.0704 1.75838 28.9171L1.83673 28.8732C2.35221 28.6106 2.99071 28.5997 3.52865 28.9061L8.1331 31.4894L9.34703 32.172C9.78846 32.4201 10.3314 32.4201 10.7728 32.172L16.5802 28.9061C17.1404 28.5887 17.7901 28.6106 18.3056 28.8954C18.5631 29.0375 18.7872 29.2564 18.9553 29.5302C19.3363 30.1759 19.2353 30.9638 18.7649 31.4894C18.6417 31.6208 18.4848 31.741 18.3168 31.8395L11.113 35.9003C10.8594 36.0371 10.5785 36.1271 10.297 36.16Z" fill="url(#paint1_linear_4429_22828)"/>
<path fill-rule="evenodd" clip-rule="evenodd" d="M30.0205 9.89086C30.0205 9.73099 30.0678 9.59727 30.1624 9.48945C30.2567 9.38209 30.3951 9.32841 30.578 9.32841H32.1455C32.2145 9.32841 32.2855 9.34218 32.3576 9.36972C32.4302 9.39726 32.4945 9.4374 32.5513 9.48945C32.6079 9.54196 32.6552 9.60194 32.693 9.66938C32.7307 9.73753 32.7496 9.81128 32.7496 9.89086V20.4907C32.7496 20.8595 32.5513 21.0441 32.1548 21.0441H30.5873C30.2095 21.0441 30.0205 20.8595 30.0205 20.4907V9.89086ZM30.0205 5.80601C30.0205 5.43563 30.2061 5.25056 30.578 5.25056H32.1639C32.3404 5.25056 32.4821 5.29724 32.5891 5.38942C32.6961 5.48231 32.7496 5.62117 32.7496 5.80601V7.18552C32.7496 7.32788 32.699 7.46207 32.5984 7.58857C32.4976 7.71506 32.3559 7.77854 32.1734 7.77854H30.5873C30.2095 7.77854 30.0205 7.58086 30.0205 7.18552V5.80601ZM35.6956 9.59563C35.7711 9.49738 35.8432 9.43577 35.9127 9.41103C35.9631 9.36179 36.0386 9.33588 36.1396 9.33285C36.2402 9.32958 36.3345 9.32841 36.4227 9.32841H37.3763C37.559 9.32841 37.694 9.38676 37.7821 9.50322C37.8707 9.62037 37.9302 9.74943 37.9617 9.89086L38.0656 10.869C38.2104 10.6596 38.3881 10.4535 38.599 10.2505C38.8097 10.0479 39.06 9.86612 39.3496 9.70626C39.6391 9.54639 39.9697 9.41733 40.3411 9.31908C40.7125 9.22059 41.1313 9.17135 41.5968 9.17135C42.3397 9.17135 43.0004 9.30181 43.5799 9.56319C44.1587 9.82481 44.6465 10.1831 45.0435 10.6381C45.4398 11.0935 45.7403 11.6284 45.9452 12.2436C46.1495 12.8585 46.2517 13.5199 46.2517 14.2268V20.3799C46.2517 20.6014 46.1984 20.7671 46.0916 20.8779C45.9842 20.9888 45.8301 21.0441 45.6287 21.0441H44.1936C43.9418 21.0441 43.7737 20.9981 43.6886 20.9057C43.6036 20.8135 43.5608 20.6506 43.5608 20.4168V14.2728C43.5608 13.947 43.5042 13.6287 43.391 13.3178C43.2775 13.0074 43.1122 12.7292 42.8953 12.483C42.678 12.2373 42.4088 12.0405 42.088 11.8928C41.7669 11.7451 41.3955 11.6713 40.9736 11.6713C40.6841 11.6713 40.3836 11.7283 40.0719 11.8419C39.7604 11.956 39.4754 12.1171 39.2177 12.3264C38.9592 12.5355 38.7452 12.7894 38.5751 13.0875C38.4055 13.3857 38.3172 13.7225 38.3112 14.0975V20.0756C38.3112 20.1923 38.3047 20.3094 38.2923 20.4261C38.2794 20.5426 38.2527 20.6478 38.2121 20.7395C38.1707 20.832 38.1127 20.9057 38.0372 20.961C37.9617 21.0166 37.864 21.0441 37.7444 21.0441H36.1864C35.9789 21.0441 35.8262 20.9967 35.7285 20.9013C35.6311 20.8058 35.5821 20.6691 35.5821 20.4907V9.87242C35.5821 9.78654 35.6198 9.69412 35.6956 9.59563ZM48.9803 9.36529C48.9803 8.81778 49.0653 8.29034 49.2354 7.7832C49.4055 7.27537 49.6541 6.82821 49.9814 6.44057C50.3087 6.05316 50.7097 5.74393 51.1851 5.51358C51.6604 5.283 52.2003 5.16748 52.8044 5.16748H52.899C53.0814 5.16748 53.2231 5.22162 53.3241 5.32898C53.4245 5.4368 53.4746 5.5829 53.4746 5.76703V7.04036C53.4746 7.21889 53.4261 7.36942 53.3289 7.49218C53.2307 7.61517 53.0972 7.67678 52.9271 7.67678C52.8328 7.67678 52.7134 7.70012 52.5686 7.7461C52.4236 7.79231 52.2853 7.86442 52.153 7.96267C52.0206 8.06116 51.9074 8.18742 51.8133 8.34122C51.7187 8.49455 51.6716 8.67635 51.6716 8.88523V10.3798H53.0406C53.2231 10.3798 53.3647 10.426 53.4653 10.5182C53.5664 10.6106 53.6165 10.7642 53.6165 10.9793V12.1143C53.6165 12.3294 53.5664 12.4909 53.4653 12.5983C53.3647 12.7061 53.2231 12.76 53.0406 12.76H51.6716V20.4448C51.6716 20.6413 51.6055 20.7904 51.4731 20.8919C51.3408 20.9935 51.1963 21.0441 51.0391 21.0441H49.5751C49.3866 21.0441 49.2402 20.9876 49.1363 20.8733C49.0324 20.7596 48.9803 20.6165 48.9803 20.4448V12.76H48.0454C47.8631 12.76 47.7152 12.7061 47.6018 12.5983C47.4886 12.4909 47.4319 12.3294 47.4319 12.1143V10.9793C47.4319 10.7642 47.4886 10.6106 47.6018 10.5182C47.7152 10.426 47.8631 10.3798 48.0454 10.3798H48.9803V9.36529ZM57.2894 15.1769C57.2894 15.6694 57.3778 16.1349 57.554 16.5746C57.7298 17.0141 57.9756 17.4003 58.2905 17.732C58.6051 18.0643 58.9748 18.3273 59.4 18.5208C59.8247 18.7147 60.2889 18.8116 60.7926 18.8116C61.3024 18.8116 61.7794 18.7147 62.2232 18.5208C62.6666 18.3273 63.0523 18.0643 63.3801 17.732C63.7073 17.4003 63.9653 17.0141 64.1538 16.5746C64.3427 16.1349 64.4371 15.6694 64.4371 15.1769C64.4371 14.691 64.3427 14.2285 64.1538 13.7888C63.9653 13.3489 63.7073 12.9631 63.3801 12.6307C63.0523 12.2989 62.6666 12.0345 62.2232 11.8375C61.7794 11.6405 61.3024 11.5423 60.7926 11.5423C60.2889 11.5423 59.8247 11.6405 59.4 11.8375C58.9748 12.0345 58.6051 12.2989 58.2905 12.6307C57.9756 12.9631 57.7298 13.3489 57.554 13.7888C57.3778 14.2285 57.2894 14.691 57.2894 15.1769ZM67.1095 20.5001C67.1095 20.6107 67.0859 20.7013 67.0386 20.772C66.9915 20.8429 66.9301 20.8982 66.8547 20.9381C66.7789 20.9783 66.6922 21.0061 66.5948 21.021C66.4971 21.0366 66.3951 21.0441 66.2881 21.0441H65.1076C64.9062 21.0441 64.766 20.992 64.6874 20.8873C64.6086 20.7827 64.5505 20.6506 64.5128 20.4907L64.4562 19.7066C64.2359 19.9218 63.9918 20.1234 63.7243 20.3106C63.4567 20.4982 63.1687 20.6614 62.8603 20.7995C62.5521 20.9381 62.2244 21.0455 61.8783 21.1227C61.5322 21.1993 61.1767 21.238 60.8115 21.238C60.2451 21.238 59.6989 21.1652 59.1733 21.021C58.6476 20.8768 58.155 20.6737 57.6957 20.4123C57.2361 20.1509 56.8188 19.8359 56.4447 19.4667C56.0699 19.0977 55.7489 18.6888 55.4814 18.2398C55.2141 17.7908 55.0063 17.3079 54.8584 16.7914C54.7103 16.2745 54.6365 15.7368 54.6365 15.1769C54.6365 14.6173 54.7103 14.0791 54.8584 13.5624C55.0063 13.0459 55.2141 12.5631 55.4814 12.1143C55.7489 11.6652 56.0699 11.2578 56.4447 10.8921C56.8188 10.5261 57.2361 10.2125 57.6957 9.95107C58.155 9.68969 58.6476 9.48641 59.1733 9.34218C59.6989 9.19749 60.2451 9.12537 60.8115 9.12537C61.2145 9.12537 61.5983 9.16668 61.9633 9.24976C62.3283 9.33285 62.6701 9.44954 62.9878 9.6003C63.3055 9.7513 63.5998 9.93263 63.8707 10.1448C64.1413 10.3567 64.3869 10.5891 64.6071 10.8412L64.7395 9.85399C64.771 9.74313 64.8009 9.65258 64.8293 9.58186C64.8575 9.51115 64.8921 9.45421 64.933 9.41103C64.974 9.36832 65.0259 9.33892 65.0887 9.32375C65.152 9.30811 65.2304 9.30064 65.3247 9.30064H66.2692C66.3695 9.30064 66.4706 9.30998 66.5711 9.32841C66.6719 9.34685 66.7632 9.37579 66.8451 9.4157C66.9266 9.45584 66.9915 9.51115 67.0386 9.58186C67.0859 9.65258 67.1095 9.74033 67.1095 9.84488V20.5001ZM73.6433 21.0441C73.146 21.0383 72.6783 20.964 72.2412 20.8226C71.8036 20.6812 71.4228 20.4765 71.0984 20.2084C70.7743 19.9407 70.518 19.6114 70.3288 19.2202C70.1398 18.8298 70.0455 18.3845 70.0455 17.8862V11.6529H68.9601C68.7768 11.6529 68.6405 11.6134 68.549 11.5336C68.458 11.4538 68.4121 11.3222 68.4121 11.1385V9.81501C68.4121 9.63741 68.458 9.51208 68.549 9.43834C68.6405 9.36482 68.7768 9.32841 68.9601 9.32841H70.0455C70.0455 9.00238 70.0474 8.67752 70.0503 8.35499C70.0536 8.03175 70.055 7.70759 70.055 7.38156C70.055 7.25857 70.0945 7.16171 70.173 7.09123C70.2516 7.02028 70.3727 6.95727 70.5368 6.90196C70.6439 6.86509 70.7726 6.82074 70.9238 6.76823C71.075 6.71619 71.2308 6.66531 71.3915 6.61584C71.5516 6.56683 71.7075 6.52529 71.8587 6.49121C72.0099 6.45761 72.1356 6.44057 72.2366 6.44057C72.4313 6.44057 72.5589 6.49285 72.6186 6.5974C72.6783 6.70242 72.7084 6.84035 72.7084 7.01282C72.7084 7.39999 72.7067 7.786 72.7039 8.17038C72.7003 8.55476 72.6988 8.94077 72.6988 9.32841H74.0587C74.2221 9.32841 74.348 9.36949 74.4366 9.45211C74.5245 9.53519 74.5685 9.66518 74.5685 9.84278V11.1014C74.5685 11.2977 74.5245 11.4389 74.4366 11.5243C74.348 11.6099 74.2221 11.6529 74.0587 11.6529H72.6988C72.6988 12.0534 72.6988 12.392 72.6988 12.6688C72.6988 12.9463 72.6988 13.1906 72.6988 13.4037C72.6988 13.6158 72.7003 13.8142 72.7039 13.9993C72.7067 14.1839 72.7084 14.3841 72.7084 14.5998C72.7084 14.8147 72.7084 15.0616 72.7084 15.3387C72.7084 15.6159 72.7084 15.9543 72.7084 16.3548L72.7039 16.3917L72.6988 16.4288V17.6386C72.6988 18.0452 72.7805 18.3376 72.9446 18.5164C73.1083 18.6947 73.3725 18.7838 73.7379 18.7838C73.8698 18.7838 73.9735 18.8303 74.0492 18.9224C74.1247 19.0149 74.1624 19.1255 74.1624 19.2543V20.537C74.1624 20.6968 74.117 20.8214 74.0255 20.9104C73.9345 20.9995 73.807 21.0441 73.6433 21.0441ZM76.2112 9.89086C76.2112 9.73099 76.2587 9.59727 76.3531 9.48945C76.4477 9.38209 76.5857 9.32841 76.7687 9.32841H78.3362C78.4052 9.32841 78.4761 9.34218 78.5483 9.36972C78.6207 9.39726 78.6854 9.4374 78.742 9.48945C78.7986 9.54196 78.8459 9.60194 78.8837 9.66938C78.9214 9.73753 78.9403 9.81128 78.9403 9.89086V20.4907C78.9403 20.8595 78.742 21.0441 78.3455 21.0441H76.7783C76.4001 21.0441 76.2112 20.8595 76.2112 20.4907V9.89086ZM76.2112 5.80601C76.2112 5.43563 76.3968 5.25056 76.7687 5.25056H78.3546C78.5311 5.25056 78.6727 5.29724 78.7798 5.38942C78.8868 5.48231 78.9403 5.62117 78.9403 5.80601V7.18552C78.9403 7.32788 78.8896 7.46207 78.7891 7.58857C78.6883 7.71506 78.5466 7.77854 78.3641 7.77854H76.7783C76.4001 7.77854 76.2112 7.58086 76.2112 7.18552V5.80601ZM89.8267 17.9721C89.9338 17.9047 90.0236 17.8631 90.0955 17.8475C90.1681 17.8323 90.2297 17.8244 90.2799 17.8244C90.3867 17.8307 90.4781 17.8862 90.5536 17.9905L90.7806 18.2953L91.4508 19.2268C91.4821 19.2697 91.5077 19.3143 91.5265 19.3605C91.5454 19.4065 91.555 19.4482 91.555 19.4851C91.555 19.5836 91.5199 19.6714 91.4508 19.7481C91.3813 19.8249 91.2903 19.9033 91.1771 19.9831C90.642 20.3645 90.0644 20.6719 89.4443 20.9057C88.824 21.1393 88.1427 21.2565 87.4001 21.2565C86.8397 21.2565 86.297 21.1839 85.7712 21.0394C85.2457 20.8952 84.7548 20.6922 84.2984 20.4308C83.8419 20.1694 83.425 19.8555 83.0474 19.4898C82.6695 19.1238 82.3439 18.7164 82.0702 18.2673C81.796 17.8185 81.5853 17.3357 81.4374 16.819C81.2893 16.3023 81.2155 15.7643 81.2155 15.2047C81.2155 14.645 81.2893 14.1066 81.4374 13.5902C81.5853 13.0737 81.796 12.5908 82.0702 12.1418C82.3439 11.6928 82.6695 11.2855 83.0474 10.9194C83.425 10.5539 83.8419 10.24 84.2984 9.97861C84.7548 9.71723 85.2457 9.51418 85.7712 9.36972C86.297 9.22503 86.8397 9.15291 87.4001 9.15291C88.0988 9.15291 88.7597 9.25747 89.3827 9.46634C90.0061 9.67568 90.5598 9.95854 91.0447 10.3151L91.0352 10.306C91.1231 10.3924 91.21 10.4675 91.2951 10.5322C91.3799 10.5966 91.4226 10.6965 91.4226 10.8321C91.4226 10.869 91.4207 10.9119 91.4179 10.9609C91.4145 11.0104 91.3973 11.0566 91.366 11.0993L90.5916 12.2527C90.4652 12.4368 90.3269 12.529 90.1757 12.529C90.069 12.529 89.9495 12.4772 89.8172 12.3729C89.4962 12.108 89.1216 11.8928 88.6936 11.7266C88.2653 11.5607 87.8248 11.4778 87.3716 11.4778C86.8808 11.4778 86.4197 11.5775 85.9886 11.7773C85.5572 11.9773 85.1779 12.248 84.8504 12.589C84.5234 12.9306 84.2651 13.3271 84.0762 13.7794C83.8877 14.2313 83.7934 14.7064 83.7934 15.2047C83.7934 15.7153 83.8877 16.1949 84.0762 16.6437C84.2651 17.0927 84.5217 17.4834 84.8458 17.8153C85.17 18.1476 85.5493 18.4106 85.9841 18.6041C86.4181 18.7978 86.8808 18.8947 87.3716 18.8947C87.9067 18.8947 88.3694 18.8041 88.7597 18.6225C89.1498 18.4412 89.5057 18.2244 89.8267 17.9721ZM95.5011 15.1769C95.5011 15.6694 95.5897 16.1349 95.7658 16.5746C95.9418 17.0141 96.1874 17.4003 96.5024 17.732C96.817 18.0643 97.1868 18.3273 97.6117 18.5208C98.0367 18.7147 98.5008 18.8116 99.0046 18.8116C99.5143 18.8116 99.9914 18.7147 100.435 18.5208C100.879 18.3273 101.264 18.0643 101.592 17.732C101.919 17.4003 102.177 17.0141 102.366 16.5746C102.555 16.1349 102.649 15.6694 102.649 15.1769C102.649 14.691 102.555 14.2285 102.366 13.7888C102.177 13.3489 101.919 12.9631 101.592 12.6307C101.264 12.2989 100.879 12.0345 100.435 11.8375C99.9914 11.6405 99.5143 11.5423 99.0046 11.5423C98.5008 11.5423 98.0367 11.6405 97.6117 11.8375C97.1868 12.0345 96.817 12.2989 96.5024 12.6307C96.1874 12.9631 95.9418 13.3489 95.7658 13.7888C95.5897 14.2285 95.5011 14.691 95.5011 15.1769ZM105.321 20.5001C105.321 20.6107 105.298 20.7013 105.251 20.772C105.203 20.8429 105.142 20.8982 105.066 20.9381C104.991 20.9783 104.904 21.0061 104.806 21.021C104.709 21.0366 104.607 21.0441 104.5 21.0441H103.32C103.118 21.0441 102.978 20.992 102.899 20.8873C102.821 20.7827 102.762 20.6506 102.725 20.4907L102.668 19.7066C102.448 19.9218 102.204 20.1234 101.936 20.3106C101.669 20.4982 101.381 20.6614 101.072 20.7995C100.764 20.9381 100.436 21.0455 100.09 21.1227C99.7441 21.1993 99.3885 21.238 99.0235 21.238C98.4569 21.238 97.9108 21.1652 97.3851 21.021C96.8595 20.8768 96.367 20.6737 95.9077 20.4123C95.4481 20.1509 95.0308 19.8359 94.6565 19.4667C94.2817 19.0977 93.9609 18.6888 93.6933 18.2398C93.4258 17.7908 93.218 17.3079 93.0704 16.7914C92.922 16.2745 92.8482 15.7368 92.8482 15.1769C92.8482 14.6173 92.922 14.0791 93.0704 13.5624C93.218 13.0459 93.4258 12.5631 93.6933 12.1143C93.9609 11.6652 94.2817 11.2578 94.6565 10.8921C95.0308 10.5261 95.4481 10.2125 95.9077 9.95107C96.367 9.68969 96.8595 9.48641 97.3851 9.34218C97.9108 9.19749 98.4569 9.12537 99.0235 9.12537C99.4262 9.12537 99.8101 9.16668 100.175 9.24976C100.54 9.33285 100.882 9.44954 101.2 9.6003C101.518 9.7513 101.812 9.93263 102.083 10.1448C102.353 10.3567 102.599 10.5891 102.819 10.8412L102.951 9.85399C102.983 9.74313 103.013 9.65258 103.041 9.58186C103.069 9.51115 103.104 9.45421 103.145 9.41103C103.186 9.36832 103.238 9.33892 103.301 9.32375C103.364 9.30811 103.442 9.30064 103.537 9.30064H104.481C104.581 9.30064 104.683 9.30998 104.783 9.32841C104.884 9.34685 104.975 9.37579 105.057 9.4157C105.139 9.45584 105.203 9.51115 105.251 9.58186C105.298 9.65258 105.321 9.74033 105.321 9.84488V20.5001ZM106.755 19.2636C106.755 19.0916 106.778 18.9439 106.826 18.8209C106.873 18.6979 106.988 18.6363 107.171 18.6363H108.653C108.728 18.6363 108.805 18.6396 108.884 18.6456C108.963 18.6519 109.035 18.6685 109.101 18.6963C109.167 18.7238 109.222 18.7642 109.267 18.8162C109.31 18.8688 109.333 18.9439 109.333 19.0424V20.4077C109.333 20.4936 109.329 20.5738 109.324 20.6478C109.317 20.7211 109.3 20.789 109.271 20.8504C109.243 20.9118 109.201 20.9598 109.144 20.9934C109.087 21.0275 109.008 21.0441 108.908 21.0441H107.425C107.205 21.0441 107.038 21.021 106.925 20.975C106.812 20.9288 106.755 20.8135 106.755 20.6294V19.2636ZM110.676 15.3305C110.676 15.2488 110.699 15.18 110.748 15.1251C110.797 15.07 110.867 15.0423 110.961 15.0423H111.764C111.799 15.0423 111.835 15.0495 111.872 15.0633C111.91 15.0775 111.942 15.098 111.972 15.1251C112.001 15.1519 112.025 15.1825 112.044 15.2168C112.064 15.2518 112.073 15.2896 112.073 15.3305V20.7605C112.073 20.9498 111.972 21.0441 111.769 21.0441H110.966C110.772 21.0441 110.676 20.9498 110.676 20.7605V15.3305ZM110.676 13.238C110.676 13.048 110.77 12.9533 110.961 12.9533H111.773C111.864 12.9533 111.936 12.9771 111.991 13.0247C112.046 13.0721 112.073 13.1428 112.073 13.238V13.9447C112.073 14.0173 112.048 14.0861 111.996 14.1512C111.944 14.2159 111.872 14.2481 111.778 14.2481H110.966C110.772 14.2481 110.676 14.147 110.676 13.9447V13.238ZM114.661 18.0529C114.661 18.3049 114.706 18.5437 114.797 18.7684C114.888 18.9938 115.013 19.1901 115.174 19.357C115.335 19.5241 115.526 19.6564 115.747 19.7542C115.968 19.8518 116.209 19.9005 116.47 19.9005C116.725 19.9005 116.961 19.8518 117.179 19.7542C117.397 19.6564 117.585 19.5241 117.743 19.357C117.901 19.1901 118.024 18.9938 118.113 18.7684C118.201 18.5437 118.246 18.3049 118.246 18.0529C118.246 17.8038 118.201 17.566 118.113 17.339C118.024 17.1119 117.901 16.9133 117.743 16.741C117.585 16.5695 117.397 16.4323 117.179 16.33C116.961 16.2276 116.725 16.1763 116.47 16.1763C116.209 16.1763 115.968 16.2276 115.747 16.33C115.526 16.4323 115.335 16.5695 115.174 16.741C115.013 16.9133 114.888 17.1119 114.797 17.339C114.706 17.566 114.661 17.8038 114.661 18.0529ZM113.297 18.0529C113.297 17.766 113.335 17.4895 113.411 17.2232C113.486 16.9571 113.594 16.7088 113.733 16.4787C113.871 16.2491 114.037 16.04 114.23 15.8526C114.423 15.6654 114.638 15.5046 114.873 15.3709C115.108 15.2367 115.36 15.133 115.629 15.0586C115.899 14.9848 116.18 14.9475 116.473 14.9475C116.763 14.9475 117.043 14.9848 117.314 15.0586C117.585 15.133 117.837 15.2367 118.07 15.3709C118.304 15.5046 118.517 15.6654 118.711 15.8526C118.904 16.04 119.07 16.2491 119.209 16.4787C119.347 16.7088 119.454 16.9571 119.53 17.2232C119.606 17.4895 119.644 17.766 119.644 18.0529C119.644 18.3392 119.606 18.6151 119.53 18.8795C119.454 19.1444 119.347 19.3911 119.209 19.6193C119.07 19.8476 118.904 20.0564 118.711 20.2452C118.517 20.4347 118.304 20.596 118.07 20.7297C117.837 20.8637 117.585 20.9678 117.314 21.0415C117.043 21.116 116.763 21.1528 116.473 21.1528C116.18 21.1528 115.899 21.116 115.629 21.0415C115.36 20.9678 115.108 20.8637 114.873 20.7297C114.638 20.596 114.423 20.4347 114.23 20.2452C114.037 20.0564 113.871 19.8476 113.733 19.6193C113.594 19.3911 113.486 19.1444 113.411 18.8795C113.335 18.6151 113.297 18.3392 113.297 18.0529Z" fill="#434396"/>
<path fill-rule="evenodd" clip-rule="evenodd" d="M32.1287 30.1324C31.8012 30.1324 31.5079 30.0781 31.2492 29.9702C30.9909 29.8626 30.7696 29.7137 30.5861 29.5245C30.4022 29.336 30.2621 29.114 30.1656 28.8592C30.0687 28.6048 30.0205 28.3326 30.0205 28.0433C30.0205 27.7656 30.0708 27.4996 30.1715 27.2448C30.2718 26.99 30.4131 26.7663 30.5948 26.5737C30.7763 26.3804 30.9947 26.2274 31.2492 26.1133C31.5041 25.9996 31.7872 25.9429 32.0994 25.9429C32.2731 25.9429 32.4318 25.9542 32.5762 25.9777C32.7202 26.0006 32.8544 26.0351 32.9789 26.0815C33.1033 26.128 33.2197 26.185 33.3284 26.2523C33.4368 26.3196 33.5424 26.3961 33.6451 26.4808L33.3431 26.8281C33.2641 26.7588 33.1813 26.696 33.0942 26.64C33.0075 26.5843 32.9139 26.5358 32.8128 26.4951C32.7122 26.4548 32.6017 26.4231 32.4814 26.3999C32.3608 26.377 32.2277 26.365 32.0815 26.365C31.8526 26.365 31.6411 26.4094 31.4478 26.4986C31.2541 26.5874 31.0884 26.7072 30.9503 26.8582C30.8119 27.0088 30.7036 27.1857 30.6246 27.3882C30.5456 27.5911 30.5061 27.8066 30.5061 28.0348C30.5061 28.2783 30.5445 28.5033 30.6214 28.7103C30.6987 28.9169 30.8081 29.0952 30.9503 29.2462C31.0926 29.3968 31.2643 29.515 31.4656 29.5997C31.667 29.6847 31.8938 29.7274 32.1466 29.7274C32.3836 29.7274 32.6066 29.6878 32.816 29.6082C33.025 29.529 33.2008 29.433 33.3431 29.3206V28.3097H32.0815V27.9043H33.7934V29.515C33.5997 29.684 33.3616 29.8295 33.0795 29.9504C32.7971 30.0717 32.4804 30.1324 32.1287 30.1324ZM35.2266 30.0631V25.8384H35.6827V30.0631H35.2266ZM38.5551 30.1324C38.3262 30.1324 38.1147 30.0908 37.9214 30.0078C37.728 29.9251 37.5603 29.8131 37.418 29.6724C37.2757 29.5317 37.1653 29.3664 37.0862 29.1775C37.0072 28.9887 36.9677 28.7878 36.9677 28.5758C36.9677 28.3637 37.0072 28.1618 37.0862 27.9709C37.1653 27.78 37.2757 27.6133 37.418 27.4706C37.5603 27.3278 37.7291 27.2151 37.9245 27.1318C38.1199 27.0488 38.3338 27.0074 38.567 27.0074C38.796 27.0074 39.0082 27.0488 39.2036 27.1318C39.3993 27.2151 39.5682 27.3268 39.7101 27.4675C39.8524 27.6085 39.9628 27.7732 40.0418 27.9624C40.1208 28.1516 40.1603 28.352 40.1603 28.5641C40.1603 28.7766 40.1198 28.9781 40.0387 29.1686C39.9579 29.3599 39.8464 29.5266 39.7041 29.6693C39.5622 29.8121 39.3923 29.9251 39.1948 30.0078C38.9973 30.0908 38.7841 30.1324 38.5551 30.1324ZM38.5551 27.4009C38.3894 27.4009 38.2374 27.4306 38.0993 27.4904C37.9609 27.5501 37.8434 27.6328 37.7466 27.7387C37.6497 27.8445 37.5739 27.9678 37.5187 28.1082C37.4634 28.2486 37.4358 28.3995 37.4358 28.5614C37.4358 28.7229 37.4645 28.8749 37.5215 29.0173C37.5788 29.1598 37.6578 29.2827 37.7585 29.3869C37.8591 29.4907 37.9787 29.5734 38.1168 29.6352C38.2548 29.6967 38.4052 29.7274 38.567 29.7274C38.733 29.7274 38.8848 29.6973 39.0232 29.6379C39.1613 29.5785 39.2798 29.4965 39.3783 29.3927C39.4769 29.2885 39.5542 29.1663 39.6094 29.0259C39.6646 28.8855 39.6923 28.7346 39.6923 28.5727C39.6923 28.4115 39.6636 28.2592 39.6066 28.1167C39.5493 27.9743 39.4692 27.8503 39.3668 27.7445C39.264 27.6389 39.1434 27.5549 39.0054 27.4934C38.8669 27.4316 38.717 27.4009 38.5551 27.4009ZM43.0271 30.1266C42.8848 30.1266 42.7544 30.1092 42.6363 30.0747C42.5178 30.0399 42.4108 29.9934 42.3164 29.9354C42.2217 29.8777 42.1357 29.8104 42.0585 29.7332C41.9815 29.656 41.9134 29.5751 41.8543 29.49V30.0631H41.3981V25.8384H41.8543V27.6727C41.9172 27.5843 41.9875 27.4996 42.0644 27.4183C42.1416 27.3374 42.2273 27.267 42.3224 27.2072C42.4171 27.1471 42.5223 27.0993 42.6391 27.0624C42.7555 27.0259 42.8848 27.0074 43.0271 27.0074C43.2085 27.0074 43.3871 27.0423 43.563 27.1116C43.7388 27.1809 43.8958 27.2824 44.0338 27.4156C44.1723 27.5484 44.2827 27.7117 44.3656 27.9043C44.4484 28.0976 44.49 28.3172 44.49 28.5641C44.49 28.8111 44.4484 29.031 44.3656 29.2236C44.2827 29.4169 44.1733 29.5795 44.0366 29.7127C43.9007 29.8459 43.7447 29.9484 43.5689 30.0197C43.3931 30.0908 43.2124 30.1266 43.0271 30.1266ZM42.9439 27.4128C42.802 27.4128 42.6646 27.4405 42.5325 27.4962C42.4 27.5518 42.2815 27.6294 42.177 27.7291C42.0724 27.8288 41.9892 27.9501 41.9284 28.0921C41.8669 28.2342 41.8365 28.3913 41.8365 28.5641C41.8365 28.737 41.8669 28.8951 41.9284 29.0392C41.9892 29.183 42.0724 29.3053 42.177 29.405C42.2815 29.5047 42.4 29.5822 42.5325 29.6379C42.6646 29.6936 42.802 29.7212 42.9439 29.7212C43.09 29.7212 43.2291 29.6956 43.3616 29.6437C43.4938 29.5921 43.6084 29.5174 43.7052 29.4193C43.8021 29.3217 43.879 29.2004 43.9363 29.0563C43.9933 28.9125 44.022 28.7506 44.022 28.5699C44.022 28.3934 43.9933 28.2342 43.9363 28.0921C43.879 27.9501 43.801 27.8281 43.7021 27.7267C43.6035 27.6249 43.4892 27.5467 43.3585 27.4931C43.2284 27.4395 43.09 27.4128 42.9439 27.4128ZM46.6577 30.1266C46.5154 30.1266 46.3763 30.1072 46.2403 30.0686C46.104 30.0303 45.9813 29.9712 45.8729 29.892C45.7642 29.8131 45.6775 29.7158 45.6125 29.6C45.5471 29.4842 45.5146 29.3476 45.5146 29.1891C45.5146 29.031 45.5461 28.8913 45.6093 28.7694C45.6726 28.6482 45.7621 28.5467 45.8788 28.4658C45.9952 28.3845 46.1333 28.323 46.2934 28.2807C46.4532 28.2383 46.6301 28.2168 46.8237 28.2168C47.0209 28.2168 47.1928 28.2284 47.339 28.2516C47.4847 28.2749 47.627 28.3056 47.7651 28.3442V28.2404C47.7651 27.9702 47.6854 27.7667 47.5253 27.6294C47.3655 27.4928 47.1415 27.4241 46.8531 27.4241C46.6716 27.4241 46.5067 27.4443 46.3584 27.4849C46.2106 27.5255 46.0655 27.5785 45.9232 27.6441L45.7869 27.2793C45.9568 27.2025 46.1284 27.1417 46.3022 27.0973C46.4759 27.0529 46.6755 27.0307 46.9006 27.0307C47.319 27.0307 47.641 27.1318 47.8661 27.3343C48.0912 27.5372 48.2034 27.837 48.2034 28.2342V30.0631H47.7651V29.6116C47.6588 29.7469 47.5155 29.8661 47.3358 29.9702C47.1561 30.0747 46.93 30.1266 46.6577 30.1266ZM46.874 28.5467C46.5867 28.5467 46.3661 28.6027 46.2127 28.7144C46.0592 28.8264 45.9823 28.9791 45.9823 29.1717C45.9823 29.268 46.0029 29.3531 46.0445 29.4262C46.0858 29.4996 46.1417 29.5624 46.2127 29.6143C46.2836 29.6663 46.3651 29.7062 46.4577 29.7332C46.55 29.7602 46.6475 29.7735 46.75 29.7735C46.8915 29.7735 47.0244 29.7533 47.1485 29.7127C47.2722 29.6724 47.3806 29.6164 47.4732 29.545C47.5655 29.4736 47.6385 29.3889 47.6913 29.2906C47.7445 29.1922 47.771 29.0829 47.771 28.9634V28.6741C47.6571 28.643 47.526 28.6143 47.3785 28.5874C47.231 28.5604 47.0628 28.5467 46.874 28.5467ZM49.6307 30.0631V25.8384H50.0869V30.0631H49.6307ZM54.2981 30.0631H53.83V26.0122H55.3821C55.6149 26.0122 55.8271 26.0419 56.0186 26.102C56.2102 26.1618 56.3738 26.2465 56.5101 26.3565C56.6465 26.4665 56.751 26.6017 56.8244 26.7615C56.8971 26.9217 56.9338 27.102 56.9338 27.3025C56.9338 27.5225 56.8901 27.7154 56.8034 27.8814C56.7164 28.0471 56.5989 28.1861 56.4511 28.2977C56.3028 28.4101 56.1302 28.4938 55.9327 28.5498C55.7352 28.6058 55.5261 28.6335 55.3048 28.6335H54.2981V30.0631ZM54.2981 26.4343V28.2168H55.3255C55.4957 28.2168 55.6513 28.196 55.7918 28.1533C55.9323 28.1109 56.0529 28.0501 56.1539 27.9709C56.255 27.892 56.3322 27.7974 56.3857 27.6874C56.4392 27.5775 56.4657 27.4552 56.4657 27.3199C56.4657 27.0269 56.364 26.8059 56.1599 26.6574C55.9561 26.5088 55.6859 26.4343 55.3492 26.4343H54.2981ZM59.4391 30.1324C59.2297 30.1324 59.0322 30.0945 58.847 30.0197C58.6614 29.9443 58.4988 29.838 58.36 29.7014C58.2206 29.5645 58.1101 29.3995 58.0279 29.2066C57.9461 29.0136 57.9052 28.8015 57.9052 28.5699C57.9052 28.3541 57.9416 28.1505 58.0147 27.9593C58.0877 27.7687 58.1894 27.6024 58.3198 27.4617C58.4499 27.321 58.6051 27.21 58.7847 27.129C58.9644 27.0477 59.1609 27.0074 59.3741 27.0074C59.5989 27.0074 59.8006 27.0488 59.9782 27.1318C60.1557 27.2151 60.3057 27.3278 60.4281 27.4706C60.5507 27.6133 60.6434 27.781 60.7067 27.974C60.7699 28.1669 60.8014 28.3732 60.8014 28.5932V28.6567L60.7954 28.7318H58.373C58.3887 28.8941 58.4282 29.0378 58.4915 29.1632C58.5547 29.2885 58.6355 29.3944 58.7344 29.4811C58.833 29.5682 58.9435 29.6338 59.0658 29.6779C59.1885 29.7223 59.3168 29.7448 59.451 29.7448C59.6643 29.7448 59.8467 29.7062 59.9988 29.629C60.1508 29.5515 60.29 29.4497 60.4165 29.3223L60.7007 29.571C60.5466 29.7407 60.3711 29.877 60.1736 29.9788C59.9761 30.0812 59.7314 30.1324 59.4391 30.1324ZM59.3622 27.3838C59.2287 27.3838 59.1049 27.4098 58.9913 27.4617C58.8774 27.5139 58.7774 27.5853 58.6911 27.6758C58.6047 27.7667 58.5341 27.8736 58.4789 27.9972C58.424 28.1205 58.3887 28.2554 58.373 28.4019H60.3333C60.3218 28.2673 60.2931 28.1379 60.248 28.0143C60.2029 27.891 60.1404 27.7831 60.0596 27.6902C59.9792 27.5979 59.8813 27.5235 59.7656 27.4675C59.6496 27.4118 59.5153 27.3838 59.3622 27.3838ZM63.3602 30.1324C63.1508 30.1324 62.9533 30.0945 62.7677 30.0197C62.5824 29.9443 62.4199 29.838 62.2807 29.7014C62.1416 29.5645 62.0312 29.3995 61.949 29.2066C61.8672 29.0136 61.826 28.8015 61.826 28.5699C61.826 28.3541 61.8627 28.1505 61.9357 27.9593C62.0088 27.7687 62.1105 27.6024 62.2409 27.4617C62.3709 27.321 62.5261 27.21 62.7058 27.129C62.8851 27.0477 63.0816 27.0074 63.2952 27.0074C63.5199 27.0074 63.7213 27.0488 63.8992 27.1318C64.0768 27.2151 64.2268 27.3278 64.3491 27.4706C64.4715 27.6133 64.5644 27.781 64.6277 27.974C64.6906 28.1669 64.7224 28.3732 64.7224 28.5932V28.6567L64.7165 28.7318H62.294C62.3098 28.8941 62.3493 29.0378 62.4125 29.1632C62.4754 29.2885 62.5565 29.3944 62.6555 29.4811C62.7541 29.5682 62.8645 29.6338 62.9869 29.6779C63.1092 29.7223 63.2378 29.7448 63.3721 29.7448C63.5853 29.7448 63.7678 29.7062 63.9198 29.629C64.0719 29.5515 64.211 29.4497 64.3376 29.3223L64.6218 29.571C64.4676 29.7407 64.2921 29.877 64.0946 29.9788C63.8971 30.0812 63.6524 30.1324 63.3602 30.1324ZM63.2833 27.3838C63.1498 27.3838 63.026 27.4098 62.9121 27.4617C62.7984 27.5139 62.6985 27.5853 62.6121 27.6758C62.5258 27.7667 62.4548 27.8736 62.3999 27.9972C62.3451 28.1205 62.3098 28.2554 62.294 28.4019H64.2544C64.2428 28.2673 64.2142 28.1379 64.1691 28.0143C64.124 27.891 64.0614 27.7831 63.9807 27.6902C63.9003 27.5979 63.802 27.5235 63.6863 27.4675C63.5706 27.4118 63.436 27.3838 63.2833 27.3838ZM66.3927 30.0631H65.9365V27.0713H66.3927V27.8524C66.4479 27.7288 66.5171 27.6154 66.6 27.5109C66.6832 27.4067 66.7779 27.3169 66.8842 27.2421C66.9908 27.1666 67.1072 27.1099 67.2337 27.0713C67.3484 27.0361 67.4707 27.0187 67.6015 27.0187C67.6151 27.0187 67.6287 27.0187 67.6424 27.0191V27.4996H67.6071C67.441 27.4996 67.2841 27.5286 67.1358 27.5863C66.988 27.6441 66.8586 27.7308 66.7482 27.8466C66.6374 27.9624 66.5507 28.1061 66.4874 28.2776C66.4241 28.4494 66.3927 28.6471 66.3927 28.8708V30.0631ZM68.6257 28.5583V28.0898H70.2721V28.5583H68.6257ZM72.6058 30.115C72.4831 30.115 72.3688 30.0997 72.2622 30.0686C72.1556 30.0378 72.0636 29.9887 71.9867 29.921C71.9098 29.8538 71.8494 29.7656 71.806 29.6577C71.7627 29.5498 71.741 29.4207 71.741 29.2701V27.4648H71.3145V27.0713H71.741V26.1683H72.1972V27.0713H73.1683V27.4648H72.1972V29.212C72.1972 29.3975 72.2444 29.5266 72.3391 29.6C72.4338 29.6734 72.5583 29.71 72.7124 29.71C72.7914 29.71 72.8652 29.7025 72.9344 29.6867C73.0036 29.6714 73.0774 29.6444 73.1567 29.6058V29.9876C73.0774 30.0303 72.9935 30.0621 72.9047 30.0833C72.8159 30.1044 72.7163 30.115 72.6058 30.115ZM75.6977 30.1324C75.4684 30.1324 75.2569 30.0908 75.0636 30.0078C74.8703 29.9251 74.7025 29.8131 74.5602 29.6724C74.418 29.5317 74.3075 29.3664 74.2285 29.1775C74.1495 28.9887 74.11 28.7878 74.11 28.5758C74.11 28.3637 74.1495 28.1618 74.2285 27.9709C74.3075 27.78 74.418 27.6133 74.5602 27.4706C74.7025 27.3278 74.871 27.2151 75.0664 27.1318C75.2622 27.0488 75.4761 27.0074 75.7093 27.0074C75.9379 27.0074 76.1504 27.0488 76.3462 27.1318C76.5416 27.2151 76.7101 27.3268 76.852 27.4675C76.9949 27.6085 77.1047 27.7732 77.1841 27.9624C77.2631 28.1516 77.3026 28.352 77.3026 28.5641C77.3026 28.7766 77.2617 28.9781 77.1813 29.1686C77.0998 29.3599 76.9887 29.5266 76.8467 29.6693C76.7041 29.8121 76.5346 29.9251 76.3374 30.0078C76.1392 30.0908 75.9263 30.1324 75.6977 30.1324ZM75.6977 27.4009C75.5317 27.4009 75.3796 27.4306 75.2412 27.4904C75.1031 27.5501 74.9857 27.6328 74.8888 27.7387C74.792 27.8445 74.7161 27.9678 74.6609 28.1082C74.6057 28.2486 74.5781 28.3995 74.5781 28.5614C74.5781 28.7229 74.6067 28.8749 74.6637 29.0173C74.721 29.1598 74.8 29.2827 74.9007 29.3869C75.0014 29.4907 75.1209 29.5734 75.259 29.6352C75.3971 29.6967 75.5474 29.7274 75.7093 29.7274C75.8749 29.7274 76.0267 29.6973 76.1654 29.6379C76.3032 29.5785 76.422 29.4965 76.5209 29.3927C76.6192 29.2885 76.6964 29.1663 76.7517 29.0259C76.8069 28.8855 76.8345 28.7346 76.8345 28.5727C76.8345 28.4115 76.8058 28.2592 76.7492 28.1167C76.6915 27.9743 76.6111 27.8503 76.5087 27.7445C76.4063 27.6389 76.2853 27.5549 76.1476 27.4934C76.0088 27.4316 75.8596 27.4009 75.6977 27.4009ZM78.4163 28.5583V28.0898H80.0627V28.5583H78.4163ZM83.2875 30.0631H81.4487V26.0122H83.2102C83.4154 26.0122 83.6003 26.0361 83.766 26.0846C83.9314 26.1328 84.0733 26.2004 84.1914 26.2872C84.3096 26.3739 84.4005 26.4798 84.4637 26.6051C84.5263 26.7308 84.5581 26.8708 84.5581 27.0249C84.5581 27.1601 84.5396 27.2776 84.5018 27.3777C84.4648 27.4781 84.4141 27.5669 84.3515 27.6441C84.2883 27.7212 84.2183 27.7861 84.1414 27.838C84.0645 27.89 83.9852 27.9333 83.902 27.9682C84.0243 28.0027 84.1397 28.0481 84.2481 28.1041C84.3564 28.1601 84.4501 28.2264 84.5288 28.3036C84.6078 28.3811 84.671 28.4736 84.7179 28.5816C84.7654 28.6895 84.7888 28.8128 84.7888 28.9521C84.7888 29.1253 84.7535 29.2817 84.6829 29.4207C84.612 29.5597 84.5102 29.6765 84.3784 29.7708C84.2463 29.865 84.0876 29.9374 83.902 29.9876C83.7171 30.0378 83.5119 30.0631 83.2875 30.0631ZM81.9165 28.2229V29.6577H83.3049C83.6202 29.6577 83.8684 29.5939 84.0492 29.4661C84.2306 29.338 84.3215 29.1581 84.3215 28.9255C84.3215 28.7011 84.2285 28.5276 84.0436 28.4057C83.8583 28.2841 83.5846 28.2229 83.2221 28.2229H81.9165ZM81.9165 26.4173V27.8176H83.1392C83.4189 27.8176 83.6472 27.7557 83.8244 27.6318C84.0016 27.5078 84.0901 27.3257 84.0901 27.0856C84.0901 26.88 84.0114 26.7175 83.8541 26.5973C83.6961 26.477 83.4699 26.4173 83.1745 26.4173H81.9165ZM87.1879 30.1266C87.0019 30.1266 86.8373 30.0976 86.6933 30.0399C86.5492 29.9818 86.4265 29.8999 86.3259 29.7936C86.2252 29.6878 86.1483 29.5614 86.0952 29.4149C86.0413 29.268 86.0148 29.1061 86.0148 28.9286V27.0713H86.4709V28.8189C86.4709 29.0962 86.544 29.3165 86.6901 29.4788C86.8362 29.6403 87.0453 29.7212 87.3179 29.7212C87.4483 29.7212 87.57 29.6994 87.6822 29.655C87.7947 29.6106 87.8912 29.5471 87.9727 29.4641C88.0534 29.3811 88.1177 29.2817 88.1653 29.1663C88.2121 29.0505 88.2362 28.9231 88.2362 28.7841V27.0713H88.6861V30.0631H88.2362V29.5419C88.1335 29.7042 87.9992 29.8421 87.8332 29.9559C87.6675 30.0696 87.4525 30.1266 87.1879 30.1266ZM91.1383 30.1208C90.917 30.1208 90.694 30.0812 90.4689 30.0023C90.2438 29.9231 90.0445 29.8162 89.8708 29.6809L90.1019 29.363C90.2675 29.4863 90.4399 29.5805 90.6199 29.6465C90.7996 29.712 90.98 29.7448 91.1617 29.7448C91.3474 29.7448 91.4994 29.7025 91.6179 29.6174C91.7364 29.5327 91.7955 29.4169 91.7955 29.2701V29.2585C91.7955 29.1854 91.7749 29.1219 91.7336 29.0676C91.692 29.0136 91.6354 28.9665 91.5644 28.9258C91.4935 28.8852 91.4117 28.8497 91.3187 28.8189C91.2261 28.7878 91.1303 28.7588 91.0317 28.7318C90.9132 28.6973 90.7936 28.6598 90.6734 28.6191C90.5528 28.5788 90.4441 28.5273 90.3476 28.4658C90.2508 28.404 90.1718 28.3271 90.1106 28.2342C90.0491 28.1417 90.0187 28.0262 90.0187 27.8869V27.8756C90.0187 27.7482 90.0445 27.6314 90.0956 27.5255C90.1473 27.4193 90.2193 27.3288 90.3119 27.2533C90.4046 27.1782 90.515 27.1201 90.6437 27.0798C90.772 27.0392 90.9111 27.0191 91.0611 27.0191C91.2509 27.0191 91.4424 27.0488 91.6354 27.1089C91.8291 27.1686 92.0049 27.2486 92.1629 27.349L91.9552 27.6847C91.8133 27.5959 91.6641 27.5255 91.5082 27.4733C91.3522 27.4214 91.1991 27.3951 91.0495 27.3951C90.8678 27.3951 90.7237 27.4367 90.6168 27.5194C90.5105 27.6024 90.457 27.7059 90.457 27.8292V27.8408C90.457 27.9104 90.4787 27.9709 90.5224 28.0232C90.5657 28.0751 90.6238 28.1205 90.6968 28.1591C90.7699 28.1977 90.8538 28.2325 90.9489 28.2632C91.0432 28.2943 91.1418 28.3251 91.2446 28.3558C91.3631 28.3906 91.4805 28.4289 91.5973 28.4716C91.7137 28.5139 91.8193 28.5682 91.914 28.6335C92.0091 28.699 92.0849 28.7783 92.1423 28.8708C92.1992 28.9634 92.2283 29.0775 92.2283 29.212V29.2236C92.2283 29.3664 92.1992 29.4931 92.1423 29.6031C92.0849 29.7127 92.008 29.8063 91.9112 29.8835C91.8144 29.961 91.6997 30.0197 91.5676 30.06C91.4351 30.1007 91.2921 30.1208 91.1383 30.1208ZM93.5565 30.0631V27.0713H94.0403V30.0631H93.5565ZM93.5014 26.4173V25.9251H93.9851V26.4173H93.5014ZM98.1394 30.0631H97.6832V28.3152C97.6832 28.0375 97.6098 27.8176 97.464 27.6557C97.3179 27.4934 97.1089 27.4128 96.8359 27.4128C96.7058 27.4128 96.5845 27.4347 96.4716 27.4791C96.3594 27.5235 96.2615 27.587 96.1787 27.6704C96.0958 27.753 96.0315 27.8524 95.9864 27.9682C95.941 28.0839 95.9179 28.2113 95.9179 28.35V30.0631H95.4621V27.0713H95.9179V27.5918C96.0207 27.4299 96.1549 27.2919 96.321 27.1782C96.4866 27.0645 96.702 27.0074 96.9663 27.0074C97.1522 27.0074 97.3169 27.0365 97.4609 27.0942C97.6053 27.1522 97.7276 27.2342 97.8283 27.3404C97.9289 27.4463 98.0059 27.5727 98.059 27.7192C98.1125 27.866 98.1394 28.0279 98.1394 28.2055V30.0631ZM100.869 30.1324C100.66 30.1324 100.463 30.0945 100.277 30.0197C100.092 29.9443 99.9292 29.838 99.79 29.7014C99.6509 29.5645 99.5404 29.3995 99.4583 29.2066C99.3765 29.0136 99.3356 28.8015 99.3356 28.5699C99.3356 28.3541 99.372 28.1505 99.445 27.9593C99.5181 27.7687 99.6198 27.6024 99.7498 27.4617C99.8802 27.321 100.035 27.21 100.215 27.129C100.395 27.0477 100.591 27.0074 100.804 27.0074C101.029 27.0074 101.231 27.0488 101.409 27.1318C101.586 27.2151 101.736 27.3278 101.858 27.4706C101.981 27.6133 102.074 27.781 102.137 27.974C102.2 28.1669 102.232 28.3732 102.232 28.5932V28.6567L102.226 28.7318H99.8037C99.8194 28.8941 99.8585 29.0378 99.9218 29.1632C99.9851 29.2885 100.066 29.3944 100.165 29.4811C100.263 29.5682 100.374 29.6338 100.496 29.6779C100.619 29.7223 100.747 29.7448 100.881 29.7448C101.095 29.7448 101.277 29.7062 101.429 29.629C101.581 29.5515 101.72 29.4497 101.847 29.3223L102.131 29.571C101.977 29.7407 101.801 29.877 101.604 29.9788C101.406 30.0812 101.162 30.1324 100.869 30.1324ZM100.793 27.3838C100.659 27.3838 100.535 27.4098 100.421 27.4617C100.308 27.5139 100.208 27.5853 100.121 27.6758C100.035 27.7667 99.9645 27.8736 99.9092 27.9972C99.8543 28.1205 99.819 28.2554 99.8037 28.4019H101.764C101.752 28.2673 101.724 28.1379 101.678 28.0143C101.633 27.891 101.57 27.7831 101.49 27.6902C101.41 27.5979 101.311 27.5235 101.196 27.4675C101.08 27.4118 100.945 27.3838 100.793 27.3838ZM104.459 30.1208C104.238 30.1208 104.015 30.0812 103.789 30.0023C103.564 29.9231 103.365 29.8162 103.191 29.6809L103.422 29.363C103.588 29.4863 103.761 29.5805 103.941 29.6465C104.12 29.712 104.301 29.7448 104.482 29.7448C104.668 29.7448 104.82 29.7025 104.938 29.6174C105.057 29.5327 105.116 29.4169 105.116 29.2701V29.2585C105.116 29.1854 105.095 29.1219 105.054 29.0676C105.013 29.0136 104.956 28.9665 104.885 28.9258C104.814 28.8852 104.732 28.8497 104.64 28.8189C104.547 28.7878 104.451 28.7588 104.352 28.7318C104.234 28.6973 104.114 28.6598 103.994 28.6191C103.873 28.5788 103.765 28.5273 103.668 28.4658C103.571 28.404 103.492 28.3271 103.431 28.2342C103.37 28.1417 103.34 28.0262 103.34 27.8869V27.8756C103.34 27.7482 103.365 27.6314 103.416 27.5255C103.468 27.4193 103.54 27.3288 103.633 27.2533C103.725 27.1782 103.836 27.1201 103.964 27.0798C104.092 27.0392 104.232 27.0191 104.382 27.0191C104.571 27.0191 104.763 27.0488 104.956 27.1089C105.15 27.1686 105.326 27.2486 105.484 27.349L105.276 27.6847C105.134 27.5959 104.985 27.5255 104.829 27.4733C104.673 27.4214 104.52 27.3951 104.37 27.3951C104.189 27.3951 104.044 27.4367 103.938 27.5194C103.831 27.6024 103.778 27.7059 103.778 27.8292V27.8408C103.778 27.9104 103.799 27.9709 103.843 28.0232C103.886 28.0751 103.944 28.1205 104.017 28.1591C104.09 28.1977 104.175 28.2325 104.269 28.2632C104.364 28.2943 104.463 28.3251 104.565 28.3558C104.684 28.3906 104.801 28.4289 104.918 28.4716C105.034 28.5139 105.14 28.5682 105.235 28.6335C105.33 28.699 105.405 28.7783 105.463 28.8708C105.52 28.9634 105.549 29.0775 105.549 29.212V29.2236C105.549 29.3664 105.52 29.4931 105.463 29.6031C105.405 29.7127 105.329 29.8063 105.232 29.8835C105.135 29.961 105.02 30.0197 104.888 30.06C104.756 30.1007 104.613 30.1208 104.459 30.1208ZM107.764 30.1208C107.542 30.1208 107.32 30.0812 107.094 30.0023C106.869 29.9231 106.67 29.8162 106.496 29.6809L106.727 29.363C106.893 29.4863 107.066 29.5805 107.246 29.6465C107.425 29.712 107.606 29.7448 107.787 29.7448C107.973 29.7448 108.125 29.7025 108.243 29.6174C108.362 29.5327 108.421 29.4169 108.421 29.2701V29.2585C108.421 29.1854 108.4 29.1219 108.359 29.0676C108.317 29.0136 108.261 28.9665 108.19 28.9258C108.119 28.8852 108.037 28.8497 107.944 28.8189C107.851 28.7878 107.756 28.7588 107.657 28.7318C107.539 28.6973 107.419 28.6598 107.299 28.6191C107.178 28.5788 107.07 28.5273 106.973 28.4658C106.876 28.404 106.797 28.3271 106.736 28.2342C106.675 28.1417 106.644 28.0262 106.644 27.8869V27.8756C106.644 27.7482 106.67 27.6314 106.721 27.5255C106.773 27.4193 106.845 27.3288 106.938 27.2533C107.03 27.1782 107.141 27.1201 107.269 27.0798C107.397 27.0392 107.537 27.0191 107.686 27.0191C107.876 27.0191 108.068 27.0488 108.261 27.1089C108.455 27.1686 108.631 27.2486 108.789 27.349L108.581 27.6847C108.439 27.5959 108.29 27.5255 108.134 27.4733C107.978 27.4214 107.825 27.3951 107.675 27.3951C107.493 27.3951 107.349 27.4367 107.242 27.5194C107.136 27.6024 107.083 27.7059 107.083 27.8292V27.8408C107.083 27.9104 107.104 27.9709 107.148 28.0232C107.191 28.0751 107.249 28.1205 107.322 28.1591C107.395 28.1977 107.479 28.2325 107.574 28.2632C107.669 28.2943 107.767 28.3251 107.87 28.3558C107.989 28.3906 108.106 28.4289 108.223 28.4716C108.339 28.5139 108.445 28.5682 108.54 28.6335C108.634 28.699 108.71 28.7783 108.768 28.8708C108.825 28.9634 108.854 29.0775 108.854 29.212V29.2236C108.854 29.3664 108.825 29.4931 108.768 29.6031C108.71 29.7127 108.633 29.8063 108.536 29.8835C108.44 29.961 108.325 30.0197 108.193 30.06C108.061 30.1007 107.918 30.1208 107.764 30.1208ZM112.851 30.0631H112.383V26.0122H113.935C114.168 26.0122 114.38 26.0419 114.572 26.102C114.764 26.1618 114.927 26.2465 115.064 26.3565C115.2 26.4665 115.304 26.6017 115.377 26.7615C115.45 26.9217 115.487 27.102 115.487 27.3025C115.487 27.5225 115.444 27.7154 115.357 27.8814C115.27 28.0471 115.152 28.1861 115.004 28.2977C114.856 28.4101 114.683 28.4938 114.486 28.5498C114.289 28.6058 114.079 28.6335 113.858 28.6335H112.851V30.0631ZM112.851 26.4343V28.2168H113.879C114.049 28.2168 114.204 28.196 114.345 28.1533C114.485 28.1109 114.606 28.0501 114.707 27.9709C114.808 27.892 114.885 27.7974 114.939 27.6874C114.992 27.5775 115.019 27.4552 115.019 27.3199C115.019 27.0269 114.917 26.8059 114.713 26.6574C114.509 26.5088 114.239 26.4343 113.903 26.4343H112.851ZM117.134 30.0631H116.677V27.0713H117.134V27.8524C117.189 27.7288 117.258 27.6154 117.341 27.5109C117.424 27.4067 117.519 27.3169 117.625 27.2421C117.732 27.1666 117.849 27.1099 117.975 27.0713C118.089 27.0361 118.212 27.0187 118.342 27.0187C118.356 27.0187 118.37 27.0187 118.383 27.0191V27.4996H118.348C118.182 27.4996 118.025 27.5286 117.877 27.5863C117.729 27.6441 117.6 27.7308 117.489 27.8466C117.378 27.9624 117.292 28.1061 117.228 28.2776C117.165 28.4494 117.134 28.6471 117.134 28.8708V30.0631ZM120.759 30.1324C120.53 30.1324 120.318 30.0908 120.125 30.0078C119.931 29.9251 119.763 29.8131 119.622 29.6724C119.479 29.5317 119.368 29.3664 119.29 29.1775C119.21 28.9887 119.171 28.7878 119.171 28.5758C119.171 28.3637 119.21 28.1618 119.29 27.9709C119.368 27.78 119.479 27.6133 119.622 27.4706C119.763 27.3278 119.932 27.2151 120.128 27.1318C120.323 27.0488 120.537 27.0074 120.771 27.0074C120.999 27.0074 121.212 27.0488 121.407 27.1318C121.602 27.2151 121.771 27.3268 121.914 27.4675C122.056 27.6085 122.166 27.7732 122.245 27.9624C122.324 28.1516 122.364 28.352 122.364 28.5641C122.364 28.7766 122.323 28.9781 122.242 29.1686C122.161 29.3599 122.05 29.5266 121.908 29.6693C121.765 29.8121 121.595 29.9251 121.398 30.0078C121.201 30.0908 120.988 30.1324 120.759 30.1324ZM120.759 27.4009C120.593 27.4009 120.441 27.4306 120.302 27.4904C120.164 27.5501 120.047 27.6328 119.95 27.7387C119.853 27.8445 119.777 27.9678 119.722 28.1082C119.667 28.2486 119.639 28.3995 119.639 28.5614C119.639 28.7229 119.668 28.8749 119.725 29.0173C119.782 29.1598 119.861 29.2827 119.962 29.3869C120.063 29.4907 120.182 29.5734 120.32 29.6352C120.458 29.6967 120.608 29.7274 120.771 29.7274C120.936 29.7274 121.088 29.6973 121.227 29.6379C121.364 29.5785 121.483 29.4965 121.582 29.3927C121.681 29.2885 121.757 29.1663 121.813 29.0259C121.868 28.8855 121.896 28.7346 121.896 28.5727C121.896 28.4115 121.867 28.2592 121.81 28.1167C121.753 27.9743 121.672 27.8503 121.57 27.7445C121.467 27.6389 121.347 27.5549 121.209 27.4934C121.07 27.4316 120.92 27.4009 120.759 27.4009ZM126.053 30.0631H125.526L124.579 28.8418L123.625 30.0631H123.116L124.319 28.5409L123.163 27.0713H123.684L124.591 28.2284L125.497 27.0713H126.007L124.845 28.5293L126.053 30.0631ZM127.623 31.0061C127.497 31.0061 127.382 30.9934 127.28 30.9685C127.177 30.9436 127.074 30.9057 126.972 30.8558L127.126 30.503C127.201 30.5413 127.275 30.5693 127.348 30.5867C127.421 30.6041 127.507 30.6126 127.606 30.6126C127.744 30.6126 127.86 30.5723 127.955 30.4911C128.049 30.4101 128.142 30.2633 128.233 30.0512L126.841 27.0713H127.345L128.458 29.5652L129.442 27.0713H129.927L128.642 30.1615C128.512 30.4699 128.367 30.6881 128.207 30.8155C128.047 30.9426 127.852 31.0061 127.623 31.0061ZM136.839 30.0631H136.466L133.789 26.7414V30.0631H133.333V26.0122H133.772L136.383 29.2585V26.0122H136.839V30.0631ZM139.694 30.1324C139.484 30.1324 139.287 30.0945 139.102 30.0197C138.916 29.9443 138.754 29.838 138.615 29.7014C138.475 29.5645 138.365 29.3995 138.283 29.2066C138.201 29.0136 138.16 28.8015 138.16 28.5699C138.16 28.3541 138.197 28.1505 138.27 27.9593C138.343 27.7687 138.444 27.6024 138.575 27.4617C138.705 27.321 138.86 27.21 139.039 27.129C139.219 27.0477 139.416 27.0074 139.629 27.0074C139.854 27.0074 140.055 27.0488 140.233 27.1318C140.411 27.2151 140.561 27.3278 140.683 27.4706C140.805 27.6133 140.898 27.781 140.962 27.974C141.025 28.1669 141.056 28.3732 141.056 28.5932V28.6567L141.05 28.7318H138.628C138.644 28.8941 138.683 29.0378 138.747 29.1632C138.81 29.2885 138.891 29.3944 138.989 29.4811C139.088 29.5682 139.199 29.6338 139.321 29.6779C139.443 29.7223 139.571 29.7448 139.706 29.7448C139.919 29.7448 140.102 29.7062 140.253 29.629C140.406 29.5515 140.545 29.4497 140.671 29.3223L140.955 29.571C140.802 29.7407 140.626 29.877 140.428 29.9788C140.231 30.0812 139.986 30.1324 139.694 30.1324ZM139.617 27.3838C139.483 27.3838 139.36 27.4098 139.246 27.4617C139.132 27.5139 139.032 27.5853 138.946 27.6758C138.859 27.7667 138.789 27.8736 138.734 27.9972C138.679 28.1205 138.643 28.2554 138.628 28.4019H140.588C140.576 28.2673 140.548 28.1379 140.503 28.0143C140.458 27.891 140.395 27.7831 140.315 27.6902C140.234 27.5979 140.136 27.5235 140.02 27.4675C139.904 27.4118 139.77 27.3838 139.617 27.3838ZM143.295 30.115C143.173 30.115 143.058 30.0997 142.951 30.0686C142.845 30.0378 142.753 29.9887 142.676 29.921C142.599 29.8538 142.539 29.7656 142.495 29.6577C142.452 29.5498 142.431 29.4207 142.431 29.2701V27.4648H142.004V27.0713H142.431V26.1683H142.887V27.0713H143.858V27.4648H142.887V29.212C142.887 29.3975 142.934 29.5266 143.029 29.6C143.123 29.6734 143.248 29.71 143.402 29.71C143.481 29.71 143.555 29.7025 143.624 29.6867C143.693 29.6714 143.767 29.6444 143.846 29.6058V29.9876C143.767 30.0303 143.683 30.0621 143.594 30.0833C143.505 30.1044 143.406 30.115 143.295 30.115ZM148.341 30.086H147.945L147.121 27.725L146.292 30.086H145.89L144.817 27.0713H145.303L146.108 29.4726L146.932 27.0597H147.311L148.14 29.4726L148.946 27.0713H149.419L148.341 30.086ZM151.842 30.1324C151.613 30.1324 151.401 30.0908 151.208 30.0078C151.014 29.9251 150.847 29.8131 150.705 29.6724C150.562 29.5317 150.452 29.3664 150.373 29.1775C150.294 28.9887 150.255 28.7878 150.255 28.5758C150.255 28.3637 150.294 28.1618 150.373 27.9709C150.452 27.78 150.562 27.6133 150.705 27.4706C150.847 27.3278 151.016 27.2151 151.211 27.1318C151.407 27.0488 151.621 27.0074 151.854 27.0074C152.082 27.0074 152.295 27.0488 152.49 27.1318C152.686 27.2151 152.855 27.3268 152.996 27.4675C153.139 27.6085 153.249 27.7732 153.329 27.9624C153.407 28.1516 153.447 28.352 153.447 28.5641C153.447 28.7766 153.406 28.9781 153.325 29.1686C153.244 29.3599 153.133 29.5266 152.991 29.6693C152.849 29.8121 152.679 29.9251 152.482 30.0078C152.284 30.0908 152.071 30.1324 151.842 30.1324ZM151.842 27.4009C151.676 27.4009 151.524 27.4306 151.386 27.4904C151.248 27.5501 151.13 27.6328 151.033 27.7387C150.937 27.8445 150.86 27.9678 150.805 28.1082C150.75 28.2486 150.723 28.3995 150.723 28.5614C150.723 28.7229 150.751 28.8749 150.808 29.0173C150.866 29.1598 150.944 29.2827 151.045 29.3869C151.146 29.4907 151.265 29.5734 151.404 29.6352C151.542 29.6967 151.692 29.7274 151.854 29.7274C152.019 29.7274 152.171 29.6973 152.31 29.6379C152.448 29.5785 152.566 29.4965 152.665 29.3927C152.764 29.2885 152.841 29.1663 152.896 29.0259C152.951 28.8855 152.979 28.7346 152.979 28.5727C152.979 28.4115 152.95 28.2592 152.893 28.1167C152.836 27.9743 152.756 27.8503 152.653 27.7445C152.55 27.6389 152.43 27.5549 152.292 27.4934C152.153 27.4316 152.004 27.4009 151.842 27.4009ZM155.141 30.0631H154.685V27.0713H155.141V27.8524C155.196 27.7288 155.265 27.6154 155.348 27.5109C155.431 27.4067 155.526 27.3169 155.633 27.2421C155.739 27.1666 155.856 27.1099 155.982 27.0713C156.096 27.0361 156.219 27.0187 156.35 27.0187C156.363 27.0187 156.377 27.0187 156.39 27.0191V27.4996H156.355C156.189 27.4996 156.032 27.5286 155.884 27.5863C155.736 27.6441 155.607 27.7308 155.496 27.8466C155.386 27.9624 155.299 28.1061 155.236 28.2776C155.173 28.4494 155.141 28.6471 155.141 28.8708V30.0631ZM160.217 30.0631H159.672L158.576 28.6683L157.954 29.2817V30.0631H157.498V25.8384H157.954V28.7551L159.607 27.0713H160.175L158.89 28.3558L160.217 30.0631Z" fill="#434396" stroke="#434396" stroke-width="0.266783" stroke-linecap="round" stroke-linejoin="round"/>
<defs>
<linearGradient id="paint0_linear_4429_22828" x1="10.0324" y1="0.177246" x2="10.0324" y2="36.1568" gradientUnits="userSpaceOnUse">
<stop stop-color="#E237B7"/>
<stop offset="1" stop-color="#705CDE"/>
</linearGradient>
<linearGradient id="paint1_linear_4429_22828" x1="10.066" y1="4.49414" x2="10.066" y2="36.16" gradientUnits="userSpaceOnUse">
<stop stop-color="#E237B7"/>
<stop offset="1" stop-color="#705CDE"/>
</linearGradient>
</defs>
</svg>
