<svg width="204" height="48" viewBox="0 0 204 48" fill="none" xmlns="http://www.w3.org/2000/svg">
<path opacity="0.396508" fill-rule="evenodd" clip-rule="evenodd" d="M11.206 24.0206L7.28171 26.278L5.40841 25.4958L1.04053 21.7928L11.206 15.9449C11.335 15.8735 11.4813 15.8375 11.628 15.8375C11.7746 15.8375 11.9209 15.8735 12.0499 15.9449L22.1584 21.7641L17.3829 25.9128L16.0093 26.3L12.0499 24.0206C11.9209 23.949 11.7746 23.9133 11.628 23.9133C11.4813 23.9133 11.335 23.949 11.206 24.0206ZM13.1531 12.3894L9.519 11.7343L1.04053 6.35825L11.206 0.510627C11.335 0.438988 11.4813 0.40332 11.628 0.40332C11.7746 0.40332 11.9209 0.438988 12.0499 0.510627L22.1584 6.3299L18.8721 9.70854L13.1531 12.3894ZM9.57875 44.1425L1.04053 37.9443L1.14052 37.887L11.206 32.0964C11.335 32.025 11.4813 31.9891 11.628 31.9891C11.7746 31.9891 11.9209 32.025 12.0499 32.0964L22.1584 37.9157L19.8848 40.3892L15.4169 43.3682L9.57875 44.1425Z" fill="url(#paint0_linear_4395_4264)"/>
<path fill-rule="evenodd" clip-rule="evenodd" d="M0.000244141 23.9748V23.4034C0.0358206 23.1255 0.124012 22.8497 0.268512 22.5914C0.468493 22.2482 0.725786 21.9909 1.04039 21.7909L1.14038 21.7336C1.79825 21.3903 2.61311 21.376 3.29963 21.7763L9.17591 25.151L10.7252 26.0423C11.2885 26.3667 11.9814 26.3667 12.5448 26.0423L19.9563 21.7763C20.6712 21.3617 21.5004 21.3903 22.1582 21.7623C22.4869 21.9479 22.7728 22.2339 22.9874 22.5914C23.4737 23.435 23.3447 24.4644 22.7445 25.151C22.5872 25.3223 22.3869 25.4796 22.1726 25.6082L12.9789 30.9126C12.5643 31.1416 12.0924 31.2702 11.6351 31.2702C11.1632 31.2702 10.7056 31.1416 10.291 30.9126L1.08307 25.6082C0.86876 25.4796 0.668779 25.3223 0.525805 25.151C0.235516 24.8191 0.0554866 24.4072 0.000244141 23.9748ZM0.000244141 8.54036V7.96904C0.0358206 7.69106 0.124012 7.4153 0.268512 7.15692C0.468493 6.81396 0.725786 6.55636 1.04039 6.35638L1.14038 6.29907C1.79825 5.95612 2.61311 5.94179 3.29963 6.34206L9.17591 9.71643L10.7252 10.6081C11.2885 10.9322 11.9814 10.9322 12.5448 10.6081L19.9563 6.34206C20.6712 5.92746 21.5004 5.95612 22.1582 6.32773C22.4869 6.51369 22.7728 6.79963 22.9874 7.15692C23.4737 8.00074 23.3447 9.02991 22.7445 9.71643C22.5872 9.88806 22.3869 10.0451 22.1726 10.1737L12.9789 15.4784C12.5643 15.7073 12.0924 15.8357 11.6351 15.8357C11.1632 15.8357 10.7056 15.7073 10.291 15.4784L1.08307 10.1737C0.86876 10.0451 0.668779 9.88806 0.525805 9.71643C0.235516 9.38459 0.0554866 8.97269 0.000244141 8.54036V8.54036ZM0.000244141 32.0505V31.4791C0.0358206 31.2011 0.124012 30.9253 0.268512 30.6669C0.468493 30.324 0.725786 30.0667 1.04039 29.8664L1.14038 29.8094C1.79825 29.4661 2.61311 29.4518 3.29963 29.852L9.17591 33.2264L10.7252 34.1184C11.2885 34.4425 11.9814 34.4425 12.5448 34.1184L19.9563 29.852C20.6712 29.4375 21.5004 29.4661 22.1582 29.838C22.4869 30.0237 22.7728 30.3096 22.9874 30.6669C23.4737 31.5107 23.3447 32.5402 22.7445 33.2264C22.5872 33.3981 22.3869 33.5554 22.1726 33.684L12.9789 38.9884C12.5643 39.217 12.0924 39.3457 11.6351 39.3457C11.1632 39.3457 10.7056 39.217 10.291 38.9884L1.08307 33.684C0.86876 33.5554 0.668779 33.3981 0.525805 33.2264C0.235516 32.8947 0.0554866 32.4828 0.000244141 32.0505ZM11.9376 47.4032H11.3268C10.9644 47.3601 10.6147 47.2425 10.291 47.0639L1.08307 41.7595C0.86876 41.6308 0.668779 41.4738 0.525805 41.3022C0.235516 40.9704 0.0554866 40.5585 0.000244141 40.1262V39.5549C0.0358206 39.277 0.124012 39.0013 0.268512 38.743C0.468493 38.3997 0.725786 38.1424 1.04039 37.9421L1.14038 37.8848C1.79825 37.5419 2.61311 37.5276 3.29963 37.9278L9.17591 41.3022L10.7252 42.1939C11.2885 42.5179 11.9814 42.5179 12.5448 42.1939L19.9563 37.9278C20.6712 37.5132 21.5004 37.5419 22.1582 37.9138C22.4869 38.0995 22.7728 38.3854 22.9874 38.743C23.4737 39.5865 23.3447 40.6157 22.7445 41.3022C22.5872 41.4738 22.3869 41.6308 22.1726 41.7595L12.9789 47.0639C12.6553 47.2425 12.2968 47.3601 11.9376 47.4032Z" fill="url(#paint1_linear_4395_4264)"/>
<path fill-rule="evenodd" clip-rule="evenodd" d="M37.1082 13.0917C37.1082 12.8829 37.1685 12.7082 37.2892 12.5674C37.4097 12.4272 37.5862 12.357 37.8197 12.357H39.8201C39.9082 12.357 39.9987 12.375 40.0908 12.411C40.1835 12.447 40.2655 12.4994 40.338 12.5674C40.4103 12.636 40.4706 12.7143 40.5188 12.8024C40.567 12.8914 40.5911 12.9878 40.5911 13.0917V26.9377C40.5911 27.4193 40.338 27.6605 39.832 27.6605H37.8316C37.3493 27.6605 37.1082 27.4193 37.1082 26.9377V13.0917ZM37.1082 7.75594C37.1082 7.27215 37.345 7.0304 37.8197 7.0304H39.8436C40.0689 7.0304 40.2496 7.09137 40.3862 7.21179C40.5228 7.33312 40.5911 7.5145 40.5911 7.75594V9.55791C40.5911 9.74387 40.5264 9.91916 40.3981 10.0844C40.2694 10.2496 40.0887 10.3325 39.8558 10.3325H37.8316C37.3493 10.3325 37.1082 10.0743 37.1082 9.55791V7.75594ZM44.3508 12.7061C44.4471 12.5777 44.5392 12.4973 44.6279 12.465C44.6922 12.4006 44.7885 12.3668 44.9175 12.3628C45.0458 12.3586 45.1662 12.357 45.2787 12.357H46.4957C46.7289 12.357 46.9011 12.4332 47.0136 12.5854C47.1267 12.7384 47.2026 12.907 47.2429 13.0917L47.3755 14.3693C47.5602 14.0959 47.787 13.8267 48.0562 13.5615C48.3251 13.2969 48.6446 13.0594 49.014 12.8506C49.3835 12.6418 49.8054 12.4732 50.2795 12.3448C50.7535 12.2162 51.2879 12.1519 51.8821 12.1519C52.8302 12.1519 53.6734 12.3223 54.4129 12.6637C55.1516 13.0055 55.7741 13.4734 56.2807 14.0679C56.7865 14.6626 57.17 15.3613 57.4315 16.1649C57.6922 16.9682 57.8227 17.8321 57.8227 18.7555V26.7929C57.8227 27.0822 57.7547 27.2986 57.6184 27.4434C57.4812 27.5882 57.2846 27.6605 57.0276 27.6605H55.1961C54.8748 27.6605 54.6602 27.6004 54.5516 27.4797C54.4431 27.3593 54.3885 27.1465 54.3885 26.8411V18.8156C54.3885 18.39 54.3163 17.9742 54.1718 17.5681C54.027 17.1627 53.816 16.7993 53.5392 16.4777C53.2618 16.1567 52.9183 15.8997 52.5088 15.7067C52.0991 15.5138 51.6251 15.4174 51.0867 15.4174C50.7172 15.4174 50.3337 15.4918 49.9359 15.6403C49.5384 15.7893 49.1747 15.9997 48.8458 16.2731C48.5159 16.5463 48.2428 16.878 48.0257 17.2673C47.8093 17.6568 47.6965 18.0967 47.6889 18.5866V26.3954C47.6889 26.5478 47.6806 26.7008 47.6648 26.8532C47.6483 27.0054 47.6142 27.1429 47.5624 27.2627C47.5096 27.3834 47.4355 27.4797 47.3392 27.552C47.2429 27.6245 47.1182 27.6605 46.9655 27.6605H44.9772C44.7123 27.6605 44.5175 27.5986 44.3928 27.4739C44.2685 27.3492 44.206 27.1706 44.206 26.9377V13.0676C44.206 12.9555 44.2541 12.8347 44.3508 12.7061ZM61.305 12.4052C61.305 11.69 61.4135 11.0011 61.6305 10.3386C61.8476 9.67528 62.1649 9.09118 62.5826 8.58483C63.0002 8.07878 63.5121 7.67485 64.1187 7.37397C64.7254 7.07278 65.4143 6.92188 66.1853 6.92188H66.306C66.5389 6.92188 66.7197 6.9926 66.8486 7.13283C66.9767 7.27367 67.0407 7.46451 67.0407 7.70503V9.36829C67.0407 9.6015 66.9788 9.79813 66.8547 9.95848C66.7295 10.1191 66.559 10.1996 66.342 10.1996C66.2216 10.1996 66.0691 10.2301 65.8844 10.2902C65.6994 10.3505 65.5229 10.4447 65.354 10.5731C65.1851 10.7017 65.0406 10.8666 64.9205 11.0675C64.7998 11.2678 64.7397 11.5053 64.7397 11.7781V13.7304H66.4868C66.7197 13.7304 66.9005 13.7907 67.0288 13.9112C67.1578 14.0319 67.2218 14.2325 67.2218 14.5135V15.996C67.2218 16.2771 67.1578 16.4881 67.0288 16.6283C66.9005 16.7691 66.7197 16.8395 66.4868 16.8395H64.7397V26.8776C64.7397 27.1343 64.6553 27.3291 64.4864 27.4617C64.3175 27.5943 64.1331 27.6605 63.9325 27.6605H62.064C61.8235 27.6605 61.6366 27.5867 61.504 27.4373C61.3714 27.2889 61.305 27.102 61.305 26.8776V16.8395H60.1118C59.8792 16.8395 59.6905 16.7691 59.5457 16.6283C59.4012 16.4881 59.3289 16.2771 59.3289 15.996V14.5135C59.3289 14.2325 59.4012 14.0319 59.5457 13.9112C59.6905 13.7907 59.8792 13.7304 60.1118 13.7304H61.305V12.4052ZM71.9091 19.9966C71.9091 20.6398 72.0219 21.248 72.2469 21.8223C72.4713 22.3963 72.785 22.9009 73.1868 23.3341C73.5883 23.7682 74.0602 24.1117 74.6028 24.3645C75.1448 24.6178 75.7371 24.7443 76.3801 24.7443C77.0306 24.7443 77.6394 24.6178 78.2058 24.3645C78.7716 24.1117 79.2639 23.7682 79.6822 23.3341C80.0998 22.9009 80.4291 22.3963 80.6696 21.8223C80.9107 21.248 81.0312 20.6398 81.0312 19.9966C81.0312 19.3619 80.9107 18.7577 80.6696 18.1833C80.4291 17.6087 80.0998 17.1048 79.6822 16.6707C79.2639 16.2372 78.7716 15.8918 78.2058 15.6345C77.6394 15.3772 77.0306 15.2488 76.3801 15.2488C75.7371 15.2488 75.1448 15.3772 74.6028 15.6345C74.0602 15.8918 73.5883 16.2372 73.1868 16.6707C72.785 17.1048 72.4713 17.6087 72.2469 18.1833C72.0219 18.7577 71.9091 19.3619 71.9091 19.9966ZM84.4418 26.9499C84.4418 27.0944 84.4116 27.2127 84.3513 27.305C84.2912 27.3977 84.2129 27.47 84.1165 27.5221C84.0199 27.5745 83.9092 27.6108 83.7849 27.6303C83.6602 27.6507 83.53 27.6605 83.3934 27.6605H81.8869C81.6299 27.6605 81.4509 27.5925 81.3506 27.4556C81.25 27.3191 81.176 27.1465 81.1278 26.9377L81.0555 25.9134C80.7745 26.1945 80.4629 26.4579 80.1215 26.7023C79.7801 26.9474 79.4124 27.1605 79.0188 27.341C78.6256 27.5221 78.2073 27.6623 77.7656 27.7632C77.3239 27.8632 76.8703 27.9138 76.4042 27.9138C75.6814 27.9138 74.9842 27.8187 74.3135 27.6303C73.6425 27.4419 73.0139 27.1767 72.4277 26.8353C71.8412 26.4938 71.3086 26.0823 70.8312 25.6C70.3529 25.118 69.9432 24.5839 69.6017 23.9974C69.2606 23.4109 68.9954 22.7801 68.8067 22.1055C68.6177 21.4303 68.5235 20.7279 68.5235 19.9966C68.5235 19.2655 68.6177 18.5626 68.8067 17.8876C68.9954 17.213 69.2606 16.5823 69.6017 15.996C69.9432 15.4095 70.3529 14.8772 70.8312 14.3995C71.3086 13.9215 71.8412 13.5118 72.4277 13.1704C73.0139 12.8289 73.6425 12.5634 74.3135 12.375C74.9842 12.186 75.6814 12.0918 76.4042 12.0918C76.9184 12.0918 77.4083 12.1458 77.8741 12.2543C78.3399 12.3628 78.7762 12.5153 79.1816 12.7122C79.5871 12.9094 79.9627 13.1463 80.3084 13.4234C80.6538 13.7002 80.9671 14.0038 81.2482 14.3331L81.4171 13.0436C81.4573 12.8988 81.4954 12.7805 81.5317 12.6881C81.5677 12.5957 81.6119 12.5214 81.664 12.465C81.7165 12.4092 81.7826 12.3708 81.8628 12.3509C81.9436 12.3305 82.0436 12.3208 82.164 12.3208H83.3694C83.4974 12.3208 83.6263 12.333 83.7547 12.357C83.8833 12.3811 83.9998 12.4189 84.1043 12.4711C84.2083 12.5235 84.2912 12.5957 84.3513 12.6881C84.4116 12.7805 84.4418 12.8951 84.4418 13.0317V26.9499ZM92.7804 27.6605C92.1457 27.6529 91.5488 27.5559 90.9909 27.3712C90.4324 27.1864 89.9465 26.9191 89.5325 26.5688C89.1188 26.2192 88.7917 25.789 88.5503 25.2781C88.3091 24.7681 88.1887 24.1864 88.1887 23.5356V15.3933H86.8035C86.5697 15.3933 86.3956 15.3418 86.2788 15.2376C86.1627 15.1333 86.1042 14.9614 86.1042 14.7215V12.9926C86.1042 12.7607 86.1627 12.597 86.2788 12.5006C86.3956 12.4046 86.5697 12.357 86.8035 12.357H88.1887C88.1887 11.9312 88.1912 11.5068 88.1948 11.0855C88.1991 10.6633 88.2009 10.2399 88.2009 9.81398C88.2009 9.65333 88.2512 9.52681 88.3515 9.43475C88.4518 9.34208 88.6064 9.25977 88.8158 9.18752C88.9524 9.13935 89.1167 9.08143 89.3096 9.01284C89.5026 8.94486 89.7014 8.8784 89.9065 8.81377C90.1108 8.74975 90.3099 8.69549 90.5028 8.65098C90.6958 8.60708 90.8561 8.58483 90.9851 8.58483C91.2335 8.58483 91.3963 8.65312 91.4726 8.78969C91.5488 8.92687 91.5872 9.10704 91.5872 9.33232C91.5872 9.83807 91.585 10.3423 91.5814 10.8444C91.5768 11.3465 91.575 11.8507 91.575 12.357H93.3105C93.519 12.357 93.6797 12.4107 93.7928 12.5186C93.9049 12.6271 93.961 12.7969 93.961 13.0289V14.673C93.961 14.9294 93.9049 15.1138 93.7928 15.2254C93.6797 15.3372 93.519 15.3933 93.3105 15.3933H91.575C91.575 15.9165 91.575 16.3588 91.575 16.7203C91.575 17.0828 91.575 17.402 91.575 17.6803C91.575 17.9574 91.5768 18.2166 91.5814 18.4583C91.585 18.6994 91.5872 18.961 91.5872 19.2427C91.5872 19.5234 91.5872 19.846 91.5872 20.2078C91.5872 20.57 91.5872 21.012 91.5872 21.5351L91.5814 21.5833L91.575 21.6318V23.2121C91.575 23.7432 91.6792 24.1251 91.8887 24.3587C92.0975 24.5916 92.4347 24.708 92.9011 24.708C93.0694 24.708 93.2017 24.7687 93.2983 24.8891C93.3946 25.0098 93.4428 25.1543 93.4428 25.3226V26.998C93.4428 27.2069 93.3849 27.3697 93.2681 27.4858C93.152 27.6023 92.9892 27.6605 92.7804 27.6605ZM96.0575 13.0917C96.0575 12.8829 96.1182 12.7082 96.2386 12.5674C96.3593 12.4272 96.5355 12.357 96.769 12.357H98.7694C98.8575 12.357 98.9481 12.375 99.0401 12.411C99.1325 12.447 99.2151 12.4994 99.2874 12.5674C99.3596 12.636 99.42 12.7143 99.4681 12.8024C99.5163 12.8914 99.5404 12.9878 99.5404 13.0917V26.9377C99.5404 27.4193 99.2874 27.6605 98.7813 27.6605H96.7812C96.2986 27.6605 96.0575 27.4193 96.0575 26.9377V13.0917ZM96.0575 7.75594C96.0575 7.27215 96.2943 7.0304 96.769 7.0304H98.7929C99.0182 7.0304 99.199 7.09137 99.3355 7.21179C99.4721 7.33312 99.5404 7.5145 99.5404 7.75594V9.55791C99.5404 9.74387 99.4758 9.91916 99.3474 10.0844C99.2188 10.2496 99.038 10.3325 98.8051 10.3325H96.7812C96.2986 10.3325 96.0575 10.0743 96.0575 9.55791V7.75594ZM113.434 23.6478C113.57 23.5597 113.685 23.5054 113.777 23.485C113.87 23.4651 113.948 23.4548 114.012 23.4548C114.148 23.463 114.265 23.5356 114.362 23.6718L114.651 24.07L115.507 25.2866C115.547 25.3427 115.579 25.4009 115.603 25.4613C115.627 25.5214 115.639 25.5759 115.639 25.6241C115.639 25.7527 115.595 25.8674 115.507 25.9677C115.418 26.068 115.302 26.1704 115.157 26.2746C114.474 26.7728 113.737 27.1742 112.946 27.4797C112.154 27.7849 111.285 27.9379 110.337 27.9379C109.622 27.9379 108.929 27.8431 108.258 27.6544C107.587 27.466 106.961 27.2008 106.378 26.8593C105.796 26.5179 105.264 26.1079 104.782 25.6302C104.3 25.1522 103.884 24.6199 103.535 24.0334C103.185 23.4472 102.916 22.8164 102.727 22.1415C102.538 21.4666 102.444 20.7639 102.444 20.0328C102.444 19.3018 102.538 18.5985 102.727 17.9239C102.916 17.2493 103.185 16.6185 103.535 16.032C103.884 15.4455 104.3 14.9135 104.782 14.4352C105.264 13.9578 105.796 13.5478 106.378 13.2063C106.961 12.8649 107.587 12.5997 108.258 12.411C108.929 12.222 109.622 12.1278 110.337 12.1278C111.229 12.1278 112.072 12.2644 112.867 12.5372C113.663 12.8107 114.369 13.1801 114.988 13.6459L114.976 13.6341C115.088 13.7468 115.199 13.845 115.308 13.9295C115.416 14.0136 115.471 14.1441 115.471 14.3212C115.471 14.3693 115.468 14.4254 115.465 14.4895C115.46 14.5541 115.438 14.6144 115.398 14.6702L114.41 16.1768C114.249 16.4173 114.072 16.5377 113.879 16.5377C113.743 16.5377 113.591 16.4701 113.422 16.3338C113.012 15.9878 112.534 15.7067 111.988 15.4897C111.441 15.2729 110.879 15.1647 110.301 15.1647C109.674 15.1647 109.086 15.2949 108.536 15.5558C107.985 15.8171 107.501 16.1707 107.083 16.6161C106.666 17.0624 106.336 17.5803 106.095 18.1711C105.854 18.7613 105.734 19.382 105.734 20.0328C105.734 20.6999 105.854 21.3263 106.095 21.9125C106.336 22.4991 106.663 23.0094 107.077 23.4429C107.491 23.877 107.975 24.2206 108.53 24.4733C109.084 24.7263 109.674 24.8528 110.301 24.8528C110.984 24.8528 111.574 24.7345 112.072 24.4974C112.57 24.2605 113.024 23.9773 113.434 23.6478ZM120.676 19.9966C120.676 20.6398 120.789 21.248 121.013 21.8223C121.238 22.3963 121.551 22.9009 121.954 23.3341C122.355 23.7682 122.827 24.1117 123.369 24.3645C123.912 24.6178 124.504 24.7443 125.147 24.7443C125.797 24.7443 126.406 24.6178 126.973 24.3645C127.538 24.1117 128.03 23.7682 128.449 23.3341C128.867 22.9009 129.196 22.3963 129.436 21.8223C129.677 21.248 129.798 20.6398 129.798 19.9966C129.798 19.3619 129.677 18.7577 129.436 18.1833C129.196 17.6087 128.867 17.1048 128.449 16.6707C128.03 16.2372 127.538 15.8918 126.973 15.6345C126.406 15.3772 125.797 15.2488 125.147 15.2488C124.504 15.2488 123.912 15.3772 123.369 15.6345C122.827 15.8918 122.355 16.2372 121.954 16.6707C121.551 17.1048 121.238 17.6087 121.013 18.1833C120.789 18.7577 120.676 19.3619 120.676 19.9966ZM133.209 26.9499C133.209 27.0944 133.178 27.2127 133.118 27.305C133.058 27.3977 132.98 27.47 132.883 27.5221C132.787 27.5745 132.676 27.6108 132.551 27.6303C132.427 27.6507 132.296 27.6605 132.16 27.6605H130.654C130.397 27.6605 130.218 27.5925 130.117 27.4556C130.017 27.3191 129.943 27.1465 129.895 26.9377L129.822 25.9134C129.541 26.1945 129.23 26.4579 128.888 26.7023C128.547 26.9474 128.179 27.1605 127.786 27.341C127.392 27.5221 126.974 27.6623 126.532 27.7632C126.091 27.8632 125.637 27.9138 125.171 27.9138C124.448 27.9138 123.751 27.8187 123.08 27.6303C122.409 27.4419 121.781 27.1767 121.194 26.8353C120.608 26.4938 120.075 26.0823 119.598 25.6C119.119 25.118 118.71 24.5839 118.368 23.9974C118.027 23.4109 117.762 22.7801 117.573 22.1055C117.384 21.4303 117.29 20.7279 117.29 19.9966C117.29 19.2655 117.384 18.5626 117.573 17.8876C117.762 17.213 118.027 16.5823 118.368 15.996C118.71 15.4095 119.119 14.8772 119.598 14.3995C120.075 13.9215 120.608 13.5118 121.194 13.1704C121.781 12.8289 122.409 12.5634 123.08 12.375C123.751 12.186 124.448 12.0918 125.171 12.0918C125.685 12.0918 126.175 12.1458 126.641 12.2543C127.107 12.3628 127.543 12.5153 127.948 12.7122C128.354 12.9094 128.729 13.1463 129.075 13.4234C129.421 13.7002 129.734 14.0038 130.015 14.3331L130.184 13.0436C130.224 12.8988 130.262 12.7805 130.298 12.6881C130.334 12.5957 130.378 12.5214 130.43 12.465C130.483 12.4092 130.549 12.3708 130.63 12.3509C130.71 12.3305 130.81 12.3208 130.931 12.3208H132.136C132.264 12.3208 132.393 12.333 132.521 12.357C132.65 12.3811 132.766 12.4189 132.871 12.4711C132.975 12.5235 133.058 12.5957 133.118 12.6881C133.178 12.7805 133.209 12.8951 133.209 13.0317V26.9499ZM135.038 25.3348C135.038 25.1101 135.068 24.9171 135.129 24.7565C135.189 24.5958 135.335 24.5154 135.568 24.5154H137.46C137.557 24.5154 137.655 24.5196 137.755 24.5275C137.856 24.5358 137.948 24.5574 138.033 24.5937C138.117 24.6297 138.187 24.6824 138.243 24.7504C138.299 24.819 138.328 24.9171 138.328 25.0458V26.8292C138.328 26.9413 138.323 27.0462 138.316 27.1429C138.307 27.2386 138.286 27.3273 138.25 27.4075C138.213 27.4876 138.159 27.5504 138.087 27.5943C138.014 27.6388 137.914 27.6605 137.785 27.6605H135.893C135.612 27.6605 135.4 27.6303 135.255 27.5702C135.11 27.5099 135.038 27.3593 135.038 27.1188V25.3348ZM140.041 20.1972C140.041 20.0905 140.072 20.0005 140.134 19.9289C140.196 19.8569 140.286 19.8207 140.406 19.8207H141.43C141.476 19.8207 141.521 19.8301 141.569 19.8481C141.617 19.8667 141.658 19.8935 141.696 19.9289C141.733 19.9639 141.764 20.0039 141.789 20.0487C141.813 20.0944 141.825 20.1438 141.825 20.1972V27.2901C141.825 27.5373 141.696 27.6605 141.437 27.6605H140.412C140.165 27.6605 140.041 27.5373 140.041 27.2901V20.1972ZM140.041 17.4639C140.041 17.2157 140.162 17.092 140.406 17.092H141.443C141.558 17.092 141.65 17.1231 141.721 17.1852C141.79 17.2471 141.825 17.3395 141.825 17.4639V18.387C141.825 18.4818 141.793 18.5717 141.727 18.6568C141.661 18.7412 141.568 18.7833 141.449 18.7833H140.412C140.165 18.7833 140.041 18.6513 140.041 18.387V17.4639ZM145.128 23.7532C145.128 24.0825 145.186 24.3943 145.301 24.6879C145.417 24.9824 145.577 25.2388 145.783 25.4567C145.988 25.675 146.232 25.8479 146.514 25.9756C146.796 26.103 147.104 26.1667 147.437 26.1667C147.762 26.1667 148.064 26.103 148.341 25.9756C148.619 25.8479 148.859 25.675 149.061 25.4567C149.262 25.2388 149.419 24.9824 149.533 24.6879C149.646 24.3943 149.703 24.0825 149.703 23.7532C149.703 23.428 149.646 23.1173 149.533 22.8207C149.419 22.5241 149.262 22.2646 149.061 22.0397C148.859 21.8156 148.619 21.6364 148.341 21.5028C148.064 21.369 147.762 21.3019 147.437 21.3019C147.104 21.3019 146.796 21.369 146.514 21.5028C146.232 21.6364 145.988 21.8156 145.783 22.0397C145.577 22.2646 145.417 22.5241 145.301 22.8207C145.186 23.1173 145.128 23.428 145.128 23.7532ZM143.387 23.7532C143.387 23.3786 143.436 23.0173 143.532 22.6695C143.629 22.322 143.766 21.9976 143.943 21.697C144.119 21.397 144.332 21.1239 144.578 20.8791C144.825 20.6346 145.098 20.4246 145.399 20.2499C145.699 20.0746 146.02 19.9393 146.364 19.842C146.707 19.7457 147.066 19.6969 147.44 19.6969C147.811 19.6969 148.168 19.7457 148.514 19.842C148.859 19.9393 149.181 20.0746 149.479 20.2499C149.777 20.4246 150.049 20.6346 150.296 20.8791C150.543 21.1239 150.754 21.397 150.932 21.697C151.108 21.9976 151.245 22.322 151.342 22.6695C151.438 23.0173 151.487 23.3786 151.487 23.7532C151.487 24.1273 151.438 24.4876 151.342 24.833C151.245 25.179 151.108 25.5012 150.932 25.7994C150.754 26.0975 150.543 26.3704 150.296 26.617C150.049 26.8645 149.777 27.0752 149.479 27.2499C149.181 27.4248 148.859 27.5608 148.514 27.6571C148.168 27.7544 147.811 27.8025 147.44 27.8025C147.066 27.8025 146.707 27.7544 146.364 27.6571C146.02 27.5608 145.699 27.4248 145.399 27.2499C145.098 27.0752 144.825 26.8645 144.578 26.617C144.332 26.3704 144.119 26.0975 143.943 25.7994C143.766 25.5012 143.629 25.179 143.532 24.833C143.436 24.4876 143.387 24.1273 143.387 23.7532Z" fill="white"/>
<path fill-rule="evenodd" clip-rule="evenodd" d="M39.7987 39.5329C39.3807 39.5329 39.0064 39.462 38.6763 39.321C38.3466 39.1805 38.0642 38.986 37.83 38.7388C37.5953 38.4925 37.4164 38.2026 37.2933 37.8698C37.1697 37.5374 37.1082 37.1818 37.1082 36.804C37.1082 36.4413 37.1724 36.0938 37.3009 35.761C37.4289 35.4281 37.6091 35.1359 37.8411 34.8843C38.0727 34.6318 38.3515 34.432 38.6763 34.283C39.0015 34.1344 39.3628 34.0603 39.7612 34.0603C39.983 34.0603 40.1855 34.0751 40.3697 34.1058C40.5535 34.1357 40.7248 34.1808 40.8837 34.2415C41.0425 34.3021 41.191 34.3766 41.3298 34.4645C41.4681 34.5524 41.6028 34.6523 41.734 34.763L41.3485 35.2167C41.2477 35.1261 41.142 35.044 41.0309 34.9709C40.9202 34.8982 40.8007 34.8348 40.6718 34.7817C40.5433 34.7291 40.4023 34.6876 40.2488 34.6572C40.0949 34.6274 39.925 34.6117 39.7385 34.6117C39.4463 34.6117 39.1764 34.6697 38.9297 34.7862C38.6825 34.9022 38.4711 35.0588 38.2948 35.2559C38.1182 35.4527 37.9799 35.6838 37.879 35.9483C37.7782 36.2133 37.7278 36.4948 37.7278 36.7928C37.7278 37.1109 37.7769 37.4049 37.875 37.6753C37.9736 37.9452 38.1133 38.178 38.2948 38.3752C38.4764 38.572 38.6954 38.7263 38.9524 38.8369C39.2094 38.948 39.4989 39.0038 39.8215 39.0038C40.1239 39.0038 40.4085 38.952 40.6758 38.8481C40.9426 38.7446 41.167 38.6192 41.3485 38.4725V37.152H39.7385V36.6224H41.9231V38.7263C41.676 38.9471 41.3722 39.1372 41.0121 39.2951C40.6517 39.4535 40.2475 39.5329 39.7987 39.5329ZM43.7522 39.4423V33.9238H44.3344V39.4423H43.7522ZM48.0002 39.5329C47.708 39.5329 47.4381 39.4785 47.1914 39.3701C46.9446 39.2621 46.7305 39.1158 46.5489 38.932C46.3674 38.7482 46.2264 38.5322 46.1256 38.2855C46.0248 38.0388 45.9743 37.7765 45.9743 37.4995C45.9743 37.2224 46.0248 36.9588 46.1256 36.7094C46.2264 36.46 46.3674 36.2423 46.5489 36.0558C46.7305 35.8694 46.946 35.7221 47.1954 35.6133C47.4448 35.5049 47.7178 35.4509 48.0153 35.4509C48.3075 35.4509 48.5783 35.5049 48.8277 35.6133C49.0775 35.7221 49.293 35.868 49.4741 36.0518C49.6557 36.2361 49.7967 36.4511 49.8975 36.6982C49.9983 36.9454 50.0488 37.2073 50.0488 37.4843C50.0488 37.7618 49.997 38.025 49.8935 38.2739C49.7904 38.5238 49.6481 38.7415 49.4666 38.928C49.2854 39.1144 49.0686 39.2621 48.8166 39.3701C48.5645 39.4785 48.2924 39.5329 48.0002 39.5329ZM48.0002 35.9648C47.7887 35.9648 47.5946 36.0036 47.4184 36.0817C47.2418 36.1598 47.0919 36.2677 46.9683 36.406C46.8447 36.5443 46.7479 36.7054 46.6774 36.8887C46.6069 37.0721 46.5717 37.2693 46.5717 37.4807C46.5717 37.6918 46.6083 37.8903 46.681 38.0763C46.7542 38.2623 46.855 38.4229 46.9835 38.559C47.1119 38.6946 47.2645 38.8026 47.4407 38.8833C47.617 38.9636 47.8088 39.0038 48.0153 39.0038C48.2272 39.0038 48.4209 38.9645 48.5975 38.8869C48.7737 38.8093 48.925 38.7022 49.0508 38.5666C49.1766 38.4305 49.2752 38.2708 49.3457 38.0875C49.4162 37.9041 49.4514 37.7069 49.4514 37.4955C49.4514 37.2849 49.4148 37.0859 49.3421 36.8999C49.2689 36.7139 49.1668 36.5519 49.0361 36.4136C48.9049 36.2758 48.751 36.166 48.5748 36.0857C48.3981 36.005 48.2067 35.9648 48.0002 35.9648ZM53.7074 39.5253C53.5258 39.5253 53.3594 39.5026 53.2086 39.4575C53.0574 39.412 52.9209 39.3513 52.8004 39.2755C52.6795 39.2001 52.5698 39.1122 52.4712 39.0114C52.373 38.9106 52.286 38.8048 52.2106 38.6937V39.4423H51.6285V33.9238H52.2106V36.3199C52.2909 36.2044 52.3806 36.0938 52.4788 35.9876C52.5774 35.8818 52.6867 35.7899 52.808 35.7119C52.9289 35.6334 53.0632 35.5709 53.2122 35.5227C53.3607 35.475 53.5258 35.4509 53.7074 35.4509C53.9389 35.4509 54.1669 35.4964 54.3913 35.587C54.6157 35.6775 54.816 35.81 54.9922 35.984C55.1689 36.1575 55.3098 36.3708 55.4156 36.6224C55.5213 36.8749 55.5744 37.1618 55.5744 37.4843C55.5744 37.8069 55.5213 38.0942 55.4156 38.3458C55.3098 38.5983 55.1702 38.8106 54.9958 38.9846C54.8222 39.1586 54.6233 39.2924 54.3989 39.3857C54.1745 39.4785 53.9438 39.5253 53.7074 39.5253ZM53.6012 35.9804C53.4201 35.9804 53.2448 36.0166 53.0761 36.0893C52.907 36.162 52.7558 36.2633 52.6224 36.3935C52.489 36.5238 52.3828 36.6822 52.3052 36.8678C52.2267 37.0534 52.1879 37.2586 52.1879 37.4843C52.1879 37.71 52.2267 37.9166 52.3052 38.1049C52.3828 38.2927 52.489 38.4524 52.6224 38.5827C52.7558 38.7129 52.907 38.8142 53.0761 38.8869C53.2448 38.9596 53.4201 38.9958 53.6012 38.9958C53.7877 38.9958 53.9652 38.9623 54.1343 38.8945C54.3029 38.8271 54.4493 38.7294 54.5729 38.6014C54.6964 38.4738 54.7946 38.3154 54.8677 38.1272C54.9405 37.9394 54.977 37.7279 54.977 37.4919C54.977 37.2613 54.9405 37.0534 54.8677 36.8678C54.7946 36.6822 54.6951 36.5229 54.5688 36.3904C54.443 36.2575 54.2972 36.1553 54.1303 36.0853C53.9643 36.0152 53.7877 35.9804 53.6012 35.9804ZM58.3408 39.5253C58.1592 39.5253 57.9817 39.4999 57.8081 39.4495C57.6341 39.3995 57.4775 39.3223 57.3392 39.2188C57.2005 39.1158 57.0899 38.9886 57.0069 38.8374C56.9235 38.6862 56.882 38.5077 56.882 38.3007C56.882 38.0942 56.9221 37.9117 57.0029 37.7524C57.0836 37.5941 57.1978 37.4616 57.3468 37.3558C57.4954 37.2497 57.6716 37.1693 57.8759 37.114C58.0798 37.0587 58.3055 37.0306 58.5527 37.0306C58.8043 37.0306 59.0238 37.0458 59.2103 37.0761C59.3963 37.1064 59.5779 37.1466 59.7541 37.197V37.0614C59.7541 36.7085 59.6524 36.4426 59.448 36.2633C59.2442 36.0848 58.9582 35.9952 58.5902 35.9952C58.3586 35.9952 58.1481 36.0215 57.9589 36.0746C57.7702 36.1277 57.5851 36.1968 57.4035 36.2825L57.2295 35.806C57.4463 35.7056 57.6654 35.6262 57.8871 35.5682C58.1088 35.5102 58.3635 35.4812 58.6508 35.4812C59.1848 35.4812 59.5957 35.6133 59.883 35.8778C60.1703 36.1428 60.3135 36.5345 60.3135 37.0534V39.4423H59.7541V38.8526C59.6185 39.0292 59.4356 39.1849 59.2063 39.321C58.9769 39.4575 58.6883 39.5253 58.3408 39.5253ZM58.6169 37.4616C58.2502 37.4616 57.9687 37.5347 57.7729 37.6806C57.577 37.8269 57.4789 38.0263 57.4789 38.278C57.4789 38.4038 57.5052 38.5148 57.5583 38.6103C57.6109 38.7062 57.6823 38.7883 57.7729 38.8561C57.8634 38.9239 57.9674 38.9761 58.0856 39.0114C58.2034 39.0466 58.3278 39.064 58.4586 39.064C58.6392 39.064 58.8088 39.0377 58.9671 38.9846C59.1251 38.932 59.2634 38.8588 59.3816 38.7656C59.4994 38.6723 59.5926 38.5617 59.66 38.4332C59.7278 38.3047 59.7617 38.162 59.7617 38.0058V37.628C59.6162 37.5874 59.4489 37.5499 59.2607 37.5146C59.0724 37.4794 58.8578 37.4616 58.6169 37.4616ZM62.135 39.4423V33.9238H62.7172V39.4423H62.135ZM68.0916 39.4423H67.4943V34.1509H69.475C69.7722 34.1509 70.0429 34.1897 70.2874 34.2682C70.5319 34.3463 70.7407 34.4569 70.9147 34.6006C71.0887 34.7442 71.222 34.9209 71.3157 35.1297C71.4085 35.3389 71.4554 35.5745 71.4554 35.8363C71.4554 36.1236 71.3996 36.3757 71.289 36.5925C71.1779 36.8089 71.028 36.9905 70.8393 37.1363C70.6501 37.2831 70.4297 37.3924 70.1777 37.4656C69.9256 37.5387 69.6588 37.5749 69.3764 37.5749H68.0916V39.4423ZM68.0916 34.7023V37.0306H69.4028C69.62 37.0306 69.8186 37.0034 69.9979 36.9476C70.1772 36.8923 70.3311 36.8129 70.4601 36.7094C70.589 36.6063 70.6876 36.4828 70.7558 36.3391C70.8241 36.1955 70.858 36.0358 70.858 35.8591C70.858 35.4763 70.7282 35.1877 70.4677 34.9936C70.2076 34.7996 69.8627 34.7023 69.4331 34.7023H68.0916ZM74.6527 39.5329C74.3855 39.5329 74.1334 39.4834 73.897 39.3857C73.6601 39.2871 73.4526 39.1483 73.2755 38.9699C73.0975 38.791 72.9566 38.5755 72.8517 38.3235C72.7473 38.0714 72.6951 37.7944 72.6951 37.4919C72.6951 37.2099 72.7415 36.9441 72.8348 36.6942C72.928 36.4453 73.0578 36.228 73.2242 36.0442C73.3902 35.8604 73.5883 35.7154 73.8176 35.6097C74.0469 35.5035 74.2976 35.4509 74.5697 35.4509C74.8566 35.4509 75.114 35.5049 75.3406 35.6133C75.5673 35.7221 75.7586 35.8694 75.9148 36.0558C76.0714 36.2423 76.1896 36.4614 76.2703 36.7134C76.3511 36.9655 76.3912 37.2349 76.3912 37.5222V37.6052L76.3837 37.7034H73.292C73.3121 37.9153 73.3625 38.1031 73.4433 38.2668C73.524 38.4305 73.6271 38.5688 73.7533 38.6821C73.8791 38.7959 74.0201 38.8816 74.1763 38.9391C74.3328 38.9971 74.4966 39.0265 74.6679 39.0265C74.94 39.0265 75.1729 38.9761 75.3669 38.8753C75.561 38.774 75.7386 38.6411 75.9001 38.4747L76.2628 38.7995C76.066 39.0212 75.8421 39.1992 75.59 39.3321C75.3379 39.466 75.0257 39.5329 74.6527 39.5329ZM74.5546 35.9425C74.3841 35.9425 74.2262 35.9764 74.0812 36.0442C73.9358 36.1125 73.8082 36.2057 73.698 36.324C73.5878 36.4426 73.4977 36.5823 73.4272 36.7438C73.3572 36.9048 73.3121 37.081 73.292 37.2724H75.7939C75.7792 37.0966 75.7426 36.9276 75.685 36.7661C75.6275 36.605 75.5476 36.464 75.4446 36.3427C75.342 36.2222 75.217 36.125 75.0694 36.0518C74.9213 35.9791 74.75 35.9425 74.5546 35.9425ZM79.6568 39.5329C79.3896 39.5329 79.1376 39.4834 78.9007 39.3857C78.6642 39.2871 78.4568 39.1483 78.2792 38.9699C78.1017 38.791 77.9607 38.5755 77.8558 38.3235C77.7515 38.0714 77.6988 37.7944 77.6988 37.4919C77.6988 37.2099 77.7457 36.9441 77.8389 36.6942C77.9321 36.4453 78.062 36.228 78.2284 36.0442C78.3943 35.8604 78.5924 35.7154 78.8217 35.6097C79.0506 35.5035 79.3013 35.4509 79.5739 35.4509C79.8607 35.4509 80.1177 35.5049 80.3447 35.6133C80.5714 35.7221 80.7628 35.8694 80.9189 36.0558C81.075 36.2423 81.1937 36.4614 81.2745 36.7134C81.3548 36.9655 81.3954 37.2349 81.3954 37.5222V37.6052L81.3878 37.7034H78.2962C78.3162 37.9153 78.3667 38.1031 78.4474 38.2668C78.5277 38.4305 78.6312 38.5688 78.7575 38.6821C78.8833 38.7959 79.0242 38.8816 79.1804 38.9391C79.3365 38.9971 79.5007 39.0265 79.672 39.0265C79.9441 39.0265 80.177 38.9761 80.3711 38.8753C80.5651 38.774 80.7427 38.6411 80.9042 38.4747L81.2669 38.7995C81.0701 39.0212 80.8462 39.1992 80.5941 39.3321C80.3421 39.466 80.0298 39.5329 79.6568 39.5329ZM79.5587 35.9425C79.3883 35.9425 79.2303 35.9764 79.0849 36.0442C78.9399 36.1125 78.8123 36.2057 78.7021 36.324C78.5919 36.4426 78.5014 36.5823 78.4313 36.7438C78.3613 36.9048 78.3162 37.081 78.2962 37.2724H80.798C80.7833 37.0966 80.7467 36.9276 80.6892 36.7661C80.6316 36.605 80.5517 36.464 80.4487 36.3427C80.3461 36.2222 80.2207 36.125 80.0731 36.0518C79.9254 35.9791 79.7536 35.9425 79.5587 35.9425ZM83.5269 39.4423H82.9447V35.5343H83.5269V36.5546C83.5974 36.3931 83.6857 36.245 83.7915 36.1085C83.8976 35.9724 84.0185 35.8551 84.1542 35.7574C84.2902 35.6588 84.4388 35.5847 84.6003 35.5343C84.7466 35.4884 84.9028 35.4656 85.0696 35.4656C85.087 35.4656 85.1044 35.4656 85.1218 35.4661V36.0938H85.0767C84.8648 36.0938 84.6645 36.1317 84.4754 36.2071C84.2867 36.2825 84.1216 36.3958 83.9806 36.547C83.8392 36.6982 83.7286 36.8861 83.6478 37.11C83.5671 37.3344 83.5269 37.5927 83.5269 37.8849V39.4423ZM86.3767 37.4767V36.8647H88.478V37.4767H86.3767ZM91.4563 39.5101C91.2997 39.5101 91.1538 39.4901 91.0177 39.4495C90.8817 39.4093 90.7643 39.3451 90.6662 39.2567C90.568 39.1689 90.4908 39.0538 90.4355 38.9128C90.3802 38.7718 90.3526 38.6032 90.3526 38.4064V36.0483H89.8083V35.5343H90.3526V34.3548H90.9347V35.5343H92.1741V36.0483H90.9347V38.3306C90.9347 38.5728 90.995 38.7415 91.1159 38.8374C91.2368 38.9333 91.3956 38.981 91.5923 38.981C91.6931 38.981 91.7873 38.9712 91.8756 38.9507C91.9639 38.9306 92.0581 38.8954 92.1593 38.845V39.3437C92.0581 39.3995 91.951 39.441 91.8377 39.4687C91.7244 39.4963 91.5972 39.5101 91.4563 39.5101ZM95.4022 39.5329C95.1095 39.5329 94.8396 39.4785 94.5929 39.3701C94.3462 39.2621 94.1321 39.1158 93.9505 38.932C93.7689 38.7482 93.628 38.5322 93.5271 38.2855C93.4263 38.0388 93.3759 37.7765 93.3759 37.4995C93.3759 37.2224 93.4263 36.9588 93.5271 36.7094C93.628 36.46 93.7689 36.2423 93.9505 36.0558C94.1321 35.8694 94.3471 35.7221 94.5965 35.6133C94.8463 35.5049 95.1193 35.4509 95.4169 35.4509C95.7087 35.4509 95.9799 35.5049 96.2297 35.6133C96.4791 35.7221 96.6941 35.868 96.8753 36.0518C97.0577 36.2361 97.1978 36.4511 97.2991 36.6982C97.3999 36.9454 97.4503 37.2073 97.4503 37.4843C97.4503 37.7618 97.3981 38.025 97.2955 38.2739C97.1916 38.5238 97.0497 38.7415 96.8686 38.928C96.6866 39.1144 96.4702 39.2621 96.2186 39.3701C95.9656 39.4785 95.6939 39.5329 95.4022 39.5329ZM95.4022 35.9648C95.1903 35.9648 94.9962 36.0036 94.8195 36.0817C94.6433 36.1598 94.4934 36.2677 94.3699 36.406C94.2463 36.5443 94.1495 36.7054 94.079 36.8887C94.0085 37.0721 93.9733 37.2693 93.9733 37.4807C93.9733 37.6918 94.0098 37.8903 94.0826 38.0763C94.1557 38.2623 94.2565 38.4229 94.385 38.559C94.5135 38.6946 94.6661 38.8026 94.8423 38.8833C95.0185 38.9636 95.2104 39.0038 95.4169 39.0038C95.6284 39.0038 95.822 38.9645 95.9991 38.8869C96.1749 38.8093 96.3265 38.7022 96.4528 38.5666C96.5782 38.4305 96.6768 38.2708 96.7472 38.0875C96.8177 37.9041 96.853 37.7069 96.853 37.4955C96.853 37.2849 96.8164 37.0859 96.7441 36.8999C96.6705 36.7139 96.5679 36.5519 96.4372 36.4136C96.3065 36.2758 96.1521 36.166 95.9763 36.0857C95.7992 36.005 95.6087 35.9648 95.4022 35.9648ZM98.8717 37.4767V36.8647H100.973V37.4767H98.8717ZM105.088 39.4423H102.742V34.1509H104.99C105.252 34.1509 105.488 34.1821 105.699 34.2455C105.91 34.3084 106.091 34.3967 106.242 34.51C106.393 34.6233 106.509 34.7616 106.59 34.9254C106.669 35.0895 106.71 35.2724 106.71 35.4736C106.71 35.6503 106.686 35.8038 106.638 35.9345C106.591 36.0657 106.526 36.1816 106.446 36.2825C106.366 36.3833 106.276 36.468 106.178 36.5359C106.08 36.6037 105.979 36.6603 105.873 36.7058C106.029 36.7509 106.176 36.8102 106.314 36.8834C106.453 36.9566 106.572 37.0431 106.673 37.1439C106.773 37.2452 106.854 37.3661 106.914 37.5071C106.975 37.648 107.004 37.8091 107.004 37.9911C107.004 38.2173 106.959 38.4216 106.869 38.6032C106.779 38.7848 106.649 38.9373 106.481 39.0605C106.312 39.1836 106.11 39.2782 105.873 39.3437C105.637 39.4093 105.375 39.4423 105.088 39.4423ZM103.339 37.0386V38.9128H105.111C105.513 38.9128 105.83 38.8294 106.06 38.6625C106.292 38.4952 106.408 38.2601 106.408 37.9563C106.408 37.6632 106.289 37.4366 106.053 37.2773C105.817 37.1185 105.468 37.0386 105.005 37.0386H103.339ZM103.339 34.68V36.5091H104.899C105.256 36.5091 105.547 36.4283 105.774 36.2664C106 36.1045 106.113 35.8667 106.113 35.5531C106.113 35.2845 106.012 35.0721 105.811 34.9151C105.61 34.7581 105.321 34.68 104.944 34.68H103.339ZM110.066 39.5253C109.829 39.5253 109.619 39.4874 109.435 39.412C109.251 39.3362 109.094 39.2291 108.966 39.0903C108.838 38.952 108.739 38.787 108.672 38.5956C108.603 38.4038 108.569 38.1923 108.569 37.9603V35.5343H109.151V37.8171C109.151 38.1794 109.244 38.4671 109.431 38.679C109.617 38.89 109.884 38.9958 110.232 38.9958C110.398 38.9958 110.554 38.9672 110.697 38.9092C110.841 38.8512 110.964 38.7682 111.068 38.6598C111.171 38.5514 111.253 38.4216 111.313 38.2708C111.373 38.1196 111.404 37.9532 111.404 37.7716V35.5343H111.978V39.4423H111.404V38.7616C111.273 38.9735 111.102 39.1537 110.89 39.3023C110.678 39.4508 110.404 39.5253 110.066 39.5253ZM115.108 39.5177C114.825 39.5177 114.541 39.466 114.253 39.3629C113.966 39.2594 113.712 39.1198 113.49 38.9431L113.785 38.5278C113.996 38.6888 114.216 38.812 114.446 38.8981C114.675 38.9837 114.906 39.0265 115.138 39.0265C115.375 39.0265 115.569 38.9712 115.72 38.8601C115.871 38.7495 115.946 38.5983 115.946 38.4064V38.3913C115.946 38.2958 115.92 38.2128 115.867 38.1419C115.814 38.0714 115.742 38.0098 115.652 37.9568C115.561 37.9037 115.457 37.8573 115.338 37.8171C115.22 37.7765 115.097 37.7386 114.972 37.7034C114.82 37.6583 114.668 37.6092 114.514 37.5561C114.36 37.5035 114.222 37.4361 114.099 37.3558C113.975 37.2751 113.874 37.1747 113.796 37.0534C113.718 36.9325 113.679 36.7817 113.679 36.5997V36.5849C113.679 36.4185 113.712 36.266 113.777 36.1277C113.843 35.9889 113.935 35.8707 114.053 35.7721C114.171 35.674 114.312 35.5981 114.476 35.5455C114.64 35.4924 114.818 35.4661 115.009 35.4661C115.251 35.4661 115.496 35.5049 115.742 35.5834C115.989 35.6615 116.214 35.7659 116.415 35.897L116.15 36.3356C115.969 36.2196 115.779 36.1277 115.58 36.0594C115.381 35.9916 115.185 35.9572 114.994 35.9572C114.762 35.9572 114.579 36.0117 114.442 36.1196C114.307 36.228 114.238 36.3632 114.238 36.5243V36.5394C114.238 36.6304 114.266 36.7094 114.322 36.7777C114.377 36.8455 114.451 36.9048 114.544 36.9552C114.638 37.0056 114.745 37.0511 114.866 37.0913C114.986 37.1319 115.112 37.172 115.243 37.2122C115.395 37.2577 115.544 37.3076 115.693 37.3634C115.842 37.4187 115.977 37.4897 116.098 37.5749C116.219 37.6605 116.316 37.764 116.389 37.8849C116.462 38.0058 116.499 38.1548 116.499 38.3306V38.3458C116.499 38.5322 116.462 38.6978 116.389 38.8414C116.316 38.9846 116.218 39.1069 116.094 39.2077C115.971 39.3089 115.824 39.3857 115.656 39.4383C115.487 39.4914 115.304 39.5177 115.108 39.5177ZM118.194 39.4423V35.5343H118.811V39.4423H118.194ZM118.124 34.68V34.0371H118.741V34.68H118.124ZM124.043 39.4423H123.46V37.1591C123.46 36.7964 123.367 36.5091 123.181 36.2976C122.994 36.0857 122.727 35.9804 122.379 35.9804C122.213 35.9804 122.058 36.009 121.914 36.067C121.771 36.125 121.646 36.208 121.54 36.3168C121.435 36.4248 121.353 36.5546 121.295 36.7058C121.237 36.8571 121.208 37.0235 121.208 37.2046V39.4423H120.626V35.5343H121.208V36.2142C121.339 36.0027 121.51 35.8225 121.722 35.674C121.933 35.5254 122.208 35.4509 122.545 35.4509C122.783 35.4509 122.993 35.4888 123.177 35.5642C123.361 35.6401 123.517 35.7471 123.646 35.8859C123.774 36.0242 123.872 36.1892 123.94 36.3806C124.008 36.5724 124.043 36.7839 124.043 37.0159V39.4423ZM127.527 39.5329C127.26 39.5329 127.008 39.4834 126.771 39.3857C126.534 39.2871 126.327 39.1483 126.149 38.9699C125.972 38.791 125.831 38.5755 125.726 38.3235C125.621 38.0714 125.569 37.7944 125.569 37.4919C125.569 37.2099 125.616 36.9441 125.709 36.6942C125.802 36.4453 125.932 36.228 126.098 36.0442C126.264 35.8604 126.462 35.7154 126.691 35.6097C126.921 35.5035 127.171 35.4509 127.444 35.4509C127.731 35.4509 127.988 35.5049 128.215 35.6133C128.441 35.7221 128.633 35.8694 128.789 36.0558C128.945 36.2423 129.064 36.4614 129.144 36.7134C129.225 36.9655 129.265 37.2349 129.265 37.5222V37.6052L129.258 37.7034H126.167C126.187 37.9153 126.237 38.1031 126.317 38.2668C126.398 38.4305 126.502 38.5688 126.627 38.6821C126.753 38.7959 126.894 38.8816 127.051 38.9391C127.207 38.9971 127.371 39.0265 127.542 39.0265C127.814 39.0265 128.047 38.9761 128.241 38.8753C128.435 38.774 128.613 38.6411 128.774 38.4747L129.137 38.7995C128.94 39.0212 128.716 39.1992 128.464 39.3321C128.212 39.466 127.9 39.5329 127.527 39.5329ZM127.429 35.9425C127.258 35.9425 127.1 35.9764 126.955 36.0442C126.81 36.1125 126.682 36.2057 126.572 36.324C126.462 36.4426 126.372 36.5823 126.301 36.7438C126.231 36.9048 126.186 37.081 126.167 37.2724H128.668C128.653 37.0966 128.617 36.9276 128.559 36.7661C128.502 36.605 128.421 36.464 128.319 36.3427C128.216 36.2222 128.091 36.125 127.943 36.0518C127.795 35.9791 127.624 35.9425 127.429 35.9425ZM132.108 39.5177C131.825 39.5177 131.541 39.466 131.253 39.3629C130.966 39.2594 130.712 39.1198 130.49 38.9431L130.785 38.5278C130.997 38.6888 131.217 38.812 131.446 38.8981C131.675 38.9837 131.906 39.0265 132.137 39.0265C132.375 39.0265 132.568 38.9712 132.72 38.8601C132.871 38.7495 132.947 38.5983 132.947 38.4064V38.3913C132.947 38.2958 132.92 38.2128 132.867 38.1419C132.814 38.0714 132.742 38.0098 132.652 37.9568C132.561 37.9037 132.456 37.8573 132.338 37.8171C132.22 37.7765 132.098 37.7386 131.972 37.7034C131.82 37.6583 131.668 37.6092 131.514 37.5561C131.36 37.5035 131.222 37.4361 131.098 37.3558C130.975 37.2751 130.874 37.1747 130.796 37.0534C130.718 36.9325 130.679 36.7817 130.679 36.5997V36.5849C130.679 36.4185 130.712 36.266 130.777 36.1277C130.843 35.9889 130.935 35.8707 131.053 35.7721C131.171 35.674 131.313 35.5981 131.476 35.5455C131.64 35.4924 131.818 35.4661 132.009 35.4661C132.251 35.4661 132.496 35.5049 132.742 35.5834C132.99 35.6615 133.214 35.7659 133.416 35.897L133.151 36.3356C132.969 36.2196 132.779 36.1277 132.58 36.0594C132.381 35.9916 132.186 35.9572 131.994 35.9572C131.763 35.9572 131.578 36.0117 131.442 36.1196C131.306 36.228 131.239 36.3632 131.239 36.5243V36.5394C131.239 36.6304 131.266 36.7094 131.322 36.7777C131.377 36.8455 131.451 36.9048 131.544 36.9552C131.637 37.0056 131.745 37.0511 131.866 37.0913C131.986 37.1319 132.112 37.172 132.244 37.2122C132.395 37.2577 132.544 37.3076 132.693 37.3634C132.842 37.4187 132.977 37.4897 133.098 37.5749C133.219 37.6605 133.316 37.764 133.389 37.8849C133.462 38.0058 133.499 38.1548 133.499 38.3306V38.3458C133.499 38.5322 133.462 38.6978 133.389 38.8414C133.316 38.9846 133.218 39.1069 133.094 39.2077C132.971 39.3089 132.824 39.3857 132.655 39.4383C132.487 39.4914 132.304 39.5177 132.108 39.5177ZM136.325 39.5177C136.043 39.5177 135.759 39.466 135.471 39.3629C135.184 39.2594 134.929 39.1198 134.708 38.9431L135.002 38.5278C135.214 38.6888 135.434 38.812 135.664 38.8981C135.893 38.9837 136.124 39.0265 136.356 39.0265C136.592 39.0265 136.786 38.9712 136.937 38.8601C137.089 38.7495 137.164 38.5983 137.164 38.4064V38.3913C137.164 38.2958 137.138 38.2128 137.085 38.1419C137.032 38.0714 136.96 38.0098 136.869 37.9568C136.779 37.9037 136.674 37.8573 136.556 37.8171C136.437 37.7765 136.315 37.7386 136.189 37.7034C136.038 37.6583 135.886 37.6092 135.732 37.5561C135.578 37.5035 135.44 37.4361 135.316 37.3558C135.193 37.2751 135.092 37.1747 135.014 37.0534C134.936 36.9325 134.897 36.7817 134.897 36.5997V36.5849C134.897 36.4185 134.929 36.266 134.995 36.1277C135.06 35.9889 135.152 35.8707 135.271 35.7721C135.389 35.674 135.53 35.5981 135.694 35.5455C135.858 35.4924 136.036 35.4661 136.227 35.4661C136.469 35.4661 136.713 35.5049 136.96 35.5834C137.207 35.6615 137.432 35.7659 137.633 35.897L137.368 36.3356C137.187 36.2196 136.997 36.1277 136.798 36.0594C136.598 35.9916 136.403 35.9572 136.212 35.9572C135.98 35.9572 135.796 36.0117 135.66 36.1196C135.524 36.228 135.456 36.3632 135.456 36.5243V36.5394C135.456 36.6304 135.483 36.7094 135.539 36.7777C135.594 36.8455 135.669 36.9048 135.762 36.9552C135.855 37.0056 135.963 37.0511 136.083 37.0913C136.204 37.1319 136.33 37.172 136.461 37.2122C136.613 37.2577 136.762 37.3076 136.911 37.3634C137.06 37.4187 137.194 37.4897 137.316 37.5749C137.436 37.6605 137.533 37.764 137.606 37.8849C137.679 38.0058 137.716 38.1548 137.716 38.3306V38.3458C137.716 38.5322 137.679 38.6978 137.606 38.8414C137.533 38.9846 137.435 39.1069 137.312 39.2077C137.188 39.3089 137.042 39.3857 136.873 39.4383C136.704 39.4914 136.522 39.5177 136.325 39.5177ZM142.818 39.4423H142.221V34.1509H144.201C144.499 34.1509 144.769 34.1897 145.014 34.2682C145.259 34.3463 145.468 34.4569 145.642 34.6006C145.815 34.7442 145.948 34.9209 146.042 35.1297C146.135 35.3389 146.182 35.5745 146.182 35.8363C146.182 36.1236 146.126 36.3757 146.016 36.5925C145.905 36.8089 145.755 36.9905 145.566 37.1363C145.377 37.2831 145.156 37.3924 144.905 37.4656C144.652 37.5387 144.385 37.5749 144.103 37.5749H142.818V39.4423ZM142.818 34.7023V37.0306H144.129C144.347 37.0306 144.545 37.0034 144.724 36.9476C144.904 36.8923 145.058 36.8129 145.186 36.7094C145.315 36.6063 145.414 36.4828 145.482 36.3391C145.551 36.1955 145.585 36.0358 145.585 35.8591C145.585 35.4763 145.455 35.1877 145.195 34.9936C144.934 34.7996 144.59 34.7023 144.16 34.7023H142.818ZM148.283 39.4423H147.701V35.5343H148.283V36.5546C148.354 36.3931 148.442 36.245 148.548 36.1085C148.654 35.9724 148.775 35.8551 148.911 35.7574C149.047 35.6588 149.196 35.5847 149.357 35.5343C149.503 35.4884 149.659 35.4656 149.826 35.4656C149.844 35.4656 149.861 35.4656 149.878 35.4661V36.0938H149.833C149.621 36.0938 149.421 36.1317 149.232 36.2071C149.043 36.2825 148.878 36.3958 148.737 36.547C148.596 36.6982 148.485 36.8861 148.404 37.11C148.324 37.3344 148.283 37.5927 148.283 37.8849V39.4423ZM152.91 39.5329C152.617 39.5329 152.348 39.4785 152.1 39.3701C151.854 39.2621 151.64 39.1158 151.458 38.932C151.277 38.7482 151.135 38.5322 151.035 38.2855C150.934 38.0388 150.884 37.7765 150.884 37.4995C150.884 37.2224 150.934 36.9588 151.035 36.7094C151.135 36.46 151.277 36.2423 151.458 36.0558C151.64 35.8694 151.855 35.7221 152.104 35.6133C152.354 35.5049 152.627 35.4509 152.925 35.4509C153.217 35.4509 153.488 35.5049 153.737 35.6133C153.987 35.7221 154.202 35.868 154.384 36.0518C154.565 36.2361 154.706 36.4511 154.807 36.6982C154.907 36.9454 154.958 37.2073 154.958 37.4843C154.958 37.7618 154.906 38.025 154.803 38.2739C154.7 38.5238 154.557 38.7415 154.376 38.928C154.195 39.1144 153.978 39.2621 153.726 39.3701C153.474 39.4785 153.202 39.5329 152.91 39.5329ZM152.91 35.9648C152.698 35.9648 152.504 36.0036 152.328 36.0817C152.151 36.1598 152.001 36.2677 151.878 36.406C151.754 36.5443 151.657 36.7054 151.587 36.8887C151.516 37.0721 151.481 37.2693 151.481 37.4807C151.481 37.6918 151.517 37.8903 151.591 38.0763C151.664 38.2623 151.764 38.4229 151.893 38.559C152.021 38.6946 152.174 38.8026 152.35 38.8833C152.526 38.9636 152.718 39.0038 152.925 39.0038C153.136 39.0038 153.33 38.9645 153.507 38.8869C153.683 38.8093 153.834 38.7022 153.96 38.5666C154.087 38.4305 154.184 38.2708 154.255 38.0875C154.326 37.9041 154.361 37.7069 154.361 37.4955C154.361 37.2849 154.324 37.0859 154.252 36.8999C154.178 36.7139 154.076 36.5519 153.945 36.4136C153.814 36.2758 153.661 36.166 153.484 36.0857C153.307 36.005 153.116 35.9648 152.91 35.9648ZM159.667 39.4423H158.994L157.785 37.847L156.568 39.4423H155.918L157.453 37.454L155.979 35.5343H156.644L157.801 37.0458L158.957 35.5343H159.607L158.125 37.4388L159.667 39.4423ZM161.671 40.6741C161.509 40.6741 161.363 40.6576 161.232 40.625C161.101 40.5924 160.97 40.5429 160.839 40.4778L161.036 40.0169C161.131 40.0669 161.226 40.1035 161.319 40.1262C161.412 40.149 161.522 40.1601 161.648 40.1601C161.824 40.1601 161.973 40.1075 162.094 40.0013C162.214 39.8956 162.333 39.7038 162.449 39.4267L160.673 35.5343H161.315L162.736 38.7919L163.991 35.5343H164.611L162.971 39.5708C162.805 39.9737 162.619 40.2587 162.415 40.4251C162.211 40.5911 161.963 40.6741 161.671 40.6741ZM173.432 39.4423H172.956L169.539 35.1034V39.4423H168.958V34.1509H169.517L172.85 38.3913V34.1509H173.432V39.4423ZM177.076 39.5329C176.808 39.5329 176.556 39.4834 176.319 39.3857C176.083 39.2871 175.875 39.1483 175.698 38.9699C175.52 38.791 175.379 38.5755 175.275 38.3235C175.17 38.0714 175.118 37.7944 175.118 37.4919C175.118 37.2099 175.164 36.9441 175.258 36.6942C175.351 36.4453 175.481 36.228 175.647 36.0442C175.813 35.8604 176.011 35.7154 176.24 35.6097C176.469 35.5035 176.72 35.4509 176.992 35.4509C177.279 35.4509 177.536 35.5049 177.763 35.6133C177.99 35.7221 178.181 35.8694 178.338 36.0558C178.494 36.2423 178.612 36.4614 178.693 36.7134C178.773 36.9655 178.814 37.2349 178.814 37.5222V37.6052L178.807 37.7034H175.715C175.735 37.9153 175.785 38.1031 175.866 38.2668C175.947 38.4305 176.05 38.5688 176.176 38.6821C176.302 38.7959 176.443 38.8816 176.599 38.9391C176.755 38.9971 176.919 39.0265 177.09 39.0265C177.362 39.0265 177.596 38.9761 177.789 38.8753C177.983 38.774 178.161 38.6411 178.322 38.4747L178.685 38.7995C178.489 39.0212 178.264 39.1992 178.012 39.3321C177.761 39.466 177.449 39.5329 177.076 39.5329ZM176.977 35.9425C176.807 35.9425 176.649 35.9764 176.504 36.0442C176.358 36.1125 176.231 36.2057 176.12 36.324C176.01 36.4426 175.92 36.5823 175.85 36.7438C175.78 36.9048 175.735 37.081 175.715 37.2724H178.217C178.202 37.0966 178.165 36.9276 178.107 36.7661C178.05 36.605 177.97 36.464 177.867 36.3427C177.765 36.2222 177.639 36.125 177.492 36.0518C177.344 35.9791 177.172 35.9425 176.977 35.9425ZM181.671 39.5101C181.515 39.5101 181.369 39.4901 181.233 39.4495C181.096 39.4093 180.98 39.3451 180.881 39.2567C180.783 39.1689 180.706 39.0538 180.65 38.9128C180.595 38.7718 180.568 38.6032 180.568 38.4064V36.0483H180.023V35.5343H180.568V34.3548H181.15V35.5343H182.389V36.0483H181.15V38.3306C181.15 38.5728 181.21 38.7415 181.331 38.8374C181.452 38.9333 181.611 38.981 181.807 38.981C181.908 38.981 182.003 38.9712 182.091 38.9507C182.179 38.9306 182.273 38.8954 182.374 38.845V39.3437C182.273 39.3995 182.166 39.441 182.053 39.4687C181.94 39.4963 181.812 39.5101 181.671 39.5101ZM188.111 39.4722H187.605L186.554 36.3882L185.496 39.4722H184.982L183.614 35.5343H184.234L185.261 38.671L186.312 35.5192H186.796L187.854 38.671L188.883 35.5343H189.487L188.111 39.4722ZM192.579 39.5329C192.286 39.5329 192.017 39.4785 191.769 39.3701C191.523 39.2621 191.309 39.1158 191.127 38.932C190.946 38.7482 190.804 38.5322 190.704 38.2855C190.603 38.0388 190.553 37.7765 190.553 37.4995C190.553 37.2224 190.603 36.9588 190.704 36.7094C190.804 36.46 190.946 36.2423 191.127 36.0558C191.309 35.8694 191.524 35.7221 191.773 35.6133C192.023 35.5049 192.296 35.4509 192.594 35.4509C192.886 35.4509 193.157 35.5049 193.406 35.6133C193.656 35.7221 193.871 35.868 194.052 36.0518C194.234 36.2361 194.375 36.4511 194.476 36.6982C194.576 36.9454 194.627 37.2073 194.627 37.4843C194.627 37.7618 194.575 38.025 194.472 38.2739C194.369 38.5238 194.226 38.7415 194.045 38.928C193.864 39.1144 193.647 39.2621 193.395 39.3701C193.143 39.4785 192.871 39.5329 192.579 39.5329ZM192.579 35.9648C192.367 35.9648 192.173 36.0036 191.996 36.0817C191.82 36.1598 191.67 36.2677 191.547 36.406C191.423 36.5443 191.326 36.7054 191.256 36.8887C191.185 37.0721 191.15 37.2693 191.15 37.4807C191.15 37.6918 191.186 37.8903 191.259 38.0763C191.333 38.2623 191.433 38.4229 191.562 38.559C191.69 38.6946 191.843 38.8026 192.019 38.8833C192.195 38.9636 192.387 39.0038 192.594 39.0038C192.805 39.0038 192.999 38.9645 193.176 38.8869C193.352 38.8093 193.503 38.7022 193.629 38.5666C193.756 38.4305 193.853 38.2708 193.924 38.0875C193.995 37.9041 194.03 37.7069 194.03 37.4955C194.03 37.2849 193.993 37.0859 193.921 36.8999C193.847 36.7139 193.745 36.5519 193.614 36.4136C193.483 36.2758 193.329 36.166 193.153 36.0857C192.976 36.005 192.785 35.9648 192.579 35.9648ZM196.789 39.4423H196.207V35.5343H196.789V36.5546C196.86 36.3931 196.948 36.245 197.053 36.1085C197.159 35.9724 197.28 35.8551 197.416 35.7574C197.552 35.6588 197.701 35.5847 197.863 35.5343C198.008 35.4884 198.165 35.4656 198.331 35.4656C198.349 35.4656 198.366 35.4656 198.384 35.4661V36.0938H198.339C198.127 36.0938 197.926 36.1317 197.738 36.2071C197.548 36.2825 197.383 36.3958 197.242 36.547C197.101 36.6982 196.99 36.8861 196.91 37.11C196.829 37.3344 196.789 37.5927 196.789 37.8849V39.4423ZM203.267 39.4423H202.571L201.173 37.6204L200.379 38.4216V39.4423H199.797V33.9238H200.379V37.7337L202.488 35.5343H203.214L201.573 37.2122L203.267 39.4423Z" fill="white" stroke="white" stroke-width="0.4" stroke-linecap="round" stroke-linejoin="round"/>
<defs>
<linearGradient id="paint0_linear_4395_4264" x1="11.5994" y1="0.40332" x2="11.5994" y2="47.4011" gradientUnits="userSpaceOnUse">
<stop stop-color="#E237B7"/>
<stop offset="1" stop-color="#705CDE"/>
</linearGradient>
<linearGradient id="paint1_linear_4395_4264" x1="11.6427" y1="6.04004" x2="11.6427" y2="47.4032" gradientUnits="userSpaceOnUse">
<stop stop-color="#E237B7"/>
<stop offset="1" stop-color="#705CDE"/>
</linearGradient>
</defs>
</svg>
