<svg width="115" height="26" viewBox="0 0 115 26" fill="none" xmlns="http://www.w3.org/2000/svg">
<path opacity="0.396508" fill-rule="evenodd" clip-rule="evenodd" d="M6.32153 13.1227L4.11139 14.3649L3.05638 13.9344L0.596436 11.8969L6.32153 8.67909C6.39415 8.63984 6.47656 8.62005 6.55914 8.62005C6.64173 8.62005 6.72414 8.63984 6.79676 8.67909L12.4897 11.8811L9.80026 14.1639L9.02665 14.3769L6.79676 13.1227C6.72414 13.0833 6.64173 13.0637 6.55914 13.0637C6.47656 13.0637 6.39415 13.0833 6.32153 13.1227ZM7.4181 6.72272L5.37141 6.36224L0.596436 3.40411L6.32153 0.186487C6.39415 0.147067 6.47656 0.127441 6.55914 0.127441C6.64173 0.127441 6.72414 0.147067 6.79676 0.186487L12.4897 3.38851L10.639 5.2476L7.4181 6.72272ZM5.40506 24.1947L0.596436 20.7842L0.652749 20.7527L6.32153 17.5664C6.39415 17.5271 6.47656 17.5073 6.55914 17.5073C6.64173 17.5073 6.72414 17.5271 6.79676 17.5664L12.4897 20.7684L11.2093 22.1295L8.69305 23.7687L5.40506 24.1947Z" fill="url(#paint0_linear_2806_18861)"/>
<path fill-rule="evenodd" clip-rule="evenodd" d="M0.0107422 13.0985V12.7841C0.0307784 12.6312 0.0804467 12.4794 0.161827 12.3373C0.274454 12.1484 0.419359 12.0069 0.59654 11.8968L0.652854 11.8653C1.02336 11.6764 1.48228 11.6685 1.86892 11.8888L5.17837 13.7457L6.05088 14.2362C6.36816 14.4146 6.75841 14.4146 7.07569 14.2362L11.2498 11.8888C11.6524 11.6606 12.1194 11.6764 12.4899 11.8811C12.6749 11.9832 12.836 12.1406 12.9568 12.3373C13.2307 12.8015 13.1581 13.3679 12.82 13.7457C12.7314 13.8399 12.6186 13.9265 12.4979 13.9973L7.32017 16.916C7.08667 17.042 6.8209 17.1128 6.56337 17.1128C6.2976 17.1128 6.03989 17.042 5.8064 16.916L0.620576 13.9973C0.49988 13.9265 0.387253 13.8399 0.306732 13.7457C0.143245 13.5631 0.0418541 13.3364 0.0107422 13.0985ZM0.0107422 4.60577V4.2914C0.0307784 4.13845 0.0804467 3.98671 0.161827 3.84454C0.274454 3.65583 0.419359 3.51409 0.59654 3.40405L0.652854 3.37251C1.02336 3.1838 1.48228 3.17592 1.86892 3.39616L5.17837 5.2529L6.05088 5.74354C6.36816 5.92185 6.75841 5.92185 7.07569 5.74354L11.2498 3.39616C11.6524 3.16803 12.1194 3.1838 12.4899 3.38828C12.6749 3.4906 12.836 3.64794 12.9568 3.84454C13.2307 4.30885 13.1581 4.87514 12.82 5.2529C12.7314 5.34734 12.6186 5.43372 12.4979 5.50451L7.32017 8.42339C7.08667 8.54936 6.8209 8.61998 6.56337 8.61998C6.2976 8.61998 6.03989 8.54936 5.8064 8.42339L0.620576 5.50451C0.49988 5.43372 0.387253 5.34734 0.306732 5.2529C0.143245 5.0703 0.0418541 4.84366 0.0107422 4.60577V4.60577ZM0.0107422 17.5421V17.2277C0.0307784 17.0747 0.0804467 16.923 0.161827 16.7808C0.274454 16.5921 0.419359 16.4505 0.59654 16.3403L0.652854 16.3089C1.02336 16.1201 1.48228 16.1122 1.86892 16.3324L5.17837 18.1892L6.05088 18.68C6.36816 18.8583 6.75841 18.8583 7.07569 18.68L11.2498 16.3324C11.6524 16.1043 12.1194 16.1201 12.4899 16.3247C12.6749 16.4269 12.836 16.5842 12.9568 16.7808C13.2307 17.2451 13.1581 17.8116 12.82 18.1892C12.7314 18.2836 12.6186 18.3702 12.4979 18.4409L7.32017 21.3597C7.08667 21.4855 6.8209 21.5562 6.56337 21.5562C6.2976 21.5562 6.03989 21.4855 5.8064 21.3597L0.620576 18.4409C0.49988 18.3702 0.387253 18.2836 0.306732 18.1892C0.143245 18.0066 0.0418541 17.78 0.0107422 17.5421ZM6.7337 25.9898H6.38971C6.18564 25.9662 5.98865 25.9015 5.8064 25.8031L0.620576 22.8844C0.49988 22.8136 0.387253 22.7273 0.306732 22.6328C0.143245 22.4502 0.0418541 22.2236 0.0107422 21.9857V21.6714C0.0307784 21.5184 0.0804467 21.3667 0.161827 21.2246C0.274454 21.0357 0.419359 20.8942 0.59654 20.784L0.652854 20.7524C1.02336 20.5637 1.48228 20.5558 1.86892 20.7761L5.17837 22.6328L6.05088 23.1235C6.36816 23.3018 6.75841 23.3018 7.07569 23.1235L11.2498 20.7761C11.6524 20.5479 12.1194 20.5637 12.4899 20.7684C12.6749 20.8705 12.836 21.0279 12.9568 21.2246C13.2307 21.6888 13.1581 22.2551 12.82 22.6328C12.7314 22.7273 12.6186 22.8136 12.4979 22.8844L7.32017 25.8031C7.13792 25.9015 6.93601 25.9662 6.7337 25.9898Z" fill="url(#paint1_linear_2806_18861)"/>
<path fill-rule="evenodd" clip-rule="evenodd" d="M20.9097 7.10904C20.9097 6.99414 20.9437 6.89802 21.0117 6.82052C21.0795 6.74336 21.1789 6.70478 21.3104 6.70478H22.437C22.4866 6.70478 22.5376 6.71468 22.5895 6.73447C22.6417 6.75427 22.6878 6.78312 22.7287 6.82052C22.7694 6.85827 22.8034 6.90138 22.8305 6.94985C22.8576 6.99883 22.8712 7.05184 22.8712 7.10904V14.7277C22.8712 14.9927 22.7287 15.1254 22.4437 15.1254H21.3171C21.0455 15.1254 20.9097 14.9927 20.9097 14.7277V7.10904ZM20.9097 4.17305C20.9097 3.90685 21.0431 3.77383 21.3104 3.77383H22.4502C22.5771 3.77383 22.6789 3.80738 22.7558 3.87363C22.8327 3.9404 22.8712 4.0402 22.8712 4.17305V5.16458C22.8712 5.2669 22.8348 5.36335 22.7625 5.45427C22.6901 5.54518 22.5883 5.59081 22.4571 5.59081H21.3171C21.0455 5.59081 20.9097 5.44873 20.9097 5.16458V4.17305ZM24.9886 6.89685C25.0429 6.82623 25.0947 6.78194 25.1447 6.76416C25.1809 6.72877 25.2352 6.71015 25.3078 6.70797C25.3801 6.70562 25.4479 6.70478 25.5112 6.70478H26.1966C26.328 6.70478 26.425 6.74672 26.4883 6.83042C26.552 6.91463 26.5948 7.00739 26.6174 7.10904L26.6921 7.81205C26.7961 7.66158 26.9239 7.51347 27.0755 7.36753C27.2269 7.22193 27.4068 7.09126 27.6149 6.97636C27.823 6.86145 28.0606 6.76869 28.3276 6.69807C28.5946 6.62729 28.8955 6.59189 29.2302 6.59189C29.7641 6.59189 30.239 6.68566 30.6555 6.87353C31.0715 7.06157 31.4221 7.31905 31.7074 7.64615C31.9923 7.97341 32.2082 8.35788 32.3556 8.80005C32.5023 9.24205 32.5758 9.71743 32.5758 10.2255V14.648C32.5758 14.8072 32.5375 14.9263 32.4608 15.006C32.3835 15.0857 32.2728 15.1254 32.1281 15.1254H31.0966C30.9156 15.1254 30.7947 15.0924 30.7336 15.026C30.6725 14.9597 30.6418 14.8426 30.6418 14.6745V10.2586C30.6418 10.0244 30.6011 9.7956 30.5197 9.57216C30.4382 9.34907 30.3193 9.14912 30.1635 8.97215C30.0072 8.79552 29.8137 8.65411 29.5831 8.54793C29.3524 8.44175 29.0854 8.38874 28.7822 8.38874C28.5741 8.38874 28.3582 8.42967 28.1341 8.51136C27.9102 8.59339 27.7054 8.70913 27.5202 8.85959C27.3344 9.00989 27.1806 9.1924 27.0583 9.4066C26.9364 9.62098 26.8729 9.86303 26.8686 10.1326V14.4293C26.8686 14.5132 26.864 14.5974 26.855 14.6812C26.8458 14.7649 26.8265 14.8406 26.7973 14.9065C26.7676 14.9729 26.7259 15.026 26.6717 15.0657C26.6174 15.1056 26.5472 15.1254 26.4612 15.1254H25.3414C25.1922 15.1254 25.0825 15.0914 25.0123 15.0228C24.9423 14.9542 24.9071 14.8559 24.9071 14.7277V7.09579C24.9071 7.03406 24.9342 6.96763 24.9886 6.89685ZM34.537 6.73129C34.537 6.33776 34.5981 5.95867 34.7204 5.59416C34.8426 5.22916 35.0213 4.90776 35.2566 4.62914C35.4918 4.35069 35.78 4.12843 36.1217 3.96287C36.4634 3.79714 36.8514 3.71411 37.2856 3.71411H37.3535C37.4847 3.71411 37.5865 3.75303 37.6592 3.83019C37.7313 3.90769 37.7673 4.01269 37.7673 4.14504V5.06024C37.7673 5.18856 37.7325 5.29676 37.6626 5.38499C37.592 5.47339 37.4961 5.51767 37.3738 5.51767C37.306 5.51767 37.2201 5.53445 37.1161 5.56749C37.0119 5.6007 36.9125 5.65254 36.8174 5.72316C36.7223 5.79394 36.6409 5.88469 36.5732 5.99523C36.5052 6.10544 36.4714 6.23611 36.4714 6.38624V7.46046H37.4554C37.5865 7.46046 37.6883 7.49367 37.7606 7.55993C37.8332 7.62636 37.8693 7.73673 37.8693 7.89139V8.70712C37.8693 8.86178 37.8332 8.97785 37.7606 9.05501C37.6883 9.13251 37.5865 9.17126 37.4554 9.17126H36.4714V14.6947C36.4714 14.8359 36.4239 14.9431 36.3287 15.0161C36.2336 15.089 36.1298 15.1254 36.0168 15.1254H34.9645C34.8291 15.1254 34.7238 15.0848 34.6491 15.0026C34.5744 14.9209 34.537 14.8181 34.537 14.6947V9.17126H33.865C33.734 9.17126 33.6278 9.13251 33.5462 9.05501C33.4648 8.97785 33.4241 8.86178 33.4241 8.70712V7.89139C33.4241 7.73673 33.4648 7.62636 33.5462 7.55993C33.6278 7.49367 33.734 7.46046 33.865 7.46046H34.537V6.73129ZM40.5092 10.9084C40.5092 11.2623 40.5727 11.597 40.6994 11.913C40.8258 12.2289 41.0024 12.5065 41.2287 12.7448C41.4548 12.9837 41.7206 13.1727 42.0262 13.3118C42.3315 13.4512 42.665 13.5208 43.0271 13.5208C43.3935 13.5208 43.7364 13.4512 44.0554 13.3118C44.374 13.1727 44.6513 12.9837 44.8869 12.7448C45.1221 12.5065 45.3075 12.2289 45.4429 11.913C45.5788 11.597 45.6466 11.2623 45.6466 10.9084C45.6466 10.5592 45.5788 10.2267 45.4429 9.91067C45.3075 9.59447 45.1221 9.31719 44.8869 9.07833C44.6513 8.8398 44.374 8.64975 44.0554 8.50818C43.7364 8.3666 43.3935 8.29598 43.0271 8.29598C42.665 8.29598 42.3315 8.3666 42.0262 8.50818C41.7206 8.64975 41.4548 8.8398 41.2287 9.07833C41.0024 9.31719 40.8258 9.59447 40.6994 9.91067C40.5727 10.2267 40.5092 10.5592 40.5092 10.9084ZM47.5674 14.7344C47.5674 14.8139 47.5504 14.879 47.5164 14.9298C47.4826 14.9808 47.4385 15.0206 47.3842 15.0493C47.3298 15.0781 47.2675 15.0981 47.1974 15.1088C47.1272 15.1201 47.0539 15.1254 46.977 15.1254H46.1285C45.9838 15.1254 45.883 15.088 45.8265 15.0127C45.7698 14.9376 45.7281 14.8426 45.701 14.7277L45.6603 14.1641C45.502 14.3188 45.3265 14.4637 45.1343 14.5982C44.942 14.7331 44.7349 14.8503 44.5133 14.9496C44.2918 15.0493 44.0562 15.1264 43.8075 15.182C43.5587 15.237 43.3032 15.2648 43.0407 15.2648C42.6336 15.2648 42.241 15.2125 41.8633 15.1088C41.4854 15.0052 41.1314 14.8592 40.8012 14.6713C40.4709 14.4835 40.1709 14.257 39.9021 13.9917C39.6327 13.7265 39.402 13.4326 39.2097 13.1098C39.0175 12.7871 38.8682 12.44 38.7619 12.0688C38.6555 11.6973 38.6024 11.3108 38.6024 10.9084C38.6024 10.5061 38.6555 10.1193 38.7619 9.74796C38.8682 9.37674 39.0175 9.02969 39.2097 8.70712C39.402 8.38438 39.6327 8.0915 39.9021 7.82865C40.1709 7.56563 40.4709 7.34019 40.8012 7.15232C41.1314 6.96445 41.4854 6.81834 41.8633 6.71468C42.241 6.61068 42.6336 6.55885 43.0407 6.55885C43.3303 6.55885 43.6062 6.58854 43.8686 6.64825C44.1309 6.70797 44.3766 6.79184 44.6049 6.9002C44.8333 7.00873 45.0448 7.13907 45.2395 7.29154C45.434 7.44385 45.6105 7.61092 45.7688 7.79209L45.8639 7.08254C45.8866 7.00286 45.908 6.93778 45.9285 6.88695C45.9487 6.83612 45.9736 6.7952 46.003 6.76416C46.0325 6.73347 46.0698 6.71233 46.1149 6.70143C46.1604 6.69019 46.2167 6.68482 46.2846 6.68482H46.9634C47.0355 6.68482 47.1081 6.69153 47.1804 6.70478C47.2529 6.71803 47.3185 6.73883 47.3774 6.76752C47.4359 6.79637 47.4826 6.83612 47.5164 6.88695C47.5504 6.93778 47.5674 7.00085 47.5674 7.076V14.7344ZM52.2636 15.1254C51.9061 15.1212 51.57 15.0679 51.2558 14.9662C50.9412 14.8646 50.6676 14.7175 50.4344 14.5247C50.2014 14.3323 50.0172 14.0957 49.8812 13.8145C49.7454 13.5339 49.6776 13.2138 49.6776 12.8557V8.37549H48.8975C48.7658 8.37549 48.6678 8.34714 48.602 8.28978C48.5366 8.23241 48.5036 8.1378 48.5036 8.00579V7.05452C48.5036 6.92687 48.5366 6.8368 48.602 6.78379C48.6678 6.73095 48.7658 6.70478 48.8975 6.70478H49.6776C49.6776 6.47045 49.679 6.23695 49.6811 6.00513C49.6835 5.77281 49.6845 5.53981 49.6845 5.30548C49.6845 5.21708 49.7128 5.14747 49.7693 5.09681C49.8258 5.04581 49.9128 5.00052 50.0308 4.96077C50.1077 4.93427 50.2002 4.9024 50.3089 4.86465C50.4176 4.82725 50.5295 4.79068 50.6451 4.75512C50.7601 4.71989 50.8722 4.69003 50.9809 4.66554C51.0896 4.64139 51.1799 4.62914 51.2525 4.62914C51.3924 4.62914 51.4841 4.66672 51.527 4.74187C51.57 4.81735 51.5916 4.91649 51.5916 5.04045C51.5916 5.31873 51.5904 5.59618 51.5883 5.87245C51.5858 6.14872 51.5847 6.42616 51.5847 6.70478H52.5621C52.6796 6.70478 52.7701 6.7343 52.8337 6.79369C52.8969 6.8534 52.9285 6.94683 52.9285 7.07449V7.97912C52.9285 8.12019 52.8969 8.22167 52.8337 8.28307C52.7701 8.34463 52.6796 8.37549 52.5621 8.37549H51.5847C51.5847 8.66334 51.5847 8.90673 51.5847 9.10567C51.5847 9.30512 51.5847 9.48074 51.5847 9.63389C51.5847 9.78637 51.5858 9.92895 51.5883 10.062C51.5904 10.1947 51.5916 10.3386 51.5916 10.4936C51.5916 10.6481 51.5916 10.8255 51.5916 11.0246C51.5916 11.2239 51.5916 11.4671 51.5916 11.755L51.5883 11.7815L51.5847 11.8082V12.6777C51.5847 12.9699 51.6434 13.1801 51.7614 13.3086C51.879 13.4368 52.0689 13.5008 52.3316 13.5008C52.4263 13.5008 52.5008 13.5342 52.5553 13.6005C52.6095 13.6669 52.6367 13.7464 52.6367 13.839V14.7609C52.6367 14.8758 52.604 14.9654 52.5383 15.0293C52.4729 15.0934 52.3812 15.1254 52.2636 15.1254ZM54.1092 7.10904C54.1092 6.99414 54.1434 6.89802 54.2112 6.82052C54.2792 6.74336 54.3784 6.70478 54.5099 6.70478H55.6365C55.6862 6.70478 55.7372 6.71468 55.789 6.73447C55.841 6.75427 55.8876 6.78312 55.9282 6.82052C55.9689 6.85827 56.0029 6.90138 56.0301 6.94985C56.0572 6.99883 56.0707 7.05184 56.0707 7.10904V14.7277C56.0707 14.9927 55.9282 15.1254 55.6432 15.1254H54.5168C54.245 15.1254 54.1092 14.9927 54.1092 14.7277V7.10904ZM54.1092 4.17305C54.1092 3.90685 54.2426 3.77383 54.5099 3.77383H55.6498C55.7766 3.77383 55.8785 3.80738 55.9554 3.87363C56.0323 3.9404 56.0707 4.0402 56.0707 4.17305V5.16458C56.0707 5.2669 56.0343 5.36335 55.9621 5.45427C55.8896 5.54518 55.7878 5.59081 55.6566 5.59081H54.5168C54.245 5.59081 54.1092 5.44873 54.1092 5.16458V4.17305ZM63.8954 12.9174C63.9723 12.869 64.0369 12.8391 64.0886 12.8279C64.1407 12.817 64.185 12.8113 64.2211 12.8113C64.2978 12.8158 64.3636 12.8557 64.4178 12.9307L64.5809 13.1498L65.0627 13.8192C65.0852 13.8501 65.1036 13.8821 65.1171 13.9153C65.1307 13.9484 65.1376 13.9784 65.1376 14.0049C65.1376 14.0757 65.1123 14.1388 65.0627 14.194C65.0127 14.2491 64.9473 14.3055 64.8659 14.3629C64.4814 14.637 64.0662 14.8579 63.6205 15.026C63.1747 15.1939 62.685 15.2781 62.1512 15.2781C61.7484 15.2781 61.3584 15.2259 60.9805 15.1221C60.6028 15.0184 60.25 14.8725 59.9219 14.6846C59.5938 14.4967 59.2942 14.2711 59.0227 14.0083C58.7511 13.7452 58.5171 13.4524 58.3204 13.1296C58.1233 12.8071 57.9718 12.46 57.8656 12.0886C57.7591 11.7172 57.7061 11.3306 57.7061 10.9284C57.7061 10.5261 57.7591 10.1391 57.8656 9.76792C57.9718 9.39671 58.1233 9.04965 58.3204 8.72691C58.5171 8.40418 58.7511 8.11147 59.0227 7.84828C59.2942 7.5856 59.5938 7.35998 59.9219 7.17211C60.25 6.98424 60.6028 6.8383 60.9805 6.73447C61.3584 6.63047 61.7484 6.57864 62.1512 6.57864C62.6534 6.57864 63.1285 6.65379 63.5762 6.80392C64.0243 6.95438 64.4223 7.15769 64.7708 7.414L64.764 7.40745C64.8272 7.46952 64.8896 7.52353 64.9508 7.56999C65.0117 7.61629 65.0424 7.68809 65.0424 7.78554C65.0424 7.81205 65.0411 7.84291 65.039 7.87814C65.0366 7.9137 65.0242 7.94691 65.0018 7.97761L64.4451 8.80659C64.3543 8.93894 64.2549 9.00519 64.1462 9.00519C64.0695 9.00519 63.9837 8.96796 63.8885 8.89298C63.6578 8.70259 63.3886 8.54793 63.0809 8.4285C62.7731 8.30923 62.4565 8.24969 62.1308 8.24969C61.778 8.24969 61.4466 8.32131 61.1367 8.4649C60.8267 8.60865 60.554 8.80323 60.3186 9.04831C60.0836 9.29388 59.898 9.57887 59.7622 9.90396C59.6267 10.2287 59.5589 10.5702 59.5589 10.9284C59.5589 11.2954 59.6267 11.6401 59.7622 11.9627C59.898 12.2854 60.0824 12.5662 60.3154 12.8047C60.5484 13.0436 60.821 13.2326 61.1335 13.3717C61.4454 13.5109 61.778 13.5805 62.1308 13.5805C62.5154 13.5805 62.8479 13.5154 63.1285 13.3849C63.4088 13.2546 63.6647 13.0988 63.8954 12.9174ZM67.9738 10.9084C67.9738 11.2623 68.0375 11.597 68.1641 11.913C68.2906 12.2289 68.4671 12.5065 68.6936 12.7448C68.9197 12.9837 69.1854 13.1727 69.4909 13.3118C69.7963 13.4512 70.1299 13.5208 70.492 13.5208C70.8584 13.5208 71.2012 13.4512 71.5202 13.3118C71.8389 13.1727 72.116 12.9837 72.3515 12.7448C72.5869 12.5065 72.7723 12.2289 72.9078 11.913C73.0436 11.597 73.1114 11.2623 73.1114 10.9084C73.1114 10.5592 73.0436 10.2267 72.9078 9.91067C72.7723 9.59447 72.5869 9.31719 72.3515 9.07833C72.116 8.8398 71.8389 8.64975 71.5202 8.50818C71.2012 8.3666 70.8584 8.29598 70.492 8.29598C70.1299 8.29598 69.7963 8.3666 69.4909 8.50818C69.1854 8.64975 68.9197 8.8398 68.6936 9.07833C68.4671 9.31719 68.2906 9.59447 68.1641 9.91067C68.0375 10.2267 67.9738 10.5592 67.9738 10.9084ZM75.0323 14.7344C75.0323 14.8139 75.0153 14.879 74.9813 14.9298C74.9474 14.9808 74.9033 15.0206 74.8489 15.0493C74.7946 15.0781 74.7323 15.0981 74.6621 15.1088C74.592 15.1201 74.5186 15.1254 74.4418 15.1254H73.5933C73.4486 15.1254 73.3478 15.088 73.2913 15.0127C73.2347 14.9376 73.193 14.8426 73.1658 14.7277L73.125 14.1641C72.9667 14.3188 72.7914 14.4637 72.5991 14.5982C72.4068 14.7331 72.1998 14.8503 71.9781 14.9496C71.7566 15.0493 71.5211 15.1264 71.2721 15.182C71.0235 15.237 70.7679 15.2648 70.5055 15.2648C70.0983 15.2648 69.7058 15.2125 69.3279 15.1088C68.9502 15.0052 68.5962 14.8592 68.2661 14.6713C67.9357 14.4835 67.6358 14.257 67.3667 13.9917C67.0974 13.7265 66.8668 13.4326 66.6745 13.1098C66.4822 12.7871 66.3329 12.44 66.2267 12.0688C66.1201 11.6973 66.0671 11.3108 66.0671 10.9084C66.0671 10.5061 66.1201 10.1193 66.2267 9.74796C66.3329 9.37674 66.4822 9.02969 66.6745 8.70712C66.8668 8.38438 67.0974 8.0915 67.3667 7.82865C67.6358 7.56563 67.9357 7.34019 68.2661 7.15232C68.5962 6.96445 68.9502 6.81834 69.3279 6.71468C69.7058 6.61068 70.0983 6.55885 70.5055 6.55885C70.795 6.55885 71.0709 6.58854 71.3334 6.64825C71.5958 6.70797 71.8414 6.79184 72.0698 6.9002C72.2981 7.00873 72.5095 7.13907 72.7043 7.29154C72.8989 7.44385 73.0754 7.61092 73.2337 7.79209L73.3288 7.08254C73.3514 7.00286 73.3729 6.93778 73.3933 6.88695C73.4136 6.83612 73.4383 6.7952 73.4677 6.76416C73.4972 6.73347 73.5346 6.71233 73.5798 6.70143C73.6251 6.69019 73.6814 6.68482 73.7494 6.68482H74.4283C74.5004 6.68482 74.573 6.69153 74.6453 6.70478C74.7177 6.71803 74.7831 6.73883 74.842 6.76752C74.9007 6.79637 74.9474 6.83612 74.9813 6.88695C75.0153 6.93778 75.0323 7.00085 75.0323 7.076V14.7344ZM76.0625 13.8457C76.0625 13.7221 76.0794 13.6159 76.1135 13.5275C76.1474 13.4391 76.2298 13.3948 76.3613 13.3948H77.4268C77.481 13.3948 77.5363 13.3972 77.5928 13.4015C77.6496 13.4061 77.7015 13.418 77.749 13.4379C77.7964 13.4577 77.8361 13.4868 77.8678 13.5242C77.8993 13.5619 77.9154 13.6159 77.9154 13.6867V14.668C77.9154 14.7297 77.9128 14.7874 77.9087 14.8406C77.9039 14.8933 77.8915 14.9421 77.8713 14.9862C77.8508 15.0303 77.8203 15.0649 77.7796 15.089C77.7387 15.1135 77.6822 15.1254 77.6098 15.1254H76.5443C76.3858 15.1254 76.2662 15.1088 76.1848 15.0758C76.1032 15.0426 76.0625 14.9597 76.0625 14.8273V13.8457ZM78.8805 11.0188C78.8805 10.9601 78.8976 10.9106 78.9325 10.8712C78.9675 10.8316 79.0183 10.8116 79.0856 10.8116H79.6625C79.6882 10.8116 79.714 10.8168 79.7408 10.8267C79.7676 10.8369 79.7911 10.8517 79.8122 10.8712C79.833 10.8904 79.8505 10.9124 79.8644 10.9371C79.8783 10.9622 79.885 10.9894 79.885 11.0188V14.9216C79.885 15.0577 79.8122 15.1254 79.6663 15.1254H79.0891C78.9498 15.1254 78.8805 15.0577 78.8805 14.9216V11.0188ZM78.8805 9.51479C78.8805 9.37825 78.9486 9.31015 79.0856 9.31015H79.6695C79.7344 9.31015 79.7866 9.32726 79.8261 9.36148C79.8653 9.39553 79.885 9.44636 79.885 9.51479V10.0227C79.885 10.0749 79.8666 10.1244 79.8295 10.1712C79.7925 10.2176 79.7404 10.2408 79.673 10.2408H79.0891C78.9498 10.2408 78.8805 10.1681 78.8805 10.0227V9.51479ZM81.7452 12.9755C81.7452 13.1566 81.7777 13.3282 81.8426 13.4898C81.9078 13.6518 81.9978 13.7929 82.1138 13.9128C82.2297 14.0329 82.3669 14.128 82.5259 14.1983C82.6845 14.2684 82.8578 14.3035 83.0456 14.3035C83.2288 14.3035 83.3984 14.2684 83.5548 14.1983C83.7114 14.128 83.8463 14.0329 83.96 13.9128C84.0735 13.7929 84.1619 13.6518 84.2259 13.4898C84.2896 13.3282 84.3216 13.1566 84.3216 12.9755C84.3216 12.7965 84.2896 12.6256 84.2259 12.4624C84.1619 12.2991 84.0735 12.1564 83.96 12.0326C83.8463 11.9093 83.7114 11.8107 83.5548 11.7372C83.3984 11.6636 83.2288 11.6267 83.0456 11.6267C82.8578 11.6267 82.6845 11.6636 82.5259 11.7372C82.3669 11.8107 82.2297 11.9093 82.1138 12.0326C81.9978 12.1564 81.9078 12.2991 81.8426 12.4624C81.7777 12.6256 81.7452 12.7965 81.7452 12.9755ZM80.7649 12.9755C80.7649 12.7693 80.7922 12.5705 80.8465 12.3792C80.9007 12.1879 80.9781 12.0095 81.0777 11.8441C81.1771 11.679 81.2966 11.5287 81.4355 11.394C81.5742 11.2595 81.7284 11.1439 81.8975 11.0478C82.0666 10.9513 82.2478 10.8769 82.4411 10.8233C82.6346 10.7703 82.8365 10.7435 83.0471 10.7435C83.2559 10.7435 83.4571 10.7703 83.6518 10.8233C83.8463 10.8769 84.0275 10.9513 84.1954 11.0478C84.3633 11.1439 84.5168 11.2595 84.6559 11.394C84.7947 11.5287 84.9139 11.679 85.0136 11.8441C85.1129 12.0095 85.1903 12.1879 85.2446 12.3792C85.299 12.5705 85.3263 12.7693 85.3263 12.9755C85.3263 13.1813 85.299 13.3796 85.2446 13.5696C85.1903 13.76 85.1129 13.9373 85.0136 14.1014C84.9139 14.2654 84.7947 14.4155 84.6559 14.5512C84.5168 14.6875 84.3633 14.8034 84.1954 14.8995C84.0275 14.9958 83.8463 15.0706 83.6518 15.1236C83.4571 15.1771 83.2559 15.2036 83.0471 15.2036C82.8365 15.2036 82.6346 15.1771 82.4411 15.1236C82.2478 15.0706 82.0666 14.9958 81.8975 14.8995C81.7284 14.8034 81.5742 14.6875 81.4355 14.5512C81.2966 14.4155 81.1771 14.2654 81.0777 14.1014C80.9781 13.9373 80.9007 13.76 80.8465 13.5696C80.7922 13.3796 80.7649 13.1813 80.7649 12.9755Z" fill="white"/>
<path fill-rule="evenodd" clip-rule="evenodd" d="M22.425 21.6577C22.1895 21.6577 21.9787 21.6186 21.7928 21.5411C21.6071 21.4637 21.4481 21.3567 21.3162 21.2207C21.184 21.0852 21.0833 20.9256 21.0139 20.7425C20.9443 20.5596 20.9097 20.364 20.9097 20.1561C20.9097 19.9565 20.9458 19.7653 21.0182 19.5822C21.0903 19.399 21.1918 19.2382 21.3225 19.0998C21.4529 18.9609 21.6099 18.8509 21.7928 18.7689C21.976 18.6872 22.1795 18.6464 22.4038 18.6464C22.5287 18.6464 22.6428 18.6545 22.7466 18.6714C22.8501 18.6879 22.9465 18.7127 23.036 18.7461C23.1254 18.7795 23.2091 18.8204 23.2872 18.8688C23.3651 18.9172 23.441 18.9722 23.5149 19.033L23.2978 19.2827C23.241 19.2328 23.1815 19.1877 23.1189 19.1474C23.0566 19.1074 22.9893 19.0725 22.9166 19.0433C22.8443 19.0144 22.7649 18.9915 22.6785 18.9749C22.5918 18.9584 22.4961 18.9498 22.391 18.9498C22.2265 18.9498 22.0745 18.9817 21.9355 19.0458C21.7963 19.1096 21.6772 19.1958 21.578 19.3043C21.4785 19.4125 21.4006 19.5397 21.3438 19.6853C21.287 19.8311 21.2587 19.986 21.2587 20.1499C21.2587 20.325 21.2863 20.4867 21.3416 20.6355C21.3971 20.784 21.4757 20.9121 21.578 21.0206C21.6802 21.1289 21.8036 21.2138 21.9483 21.2747C22.0931 21.3358 22.2561 21.3665 22.4378 21.3665C22.6081 21.3665 22.7684 21.338 22.9189 21.2808C23.0692 21.2239 23.1955 21.1549 23.2978 21.0742V20.3475H22.391V20.0562H23.6214V21.2138C23.4822 21.3353 23.3111 21.4399 23.1084 21.5268C22.9053 21.614 22.6777 21.6577 22.425 21.6577ZM24.6515 21.6078V18.5713H24.9794V21.6078H24.6515ZM27.0439 21.6577C26.8794 21.6577 26.7273 21.6277 26.5884 21.5681C26.4495 21.5086 26.3289 21.4281 26.2266 21.327C26.1243 21.2259 26.045 21.107 25.9882 20.9713C25.9314 20.8356 25.903 20.6912 25.903 20.5388C25.903 20.3863 25.9314 20.2413 25.9882 20.104C26.045 19.9668 26.1243 19.847 26.2266 19.7444C26.3289 19.6418 26.4502 19.5608 26.5907 19.5009C26.7311 19.4413 26.8849 19.4116 27.0525 19.4116C27.217 19.4116 27.3695 19.4413 27.51 19.5009C27.6507 19.5608 27.772 19.6411 27.874 19.7422C27.9763 19.8436 28.0557 19.9619 28.1125 20.0979C28.1693 20.2339 28.1977 20.378 28.1977 20.5304C28.1977 20.6831 28.1685 20.8279 28.1102 20.9649C28.0522 21.1024 27.972 21.2222 27.8698 21.3248C27.7678 21.4274 27.6457 21.5086 27.5037 21.5681C27.3617 21.6277 27.2085 21.6577 27.0439 21.6577ZM27.0439 19.6943C26.9248 19.6943 26.8155 19.7157 26.7163 19.7587C26.6168 19.8016 26.5324 19.861 26.4628 19.9371C26.3932 20.0132 26.3387 20.1018 26.299 20.2027C26.2593 20.3036 26.2394 20.4121 26.2394 20.5285C26.2394 20.6446 26.26 20.7538 26.301 20.8562C26.3422 20.9585 26.399 21.0469 26.4713 21.1218C26.5437 21.1964 26.6296 21.2558 26.7289 21.3002C26.8281 21.3444 26.9361 21.3665 27.0525 21.3665C27.1718 21.3665 27.2808 21.3449 27.3803 21.3022C27.4796 21.2595 27.5648 21.2006 27.6356 21.126C27.7065 21.0511 27.762 20.9632 27.8017 20.8623C27.8414 20.7614 27.8612 20.6529 27.8612 20.5366C27.8612 20.4207 27.8406 20.3112 27.7997 20.2089C27.7585 20.1065 27.7009 20.0174 27.6273 19.9413C27.5535 19.8654 27.4668 19.805 27.3675 19.7609C27.268 19.7164 27.1602 19.6943 27.0439 19.6943ZM30.2582 21.6535C30.1559 21.6535 30.0622 21.641 29.9773 21.6162C29.8921 21.5911 29.8152 21.5577 29.7474 21.516C29.6793 21.4745 29.6175 21.4262 29.5619 21.3707C29.5067 21.3152 29.4577 21.257 29.4152 21.1959V21.6078H29.0873V18.5713H29.4152V19.8897C29.4604 19.8262 29.5109 19.7653 29.5662 19.7069C29.6217 19.6487 29.6833 19.5981 29.7516 19.5552C29.8197 19.512 29.8953 19.4776 29.9793 19.4511C30.0629 19.4248 30.1559 19.4116 30.2582 19.4116C30.3885 19.4116 30.5169 19.4366 30.6433 19.4864C30.7697 19.5363 30.8825 19.6092 30.9817 19.7049C31.0812 19.8004 31.1606 19.9177 31.2202 20.0562C31.2797 20.1951 31.3096 20.3529 31.3096 20.5304C31.3096 20.7079 31.2797 20.866 31.2202 21.0044C31.1606 21.1434 31.082 21.2602 30.9838 21.356C30.886 21.4517 30.774 21.5253 30.6476 21.5766C30.5212 21.6277 30.3913 21.6535 30.2582 21.6535ZM30.1984 19.7029C30.0963 19.7029 29.9976 19.7228 29.9026 19.7628C29.8074 19.8028 29.7222 19.8586 29.6471 19.9302C29.572 20.0019 29.5122 20.0891 29.4685 20.1912C29.4243 20.2933 29.4024 20.4062 29.4024 20.5304C29.4024 20.6546 29.4243 20.7683 29.4685 20.8719C29.5122 20.9752 29.572 21.0631 29.6471 21.1348C29.7222 21.2065 29.8074 21.2622 29.9026 21.3022C29.9976 21.3422 30.0963 21.3621 30.1984 21.3621C30.3034 21.3621 30.4034 21.3437 30.4986 21.3064C30.5936 21.2693 30.676 21.2156 30.7456 21.1451C30.8152 21.0749 30.8704 20.9877 30.9117 20.8842C30.9526 20.7808 30.9732 20.6645 30.9732 20.5346C30.9732 20.4077 30.9526 20.2933 30.9117 20.1912C30.8704 20.0891 30.8144 20.0014 30.7433 19.9285C30.6725 19.8554 30.5903 19.7992 30.4963 19.7606C30.4029 19.7221 30.3034 19.7029 30.1984 19.7029ZM32.8676 21.6535C32.7654 21.6535 32.6654 21.6395 32.5676 21.6117C32.4696 21.5843 32.3815 21.5418 32.3036 21.4848C32.2254 21.4281 32.1631 21.3582 32.1164 21.275C32.0694 21.1917 32.046 21.0935 32.046 20.9796C32.046 20.866 32.0687 20.7656 32.1141 20.678C32.1596 20.5908 32.2239 20.5179 32.3078 20.4597C32.3915 20.4013 32.4908 20.3571 32.6058 20.3267C32.7206 20.2962 32.8478 20.2808 32.987 20.2808C33.1287 20.2808 33.2523 20.2891 33.3573 20.3058C33.4621 20.3225 33.5643 20.3446 33.6636 20.3723V20.2977C33.6636 20.1035 33.6063 19.9572 33.4912 19.8586C33.3764 19.7604 33.2154 19.711 33.0081 19.711C32.8777 19.711 32.7591 19.7255 32.6526 19.7547C32.5463 19.7839 32.442 19.822 32.3398 19.8691L32.2418 19.6069C32.3639 19.5517 32.4872 19.508 32.6121 19.4761C32.737 19.4442 32.8804 19.4282 33.0422 19.4282C33.343 19.4282 33.5744 19.5009 33.7362 19.6465C33.898 19.7923 33.9787 20.0078 33.9787 20.2933V21.6078H33.6636V21.2833C33.5872 21.3805 33.4842 21.4662 33.355 21.5411C33.2259 21.6162 33.0633 21.6535 32.8676 21.6535ZM33.0231 20.5179C32.8166 20.5179 32.6581 20.5582 32.5478 20.6384C32.4375 20.719 32.3822 20.8287 32.3822 20.9671C32.3822 21.0364 32.397 21.0975 32.4269 21.15C32.4566 21.2028 32.4968 21.248 32.5478 21.2853C32.5988 21.3226 32.6573 21.3513 32.7239 21.3707C32.7902 21.3901 32.8603 21.3997 32.934 21.3997C33.0357 21.3997 33.1312 21.3852 33.2204 21.356C33.3093 21.327 33.3872 21.2867 33.4538 21.2354C33.5201 21.1841 33.5726 21.1233 33.6106 21.0526C33.6488 20.9819 33.6679 20.9033 33.6679 20.8174V20.6095C33.5859 20.5871 33.4917 20.5665 33.3857 20.5471C33.2797 20.5277 33.1588 20.5179 33.0231 20.5179ZM35.0045 21.6078V18.5713H35.3324V21.6078H35.0045ZM38.3592 21.6078H38.0228V18.6962H39.1383C39.3056 18.6962 39.4581 18.7176 39.5958 18.7608C39.7335 18.8038 39.8511 18.8646 39.9491 18.9437C40.0471 19.0227 40.1222 19.1199 40.175 19.2348C40.2272 19.3499 40.2536 19.4795 40.2536 19.6236C40.2536 19.7817 40.2222 19.9204 40.1599 20.0397C40.0973 20.1588 40.0129 20.2587 39.9066 20.339C39.8001 20.4197 39.676 20.4799 39.534 20.5201C39.3921 20.5604 39.2418 20.5803 39.0828 20.5803H38.3592V21.6078ZM38.3592 18.9996V20.2808H39.0976C39.22 20.2808 39.3318 20.2658 39.4328 20.2351C39.5338 20.2047 39.6205 20.161 39.6931 20.104C39.7657 20.0473 39.8212 19.9793 39.8596 19.9003C39.8981 19.8213 39.9172 19.7334 39.9172 19.6362C39.9172 19.4255 39.8441 19.2667 39.6973 19.1599C39.5509 19.0532 39.3566 18.9996 39.1147 18.9996H38.3592ZM42.0543 21.6577C41.9038 21.6577 41.7618 21.6304 41.6287 21.5766C41.4953 21.5224 41.3784 21.4461 41.2787 21.3479C41.1784 21.2494 41.0991 21.1309 41.04 20.9922C40.9812 20.8535 40.9518 20.701 40.9518 20.5346C40.9518 20.3795 40.978 20.2332 41.0305 20.0957C41.083 19.9587 41.1561 19.8392 41.2498 19.738C41.3433 19.6369 41.4548 19.5571 41.584 19.4989C41.7131 19.4405 41.8543 19.4116 42.0076 19.4116C42.1691 19.4116 42.3141 19.4413 42.4417 19.5009C42.5694 19.5608 42.6772 19.6418 42.7651 19.7444C42.8533 19.847 42.9199 19.9676 42.9653 20.1062C43.0108 20.2449 43.0334 20.3932 43.0334 20.5513V20.597L43.0292 20.651H41.288C41.2993 20.7676 41.3277 20.8709 41.3732 20.961C41.4186 21.0511 41.4767 21.1272 41.5478 21.1895C41.6186 21.2521 41.698 21.2993 41.786 21.3309C41.8742 21.3628 41.9664 21.379 42.0628 21.379C42.2161 21.379 42.3473 21.3513 42.4566 21.2958C42.5658 21.2401 42.6658 21.1669 42.7568 21.0754L42.9611 21.2541C42.8503 21.3761 42.7241 21.474 42.5822 21.5472C42.4402 21.6208 42.2643 21.6577 42.0543 21.6577ZM41.999 19.6821C41.9031 19.6821 41.8141 19.7007 41.7325 19.738C41.6505 19.7756 41.5787 19.8269 41.5166 19.8919C41.4546 19.9572 41.4038 20.0341 41.3641 20.1229C41.3247 20.2116 41.2993 20.3085 41.288 20.4138H42.697C42.6887 20.3171 42.6681 20.2241 42.6357 20.1352C42.6033 20.0466 42.5583 19.969 42.5003 19.9023C42.4425 19.836 42.3721 19.7825 42.289 19.7422C42.2056 19.7022 42.1091 19.6821 41.999 19.6821ZM44.8726 21.6577C44.7221 21.6577 44.5801 21.6304 44.4467 21.5766C44.3135 21.5224 44.1967 21.4461 44.0967 21.3479C43.9967 21.2494 43.9173 21.1309 43.8583 20.9922C43.7995 20.8535 43.7698 20.701 43.7698 20.5346C43.7698 20.3795 43.7962 20.2332 43.8487 20.0957C43.9012 19.9587 43.9744 19.8392 44.0681 19.738C44.1615 19.6369 44.2731 19.5571 44.4022 19.4989C44.5311 19.4405 44.6723 19.4116 44.8258 19.4116C44.9874 19.4116 45.1321 19.4413 45.26 19.5009C45.3876 19.5608 45.4954 19.6418 45.5834 19.7444C45.6713 19.847 45.7381 19.9676 45.7836 20.1062C45.8288 20.2449 45.8517 20.3932 45.8517 20.5513V20.597L45.8474 20.651H44.1063C44.1176 20.7676 44.146 20.8709 44.1914 20.961C44.2367 21.0511 44.2949 21.1272 44.366 21.1895C44.4369 21.2521 44.5163 21.2993 44.6042 21.3309C44.6922 21.3628 44.7846 21.379 44.8811 21.379C45.0344 21.379 45.1655 21.3513 45.2748 21.2958C45.3841 21.2401 45.4841 21.1669 45.5751 21.0754L45.7793 21.2541C45.6685 21.3761 45.5424 21.474 45.4004 21.5472C45.2585 21.6208 45.0826 21.6577 44.8726 21.6577ZM44.8173 19.6821C44.7213 19.6821 44.6324 19.7007 44.5505 19.738C44.4688 19.7756 44.397 19.8269 44.3349 19.8919C44.2728 19.9572 44.2218 20.0341 44.1824 20.1229C44.1429 20.2116 44.1176 20.3085 44.1063 20.4138H45.5153C45.507 20.3171 45.4864 20.2241 45.454 20.1352C45.4215 20.0466 45.3766 19.969 45.3185 19.9023C45.2607 19.836 45.1901 19.7825 45.107 19.7422C45.0238 19.7022 44.9271 19.6821 44.8173 19.6821ZM47.0522 21.6078H46.7243V19.4575H47.0522V20.0189C47.0919 19.93 47.1416 19.8485 47.2011 19.7734C47.2609 19.6985 47.329 19.634 47.4054 19.5802C47.482 19.5259 47.5657 19.4852 47.6567 19.4575C47.7391 19.4322 47.827 19.4197 47.921 19.4197C47.9308 19.4197 47.9406 19.4197 47.9504 19.4199V19.7653H47.925C47.8057 19.7653 47.6928 19.7861 47.5863 19.8276C47.48 19.8691 47.3871 19.9315 47.3077 20.0147C47.228 20.0979 47.1657 20.2012 47.1202 20.3245C47.0748 20.4479 47.0522 20.5901 47.0522 20.7509V21.6078ZM48.6571 20.5263V20.1895H49.8405V20.5263H48.6571ZM51.5179 21.6451C51.4297 21.6451 51.3475 21.6341 51.2709 21.6117C51.1943 21.5897 51.1282 21.5543 51.0729 21.5057C51.0176 21.4573 50.9742 21.394 50.943 21.3164C50.9118 21.2389 50.8963 21.1461 50.8963 21.0378V19.7402H50.5897V19.4575H50.8963V18.8084H51.2241V19.4575H51.9221V19.7402H51.2241V20.9961C51.2241 21.1294 51.2581 21.2222 51.3262 21.275C51.3942 21.3277 51.4837 21.354 51.5945 21.354C51.6513 21.354 51.7043 21.3486 51.754 21.3373C51.8038 21.3263 51.8568 21.3069 51.9138 21.2791V21.5536C51.8568 21.5843 51.7965 21.6071 51.7327 21.6223C51.6689 21.6375 51.5973 21.6451 51.5179 21.6451ZM53.7402 21.6577C53.5753 21.6577 53.4233 21.6277 53.2844 21.5681C53.1455 21.5086 53.0249 21.4281 52.9226 21.327C52.8203 21.2259 52.7409 21.107 52.6842 20.9713C52.6274 20.8356 52.599 20.6912 52.599 20.5388C52.599 20.3863 52.6274 20.2413 52.6842 20.104C52.7409 19.9668 52.8203 19.847 52.9226 19.7444C53.0249 19.6418 53.146 19.5608 53.2864 19.5009C53.4271 19.4413 53.5809 19.4116 53.7485 19.4116C53.9128 19.4116 54.0655 19.4413 54.2062 19.5009C54.3467 19.5608 54.4678 19.6411 54.5698 19.7422C54.6725 19.8436 54.7514 19.9619 54.8085 20.0979C54.8653 20.2339 54.8936 20.378 54.8936 20.5304C54.8936 20.6831 54.8642 20.8279 54.8065 20.9649C54.7479 21.1024 54.668 21.2222 54.566 21.3248C54.4635 21.4274 54.3417 21.5086 54.1999 21.5681C54.0575 21.6277 53.9045 21.6577 53.7402 21.6577ZM53.7402 19.6943C53.6208 19.6943 53.5115 19.7157 53.412 19.7587C53.3128 19.8016 53.2284 19.861 53.1588 19.9371C53.0892 20.0132 53.0346 20.1018 52.995 20.2027C52.9553 20.3036 52.9354 20.4121 52.9354 20.5285C52.9354 20.6446 52.956 20.7538 52.997 20.8562C53.0382 20.9585 53.095 21.0469 53.1673 21.1218C53.2397 21.1964 53.3256 21.2558 53.4248 21.3002C53.5241 21.3444 53.6321 21.3665 53.7485 21.3665C53.8675 21.3665 53.9766 21.3449 54.0763 21.3022C54.1753 21.2595 54.2607 21.2006 54.3319 21.126C54.4025 21.0511 54.458 20.9632 54.4977 20.8623C54.5374 20.7614 54.5572 20.6529 54.5572 20.5366C54.5572 20.4207 54.5366 20.3112 54.4959 20.2089C54.4545 20.1065 54.3967 20.0174 54.3231 19.9413C54.2494 19.8654 54.1625 19.805 54.0635 19.7609C53.9638 19.7164 53.8565 19.6943 53.7402 19.6943ZM55.6941 20.5263V20.1895H56.8775V20.5263H55.6941ZM59.1953 21.6078H57.8737V18.6962H59.1398C59.2872 18.6962 59.4202 18.7134 59.5392 18.7483C59.6581 18.7829 59.7601 18.8315 59.845 18.8938C59.9299 18.9562 59.9953 19.0323 60.0407 19.1224C60.0857 19.2127 60.1086 19.3134 60.1086 19.4241C60.1086 19.5213 60.0953 19.6057 60.0681 19.6776C60.0415 19.7498 60.0051 19.8136 59.9601 19.8691C59.9146 19.9246 59.8644 19.9712 59.8091 20.0085C59.7538 20.0459 59.6968 20.077 59.637 20.1021C59.7249 20.1269 59.8078 20.1595 59.8857 20.1998C59.9636 20.24 60.0309 20.2877 60.0875 20.3431C60.1443 20.3989 60.1897 20.4654 60.2234 20.5429C60.2576 20.6205 60.2744 20.7091 60.2744 20.8093C60.2744 20.9337 60.249 21.0462 60.1983 21.1461C60.1473 21.246 60.0742 21.3299 59.9794 21.3977C59.8845 21.4654 59.7704 21.5175 59.637 21.5536C59.5041 21.5897 59.3566 21.6078 59.1953 21.6078ZM58.2099 20.2852V21.3164H59.2078C59.4345 21.3164 59.6129 21.2705 59.7428 21.1787C59.8732 21.0867 59.9385 20.9573 59.9385 20.7901C59.9385 20.6289 59.8716 20.5042 59.7387 20.4165C59.6056 20.3291 59.4088 20.2852 59.1483 20.2852H58.2099ZM58.2099 18.9874V19.9938H59.0888C59.2898 19.9938 59.4538 19.9494 59.5812 19.8603C59.7086 19.7712 59.7722 19.6403 59.7722 19.4678C59.7722 19.32 59.7156 19.2031 59.6026 19.1167C59.489 19.0303 59.3264 18.9874 59.1141 18.9874H58.2099ZM61.9987 21.6535C61.8651 21.6535 61.7467 21.6326 61.6432 21.5911C61.5397 21.5494 61.4515 21.4905 61.3791 21.4141C61.3068 21.338 61.2515 21.2472 61.2133 21.1419C61.1746 21.0364 61.1555 20.92 61.1555 20.7924V19.4575H61.4834V20.7136C61.4834 20.9129 61.5359 21.0712 61.6409 21.1878C61.746 21.3039 61.8962 21.3621 62.0922 21.3621C62.1859 21.3621 62.2733 21.3464 62.354 21.3145C62.4349 21.2826 62.5042 21.2369 62.5628 21.1773C62.6208 21.1176 62.667 21.0462 62.7012 20.9632C62.7349 20.88 62.7522 20.7884 62.7522 20.6885V19.4575H63.0756V21.6078H62.7522V21.2332C62.6784 21.3498 62.5819 21.449 62.4625 21.5307C62.3434 21.6125 62.1889 21.6535 61.9987 21.6535ZM64.8381 21.6493C64.679 21.6493 64.5188 21.6208 64.3569 21.5641C64.1951 21.5072 64.0519 21.4303 63.9271 21.3331L64.0931 21.1046C64.2122 21.1932 64.3361 21.261 64.4655 21.3083C64.5946 21.3555 64.7243 21.379 64.8549 21.379C64.9883 21.379 65.0976 21.3486 65.1828 21.2875C65.268 21.2266 65.3104 21.1434 65.3104 21.0378V21.0295C65.3104 20.9769 65.2956 20.9313 65.266 20.8923C65.2361 20.8535 65.1954 20.8196 65.1444 20.7904C65.0934 20.7612 65.0346 20.7356 64.9677 20.7136C64.9012 20.6912 64.8323 20.6704 64.7615 20.651C64.6763 20.6262 64.5904 20.5992 64.5039 20.57C64.4172 20.541 64.3391 20.5039 64.2698 20.4597C64.2002 20.4153 64.1434 20.3601 64.0994 20.2933C64.0552 20.2268 64.0333 20.1438 64.0333 20.0437V20.0355C64.0333 19.944 64.0519 19.86 64.0886 19.7839C64.1258 19.7076 64.1776 19.6425 64.2441 19.5883C64.3107 19.5343 64.3901 19.4926 64.4826 19.4636C64.5748 19.4344 64.6748 19.4199 64.7826 19.4199C64.919 19.4199 65.0567 19.4413 65.1954 19.4845C65.3346 19.5274 65.4609 19.5849 65.5745 19.657L65.4253 19.8983C65.3232 19.8345 65.216 19.7839 65.1039 19.7464C64.9919 19.7091 64.8818 19.6902 64.7743 19.6902C64.6436 19.6902 64.5401 19.7201 64.4632 19.7795C64.3868 19.8392 64.3484 19.9135 64.3484 20.0022V20.0105C64.3484 20.0606 64.364 20.104 64.3954 20.1416C64.4265 20.1789 64.4683 20.2116 64.5208 20.2393C64.5733 20.267 64.6336 20.2921 64.7019 20.3142C64.7697 20.3365 64.8406 20.3586 64.9145 20.3807C64.9996 20.4057 65.0841 20.4332 65.168 20.4639C65.2516 20.4943 65.3275 20.5334 65.3956 20.5803C65.464 20.6274 65.5185 20.6843 65.5597 20.7509C65.6006 20.8174 65.6215 20.8994 65.6215 20.9961V21.0044C65.6215 21.107 65.6006 21.1981 65.5597 21.2772C65.5185 21.356 65.4632 21.4232 65.3936 21.4787C65.324 21.5344 65.2416 21.5766 65.1466 21.6056C65.0514 21.6348 64.9486 21.6493 64.8381 21.6493ZM66.5762 21.6078V19.4575H66.9239V21.6078H66.5762ZM66.5365 18.9874V18.6336H66.8842V18.9874H66.5365ZM69.8701 21.6078H69.5422V20.3515C69.5422 20.1519 69.4895 19.9938 69.3847 19.8775C69.2797 19.7609 69.1294 19.7029 68.9332 19.7029C68.8397 19.7029 68.7526 19.7186 68.6714 19.7506C68.5907 19.7825 68.5204 19.8281 68.4609 19.888C68.4013 19.9474 68.3551 20.0189 68.3227 20.1021C68.29 20.1853 68.2734 20.2769 68.2734 20.3765V21.6078H67.9458V19.4575H68.2734V19.8316C68.3473 19.7152 68.4438 19.616 68.5631 19.5343C68.6822 19.4525 68.837 19.4116 69.0269 19.4116C69.1606 19.4116 69.2789 19.4324 69.3824 19.4739C69.4862 19.5156 69.5741 19.5745 69.6465 19.6509C69.7189 19.727 69.7741 19.8178 69.8123 19.9231C69.8508 20.0287 69.8701 20.145 69.8701 20.2727V21.6078ZM71.8324 21.6577C71.6819 21.6577 71.5399 21.6304 71.4068 21.5766C71.2733 21.5224 71.1565 21.4461 71.0565 21.3479C70.9565 21.2494 70.8771 21.1309 70.8181 20.9922C70.7593 20.8535 70.7299 20.701 70.7299 20.5346C70.7299 20.3795 70.756 20.2332 70.8085 20.0957C70.861 19.9587 70.9342 19.8392 71.0276 19.738C71.1213 19.6369 71.2329 19.5571 71.3618 19.4989C71.4912 19.4405 71.6321 19.4116 71.7856 19.4116C71.9472 19.4116 72.0922 19.4413 72.2198 19.5009C72.3474 19.5608 72.4555 19.6418 72.5432 19.7444C72.6313 19.847 72.6982 19.9676 72.7434 20.1062C72.7889 20.2449 72.8115 20.3932 72.8115 20.5513V20.597L72.8072 20.651H71.0663C71.0776 20.7676 71.1058 20.8709 71.1512 20.961C71.1967 21.0511 71.255 21.1272 71.3258 21.1895C71.3967 21.2521 71.4761 21.2993 71.5643 21.3309C71.6522 21.3628 71.7444 21.379 71.8409 21.379C71.9942 21.379 72.1253 21.3513 72.2346 21.2958C72.3439 21.2401 72.4439 21.1669 72.5346 21.0754L72.7391 21.2541C72.6283 21.3761 72.5019 21.474 72.3602 21.5472C72.2183 21.6208 72.0424 21.6577 71.8324 21.6577ZM71.7771 19.6821C71.6811 19.6821 71.5922 19.7007 71.5103 19.738C71.4286 19.7756 71.3568 19.8269 71.2947 19.8919C71.2326 19.9572 71.1819 20.0341 71.1422 20.1229C71.1027 20.2116 71.0774 20.3085 71.0663 20.4138H72.4753C72.4668 20.3171 72.4464 20.2241 72.4138 20.1352C72.3813 20.0466 72.3361 19.969 72.2786 19.9023C72.2205 19.836 72.1499 19.7825 72.0668 19.7422C71.9836 19.7022 71.8869 19.6821 71.7771 19.6821ZM74.4122 21.6493C74.2532 21.6493 74.0929 21.6208 73.9311 21.5641C73.7692 21.5072 73.626 21.4303 73.5012 21.3331L73.6672 21.1046C73.7866 21.1932 73.9104 21.261 74.0398 21.3083C74.1687 21.3555 74.2986 21.379 74.429 21.379C74.5627 21.379 74.6717 21.3486 74.7569 21.2875C74.8421 21.2266 74.8848 21.1434 74.8848 21.0378V21.0295C74.8848 20.9769 74.8697 20.9313 74.8401 20.8923C74.8102 20.8535 74.7697 20.8196 74.7187 20.7904C74.6677 20.7612 74.6087 20.7356 74.5421 20.7136C74.4753 20.6912 74.4067 20.6704 74.3356 20.651C74.2504 20.6262 74.1647 20.5992 74.078 20.57C73.9914 20.541 73.9135 20.5039 73.8439 20.4597C73.7743 20.4153 73.7175 20.3601 73.6738 20.2933C73.6296 20.2268 73.6077 20.1438 73.6077 20.0437V20.0355C73.6077 19.944 73.626 19.86 73.663 19.7839C73.6999 19.7076 73.7517 19.6425 73.8185 19.5883C73.8848 19.5343 73.9645 19.4926 74.0567 19.4636C74.1489 19.4344 74.2491 19.4199 74.3567 19.4199C74.4931 19.4199 74.6308 19.4413 74.7697 19.4845C74.9089 19.5274 75.0353 19.5849 75.1489 19.657L74.9996 19.8983C74.8976 19.8345 74.7903 19.7839 74.6783 19.7464C74.566 19.7091 74.4562 19.6902 74.3484 19.6902C74.218 19.6902 74.1142 19.7201 74.0376 19.7795C73.9609 19.8392 73.9228 19.9135 73.9228 20.0022V20.0105C73.9228 20.0606 73.9381 20.104 73.9695 20.1416C74.0006 20.1789 74.0424 20.2116 74.0949 20.2393C74.1474 20.267 74.2079 20.2921 74.276 20.3142C74.3439 20.3365 74.415 20.3586 74.4888 20.3807C74.574 20.4057 74.6582 20.4332 74.7421 20.4639C74.8257 20.4943 74.9016 20.5334 74.97 20.5803C75.0381 20.6274 75.0926 20.6843 75.1338 20.7509C75.1747 20.8174 75.1956 20.8994 75.1956 20.9961V21.0044C75.1956 21.107 75.1747 21.1981 75.1338 21.2772C75.0926 21.356 75.0373 21.4232 74.9677 21.4787C74.8984 21.5344 74.8157 21.5766 74.7207 21.6056C74.6258 21.6348 74.5227 21.6493 74.4122 21.6493ZM76.7875 21.6493C76.6285 21.6493 76.4684 21.6208 76.3064 21.5641C76.1446 21.5072 76.0013 21.4303 75.8765 21.3331L76.0425 21.1046C76.1619 21.1932 76.2858 21.261 76.4152 21.3083C76.544 21.3555 76.6739 21.379 76.8046 21.379C76.938 21.379 77.047 21.3486 77.1322 21.2875C77.2174 21.2266 77.2601 21.1434 77.2601 21.0378V21.0295C77.2601 20.9769 77.245 20.9313 77.2154 20.8923C77.1855 20.8535 77.145 20.8196 77.094 20.7904C77.043 20.7612 76.984 20.7356 76.9174 20.7136C76.8506 20.6912 76.782 20.6704 76.7109 20.651C76.626 20.6262 76.54 20.5992 76.4533 20.57C76.3667 20.541 76.2888 20.5039 76.2192 20.4597C76.1496 20.4153 76.0928 20.3601 76.0491 20.2933C76.0049 20.2268 75.983 20.1438 75.983 20.0437V20.0355C75.983 19.944 76.0013 19.86 76.0383 19.7839C76.0752 19.7076 76.127 19.6425 76.1938 19.5883C76.2604 19.5343 76.3398 19.4926 76.432 19.4636C76.5242 19.4344 76.6244 19.4199 76.732 19.4199C76.8684 19.4199 77.0061 19.4413 77.145 19.4845C77.2842 19.5274 77.4106 19.5849 77.5242 19.657L77.3749 19.8983C77.2729 19.8345 77.1656 19.7839 77.0536 19.7464C76.9413 19.7091 76.8315 19.6902 76.7237 19.6902C76.5933 19.6902 76.4895 19.7201 76.4129 19.7795C76.3363 19.8392 76.2981 19.9135 76.2981 20.0022V20.0105C76.2981 20.0606 76.3134 20.104 76.3448 20.1416C76.376 20.1789 76.4177 20.2116 76.4702 20.2393C76.5227 20.267 76.5832 20.2921 76.6513 20.3142C76.7194 20.3365 76.7903 20.3586 76.8641 20.3807C76.9493 20.4057 77.0337 20.4332 77.1176 20.4639C77.2013 20.4943 77.2769 20.5334 77.3453 20.5803C77.4134 20.6274 77.4679 20.6843 77.5091 20.7509C77.55 20.8174 77.5709 20.8994 77.5709 20.9961V21.0044C77.5709 21.107 77.55 21.1981 77.5091 21.2772C77.4679 21.356 77.4126 21.4232 77.343 21.4787C77.2737 21.5344 77.191 21.5766 77.0963 21.6056C77.0011 21.6348 76.8983 21.6493 76.7875 21.6493ZM80.4442 21.6078H80.108V18.6962H81.2231C81.3906 18.6962 81.5432 18.7176 81.6811 18.7608C81.8188 18.8038 81.9364 18.8646 82.0343 18.9437C82.1323 19.0227 82.2072 19.1199 82.2597 19.2348C82.3122 19.3499 82.3386 19.4795 82.3386 19.6236C82.3386 19.7817 82.3075 19.9204 82.2451 20.0397C82.1826 20.1588 82.0982 20.2587 81.9916 20.339C81.8851 20.4197 81.761 20.4799 81.6193 20.5201C81.4773 20.5604 81.3268 20.5803 81.168 20.5803H80.4442V21.6078ZM80.4442 18.9996V20.2808H81.1826C81.3052 20.2808 81.4168 20.2658 81.5178 20.2351C81.6188 20.2047 81.7055 20.161 81.7781 20.104C81.8507 20.0473 81.9062 19.9793 81.9446 19.9003C81.9831 19.8213 82.0024 19.7334 82.0024 19.6362C82.0024 19.4255 81.9291 19.2667 81.7826 19.1599C81.6359 19.0532 81.4419 18.9996 81.1999 18.9996H80.4442ZM83.5222 21.6078H83.1944V19.4575H83.5222V20.0189C83.5619 19.93 83.6114 19.8485 83.6712 19.7734C83.7308 19.6985 83.7989 19.634 83.8755 19.5802C83.9524 19.5259 84.036 19.4852 84.1267 19.4575C84.2089 19.4322 84.2971 19.4197 84.3911 19.4197C84.4009 19.4197 84.4107 19.4197 84.4205 19.4199V19.7653H84.3948C84.2757 19.7653 84.1629 19.7861 84.0567 19.8276C83.9501 19.8691 83.8572 19.9315 83.7775 20.0147C83.6981 20.0979 83.6358 20.2012 83.5903 20.3245C83.5451 20.4479 83.5222 20.5901 83.5222 20.7509V21.6078ZM86.1277 21.6577C85.9631 21.6577 85.8111 21.6277 85.6719 21.5681C85.533 21.5086 85.4124 21.4281 85.3104 21.327C85.2081 21.2259 85.1285 21.107 85.0719 20.9713C85.0149 20.8356 84.9868 20.6912 84.9868 20.5388C84.9868 20.3863 85.0149 20.2413 85.0719 20.104C85.1285 19.9668 85.2081 19.847 85.3104 19.7444C85.4124 19.6418 85.5337 19.5608 85.6742 19.5009C85.8149 19.4413 85.9687 19.4116 86.1362 19.4116C86.3006 19.4116 86.4533 19.4413 86.5938 19.5009C86.7342 19.5608 86.8556 19.6411 86.9578 19.7422C87.0601 19.8436 87.1392 19.9619 87.1963 20.0979C87.2528 20.2339 87.2814 20.378 87.2814 20.5304C87.2814 20.6831 87.252 20.8279 87.194 20.9649C87.136 21.1024 87.0556 21.2222 86.9536 21.3248C86.8513 21.4274 86.7292 21.5086 86.5875 21.5681C86.4455 21.6277 86.2923 21.6577 86.1277 21.6577ZM86.1277 19.6943C86.0084 19.6943 85.8993 19.7157 85.7998 19.7587C85.7006 19.8016 85.6162 19.861 85.5466 19.9371C85.477 20.0132 85.4222 20.1018 85.3827 20.2027C85.3428 20.3036 85.3232 20.4121 85.3232 20.5285C85.3232 20.6446 85.3435 20.7538 85.3848 20.8562C85.426 20.9585 85.4825 21.0469 85.5551 21.1218C85.6275 21.1964 85.7131 21.2558 85.8126 21.3002C85.9119 21.3444 86.0197 21.3665 86.1362 21.3665C86.2553 21.3665 86.3644 21.3449 86.4641 21.3022C86.5631 21.2595 86.6483 21.2006 86.7194 21.126C86.7905 21.0511 86.8455 20.9632 86.8855 20.8623C86.9252 20.7614 86.945 20.6529 86.945 20.5366C86.945 20.4207 86.9244 20.3112 86.8835 20.2089C86.8422 20.1065 86.7845 20.0174 86.7108 19.9413C86.637 19.8654 86.5505 19.805 86.451 19.7609C86.3516 19.7164 86.244 19.6943 86.1277 19.6943ZM89.9334 21.6078H89.5545L88.8736 20.73L88.1882 21.6078H87.8221L88.6864 20.5137L87.856 19.4575H88.2307L88.8821 20.2891L89.5336 19.4575H89.8997L89.065 20.5054L89.9334 21.6078ZM91.0617 22.2856C90.9708 22.2856 90.8884 22.2765 90.8148 22.2586C90.7409 22.2407 90.667 22.2134 90.5934 22.1776L90.7042 21.924C90.758 21.9515 90.8112 21.9716 90.8635 21.9841C90.9163 21.9967 90.9781 22.0028 91.0489 22.0028C91.1482 22.0028 91.2318 21.9738 91.3002 21.9154C91.368 21.8572 91.4348 21.7517 91.5002 21.5992L90.4997 19.4575H90.8617L91.662 21.2499L92.3687 19.4575H92.7175L91.7939 21.6785C91.7004 21.9002 91.5959 22.057 91.4811 22.1486C91.3662 22.2399 91.2263 22.2856 91.0617 22.2856ZM97.6857 21.6078H97.4173L95.4933 19.2203V21.6078H95.1656V18.6962H95.4807L97.3578 21.0295V18.6962H97.6857V21.6078ZM99.7376 21.6577C99.5869 21.6577 99.4452 21.6304 99.3118 21.5766C99.1783 21.5224 99.0615 21.4461 98.9618 21.3479C98.8615 21.2494 98.7821 21.1309 98.7233 20.9922C98.6643 20.8535 98.6349 20.701 98.6349 20.5346C98.6349 20.3795 98.6613 20.2332 98.7138 20.0957C98.7663 19.9587 98.8394 19.8392 98.9329 19.738C99.0266 19.6369 99.1379 19.5571 99.267 19.4989C99.3962 19.4405 99.5374 19.4116 99.6906 19.4116C99.8524 19.4116 99.9972 19.4413 100.125 19.5009C100.253 19.5608 100.36 19.6418 100.448 19.7444C100.536 19.847 100.603 19.9676 100.649 20.1062C100.694 20.2449 100.716 20.3932 100.716 20.5513V20.597L100.712 20.651H98.9713C98.9826 20.7676 99.0108 20.8709 99.0565 20.961C99.102 21.0511 99.16 21.1272 99.2309 21.1895C99.302 21.2521 99.3813 21.2993 99.4693 21.3309C99.5572 21.3628 99.6494 21.379 99.7459 21.379C99.8992 21.379 100.031 21.3513 100.14 21.2958C100.249 21.2401 100.349 21.1669 100.44 21.0754L100.644 21.2541C100.534 21.3761 100.407 21.474 100.265 21.5472C100.124 21.6208 99.9477 21.6577 99.7376 21.6577ZM99.6821 19.6821C99.5861 19.6821 99.4974 19.7007 99.4155 19.738C99.3336 19.7756 99.2617 19.8269 99.1997 19.8919C99.1376 19.9572 99.0869 20.0341 99.0474 20.1229C99.008 20.2116 98.9824 20.3085 98.9713 20.4138H100.38C100.372 20.3171 100.351 20.2241 100.319 20.1352C100.286 20.0466 100.241 19.969 100.184 19.9023C100.126 19.836 100.055 19.7825 99.972 19.7422C99.8886 19.7022 99.7921 19.6821 99.6821 19.6821ZM102.326 21.6451C102.238 21.6451 102.156 21.6341 102.079 21.6117C102.002 21.5897 101.936 21.5543 101.881 21.5057C101.826 21.4573 101.782 21.394 101.751 21.3164C101.72 21.2389 101.704 21.1461 101.704 21.0378V19.7402H101.398V19.4575H101.704V18.8084H102.032V19.4575H102.73V19.7402H102.032V20.9961C102.032 21.1294 102.066 21.2222 102.134 21.275C102.202 21.3277 102.292 21.354 102.402 21.354C102.459 21.354 102.512 21.3486 102.562 21.3373C102.612 21.3263 102.665 21.3069 102.722 21.2791V21.5536C102.665 21.5843 102.605 21.6071 102.541 21.6223C102.477 21.6375 102.405 21.6451 102.326 21.6451ZM105.953 21.6243H105.668L105.076 19.9273L104.48 21.6243H104.191L103.42 19.4575H103.769L104.348 21.1834L104.94 19.4491H105.212L105.808 21.1834L106.387 19.4575H106.728L105.953 21.6243ZM108.469 21.6577C108.304 21.6577 108.152 21.6277 108.013 21.5681C107.874 21.5086 107.753 21.4281 107.651 21.327C107.549 21.2259 107.47 21.107 107.413 20.9713C107.356 20.8356 107.328 20.6912 107.328 20.5388C107.328 20.3863 107.356 20.2413 107.413 20.104C107.47 19.9668 107.549 19.847 107.651 19.7444C107.753 19.6418 107.875 19.5608 108.015 19.5009C108.156 19.4413 108.31 19.4116 108.477 19.4116C108.642 19.4116 108.794 19.4413 108.935 19.5009C109.075 19.5608 109.197 19.6411 109.299 19.7422C109.401 19.8436 109.48 19.9619 109.537 20.0979C109.594 20.2339 109.623 20.378 109.623 20.5304C109.623 20.6831 109.593 20.8279 109.535 20.9649C109.477 21.1024 109.397 21.2222 109.295 21.3248C109.192 21.4274 109.07 21.5086 108.929 21.5681C108.786 21.6277 108.633 21.6577 108.469 21.6577ZM108.469 19.6943C108.349 19.6943 108.24 19.7157 108.141 19.7587C108.042 19.8016 107.957 19.861 107.888 19.9371C107.818 20.0132 107.763 20.1018 107.724 20.2027C107.684 20.3036 107.664 20.4121 107.664 20.5285C107.664 20.6446 107.685 20.7538 107.726 20.8562C107.767 20.9585 107.824 21.0469 107.896 21.1218C107.969 21.1964 108.054 21.2558 108.154 21.3002C108.253 21.3444 108.361 21.3665 108.477 21.3665C108.596 21.3665 108.705 21.3449 108.805 21.3022C108.904 21.2595 108.989 21.2006 109.06 21.126C109.132 21.0511 109.187 20.9632 109.226 20.8623C109.266 20.7614 109.286 20.6529 109.286 20.5366C109.286 20.4207 109.265 20.3112 109.225 20.2089C109.183 20.1065 109.126 20.0174 109.052 19.9413C108.978 19.8654 108.891 19.805 108.792 19.7609C108.693 19.7164 108.585 19.6943 108.469 19.6943ZM110.84 21.6078H110.512V19.4575H110.84V20.0189C110.88 19.93 110.929 19.8485 110.989 19.7734C111.048 19.6985 111.117 19.634 111.193 19.5802C111.27 19.5259 111.354 19.4852 111.445 19.4575C111.527 19.4322 111.615 19.4197 111.709 19.4197C111.718 19.4197 111.728 19.4197 111.738 19.4199V19.7653H111.713C111.593 19.7653 111.481 19.7861 111.374 19.8276C111.268 19.8691 111.175 19.9315 111.095 20.0147C111.016 20.0979 110.953 20.2012 110.908 20.3245C110.863 20.4479 110.84 20.5901 110.84 20.7509V21.6078ZM114.488 21.6078H114.097L113.309 20.6053L112.862 21.0462V21.6078H112.534V18.5713H112.862V20.6676L114.05 19.4575H114.459L113.534 20.3807L114.488 21.6078Z" fill="white" stroke="white" stroke-width="0.266783" stroke-linecap="round" stroke-linejoin="round"/>
<defs>
<linearGradient id="paint0_linear_2806_18861" x1="6.54309" y1="0.127441" x2="6.54309" y2="25.9877" gradientUnits="userSpaceOnUse">
<stop stop-color="#E237B7"/>
<stop offset="1" stop-color="#705CDE"/>
</linearGradient>
<linearGradient id="paint1_linear_2806_18861" x1="6.56765" y1="3.22998" x2="6.56765" y2="25.9898" gradientUnits="userSpaceOnUse">
<stop stop-color="#E237B7"/>
<stop offset="1" stop-color="#705CDE"/>
</linearGradient>
</defs>
</svg>
