<svg width="216" height="50" viewBox="0 0 216 50" fill="none" xmlns="http://www.w3.org/2000/svg">
<path opacity="0.396508" fill-rule="evenodd" clip-rule="evenodd" d="M11.8768 25.2361L7.72419 27.6248L5.74193 26.797L1.12 22.8787L11.8768 16.6906C12.0132 16.6151 12.1681 16.5771 12.3232 16.5771C12.4784 16.5771 12.6332 16.6151 12.7697 16.6906L23.4661 22.8483L18.4129 27.2383L16.9594 27.648L12.7697 25.2361C12.6332 25.1603 12.4784 25.1225 12.3232 25.1225C12.1681 25.1225 12.0132 25.1603 11.8768 25.2361ZM13.9371 12.9283L10.0916 12.2351L1.12 6.54641L11.8768 0.358666C12.0132 0.282859 12.1681 0.245117 12.3232 0.245117C12.4784 0.245117 12.6332 0.282859 12.7697 0.358666L23.4661 6.51641L19.9887 10.0916L13.9371 12.9283ZM10.1548 46.5283L1.12 39.9696L1.2258 39.909L11.8768 33.7816C12.0132 33.7061 12.1681 33.668 12.3232 33.668C12.4784 33.668 12.6332 33.7061 12.7697 33.7816L23.4661 39.9393L21.0603 42.5567L16.3326 45.709L10.1548 46.5283Z" fill="url(#paint0_linear_4347_22828)"/>
<path fill-rule="evenodd" clip-rule="evenodd" d="M0.0193481 25.1896V24.585C0.0569938 24.2908 0.150315 23.9991 0.303219 23.7258C0.514832 23.3625 0.78709 23.0903 1.11999 22.8787L1.2258 22.818C1.92193 22.4548 2.78419 22.4396 3.51064 22.8632L9.7287 26.4342L11.3681 27.3774C11.9642 27.7206 12.6974 27.7206 13.2935 27.3774L21.1361 22.8632C21.8926 22.4245 22.77 22.4548 23.4661 22.8484C23.8139 23.0448 24.1164 23.3474 24.3435 23.7258C24.8581 24.6184 24.7216 25.7077 24.0864 26.4342C23.92 26.6155 23.7081 26.7819 23.4813 26.918L13.7529 32.5309C13.3142 32.7732 12.8148 32.9093 12.331 32.9093C11.8316 32.9093 11.3474 32.7732 10.9087 32.5309L1.16515 26.918C0.938381 26.7819 0.726768 26.6155 0.575477 26.4342C0.268305 26.083 0.0778037 25.6471 0.0193481 25.1896V25.1896ZM0.0193481 8.85742V8.25287C0.0569938 7.95872 0.150315 7.66692 0.303219 7.39351C0.514832 7.03061 0.78709 6.75803 1.11999 6.54641L1.2258 6.48577C1.92193 6.12287 2.78419 6.1077 3.51064 6.53125L9.7287 10.1019L11.3681 11.0454C11.9642 11.3884 12.6974 11.3884 13.2935 11.0454L21.1361 6.53125C21.8926 6.09254 22.77 6.12287 23.4661 6.51609C23.8139 6.71287 24.1164 7.01545 24.3435 7.39351C24.8581 8.28641 24.7216 9.37545 24.0864 10.1019C23.92 10.2835 23.7081 10.4496 23.4813 10.5858L13.7529 16.199C13.3142 16.4413 12.8148 16.5771 12.331 16.5771C11.8316 16.5771 11.3474 16.4413 10.9087 16.199L1.16515 10.5858C0.938381 10.4496 0.726768 10.2835 0.575477 10.1019C0.268305 9.75075 0.0778037 9.3149 0.0193481 8.85742V8.85742ZM0.0193481 33.735V33.1304C0.0569938 32.8362 0.150315 32.5443 0.303219 32.2709C0.514832 31.908 0.78709 31.6358 1.11999 31.4238L1.2258 31.3635C1.92193 31.0003 2.78419 30.9851 3.51064 31.4087L9.7287 34.9793L11.3681 35.9232C11.9642 36.2661 12.6974 36.2661 13.2935 35.9232L21.1361 31.4087C21.8926 30.97 22.77 31.0003 23.4661 31.3938C23.8139 31.5903 24.1164 31.8929 24.3435 32.2709C24.8581 33.1638 24.7216 34.2532 24.0864 34.9793C23.92 35.1609 23.7081 35.3274 23.4813 35.4635L13.7529 41.0764C13.3142 41.3184 12.8148 41.4545 12.331 41.4545C11.8316 41.4545 11.3474 41.3184 10.9087 41.0764L1.16515 35.4635C0.938381 35.3274 0.726768 35.1609 0.575477 34.9793C0.268305 34.6283 0.0778037 34.1925 0.0193481 33.735V33.735ZM12.651 49.9806H12.0047C11.6213 49.9351 11.2511 49.8107 10.9087 49.6216L1.16515 44.0087C0.938381 43.8726 0.726768 43.7064 0.575477 43.5248C0.268305 43.1737 0.0778037 42.7378 0.0193481 42.2804V41.6759C0.0569938 41.3818 0.150315 41.0901 0.303219 40.8167C0.514832 40.4535 0.78709 40.1813 1.11999 39.9693L1.2258 39.9087C1.92193 39.5458 2.78419 39.5306 3.51064 39.9542L9.7287 43.5248L11.3681 44.4684C11.9642 44.8113 12.6974 44.8113 13.2935 44.4684L21.1361 39.9542C21.8926 39.5155 22.77 39.5458 23.4661 39.9393C23.8139 40.1358 24.1164 40.4384 24.3435 40.8167C24.8581 41.7093 24.7216 42.7984 24.0864 43.5248C23.92 43.7064 23.7081 43.8726 23.4813 44.0087L13.7529 49.6216C13.4105 49.8107 13.0311 49.9351 12.651 49.9806Z" fill="url(#paint1_linear_4347_22828)"/>
<path fill-rule="evenodd" clip-rule="evenodd" d="M39.2857 13.6715C39.2857 13.4506 39.3496 13.2657 39.4773 13.1167C39.6047 12.9683 39.7915 12.8941 40.0386 12.8941H42.1554C42.2486 12.8941 42.3444 12.9131 42.4418 12.9512C42.5399 12.9893 42.6267 13.0448 42.7034 13.1167C42.7799 13.1893 42.8438 13.2722 42.8947 13.3654C42.9457 13.4596 42.9712 13.5615 42.9712 13.6715V28.3228C42.9712 28.8325 42.7034 29.0877 42.168 29.0877H40.0512C39.5409 29.0877 39.2857 28.8325 39.2857 28.3228V13.6715ZM39.2857 8.0254C39.2857 7.51347 39.5364 7.25766 40.0386 7.25766H42.1802C42.4186 7.25766 42.6099 7.32218 42.7544 7.4496C42.8989 7.57798 42.9712 7.76992 42.9712 8.0254V9.93218C42.9712 10.129 42.9028 10.3144 42.767 10.4893C42.6309 10.6641 42.4396 10.7519 42.1931 10.7519H40.0512C39.5409 10.7519 39.2857 10.4786 39.2857 9.93218V8.0254ZM46.9496 13.2635C47.0515 13.1277 47.1489 13.0425 47.2428 13.0083C47.3109 12.9402 47.4128 12.9044 47.5493 12.9002C47.6851 12.8957 47.8125 12.8941 47.9315 12.8941H49.2192C49.466 12.8941 49.6483 12.9748 49.7673 13.1357C49.887 13.2977 49.9673 13.476 50.0099 13.6715L50.1502 15.0235C50.3457 14.7341 50.5857 14.4493 50.8705 14.1686C51.1551 13.8886 51.4931 13.6373 51.8841 13.4164C52.2751 13.1954 52.7215 13.017 53.2231 12.8812C53.7247 12.7451 54.2902 12.677 54.9189 12.677C55.9221 12.677 56.8144 12.8573 57.597 13.2186C58.3786 13.5802 59.0373 14.0754 59.5734 14.7044C60.1086 15.3338 60.5144 16.0731 60.7912 16.9235C61.067 17.7735 61.2051 18.6877 61.2051 19.6648V28.1696C61.2051 28.4757 61.1331 28.7048 60.9889 28.858C60.8438 29.0112 60.6357 29.0877 60.3638 29.0877H58.4257C58.0857 29.0877 57.8586 29.0241 57.7438 28.8964C57.6289 28.769 57.5712 28.5438 57.5712 28.2206V19.7283C57.5712 19.278 57.4947 18.838 57.3418 18.4083C57.1886 17.9793 56.9654 17.5948 56.6725 17.2544C56.3789 16.9148 56.0154 16.6428 55.5822 16.4386C55.1486 16.2344 54.647 16.1325 54.0773 16.1325C53.6863 16.1325 53.2805 16.2112 52.8596 16.3683C52.4389 16.526 52.0541 16.7486 51.706 17.038C51.357 17.327 51.068 17.678 50.8383 18.0899C50.6092 18.5022 50.4899 18.9677 50.4818 19.486V27.749C50.4818 27.9102 50.4731 28.0722 50.4563 28.2335C50.4389 28.3944 50.4028 28.5399 50.348 28.6667C50.2922 28.7944 50.2138 28.8964 50.1118 28.9728C50.0099 29.0496 49.878 29.0877 49.7163 29.0877H47.6125C47.3322 29.0877 47.126 29.0222 46.9941 28.8902C46.8625 28.7583 46.7963 28.5693 46.7963 28.3228V13.646C46.7963 13.5273 46.8473 13.3996 46.9496 13.2635ZM64.8899 12.9451C64.8899 12.1883 65.0047 11.4593 65.2344 10.7583C65.4641 10.0564 65.7999 9.43831 66.2418 8.9025C66.6838 8.36702 67.2254 7.9396 67.8673 7.62121C68.5092 7.3025 69.2383 7.14282 70.0541 7.14282H70.1818C70.4283 7.14282 70.6196 7.21766 70.756 7.36605C70.8915 7.51508 70.9592 7.71702 70.9592 7.97153V9.73153C70.9592 9.97831 70.8938 10.1864 70.7625 10.356C70.6299 10.526 70.4496 10.6112 70.2199 10.6112C70.0925 10.6112 69.9312 10.6435 69.7357 10.707C69.5399 10.7709 69.3531 10.8706 69.1744 11.0064C68.9957 11.1425 68.8428 11.317 68.7157 11.5296C68.588 11.7415 68.5244 11.9928 68.5244 12.2815V14.3473H70.3731C70.6196 14.3473 70.8109 14.4112 70.9467 14.5386C71.0831 14.6664 71.1509 14.8786 71.1509 15.176V16.7448C71.1509 17.0422 71.0831 17.2654 70.9467 17.4138C70.8109 17.5628 70.6196 17.6373 70.3731 17.6373H68.5244V28.2593C68.5244 28.5309 68.4351 28.737 68.2563 28.8773C68.0776 29.0177 67.8825 29.0877 67.6702 29.0877H65.6931C65.4386 29.0877 65.2409 29.0096 65.1005 28.8515C64.9602 28.6944 64.8899 28.4967 64.8899 28.2593V17.6373H63.6273C63.3812 17.6373 63.1815 17.5628 63.0283 17.4138C62.8754 17.2654 62.7989 17.0422 62.7989 16.7448V15.176C62.7989 14.8786 62.8754 14.6664 63.0283 14.5386C63.1815 14.4112 63.3812 14.3473 63.6273 14.3473H64.8899V12.9451ZM76.1109 20.978C76.1109 21.6586 76.2302 22.3022 76.4683 22.9099C76.7057 23.5173 77.0376 24.0512 77.4628 24.5096C77.8876 24.969 78.387 25.3325 78.9612 25.5999C79.5347 25.868 80.1615 26.0019 80.8418 26.0019C81.5302 26.0019 82.1744 25.868 82.7738 25.5999C83.3725 25.3325 83.8934 24.969 84.336 24.5096C84.7779 24.0512 85.1263 23.5173 85.3808 22.9099C85.636 22.3022 85.7634 21.6586 85.7634 20.978C85.7634 20.3064 85.636 19.667 85.3808 19.0593C85.1263 18.4512 84.7779 17.918 84.336 17.4586C83.8934 16.9999 83.3725 16.6344 82.7738 16.3622C82.1744 16.0899 81.5302 15.9541 80.8418 15.9541C80.1615 15.9541 79.5347 16.0899 78.9612 16.3622C78.387 16.6344 77.8876 16.9999 77.4628 17.4586C77.0376 17.918 76.7057 18.4512 76.4683 19.0593C76.2302 19.667 76.1109 20.3064 76.1109 20.978ZM89.3725 28.3357C89.3725 28.4886 89.3405 28.6138 89.2767 28.7115C89.2131 28.8096 89.1302 28.886 89.0283 28.9412C88.926 28.9967 88.8089 29.0351 88.6773 29.0557C88.5454 29.0773 88.4076 29.0877 88.2631 29.0877H86.6689C86.397 29.0877 86.2076 29.0157 86.1015 28.8709C85.995 28.7264 85.9167 28.5438 85.8657 28.3228L85.7892 27.239C85.4918 27.5364 85.1621 27.8151 84.8008 28.0738C84.4396 28.3331 84.0505 28.5586 83.6341 28.7496C83.2179 28.9412 82.7754 29.0896 82.3079 29.1964C81.8405 29.3022 81.3605 29.3557 80.8673 29.3557C80.1025 29.3557 79.3647 29.2551 78.655 29.0557C77.945 28.8564 77.2799 28.5757 76.6596 28.2144C76.0389 27.8531 75.4754 27.4177 74.9702 26.9073C74.4641 26.3973 74.0305 25.8322 73.6692 25.2115C73.3083 24.5909 73.0276 23.9235 72.828 23.2096C72.628 22.4951 72.5283 21.7519 72.5283 20.978C72.5283 20.2044 72.628 19.4606 72.828 18.7464C73.0276 18.0325 73.3083 17.3651 73.6692 16.7448C74.0305 16.1241 74.4641 15.5609 74.9702 15.0554C75.4754 14.5496 76.0389 14.116 76.6596 13.7548C77.2799 13.3935 77.945 13.1125 78.655 12.9131C79.3647 12.7131 80.1025 12.6135 80.8673 12.6135C81.4115 12.6135 81.9299 12.6706 82.4228 12.7854C82.9157 12.9002 83.3773 13.0615 83.8063 13.2699C84.2354 13.4786 84.6328 13.7293 84.9986 14.0225C85.3641 14.3154 85.6957 14.6367 85.9931 14.9851L86.1718 13.6206C86.2144 13.4673 86.2547 13.3422 86.2931 13.2444C86.3312 13.1467 86.3779 13.068 86.4331 13.0083C86.4886 12.9493 86.5586 12.9086 86.6434 12.8877C86.7289 12.866 86.8347 12.8557 86.9621 12.8557H88.2376C88.3731 12.8557 88.5096 12.8686 88.6454 12.8941C88.7815 12.9196 88.9047 12.9596 89.0154 13.0148C89.1254 13.0702 89.2131 13.1467 89.2767 13.2444C89.3405 13.3422 89.3725 13.4635 89.3725 13.608V28.3357ZM98.196 29.0877C97.5244 29.0796 96.8928 28.977 96.3025 28.7815C95.7115 28.586 95.1973 28.3031 94.7592 27.9325C94.3215 27.5625 93.9754 27.1073 93.7199 26.5667C93.4647 26.027 93.3373 25.4115 93.3373 24.7228V16.107H91.8715C91.6241 16.107 91.4399 16.0525 91.3163 15.9422C91.1934 15.8319 91.1315 15.6499 91.1315 15.396V13.5667C91.1315 13.3212 91.1934 13.148 91.3163 13.046C91.4399 12.9444 91.6241 12.8941 91.8715 12.8941H93.3373C93.3373 12.4435 93.3399 11.9944 93.3437 11.5486C93.3483 11.1019 93.3502 10.6538 93.3502 10.2031C93.3502 10.0331 93.4034 9.89927 93.5096 9.80185C93.6157 9.70379 93.7792 9.61669 94.0008 9.54024C94.1454 9.48927 94.3192 9.42798 94.5234 9.3554C94.7276 9.28347 94.9379 9.21314 95.155 9.14476C95.3712 9.07702 95.5818 9.0196 95.786 8.9725C95.9902 8.92605 96.1599 8.9025 96.2963 8.9025C96.5592 8.9025 96.7315 8.97476 96.8121 9.11927C96.8928 9.26444 96.9334 9.45508 96.9334 9.69347C96.9334 10.2286 96.9312 10.7622 96.9273 11.2935C96.9225 11.8248 96.9205 12.3583 96.9205 12.8941H98.757C98.9776 12.8941 99.1476 12.9509 99.2673 13.0651C99.386 13.1799 99.4454 13.3596 99.4454 13.6051V15.3448C99.4454 15.616 99.386 15.8112 99.2673 15.9293C99.1476 16.0477 98.9776 16.107 98.757 16.107H96.9205C96.9205 16.6606 96.9205 17.1286 96.9205 17.5112C96.9205 17.8948 96.9205 18.2325 96.9205 18.527C96.9205 18.8202 96.9225 19.0944 96.9273 19.3502C96.9312 19.6054 96.9334 19.8822 96.9334 20.1802C96.9334 20.4773 96.9334 20.8186 96.9334 21.2015C96.9334 21.5848 96.9334 22.0525 96.9334 22.606L96.9273 22.657L96.9205 22.7083V24.3806C96.9205 24.9425 97.0308 25.3467 97.2525 25.5938C97.4734 25.8402 97.8302 25.9635 98.3237 25.9635C98.5018 25.9635 98.6418 26.0277 98.7441 26.1551C98.846 26.2828 98.897 26.4357 98.897 26.6138V28.3867C98.897 28.6077 98.8357 28.7799 98.7121 28.9028C98.5892 29.026 98.417 29.0877 98.196 29.0877ZM101.664 13.6715C101.664 13.4506 101.728 13.2657 101.855 13.1167C101.983 12.9683 102.17 12.8941 102.417 12.8941H104.533C104.627 12.8941 104.722 12.9131 104.82 12.9512C104.918 12.9893 105.005 13.0448 105.081 13.1167C105.158 13.1893 105.222 13.2722 105.273 13.3654C105.324 13.4596 105.349 13.5615 105.349 13.6715V28.3228C105.349 28.8325 105.081 29.0877 104.546 29.0877H102.43C101.919 29.0877 101.664 28.8325 101.664 28.3228V13.6715ZM101.664 8.0254C101.664 7.51347 101.914 7.25766 102.417 7.25766H104.558C104.797 7.25766 104.988 7.32218 105.132 7.4496C105.277 7.57798 105.349 7.76992 105.349 8.0254V9.93218C105.349 10.129 105.281 10.3144 105.145 10.4893C105.009 10.6641 104.818 10.7519 104.571 10.7519H102.43C101.919 10.7519 101.664 10.4786 101.664 9.93218V8.0254ZM120.051 24.8415C120.195 24.7483 120.317 24.6909 120.414 24.6693C120.512 24.6483 120.595 24.6373 120.663 24.6373C120.807 24.646 120.931 24.7228 121.032 24.867L121.339 25.2883L122.244 26.5757C122.286 26.6351 122.321 26.6967 122.346 26.7606C122.372 26.8241 122.385 26.8819 122.385 26.9328C122.385 27.069 122.337 27.1902 122.244 27.2964C122.15 27.4025 122.027 27.5109 121.874 27.6212C121.152 28.1483 120.372 28.5731 119.534 28.8964C118.697 29.2193 117.777 29.3812 116.774 29.3812C116.017 29.3812 115.284 29.2809 114.574 29.0812C113.864 28.8819 113.201 28.6012 112.585 28.2399C111.969 27.8786 111.406 27.4448 110.896 26.9393C110.385 26.4335 109.946 25.8702 109.576 25.2496C109.206 24.6293 108.921 23.9619 108.721 23.2477C108.521 22.5335 108.422 21.7899 108.422 21.0164C108.422 20.2428 108.521 19.4986 108.721 18.7848C108.921 18.0709 109.206 17.4035 109.576 16.7828C109.946 16.1622 110.385 15.5993 110.896 15.0931C111.406 14.588 111.969 14.1541 112.585 13.7928C113.201 13.4315 113.864 13.1509 114.574 12.9512C115.284 12.7512 116.017 12.6515 116.774 12.6515C117.717 12.6515 118.61 12.796 119.451 13.0848C120.293 13.3741 121.041 13.7651 121.696 14.258L121.683 14.2454C121.801 14.3648 121.919 14.4686 122.034 14.558C122.148 14.647 122.206 14.7851 122.206 14.9725C122.206 15.0235 122.203 15.0828 122.2 15.1506C122.195 15.219 122.172 15.2828 122.13 15.3419L121.084 16.936C120.913 17.1906 120.726 17.318 120.522 17.318C120.378 17.318 120.217 17.2464 120.038 17.1022C119.604 16.736 119.099 16.4386 118.521 16.209C117.942 15.9796 117.347 15.8651 116.735 15.8651C116.072 15.8651 115.45 16.0028 114.868 16.279C114.285 16.5554 113.773 16.9296 113.331 17.4009C112.889 17.8731 112.54 18.4212 112.285 19.0464C112.031 19.6709 111.903 20.3277 111.903 21.0164C111.903 21.7222 112.031 22.3851 112.285 23.0054C112.54 23.626 112.887 24.166 113.324 24.6248C113.762 25.0841 114.274 25.4477 114.861 25.7151C115.448 25.9828 116.072 26.1167 116.735 26.1167C117.458 26.1167 118.083 25.9915 118.61 25.7406C119.137 25.4899 119.617 25.1902 120.051 24.8415ZM127.714 20.978C127.714 21.6586 127.833 22.3022 128.071 22.9099C128.309 23.5173 128.641 24.0512 129.066 24.5096C129.491 24.969 129.99 25.3325 130.564 25.5999C131.138 25.868 131.765 26.0019 132.445 26.0019C133.133 26.0019 133.778 25.868 134.377 25.5999C134.976 25.3325 135.496 24.969 135.939 24.5096C136.381 24.0512 136.73 23.5173 136.984 22.9099C137.239 22.3022 137.367 21.6586 137.367 20.978C137.367 20.3064 137.239 19.667 136.984 19.0593C136.73 18.4512 136.381 17.918 135.939 17.4586C135.496 16.9999 134.976 16.6344 134.377 16.3622C133.778 16.0899 133.133 15.9541 132.445 15.9541C131.765 15.9541 131.138 16.0899 130.564 16.3622C129.99 16.6344 129.491 16.9999 129.066 17.4586C128.641 17.918 128.309 18.4512 128.071 19.0593C127.833 19.667 127.714 20.3064 127.714 20.978ZM140.976 28.3357C140.976 28.4886 140.944 28.6138 140.88 28.7115C140.816 28.8096 140.733 28.886 140.631 28.9412C140.529 28.9967 140.412 29.0351 140.28 29.0557C140.149 29.0773 140.011 29.0877 139.866 29.0877H138.272C138 29.0877 137.811 29.0157 137.705 28.8709C137.598 28.7264 137.52 28.5438 137.469 28.3228L137.392 27.239C137.095 27.5364 136.765 27.8151 136.404 28.0738C136.043 28.3331 135.654 28.5586 135.237 28.7496C134.821 28.9412 134.379 29.0896 133.911 29.1964C133.444 29.3022 132.963 29.3557 132.471 29.3557C131.705 29.3557 130.968 29.2551 130.258 29.0557C129.548 28.8564 128.883 28.5757 128.263 28.2144C127.642 27.8531 127.079 27.4177 126.573 26.9073C126.067 26.3973 125.634 25.8322 125.272 25.2115C124.911 24.5909 124.631 23.9235 124.431 23.2096C124.231 22.4951 124.131 21.7519 124.131 20.978C124.131 20.2044 124.231 19.4606 124.431 18.7464C124.631 18.0325 124.911 17.3651 125.272 16.7448C125.634 16.1241 126.067 15.5609 126.573 15.0554C127.079 14.5496 127.642 14.116 128.263 13.7548C128.883 13.3935 129.548 13.1125 130.258 12.9131C130.968 12.7131 131.705 12.6135 132.471 12.6135C133.014 12.6135 133.533 12.6706 134.026 12.7854C134.519 12.9002 134.981 13.0615 135.41 13.2699C135.839 13.4786 136.236 13.7293 136.602 14.0225C136.967 14.3154 137.299 14.6367 137.596 14.9851L137.775 13.6206C137.818 13.4673 137.858 13.3422 137.896 13.2444C137.934 13.1467 137.981 13.068 138.036 13.0083C138.091 12.9493 138.162 12.9086 138.247 12.8877C138.332 12.866 138.438 12.8557 138.565 12.8557H139.841C139.976 12.8557 140.113 12.8686 140.249 12.8941C140.385 12.9196 140.508 12.9596 140.618 13.0148C140.729 13.0702 140.816 13.1467 140.88 13.2444C140.944 13.3422 140.976 13.4635 140.976 13.608V28.3357ZM142.911 26.6267C142.911 26.389 142.943 26.1848 143.007 26.0148C143.071 25.8448 143.226 25.7596 143.473 25.7596H145.475C145.577 25.7596 145.68 25.7641 145.787 25.7725C145.893 25.7812 145.991 25.8041 146.08 25.8425C146.169 25.8806 146.244 25.9364 146.303 26.0083C146.362 26.0809 146.393 26.1848 146.393 26.3209V28.208C146.393 28.3267 146.388 28.4377 146.38 28.5399C146.371 28.6412 146.348 28.7351 146.31 28.8199C146.271 28.9048 146.214 28.9712 146.138 29.0177C146.061 29.0648 145.955 29.0877 145.819 29.0877H143.817C143.519 29.0877 143.294 29.0557 143.141 28.9922C142.988 28.9283 142.911 28.769 142.911 28.5144V26.6267ZM148.206 21.1902C148.206 21.0773 148.238 20.9822 148.304 20.9064C148.37 20.8302 148.465 20.7919 148.591 20.7919H149.675C149.724 20.7919 149.772 20.8019 149.822 20.8209C149.873 20.8406 149.917 20.869 149.957 20.9064C149.996 20.9435 150.029 20.9857 150.055 21.0331C150.081 21.0815 150.093 21.1338 150.093 21.1902V28.6957C150.093 28.9573 149.957 29.0877 149.682 29.0877H148.598C148.336 29.0877 148.206 28.9573 148.206 28.6957V21.1902ZM148.206 18.298C148.206 18.0354 148.334 17.9044 148.591 17.9044H149.689C149.81 17.9044 149.909 17.9373 149.983 18.0031C150.056 18.0686 150.093 18.1664 150.093 18.298V19.2748C150.093 19.3751 150.059 19.4702 149.989 19.5602C149.92 19.6496 149.822 19.6941 149.695 19.6941H148.598C148.336 19.6941 148.206 19.5544 148.206 19.2748V18.298ZM153.589 24.9531C153.589 25.3015 153.65 25.6315 153.771 25.9422C153.894 26.2538 154.063 26.5251 154.281 26.7557C154.499 26.9867 154.757 27.1696 155.055 27.3048C155.353 27.4396 155.679 27.507 156.032 27.507C156.376 27.507 156.695 27.4396 156.989 27.3048C157.283 27.1696 157.536 26.9867 157.75 26.7557C157.963 26.5251 158.129 26.2538 158.25 25.9422C158.369 25.6315 158.429 25.3015 158.429 24.9531C158.429 24.609 158.369 24.2802 158.25 23.9664C158.129 23.6525 157.963 23.378 157.75 23.1399C157.536 22.9028 157.283 22.7131 156.989 22.5719C156.695 22.4302 156.376 22.3593 156.032 22.3593C155.679 22.3593 155.353 22.4302 155.055 22.5719C154.757 22.7131 154.499 22.9028 154.281 23.1399C154.063 23.378 153.894 23.6525 153.771 23.9664C153.65 24.2802 153.589 24.609 153.589 24.9531ZM151.747 24.9531C151.747 24.5567 151.798 24.1744 151.9 23.8064C152.002 23.4386 152.147 23.0954 152.334 22.7773C152.521 22.4599 152.746 22.1709 153.007 21.9119C153.267 21.6531 153.557 21.4309 153.875 21.246C154.192 21.0606 154.533 20.9173 154.896 20.8144C155.26 20.7125 155.639 20.6609 156.035 20.6609C156.427 20.6609 156.805 20.7125 157.171 20.8144C157.536 20.9173 157.877 21.0606 158.192 21.246C158.508 21.4309 158.796 21.6531 159.057 21.9119C159.318 22.1709 159.542 22.4599 159.73 22.7773C159.916 23.0954 160.061 23.4386 160.163 23.8064C160.266 24.1744 160.317 24.5567 160.317 24.9531C160.317 25.349 160.266 25.7302 160.163 26.0957C160.061 26.4619 159.916 26.8028 159.73 27.1183C159.542 27.4338 159.318 27.7225 159.057 27.9835C158.796 28.2454 158.508 28.4683 158.192 28.6531C157.877 28.8383 157.536 28.9822 157.171 29.0841C156.805 29.187 156.427 29.238 156.035 29.238C155.639 29.238 155.26 29.187 154.896 29.0841C154.533 28.9822 154.192 28.8383 153.875 28.6531C153.557 28.4683 153.267 28.2454 153.007 27.9835C152.746 27.7225 152.521 27.4338 152.334 27.1183C152.147 26.8028 152.002 26.4619 151.9 26.0957C151.798 25.7302 151.747 25.349 151.747 24.9531Z" fill="white"/>
<path fill-rule="evenodd" clip-rule="evenodd" d="M42.1327 41.6497C41.6904 41.6497 41.2944 41.5746 40.945 41.4254C40.5962 41.2767 40.2973 41.0709 40.0495 40.8094C39.8012 40.5488 39.6119 40.242 39.4816 39.8898C39.3509 39.5381 39.2857 39.1619 39.2857 38.762C39.2857 38.3782 39.3537 38.0105 39.4896 37.6583C39.6251 37.3062 39.8158 36.997 40.0613 36.7307C40.3063 36.4635 40.6014 36.252 40.945 36.0944C41.2892 35.9372 41.6715 35.8588 42.0931 35.8588C42.3277 35.8588 42.542 35.8744 42.737 35.907C42.9315 35.9386 43.1128 35.9863 43.2808 36.0505C43.4489 36.1147 43.6061 36.1935 43.7529 36.2865C43.8992 36.3795 44.0418 36.4852 44.1806 36.6023L43.7727 37.0824C43.666 36.9866 43.5541 36.8997 43.4366 36.8223C43.3195 36.7454 43.193 36.6783 43.0566 36.6221C42.9206 36.5664 42.7715 36.5225 42.6091 36.4904C42.4462 36.4588 42.2663 36.4423 42.069 36.4423C41.7598 36.4423 41.4742 36.5037 41.2132 36.6269C40.9516 36.7496 40.7279 36.9153 40.5414 37.124C40.3545 37.3321 40.2081 37.5767 40.1014 37.8566C39.9948 38.137 39.9414 38.4349 39.9414 38.7502C39.9414 39.0868 39.9933 39.3979 40.0972 39.684C40.2015 39.9696 40.3493 40.216 40.5414 40.4247C40.7335 40.6328 40.9653 40.7962 41.2372 40.9132C41.5091 41.0308 41.8155 41.0898 42.1568 41.0898C42.4769 41.0898 42.7781 41.035 43.0608 40.925C43.3431 40.8155 43.5806 40.6829 43.7727 40.5276V39.1302H42.069V38.5699H44.3807V40.7962C44.1192 41.0298 43.7977 41.2309 43.4168 41.3981C43.0353 41.5656 42.6076 41.6497 42.1327 41.6497ZM46.3162 41.5538V35.7144H46.9323V41.5538H46.3162ZM50.8112 41.6497C50.502 41.6497 50.2164 41.5921 49.9554 41.4774C49.6943 41.3631 49.4677 41.2083 49.2756 41.0138C49.0835 40.8193 48.9343 40.5908 48.8276 40.3298C48.7209 40.0687 48.6676 39.7911 48.6676 39.498C48.6676 39.2048 48.7209 38.9258 48.8276 38.6619C48.9343 38.3981 49.0835 38.1677 49.2756 37.9704C49.4677 37.773 49.6957 37.6173 49.9596 37.5021C50.2235 37.3874 50.5124 37.3302 50.8273 37.3302C51.1365 37.3302 51.423 37.3874 51.6869 37.5021C51.9513 37.6173 52.1793 37.7716 52.371 37.9661C52.5631 38.1611 52.7123 38.3886 52.8189 38.6501C52.9256 38.9117 52.979 39.1888 52.979 39.4819C52.979 39.7756 52.9242 40.0541 52.8147 40.3175C52.7056 40.5818 52.5551 40.8122 52.3629 41.0095C52.1713 41.2069 51.9418 41.3631 51.6751 41.4774C51.4084 41.5921 51.1204 41.6497 50.8112 41.6497ZM50.8112 37.8741C50.5875 37.8741 50.3821 37.9151 50.1957 37.9977C50.0087 38.0804 49.8501 38.1946 49.7193 38.3409C49.5886 38.4873 49.4861 38.6577 49.4116 38.8517C49.337 39.0457 49.2997 39.2544 49.2997 39.4782C49.2997 39.7014 49.3384 39.9115 49.4153 40.1084C49.4928 40.3052 49.5994 40.4752 49.7354 40.6191C49.8714 40.7627 50.0328 40.8769 50.2193 40.9623C50.4057 41.0473 50.6087 41.0898 50.8273 41.0898C51.0515 41.0898 51.2564 41.0483 51.4433 40.9661C51.6298 40.884 51.7898 40.7707 51.923 40.6272C52.0561 40.4832 52.1604 40.3142 52.235 40.1202C52.3096 39.9261 52.3469 39.7175 52.3469 39.4937C52.3469 39.2709 52.3082 39.0604 52.2312 38.8635C52.1538 38.6667 52.0457 38.4953 51.9074 38.349C51.7686 38.2031 51.6057 38.087 51.4193 38.002C51.2323 37.9166 51.0298 37.8741 50.8112 37.8741ZM56.8504 41.6416C56.6583 41.6416 56.4822 41.6176 56.3226 41.5699C56.1626 41.5217 56.0181 41.4575 55.8907 41.3773C55.7628 41.2975 55.6466 41.2045 55.5423 41.0978C55.4384 40.9911 55.3464 40.8793 55.2666 40.7617V41.5538H54.6506V35.7144H55.2666V38.2498C55.3516 38.1276 55.4465 38.0105 55.5503 37.8981C55.6547 37.7863 55.7703 37.689 55.8987 37.6064C56.0266 37.5233 56.1687 37.4572 56.3264 37.4062C56.4836 37.3557 56.6583 37.3302 56.8504 37.3302C57.0954 37.3302 57.3366 37.3784 57.5741 37.4742C57.8115 37.5701 58.0235 37.7103 58.21 37.8944C58.3969 38.078 58.5461 38.3036 58.658 38.5699C58.7698 38.8371 58.826 39.1406 58.826 39.4819C58.826 39.8232 58.7698 40.1272 58.658 40.3935C58.5461 40.6607 58.3983 40.8854 58.2137 41.0695C58.0301 41.2536 57.8196 41.3952 57.5821 41.4939C57.3447 41.5921 57.1006 41.6416 56.8504 41.6416ZM56.7381 37.8906C56.5464 37.8906 56.3609 37.9288 56.1824 38.0058C56.0035 38.0827 55.8435 38.1899 55.7023 38.3277C55.5612 38.4656 55.4488 38.6332 55.3667 38.8295C55.2836 39.0259 55.2425 39.2431 55.2425 39.4819C55.2425 39.7208 55.2836 39.9394 55.3667 40.1386C55.4488 40.3373 55.5612 40.5063 55.7023 40.6442C55.8435 40.782 56.0035 40.8892 56.1824 40.9661C56.3609 41.0431 56.5464 41.0813 56.7381 41.0813C56.9354 41.0813 57.1233 41.0459 57.3022 40.9741C57.4806 40.9029 57.6355 40.7995 57.7662 40.664C57.897 40.529 58.0008 40.3614 58.0783 40.1622C58.1552 39.9634 58.1939 39.7397 58.1939 39.49C58.1939 39.2459 58.1552 39.0259 58.0783 38.8295C58.0008 38.6332 57.8956 38.4646 57.762 38.3244C57.6288 38.1837 57.4745 38.0756 57.2979 38.0015C57.1223 37.9274 56.9354 37.8906 56.7381 37.8906ZM61.7533 41.6416C61.5612 41.6416 61.3733 41.6147 61.1897 41.5614C61.0055 41.5085 60.8398 41.4269 60.6935 41.3173C60.5467 41.2083 60.4296 41.0737 60.3418 40.9137C60.2535 40.7537 60.2096 40.5649 60.2096 40.3458C60.2096 40.1272 60.2521 39.9342 60.3376 39.7656C60.423 39.5981 60.5439 39.4579 60.7015 39.346C60.8587 39.2336 61.0452 39.1486 61.2614 39.0901C61.4771 39.0316 61.716 39.0018 61.9775 39.0018C62.2438 39.0018 62.476 39.0179 62.6734 39.05C62.8702 39.0821 63.0623 39.1246 63.2488 39.1779V39.0344C63.2488 38.661 63.1412 38.3797 62.925 38.1899C62.7092 38.0011 62.4066 37.9062 62.0172 37.9062C61.7722 37.9062 61.5494 37.934 61.3492 37.9902C61.1495 38.0464 60.9536 38.1195 60.7615 38.2102L60.5774 37.706C60.8068 37.5998 61.0386 37.5158 61.2732 37.4544C61.5078 37.393 61.7774 37.3623 62.0814 37.3623C62.6465 37.3623 63.0812 37.5021 63.3852 37.782C63.6892 38.0624 63.8408 38.4769 63.8408 39.0259V41.5538H63.2488V40.9298C63.1053 41.1167 62.9118 41.2815 62.6691 41.4254C62.4265 41.5699 62.121 41.6416 61.7533 41.6416ZM62.0455 39.4579C61.6575 39.4579 61.3596 39.5353 61.1524 39.6896C60.9451 39.8445 60.8413 40.0555 60.8413 40.3217C60.8413 40.4549 60.8691 40.5724 60.9253 40.6734C60.981 40.7749 61.0565 40.8618 61.1524 40.9335C61.2482 41.0053 61.3582 41.0605 61.4833 41.0978C61.6079 41.1351 61.7396 41.1535 61.8779 41.1535C62.0691 41.1535 62.2485 41.1257 62.4161 41.0695C62.5832 41.0138 62.7295 40.9364 62.8546 40.8377C62.9793 40.739 63.0779 40.622 63.1492 40.486C63.221 40.3501 63.2568 40.199 63.2568 40.0338V39.6339C63.1029 39.591 62.9259 39.5513 62.7267 39.514C62.5275 39.4767 62.3004 39.4579 62.0455 39.4579ZM65.7682 41.5538V35.7144H66.3843V41.5538H65.7682ZM72.0713 41.5538H71.4392V35.9546H73.5352C73.8496 35.9546 74.1361 35.9957 74.3948 36.0788C74.6535 36.1614 74.8744 36.2785 75.0585 36.4305C75.2426 36.5825 75.3838 36.7694 75.4829 36.9904C75.5811 37.2118 75.6307 37.461 75.6307 37.7381C75.6307 38.0421 75.5717 38.3088 75.4546 38.5383C75.3371 38.7672 75.1784 38.9593 74.9788 39.1137C74.7786 39.269 74.5454 39.3847 74.2787 39.4621C74.012 39.5395 73.7297 39.5778 73.4308 39.5778H72.0713V41.5538ZM72.0713 36.5381V39.0018H73.4587C73.6886 39.0018 73.8987 38.973 74.0884 38.914C74.2782 38.8555 74.4411 38.7715 74.5775 38.6619C74.7139 38.5529 74.8182 38.4221 74.8905 38.2701C74.9627 38.1181 74.9986 37.9491 74.9986 37.7622C74.9986 37.3572 74.8612 37.0517 74.5855 36.8464C74.3103 36.641 73.9454 36.5381 73.4908 36.5381H72.0713ZM79.014 41.6497C78.7312 41.6497 78.4645 41.5973 78.2143 41.4939C77.9636 41.3896 77.7441 41.2427 77.5567 41.0539C77.3684 40.8646 77.2192 40.6366 77.1082 40.3699C76.9978 40.1032 76.9426 39.81 76.9426 39.49C76.9426 39.1916 76.9916 38.9103 77.0903 38.6459C77.189 38.3825 77.3263 38.1526 77.5024 37.9581C77.678 37.7636 77.8876 37.6102 78.1303 37.4983C78.3729 37.3859 78.6382 37.3302 78.9262 37.3302C79.2297 37.3302 79.5021 37.3874 79.7419 37.5021C79.9817 37.6173 80.1842 37.773 80.3495 37.9704C80.5152 38.1677 80.6403 38.3995 80.7257 38.6662C80.8111 38.9329 80.8536 39.218 80.8536 39.5221V39.6099L80.8456 39.7137H77.5742C77.5954 39.9379 77.6488 40.1367 77.7342 40.3099C77.8197 40.4832 77.9287 40.6295 78.0623 40.7494C78.1954 40.8698 78.3446 40.9604 78.5098 41.0213C78.6755 41.0827 78.8488 41.1139 79.03 41.1139C79.318 41.1139 79.5644 41.0605 79.7698 40.9538C79.9751 40.8467 80.163 40.706 80.3339 40.5299L80.7177 40.8736C80.5095 41.1082 80.2725 41.2966 80.0058 41.4372C79.7391 41.5789 79.4086 41.6497 79.014 41.6497ZM78.9101 37.8505C78.7298 37.8505 78.5627 37.8863 78.4093 37.9581C78.2554 38.0303 78.1204 38.129 78.0038 38.2541C77.8872 38.3797 77.7918 38.5274 77.7172 38.6983C77.6431 38.8687 77.5954 39.0552 77.5742 39.2577H80.2215C80.206 39.0717 80.1672 38.8928 80.1064 38.7219C80.0455 38.5515 79.961 38.4023 79.8519 38.2739C79.7433 38.1465 79.6112 38.0435 79.4549 37.9661C79.2982 37.8892 79.1169 37.8505 78.9101 37.8505ZM84.3092 41.6497C84.0264 41.6497 83.7597 41.5973 83.509 41.4939C83.2588 41.3896 83.0393 41.2427 82.8514 41.0539C82.6635 40.8646 82.5144 40.6366 82.4034 40.3699C82.293 40.1032 82.2373 39.81 82.2373 39.49C82.2373 39.1916 82.2868 38.9103 82.3855 38.6459C82.4842 38.3825 82.6215 38.1526 82.7976 37.9581C82.9732 37.7636 83.1828 37.6102 83.4255 37.4983C83.6676 37.3859 83.9329 37.3302 84.2214 37.3302C84.5249 37.3302 84.7968 37.3874 85.0371 37.5021C85.2769 37.6173 85.4794 37.773 85.6447 37.9704C85.8099 38.1677 85.9354 38.3995 86.0209 38.6662C86.1059 38.9329 86.1488 39.218 86.1488 39.5221V39.6099L86.1408 39.7137H82.8694C82.8906 39.9379 82.9439 40.1367 83.0294 40.3099C83.1144 40.4832 83.2239 40.6295 83.3575 40.7494C83.4906 40.8698 83.6398 40.9604 83.805 41.0213C83.9702 41.0827 84.1439 41.1139 84.3252 41.1139C84.6132 41.1139 84.8596 41.0605 85.065 40.9538C85.2703 40.8467 85.4582 40.706 85.6291 40.5299L86.0129 40.8736C85.8047 41.1082 85.5677 41.2966 85.301 41.4372C85.0343 41.5789 84.7038 41.6497 84.3092 41.6497ZM84.2053 37.8505C84.025 37.8505 83.8579 37.8863 83.704 37.9581C83.5506 38.0303 83.4155 38.129 83.2989 38.2541C83.1823 38.3797 83.0865 38.5274 83.0124 38.6983C82.9383 38.8687 82.8906 39.0552 82.8694 39.2577H85.5167C85.5011 39.0717 85.4624 38.8928 85.4015 38.7219C85.3406 38.5515 85.2561 38.4023 85.1471 38.2739C85.0385 38.1465 84.9059 38.0435 84.7496 37.9661C84.5934 37.8892 84.4116 37.8505 84.2053 37.8505ZM88.4044 41.5538H87.7883V37.4185H88.4044V38.4981C88.4789 38.3273 88.5724 38.1705 88.6843 38.0261C88.7966 37.8821 88.9246 37.7579 89.0681 37.6546C89.2121 37.5502 89.3693 37.4719 89.5402 37.4185C89.695 37.3699 89.8602 37.3458 90.0368 37.3458C90.0552 37.3458 90.0736 37.3458 90.092 37.3463V38.0105H90.0443C89.8201 38.0105 89.6081 38.0506 89.408 38.1304C89.2083 38.2102 89.0336 38.3301 88.8844 38.4901C88.7348 38.6501 88.6177 38.8489 88.5323 39.0859C88.4468 39.3233 88.4044 39.5966 88.4044 39.9058V41.5538ZM91.4199 39.4739V38.8262H93.6434V39.4739H91.4199ZM96.7949 41.6256C96.6292 41.6256 96.4748 41.6043 96.3308 41.5614C96.1869 41.5189 96.0627 41.4509 95.9589 41.3575C95.855 41.2645 95.7733 41.1427 95.7148 40.9935C95.6563 40.8443 95.627 40.6659 95.627 40.4577V37.9623H95.0511V37.4185H95.627V36.1704H96.243V37.4185H97.5544V37.9623H96.243V40.3774C96.243 40.6338 96.3068 40.8122 96.4347 40.9137C96.5626 41.0152 96.7307 41.0657 96.9389 41.0657C97.0456 41.0657 97.1452 41.0553 97.2386 41.0336C97.3321 41.0124 97.4317 40.9751 97.5389 40.9217V41.4495C97.4317 41.5085 97.3184 41.5524 97.1985 41.5817C97.0786 41.611 96.9441 41.6256 96.7949 41.6256ZM100.97 41.6497C100.661 41.6497 100.375 41.5921 100.114 41.4774C99.8529 41.3631 99.6264 41.2083 99.4342 41.0138C99.2421 40.8193 99.0929 40.5908 98.9862 40.3298C98.8795 40.0687 98.8262 39.7911 98.8262 39.498C98.8262 39.2048 98.8795 38.9258 98.9862 38.6619C99.0929 38.3981 99.2421 38.1677 99.4342 37.9704C99.6264 37.773 99.8539 37.6173 100.118 37.5021C100.382 37.3874 100.671 37.3302 100.986 37.3302C101.295 37.3302 101.582 37.3874 101.846 37.5021C102.11 37.6173 102.337 37.7716 102.529 37.9661C102.722 38.1611 102.87 38.3886 102.978 38.6501C103.084 38.9117 103.138 39.1888 103.138 39.4819C103.138 39.7756 103.082 40.0541 102.974 40.3175C102.864 40.5818 102.714 40.8122 102.522 41.0095C102.329 41.2069 102.1 41.3631 101.834 41.4774C101.567 41.5921 101.279 41.6497 100.97 41.6497ZM100.97 37.8741C100.746 37.8741 100.541 37.9151 100.354 37.9977C100.167 38.0804 100.009 38.1946 99.878 38.3409C99.7472 38.4873 99.6448 38.6577 99.5702 38.8517C99.4956 39.0457 99.4583 39.2544 99.4583 39.4782C99.4583 39.7014 99.497 39.9115 99.574 40.1084C99.6514 40.3052 99.7581 40.4752 99.894 40.6191C100.03 40.7627 100.191 40.8769 100.378 40.9623C100.564 41.0473 100.767 41.0898 100.986 41.0898C101.21 41.0898 101.415 41.0483 101.602 40.9661C101.788 40.884 101.948 40.7707 102.082 40.6272C102.215 40.4832 102.319 40.3142 102.394 40.1202C102.468 39.9261 102.505 39.7175 102.505 39.4937C102.505 39.2709 102.467 39.0604 102.39 38.8635C102.312 38.6667 102.204 38.4953 102.066 38.349C101.927 38.2031 101.764 38.087 101.578 38.002C101.39 37.9166 101.189 37.8741 100.97 37.8741ZM104.642 39.4739V38.8262H106.865V39.4739H104.642ZM111.22 41.5538H108.737V35.9546H111.116C111.393 35.9546 111.642 35.9877 111.866 36.0547C112.089 36.1213 112.281 36.2147 112.441 36.3347C112.6 36.4546 112.723 36.6009 112.808 36.7741C112.893 36.9479 112.936 37.1414 112.936 37.3543C112.936 37.5413 112.911 37.7037 112.86 37.842C112.81 37.9808 112.741 38.1035 112.657 38.2102C112.571 38.3169 112.477 38.4066 112.373 38.4783C112.269 38.5501 112.162 38.61 112.05 38.6582C112.215 38.7059 112.371 38.7686 112.517 38.8461C112.663 38.9235 112.79 39.0151 112.896 39.1217C113.003 39.2289 113.088 39.3568 113.152 39.506C113.216 39.6552 113.247 39.8256 113.247 40.0182C113.247 40.2575 113.2 40.4737 113.104 40.6659C113.009 40.858 112.871 41.0195 112.693 41.1497C112.515 41.28 112.3 41.3801 112.05 41.4495C111.8 41.5189 111.523 41.5538 111.22 41.5538ZM109.368 39.0103V40.9935H111.243C111.669 40.9935 112.004 40.9052 112.249 40.7287C112.494 40.5516 112.616 40.3029 112.616 39.9814C112.616 39.6712 112.491 39.4314 112.241 39.2629C111.991 39.0948 111.621 39.0103 111.132 39.0103H109.368ZM109.368 36.5145V38.45H111.02C111.397 38.45 111.706 38.3645 111.945 38.1932C112.184 38.0218 112.304 37.7702 112.304 37.4383C112.304 37.1542 112.198 36.9295 111.985 36.7633C111.772 36.5971 111.466 36.5145 111.067 36.5145H109.368ZM116.487 41.6416C116.236 41.6416 116.014 41.6015 115.819 41.5217C115.625 41.4415 115.459 41.3282 115.323 41.1814C115.187 41.035 115.083 40.8604 115.012 40.6579C114.939 40.4549 114.903 40.2311 114.903 39.9856V37.4185H115.519V39.8341C115.519 40.2174 115.618 40.5219 115.815 40.7461C116.012 40.9694 116.295 41.0813 116.663 41.0813C116.839 41.0813 117.003 41.0511 117.155 40.9897C117.307 40.9283 117.437 40.8405 117.547 40.7258C117.656 40.6111 117.743 40.4737 117.807 40.3142C117.87 40.1542 117.903 39.9781 117.903 39.7859V37.4185H118.51V41.5538H117.903V40.8335C117.764 41.0577 117.583 41.2484 117.359 41.4056C117.135 41.5628 116.845 41.6416 116.487 41.6416ZM121.822 41.6336C121.523 41.6336 121.222 41.5789 120.918 41.4698C120.614 41.3603 120.345 41.2125 120.11 41.0256L120.422 40.5861C120.646 40.7565 120.879 40.8868 121.122 40.9779C121.365 41.0686 121.608 41.1139 121.854 41.1139C122.104 41.1139 122.31 41.0553 122.47 40.9378C122.63 40.8207 122.71 40.6607 122.71 40.4577V40.4416C122.71 40.3406 122.682 40.2528 122.626 40.1778C122.57 40.1032 122.493 40.038 122.397 39.9818C122.302 39.9257 122.191 39.8766 122.066 39.8341C121.941 39.7911 121.811 39.751 121.678 39.7137C121.518 39.666 121.357 39.6141 121.194 39.5579C121.031 39.5022 120.885 39.4309 120.754 39.346C120.623 39.2605 120.517 39.1543 120.434 39.0259C120.351 38.898 120.31 38.7384 120.31 38.5458V38.5302C120.31 38.3542 120.345 38.1927 120.414 38.0464C120.484 37.8996 120.581 37.7745 120.706 37.6701C120.831 37.5663 120.98 37.486 121.154 37.4303C121.327 37.3741 121.515 37.3463 121.718 37.3463C121.974 37.3463 122.233 37.3874 122.493 37.4704C122.755 37.5531 122.992 37.6635 123.206 37.8023L122.925 38.2664C122.734 38.1436 122.532 38.0464 122.321 37.9741C122.111 37.9024 121.904 37.866 121.702 37.866C121.457 37.866 121.262 37.9236 121.118 38.0379C120.974 38.1526 120.902 38.2956 120.902 38.466V38.4821C120.902 38.5784 120.931 38.6619 120.99 38.7342C121.049 38.8059 121.127 38.8687 121.226 38.9221C121.324 38.9754 121.438 39.0236 121.566 39.066C121.694 39.109 121.827 39.1515 121.966 39.194C122.126 39.2421 122.284 39.295 122.442 39.354C122.599 39.4125 122.742 39.4876 122.87 39.5778C122.998 39.6684 123.1 39.7779 123.178 39.9058C123.255 40.0338 123.294 40.1914 123.294 40.3774V40.3935C123.294 40.5908 123.255 40.766 123.178 40.918C123.1 41.0695 122.997 41.1988 122.866 41.3055C122.735 41.4127 122.58 41.4939 122.402 41.5496C122.223 41.6058 122.03 41.6336 121.822 41.6336ZM125.088 41.5538V37.4185H125.741V41.5538H125.088ZM125.013 36.5145V35.8343H125.667V36.5145H125.013ZM131.277 41.5538H130.661V39.1378C130.661 38.754 130.561 38.45 130.365 38.2262C130.167 38.002 129.885 37.8906 129.516 37.8906C129.341 37.8906 129.177 37.9208 129.024 37.9822C128.873 38.0435 128.741 38.1313 128.629 38.2465C128.517 38.3608 128.43 38.4981 128.369 38.6582C128.308 38.8182 128.277 38.9943 128.277 39.1859V41.5538H127.661V37.4185H128.277V38.138C128.415 37.9142 128.597 37.7235 128.821 37.5663C129.045 37.4091 129.335 37.3302 129.692 37.3302C129.943 37.3302 130.166 37.3704 130.36 37.4501C130.555 37.5304 130.721 37.6437 130.856 37.7905C130.992 37.9368 131.096 38.1115 131.168 38.314C131.24 38.517 131.277 38.7408 131.277 38.9863V41.5538ZM134.963 41.6497C134.681 41.6497 134.414 41.5973 134.164 41.4939C133.913 41.3896 133.694 41.2427 133.506 41.0539C133.318 40.8646 133.169 40.6366 133.058 40.3699C132.947 40.1032 132.892 39.81 132.892 39.49C132.892 39.1916 132.941 38.9103 133.04 38.6459C133.138 38.3825 133.276 38.1526 133.451 37.9581C133.628 37.7636 133.837 37.6102 134.079 37.4983C134.322 37.3859 134.587 37.3302 134.876 37.3302C135.179 37.3302 135.452 37.3874 135.691 37.5021C135.931 37.6173 136.134 37.773 136.299 37.9704C136.465 38.1677 136.59 38.3995 136.675 38.6662C136.761 38.9329 136.803 39.218 136.803 39.5221V39.6099L136.795 39.7137H133.524C133.545 39.9379 133.598 40.1367 133.684 40.3099C133.769 40.4832 133.879 40.6295 134.012 40.7494C134.145 40.8698 134.294 40.9604 134.46 41.0213C134.625 41.0827 134.798 41.1139 134.98 41.1139C135.267 41.1139 135.514 41.0605 135.719 40.9538C135.925 40.8467 136.112 40.706 136.283 40.5299L136.667 40.8736C136.459 41.1082 136.222 41.2966 135.955 41.4372C135.689 41.5789 135.358 41.6497 134.963 41.6497ZM134.86 37.8505C134.679 37.8505 134.512 37.8863 134.358 37.9581C134.205 38.0303 134.07 38.129 133.953 38.2541C133.837 38.3797 133.741 38.5274 133.667 38.6983C133.593 38.8687 133.545 39.0552 133.524 39.2577H136.171C136.155 39.0717 136.117 38.8928 136.056 38.7219C135.995 38.5515 135.91 38.4023 135.802 38.2739C135.693 38.1465 135.56 38.0435 135.404 37.9661C135.248 37.8892 135.066 37.8505 134.86 37.8505ZM139.811 41.6336C139.512 41.6336 139.211 41.5789 138.907 41.4698C138.603 41.3603 138.334 41.2125 138.099 41.0256L138.411 40.5861C138.635 40.7565 138.868 40.8868 139.111 40.9779C139.353 41.0686 139.597 41.1139 139.842 41.1139C140.093 41.1139 140.298 41.0553 140.458 40.9378C140.618 40.8207 140.699 40.6607 140.699 40.4577V40.4416C140.699 40.3406 140.67 40.2528 140.615 40.1778C140.558 40.1032 140.482 40.038 140.387 39.9818C140.291 39.9257 140.18 39.8766 140.055 39.8341C139.929 39.7911 139.8 39.751 139.667 39.7137C139.507 39.666 139.346 39.6141 139.183 39.5579C139.02 39.5022 138.874 39.4309 138.743 39.346C138.612 39.2605 138.505 39.1543 138.423 39.0259C138.34 38.898 138.299 38.7384 138.299 38.5458V38.5302C138.299 38.3542 138.334 38.1927 138.403 38.0464C138.472 37.8996 138.57 37.7745 138.695 37.6701C138.82 37.5663 138.969 37.486 139.143 37.4303C139.316 37.3741 139.504 37.3463 139.706 37.3463C139.963 37.3463 140.221 37.3874 140.482 37.4704C140.744 37.5531 140.981 37.6635 141.195 37.8023L140.914 38.2664C140.723 38.1436 140.521 38.0464 140.311 37.9741C140.1 37.9024 139.893 37.866 139.691 37.866C139.446 37.866 139.251 37.9236 139.107 38.0379C138.963 38.1526 138.891 38.2956 138.891 38.466V38.4821C138.891 38.5784 138.92 38.6619 138.979 38.7342C139.037 38.8059 139.116 38.8687 139.214 38.9221C139.313 38.9754 139.427 39.0236 139.555 39.066C139.682 39.109 139.816 39.1515 139.955 39.194C140.115 39.2421 140.273 39.295 140.43 39.354C140.588 39.4125 140.73 39.4876 140.859 39.5778C140.987 39.6684 141.089 39.7779 141.166 39.9058C141.243 40.0338 141.283 40.1914 141.283 40.3774V40.3935C141.283 40.5908 141.243 40.766 141.166 40.918C141.089 41.0695 140.985 41.1988 140.854 41.3055C140.724 41.4127 140.569 41.4939 140.39 41.5496C140.212 41.6058 140.018 41.6336 139.811 41.6336ZM144.274 41.6336C143.975 41.6336 143.674 41.5789 143.37 41.4698C143.066 41.3603 142.796 41.2125 142.562 41.0256L142.874 40.5861C143.098 40.7565 143.331 40.8868 143.574 40.9779C143.816 41.0686 144.06 41.1139 144.306 41.1139C144.556 41.1139 144.761 41.0553 144.921 40.9378C145.081 40.8207 145.162 40.6607 145.162 40.4577V40.4416C145.162 40.3406 145.133 40.2528 145.078 40.1778C145.021 40.1032 144.945 40.038 144.85 39.9818C144.754 39.9257 144.643 39.8766 144.518 39.8341C144.392 39.7911 144.263 39.751 144.13 39.7137C143.97 39.666 143.809 39.6141 143.646 39.5579C143.483 39.5022 143.337 39.4309 143.206 39.346C143.075 39.2605 142.968 39.1543 142.886 39.0259C142.803 38.898 142.762 38.7384 142.762 38.5458V38.5302C142.762 38.3542 142.796 38.1927 142.866 38.0464C142.935 37.8996 143.033 37.7745 143.158 37.6701C143.283 37.5663 143.432 37.486 143.606 37.4303C143.779 37.3741 143.967 37.3463 144.169 37.3463C144.426 37.3463 144.684 37.3874 144.945 37.4704C145.207 37.5531 145.444 37.6635 145.658 37.8023L145.377 38.2664C145.186 38.1436 144.984 38.0464 144.774 37.9741C144.562 37.9024 144.356 37.866 144.154 37.866C143.909 37.866 143.714 37.9236 143.57 38.0379C143.426 38.1526 143.354 38.2956 143.354 38.466V38.4821C143.354 38.5784 143.383 38.6619 143.442 38.7342C143.5 38.8059 143.579 38.8687 143.677 38.9221C143.776 38.9754 143.89 39.0236 144.018 39.066C144.146 39.109 144.279 39.1515 144.418 39.194C144.578 39.2421 144.736 39.295 144.894 39.354C145.051 39.4125 145.193 39.4876 145.322 39.5778C145.45 39.6684 145.552 39.7779 145.629 39.9058C145.706 40.0338 145.745 40.1914 145.745 40.3774V40.3935C145.745 40.5908 145.706 40.766 145.629 40.918C145.552 41.0695 145.448 41.1988 145.317 41.3055C145.187 41.4127 145.032 41.4939 144.854 41.5496C144.675 41.6058 144.482 41.6336 144.274 41.6336ZM151.144 41.5538H150.512V35.9546H152.607C152.922 35.9546 153.209 35.9957 153.468 36.0788C153.727 36.1614 153.948 36.2785 154.132 36.4305C154.316 36.5825 154.457 36.7694 154.555 36.9904C154.654 37.2118 154.703 37.461 154.703 37.7381C154.703 38.0421 154.645 38.3088 154.528 38.5383C154.41 38.7672 154.252 38.9593 154.052 39.1137C153.851 39.269 153.618 39.3847 153.352 39.4621C153.085 39.5395 152.802 39.5778 152.504 39.5778H151.144V41.5538ZM151.144 36.5381V39.0018H152.531C152.762 39.0018 152.971 38.973 153.161 38.914C153.351 38.8555 153.514 38.7715 153.65 38.6619C153.787 38.5529 153.891 38.4221 153.963 38.2701C154.035 38.1181 154.072 37.9491 154.072 37.7622C154.072 37.3572 153.934 37.0517 153.659 36.8464C153.383 36.641 153.019 36.5381 152.564 36.5381H151.144ZM156.927 41.5538H156.311V37.4185H156.927V38.4981C157.002 38.3273 157.095 38.1705 157.207 38.0261C157.319 37.8821 157.447 37.7579 157.591 37.6546C157.736 37.5502 157.893 37.4719 158.063 37.4185C158.218 37.3699 158.383 37.3458 158.56 37.3458C158.578 37.3458 158.597 37.3458 158.615 37.3463V38.0105H158.567C158.343 38.0105 158.131 38.0506 157.931 38.1304C157.731 38.2102 157.557 38.3301 157.407 38.4901C157.258 38.6501 157.141 38.8489 157.055 39.0859C156.97 39.3233 156.927 39.5966 156.927 39.9058V41.5538ZM161.823 41.6497C161.513 41.6497 161.228 41.5921 160.966 41.4774C160.705 41.3631 160.479 41.2083 160.287 41.0138C160.095 40.8193 159.945 40.5908 159.839 40.3298C159.732 40.0687 159.679 39.7911 159.679 39.498C159.679 39.2048 159.732 38.9258 159.839 38.6619C159.945 38.3981 160.095 38.1677 160.287 37.9704C160.479 37.773 160.707 37.6173 160.971 37.5021C161.235 37.3874 161.524 37.3302 161.839 37.3302C162.147 37.3302 162.435 37.3874 162.698 37.5021C162.962 37.6173 163.19 37.7716 163.382 37.9661C163.575 38.1611 163.723 38.3886 163.83 38.6501C163.937 38.9117 163.99 39.1888 163.99 39.4819C163.99 39.7756 163.935 40.0541 163.826 40.3175C163.717 40.5818 163.566 40.8122 163.374 41.0095C163.182 41.2069 162.953 41.3631 162.687 41.4774C162.42 41.5921 162.132 41.6497 161.823 41.6497ZM161.823 37.8741C161.598 37.8741 161.394 37.9151 161.207 37.9977C161.02 38.0804 160.862 38.1946 160.731 38.3409C160.6 38.4873 160.497 38.6577 160.423 38.8517C160.348 39.0457 160.311 39.2544 160.311 39.4782C160.311 39.7014 160.349 39.9115 160.427 40.1084C160.504 40.3052 160.61 40.4752 160.747 40.6191C160.883 40.7627 161.044 40.8769 161.231 40.9623C161.417 41.0473 161.62 41.0898 161.839 41.0898C162.063 41.0898 162.267 41.0483 162.455 40.9661C162.641 40.884 162.801 40.7707 162.934 40.6272C163.068 40.4832 163.171 40.3142 163.246 40.1202C163.321 39.9261 163.358 39.7175 163.358 39.4937C163.358 39.2709 163.32 39.0604 163.243 38.8635C163.165 38.6667 163.057 38.4953 162.918 38.349C162.78 38.2031 162.617 38.087 162.43 38.002C162.243 37.9166 162.041 37.8741 161.823 37.8741ZM168.973 41.5538H168.261L166.982 39.8657L165.694 41.5538H165.006L166.63 39.4498L165.07 37.4185H165.774L166.998 39.0179L168.222 37.4185H168.91L167.342 39.4338L168.973 41.5538ZM171.093 42.8572C170.922 42.8572 170.767 42.8397 170.629 42.8053C170.49 42.7708 170.352 42.7184 170.213 42.6495L170.421 42.1619C170.522 42.2147 170.623 42.2534 170.721 42.2775C170.82 42.3016 170.936 42.3134 171.069 42.3134C171.256 42.3134 171.413 42.2577 171.541 42.1453C171.669 42.0335 171.794 41.8305 171.917 41.5373L170.037 37.4185H170.717L172.221 40.8656L173.549 37.4185H174.204L172.469 41.6898C172.293 42.1161 172.097 42.4177 171.881 42.5938C171.665 42.7694 171.402 42.8572 171.093 42.8572ZM183.539 41.5538H183.035L179.42 36.9625V41.5538H178.804V35.9546H179.396L182.923 40.4416V35.9546H183.539V41.5538ZM187.394 41.6497C187.111 41.6497 186.845 41.5973 186.594 41.4939C186.343 41.3896 186.124 41.2427 185.936 41.0539C185.748 40.8646 185.599 40.6366 185.488 40.3699C185.377 40.1032 185.322 39.81 185.322 39.49C185.322 39.1916 185.372 38.9103 185.47 38.6459C185.569 38.3825 185.706 38.1526 185.882 37.9581C186.058 37.7636 186.267 37.6102 186.51 37.4983C186.753 37.3859 187.018 37.3302 187.306 37.3302C187.61 37.3302 187.882 37.3874 188.122 37.5021C188.362 37.6173 188.564 37.773 188.73 37.9704C188.895 38.1677 189.02 38.3995 189.106 38.6662C189.191 38.9329 189.233 39.218 189.233 39.5221V39.6099L189.226 39.7137H185.954C185.976 39.9379 186.028 40.1367 186.114 40.3099C186.2 40.4832 186.309 40.6295 186.442 40.7494C186.576 40.8698 186.725 40.9604 186.89 41.0213C187.055 41.0827 187.228 41.1139 187.41 41.1139C187.698 41.1139 187.945 41.0605 188.149 40.9538C188.355 40.8467 188.543 40.706 188.714 40.5299L189.097 40.8736C188.89 41.1082 188.652 41.2966 188.385 41.4372C188.119 41.5789 187.789 41.6497 187.394 41.6497ZM187.29 37.8505C187.109 37.8505 186.943 37.8863 186.789 37.9581C186.635 38.0303 186.5 38.129 186.383 38.2541C186.267 38.3797 186.171 38.5274 186.097 38.6983C186.023 38.8687 185.975 39.0552 185.954 39.2577H188.602C188.586 39.0717 188.547 38.8928 188.486 38.7219C188.425 38.5515 188.341 38.4023 188.232 38.2739C188.123 38.1465 187.99 38.0435 187.835 37.9661C187.678 37.8892 187.497 37.8505 187.29 37.8505ZM192.257 41.6256C192.092 41.6256 191.937 41.6043 191.793 41.5614C191.649 41.5189 191.525 41.4509 191.421 41.3575C191.317 41.2645 191.236 41.1427 191.177 40.9935C191.119 40.8443 191.089 40.6659 191.089 40.4577V37.9623H190.513V37.4185H191.089V36.1704H191.706V37.4185H193.017V37.9623H191.706V40.3774C191.706 40.6338 191.769 40.8122 191.897 40.9137C192.025 41.0152 192.193 41.0657 192.401 41.0657C192.508 41.0657 192.608 41.0553 192.701 41.0336C192.794 41.0124 192.894 40.9751 193.001 40.9217V41.4495C192.894 41.5085 192.781 41.5524 192.661 41.5817C192.541 41.611 192.406 41.6256 192.257 41.6256ZM199.072 41.5855H198.536L197.424 38.3221L196.304 41.5855H195.761L194.313 37.4185H194.968L196.056 40.7376L197.168 37.4025H197.68L198.8 40.7376L199.888 37.4185H200.528L199.072 41.5855ZM203.799 41.6497C203.49 41.6497 203.204 41.5921 202.943 41.4774C202.682 41.3631 202.455 41.2083 202.263 41.0138C202.071 40.8193 201.922 40.5908 201.815 40.3298C201.708 40.0687 201.655 39.7911 201.655 39.498C201.655 39.2048 201.708 38.9258 201.815 38.6619C201.922 38.3981 202.071 38.1677 202.263 37.9704C202.455 37.773 202.683 37.6173 202.947 37.5021C203.211 37.3874 203.5 37.3302 203.815 37.3302C204.124 37.3302 204.411 37.3874 204.675 37.5021C204.939 37.6173 205.167 37.7716 205.358 37.9661C205.551 38.1611 205.7 38.3886 205.807 38.6501C205.913 38.9117 205.967 39.1888 205.967 39.4819C205.967 39.7756 205.911 40.0541 205.802 40.3175C205.693 40.5818 205.542 40.8122 205.351 41.0095C205.159 41.2069 204.929 41.3631 204.663 41.4774C204.396 41.5921 204.108 41.6497 203.799 41.6497ZM203.799 37.8741C203.575 37.8741 203.37 37.9151 203.183 37.9977C202.996 38.0804 202.838 38.1946 202.707 38.3409C202.576 38.4873 202.473 38.6577 202.399 38.8517C202.324 39.0457 202.287 39.2544 202.287 39.4782C202.287 39.7014 202.326 39.9115 202.403 40.1084C202.48 40.3052 202.587 40.4752 202.723 40.6191C202.859 40.7627 203.02 40.8769 203.207 40.9623C203.393 41.0473 203.596 41.0898 203.815 41.0898C204.039 41.0898 204.244 41.0483 204.431 40.9661C204.617 40.884 204.777 40.7707 204.911 40.6272C205.044 40.4832 205.148 40.3142 205.222 40.1202C205.297 39.9261 205.335 39.7175 205.335 39.4937C205.335 39.2709 205.296 39.0604 205.219 38.8635C205.142 38.6667 205.033 38.4953 204.895 38.349C204.756 38.2031 204.593 38.087 204.407 38.002C204.22 37.9166 204.018 37.8741 203.799 37.8741ZM208.254 41.5538H207.638V37.4185H208.254V38.4981C208.329 38.3273 208.422 38.1705 208.534 38.0261C208.646 37.8821 208.774 37.7579 208.918 37.6546C209.062 37.5502 209.219 37.4719 209.39 37.4185C209.545 37.3699 209.71 37.3458 209.886 37.3458C209.905 37.3458 209.923 37.3458 209.942 37.3463V38.0105H209.894C209.67 38.0105 209.458 38.0506 209.258 38.1304C209.058 38.2102 208.883 38.3301 208.734 38.4901C208.585 38.6501 208.467 38.8489 208.382 39.0859C208.297 39.3233 208.254 39.5966 208.254 39.9058V41.5538ZM215.109 41.5538H214.373L212.893 39.6259L212.053 40.4737V41.5538H211.437V35.7144H212.053V39.7458L214.285 37.4185H215.053L213.317 39.194L215.109 41.5538Z" fill="white" stroke="white" stroke-width="0.4" stroke-linecap="round" stroke-linejoin="round"/>
<defs>
<linearGradient id="paint0_linear_4347_22828" x1="12.2931" y1="0.245117" x2="12.2931" y2="49.9764" gradientUnits="userSpaceOnUse">
<stop stop-color="#E237B7"/>
<stop offset="1" stop-color="#705CDE"/>
</linearGradient>
<linearGradient id="paint1_linear_4347_22828" x1="12.339" y1="6.21167" x2="12.339" y2="49.9806" gradientUnits="userSpaceOnUse">
<stop stop-color="#E237B7"/>
<stop offset="1" stop-color="#705CDE"/>
</linearGradient>
</defs>
</svg>
