<svg width="96" height="22" viewBox="0 0 96 22" fill="none" xmlns="http://www.w3.org/2000/svg">
<g clip-path="url(#clip0_2717_17457)">
<path opacity="0.396508" fill-rule="evenodd" clip-rule="evenodd" d="M5.26822 10.996L3.42324 12.0471L2.54253 11.6829L0.489014 9.95876L5.26822 7.23601C5.32885 7.2028 5.39764 7.18605 5.46658 7.18605C5.53552 7.18605 5.60431 7.2028 5.66494 7.23601L10.4173 9.94542L8.17221 11.877L7.52641 12.0573L5.66494 10.996C5.60431 10.9627 5.53552 10.9461 5.46658 10.9461C5.39764 10.9461 5.32885 10.9627 5.26822 10.996ZM6.18362 5.58062L4.47508 5.2756L0.489014 2.77257L5.26822 0.0499613C5.32885 0.0166064 5.39764 0 5.46658 0C5.53552 0 5.60431 0.0166064 5.66494 0.0499613L10.4173 2.75937L8.87233 4.33244L6.18362 5.58062ZM4.50317 20.3646L0.489014 17.4788L0.536023 17.4521L5.26822 14.756C5.32885 14.7228 5.39764 14.7061 5.46658 14.7061C5.53552 14.7061 5.60431 14.7228 5.66494 14.756L10.4173 17.4654L9.34845 18.6171L7.24793 20.0041L4.50317 20.3646Z" fill="url(#paint0_linear_2717_17457)"/>
<path fill-rule="evenodd" clip-rule="evenodd" d="M0 10.9755V10.7095C0.0167259 10.5801 0.0581881 10.4517 0.126123 10.3314C0.220142 10.1716 0.341106 10.0518 0.489014 9.95873L0.536023 9.93204C0.845312 9.77222 1.22841 9.76555 1.55117 9.95191L4.31384 11.5231L5.0422 11.9382C5.30706 12.0892 5.63283 12.0892 5.89769 11.9382L9.38213 9.95191C9.71822 9.75888 10.1081 9.77222 10.4173 9.94538C10.5718 10.0318 10.7063 10.165 10.8072 10.3314C11.0358 10.7242 10.9752 11.2035 10.693 11.5231C10.619 11.6029 10.5248 11.6761 10.4241 11.736L6.10178 14.2057C5.90686 14.3123 5.685 14.3722 5.47002 14.3722C5.24816 14.3722 5.03303 14.3123 4.83811 14.2057L0.509079 11.736C0.408324 11.6761 0.314305 11.6029 0.247087 11.5231C0.110611 11.3686 0.0259717 11.1768 0 10.9755V10.9755ZM0 3.78938V3.52337C0.0167259 3.39395 0.0581881 3.26555 0.126123 3.14525C0.220142 2.98558 0.341106 2.86564 0.489014 2.77253L0.536023 2.74585C0.845312 2.58617 1.22841 2.5795 1.55117 2.76586L4.31384 4.33694L5.0422 4.75211C5.30706 4.90298 5.63283 4.90298 5.89769 4.75211L9.38213 2.76586C9.71822 2.57283 10.1081 2.58617 10.4173 2.75919C10.5718 2.84577 10.7063 2.97891 10.8072 3.14525C11.0358 3.53813 10.9752 4.01731 10.693 4.33694C10.619 4.41685 10.5248 4.48995 10.4241 4.54985L6.10178 7.01967C5.90686 7.12626 5.685 7.18602 5.47002 7.18602C5.24816 7.18602 5.03303 7.12626 4.83811 7.01967L0.509079 4.54985C0.408324 4.48995 0.314305 4.41685 0.247087 4.33694C0.110611 4.18244 0.0259717 3.99066 0 3.78937V3.78938ZM0 14.7355V14.4695C0.0167259 14.34 0.0581881 14.2116 0.126123 14.0913C0.220142 13.9316 0.341106 13.8118 0.489014 13.7186L0.536023 13.6921C0.845312 13.5322 1.22841 13.5256 1.55117 13.7119L4.31384 15.283L5.0422 15.6983C5.30706 15.8492 5.63283 15.8492 5.89769 15.6983L9.38213 13.7119C9.71822 13.5189 10.1081 13.5322 10.4173 13.7054C10.5718 13.7918 10.7063 13.925 10.8072 14.0913C11.0358 14.4842 10.9752 14.9635 10.693 15.283C10.619 15.3629 10.5248 15.4362 10.4241 15.4961L6.10178 17.9657C5.90686 18.0722 5.685 18.1321 5.47002 18.1321C5.24816 18.1321 5.03303 18.0722 4.83811 17.9657L0.509079 15.4961C0.408324 15.4362 0.314305 15.3629 0.247087 15.283C0.110611 15.1286 0.0259717 14.9368 0 14.7355V14.7355ZM5.61221 21.8836H5.32505C5.1547 21.8636 4.99025 21.8088 4.83811 21.7256L0.509079 19.2559C0.408324 19.196 0.314305 19.1229 0.247087 19.043C0.110611 18.8885 0.0259717 18.6967 0 18.4955V18.2295C0.0167259 18.1001 0.0581881 17.9717 0.126123 17.8515C0.220142 17.6917 0.341106 17.5719 0.489014 17.4786L0.536023 17.4519C0.845312 17.2922 1.22841 17.2856 1.55117 17.4719L4.31384 19.043L5.0422 19.4582C5.30706 19.6091 5.63283 19.6091 5.89769 19.4582L9.38213 17.4719C9.71822 17.2789 10.1081 17.2923 10.4173 17.4654C10.5718 17.5519 10.7063 17.685 10.8072 17.8515C11.0358 18.2442 10.9752 18.7234 10.693 19.043C10.619 19.1229 10.5248 19.196 10.4241 19.2559L6.10178 21.7256C5.94964 21.8088 5.78109 21.8636 5.61221 21.8836Z" fill="url(#paint1_linear_2717_17457)"/>
<path fill-rule="evenodd" clip-rule="evenodd" d="M17.446 5.90754C17.446 5.81032 17.4744 5.72899 17.5312 5.66342C17.5878 5.59812 17.6708 5.56548 17.7806 5.56548H18.721C18.7625 5.56548 18.805 5.57385 18.8483 5.5906C18.8919 5.60735 18.9304 5.63176 18.9645 5.66342C18.9985 5.69535 19.0269 5.73183 19.0495 5.77285C19.0722 5.81429 19.0835 5.85914 19.0835 5.90754V12.3541C19.0835 12.5784 18.9645 12.6906 18.7266 12.6906H17.7861C17.5594 12.6906 17.446 12.5784 17.446 12.3541V5.90754ZM17.446 3.42325C17.446 3.198 17.5574 3.08544 17.7806 3.08544H18.7321C18.838 3.08544 18.923 3.11383 18.9872 3.16989C19.0514 3.22638 19.0835 3.31083 19.0835 3.42325V4.26223C19.0835 4.34881 19.0531 4.43042 18.9928 4.50735C18.9323 4.58428 18.8473 4.62289 18.7378 4.62289H17.7861C17.5594 4.62289 17.446 4.50267 17.446 4.26223V3.42325ZM20.8511 5.728C20.8964 5.66824 20.9397 5.63077 20.9814 5.61573C21.0116 5.58578 21.0569 5.57002 21.1175 5.56818C21.1779 5.56619 21.2345 5.56548 21.2874 5.56548H21.8595C21.9691 5.56548 22.0501 5.60096 22.103 5.67179C22.1562 5.74304 22.1919 5.82153 22.2108 5.90754L22.2731 6.5024C22.36 6.37508 22.4666 6.24975 22.5932 6.12627C22.7196 6.00307 22.8698 5.8925 23.0435 5.79527C23.2172 5.69805 23.4155 5.61956 23.6384 5.5598C23.8613 5.49991 24.1125 5.46996 24.3918 5.46996C24.8376 5.46996 25.234 5.5493 25.5817 5.70827C25.929 5.86738 26.2216 6.08525 26.4598 6.36202C26.6976 6.63894 26.8779 6.96425 27.0009 7.3384C27.1234 7.7124 27.1848 8.11464 27.1848 8.54456V12.2867C27.1848 12.4214 27.1528 12.5222 27.0887 12.5896C27.0242 12.657 26.9318 12.6906 26.811 12.6906H25.9499C25.7988 12.6906 25.6979 12.6627 25.6469 12.6065C25.5959 12.5504 25.5702 12.4513 25.5702 12.3091V8.57253C25.5702 8.37438 25.5363 8.18078 25.4683 7.99172C25.4003 7.80295 25.3011 7.63376 25.1709 7.48402C25.0405 7.33456 24.879 7.21491 24.6865 7.12507C24.4939 7.03522 24.271 6.99037 24.0179 6.99037C23.8442 6.99037 23.6639 7.025 23.4769 7.09412C23.29 7.16353 23.119 7.26147 22.9644 7.38878C22.8093 7.51596 22.6809 7.67038 22.5788 7.85163C22.4771 8.03303 22.424 8.23784 22.4205 8.46593V12.1016C22.4205 12.1726 22.4166 12.2438 22.4091 12.3148C22.4014 12.3856 22.3853 12.4496 22.361 12.5054C22.3362 12.5616 22.3014 12.6065 22.2561 12.6401C22.2108 12.6739 22.1522 12.6906 22.0804 12.6906H21.1456C21.0211 12.6906 20.9295 12.6618 20.8709 12.6038C20.8124 12.5457 20.783 12.4626 20.783 12.3541V5.89633C20.783 5.8441 20.8056 5.78789 20.8511 5.728ZM28.8219 5.58791C28.8219 5.25492 28.8729 4.93415 28.975 4.62573C29.077 4.31687 29.2262 4.04492 29.4226 3.80917C29.6189 3.57356 29.8596 3.38549 30.1448 3.2454C30.43 3.10517 30.7539 3.03491 31.1164 3.03491H31.1731C31.2826 3.03491 31.3676 3.06784 31.4282 3.13313C31.4884 3.19871 31.5185 3.28756 31.5185 3.39954V4.17394C31.5185 4.28253 31.4894 4.37407 31.4311 4.44873C31.3722 4.52353 31.2921 4.561 31.19 4.561C31.1334 4.561 31.0618 4.5752 30.9749 4.60316C30.8879 4.63126 30.8049 4.67512 30.7255 4.73487C30.6461 4.79477 30.5782 4.87156 30.5217 4.96509C30.465 5.05834 30.4367 5.16891 30.4367 5.29594V6.2049H31.2581C31.3676 6.2049 31.4526 6.233 31.5129 6.28907C31.5736 6.34527 31.6037 6.43867 31.6037 6.56953V7.25976C31.6037 7.39063 31.5736 7.48885 31.5129 7.55414C31.4526 7.61971 31.3676 7.6525 31.2581 7.6525H30.4367V12.3262C30.4367 12.4457 30.397 12.5364 30.3176 12.5981C30.2382 12.6598 30.1515 12.6906 30.0572 12.6906H29.1788C29.0657 12.6906 28.9779 12.6563 28.9155 12.5867C28.8532 12.5176 28.8219 12.4306 28.8219 12.3262V7.6525H28.261C28.1516 7.6525 28.0629 7.61971 27.9948 7.55414C27.9269 7.48885 27.8929 7.39063 27.8929 7.25976V6.56953C27.8929 6.43867 27.9269 6.34527 27.9948 6.28907C28.0629 6.233 28.1516 6.2049 28.261 6.2049H28.8219V5.58791ZM33.8074 9.12238C33.8074 9.42187 33.8604 9.70503 33.9662 9.97243C34.0717 10.2397 34.2191 10.4746 34.408 10.6763C34.5968 10.8784 34.8186 11.0384 35.0738 11.156C35.3286 11.274 35.6071 11.3329 35.9093 11.3329C36.2152 11.3329 36.5014 11.274 36.7677 11.156C37.0337 11.0384 37.2651 10.8784 37.4618 10.6763C37.6581 10.4746 37.8129 10.2397 37.926 9.97243C38.0394 9.70503 38.096 9.42187 38.096 9.12238C38.096 8.82687 38.0394 8.54556 37.926 8.27815C37.8129 8.0106 37.6581 7.77598 37.4618 7.57387C37.2651 7.37203 37.0337 7.21122 36.7677 7.09143C36.5014 6.97163 36.2152 6.91188 35.9093 6.91188C35.6071 6.91188 35.3286 6.97163 35.0738 7.09143C34.8186 7.21122 34.5968 7.37203 34.408 7.57387C34.2191 7.77598 34.0717 8.0106 33.9662 8.27815C33.8604 8.54556 33.8074 8.82687 33.8074 9.12238ZM39.6995 12.3598C39.6995 12.4271 39.6853 12.4821 39.6569 12.5251C39.6287 12.5683 39.5918 12.6019 39.5465 12.6262C39.5011 12.6506 39.4491 12.6675 39.3906 12.6766C39.332 12.6861 39.2708 12.6906 39.2066 12.6906H38.4983C38.3775 12.6906 38.2933 12.659 38.2462 12.5953C38.1989 12.5317 38.1641 12.4513 38.1414 12.3541L38.1074 11.8772C37.9753 12.0081 37.8288 12.1307 37.6683 12.2445C37.5078 12.3587 37.3349 12.4579 37.1499 12.5419C36.965 12.6262 36.7684 12.6915 36.5607 12.7385C36.353 12.785 36.1398 12.8086 35.9206 12.8086C35.5808 12.8086 35.2531 12.7643 34.9377 12.6766C34.6223 12.5889 34.3268 12.4654 34.0512 12.3064C33.7754 12.1475 33.525 11.9558 33.3006 11.7313C33.0757 11.5069 32.8831 11.2582 32.7226 10.9851C32.5622 10.7121 32.4375 10.4184 32.3488 10.1043C32.2599 9.78991 32.2156 9.46289 32.2156 9.12238C32.2156 8.78202 32.2599 8.45472 32.3488 8.14047C32.4375 7.82637 32.5622 7.53271 32.7226 7.25976C32.8831 6.98668 33.0757 6.73886 33.3006 6.51645C33.525 6.29389 33.7754 6.10313 34.0512 5.94416C34.3268 5.7852 34.6223 5.66157 34.9377 5.57385C35.2531 5.48585 35.5808 5.442 35.9206 5.442C36.1624 5.442 36.3927 5.46712 36.6117 5.51765C36.8307 5.56818 37.0358 5.63914 37.2264 5.73083C37.4171 5.82267 37.5936 5.93295 37.7562 6.06197C37.9185 6.19085 38.0659 6.33222 38.198 6.48551L38.2774 5.88512C38.2963 5.8177 38.3143 5.76263 38.3313 5.71962C38.3482 5.67662 38.369 5.64198 38.3935 5.61573C38.4182 5.58975 38.4493 5.57187 38.487 5.56264C38.5249 5.55313 38.572 5.54859 38.6286 5.54859H39.1953C39.2555 5.54859 39.3161 5.55427 39.3764 5.56548C39.4369 5.57669 39.4916 5.59429 39.5408 5.61856C39.5897 5.64298 39.6287 5.67662 39.6569 5.71962C39.6853 5.76263 39.6995 5.816 39.6995 5.87958V12.3598ZM43.6197 12.6906C43.3213 12.6871 43.0407 12.642 42.7784 12.5559C42.5159 12.4699 42.2874 12.3455 42.0928 12.1824C41.8983 12.0196 41.7445 11.8193 41.631 11.5814C41.5176 11.344 41.461 11.0731 41.461 10.7701V6.97916H40.8098C40.6998 6.97916 40.618 6.95517 40.5631 6.90663C40.5085 6.85809 40.481 6.77803 40.481 6.66633V5.86142C40.481 5.7534 40.5085 5.67718 40.5631 5.63233C40.618 5.58762 40.6998 5.56548 40.8098 5.56548H41.461C41.461 5.3672 41.4622 5.16962 41.4639 4.97347C41.4659 4.77689 41.4668 4.57974 41.4668 4.38145C41.4668 4.30665 41.4904 4.24775 41.5376 4.20489C41.5847 4.16174 41.6574 4.12342 41.7558 4.08978C41.8201 4.06735 41.8973 4.04038 41.988 4.00845C42.0787 3.9768 42.1722 3.94585 42.2686 3.91576C42.3647 3.88596 42.4583 3.86069 42.549 3.83997C42.6397 3.81953 42.7151 3.80917 42.7757 3.80917C42.8925 3.80917 42.9691 3.84096 43.0049 3.90455C43.0407 3.96842 43.0588 4.05231 43.0588 4.1572C43.0588 4.39267 43.0578 4.62743 43.0561 4.8612C43.0539 5.09496 43.053 5.32973 43.053 5.56548H43.869C43.967 5.56548 44.0425 5.59046 44.0957 5.64071C44.1485 5.69123 44.1748 5.77029 44.1748 5.87831V6.64376C44.1748 6.76313 44.1485 6.849 44.0957 6.90095C44.0425 6.95304 43.967 6.97916 43.869 6.97916H43.053C43.053 7.22272 43.053 7.42867 43.053 7.597C43.053 7.76576 43.053 7.91437 43.053 8.04396C43.053 8.17298 43.0539 8.29362 43.0561 8.40618C43.0578 8.51845 43.0588 8.64023 43.0588 8.77138C43.0588 8.9021 43.0588 9.05227 43.0588 9.22074C43.0588 9.38936 43.0588 9.59517 43.0588 9.83873L43.0561 9.86116L43.053 9.88372V10.6195C43.053 10.8668 43.1021 11.0446 43.2005 11.1533C43.2987 11.2618 43.4572 11.316 43.6765 11.316C43.7556 11.316 43.8178 11.3442 43.8632 11.4003C43.9085 11.4565 43.9312 11.5238 43.9312 11.6021V12.3822C43.9312 12.4794 43.9039 12.5552 43.8491 12.6093C43.7945 12.6635 43.7179 12.6906 43.6197 12.6906ZM45.1605 5.90754C45.1605 5.81032 45.189 5.72899 45.2456 5.66342C45.3023 5.59812 45.3852 5.56548 45.495 5.56548H46.4354C46.4769 5.56548 46.5194 5.57385 46.5627 5.5906C46.6061 5.60735 46.645 5.63176 46.6789 5.66342C46.7129 5.69535 46.7413 5.73183 46.7639 5.77285C46.7866 5.81429 46.7979 5.85914 46.7979 5.90754V12.3541C46.7979 12.5784 46.6789 12.6906 46.441 12.6906H45.5007C45.2738 12.6906 45.1605 12.5784 45.1605 12.3541V5.90754ZM45.1605 3.42325C45.1605 3.198 45.2718 3.08544 45.495 3.08544H46.4465C46.5524 3.08544 46.6374 3.11383 46.7016 3.16989C46.7658 3.22638 46.7979 3.31083 46.7979 3.42325V4.26223C46.7979 4.34881 46.7675 4.43042 46.7072 4.50735C46.6467 4.58428 46.5617 4.62289 46.4522 4.62289H45.5007C45.2738 4.62289 45.1605 4.50267 45.1605 4.26223V3.42325ZM53.3298 10.8223C53.394 10.7813 53.4479 10.7561 53.491 10.7466C53.5346 10.7373 53.5716 10.7325 53.6017 10.7325C53.6657 10.7363 53.7206 10.7701 53.7659 10.8336L53.9021 11.0189L54.3042 11.5854C54.323 11.6115 54.3383 11.6386 54.3497 11.6667C54.361 11.6947 54.3667 11.7201 54.3667 11.7425C54.3667 11.8024 54.3457 11.8558 54.3042 11.9025C54.2625 11.9492 54.2079 11.9969 54.14 12.0454C53.8189 12.2773 53.4724 12.4643 53.1003 12.6065C52.7281 12.7486 52.3194 12.8198 51.8738 12.8198C51.5376 12.8198 51.2119 12.7757 50.8965 12.6878C50.5812 12.6001 50.2866 12.4766 50.0128 12.3176C49.7389 12.1587 49.4888 11.9678 49.2622 11.7454C49.0354 11.5228 48.8401 11.275 48.6758 11.0019C48.5113 10.729 48.3849 10.4353 48.2962 10.121C48.2073 9.8068 48.163 9.47963 48.163 9.13927C48.163 8.79891 48.2073 8.47147 48.2962 8.15736C48.3849 7.84326 48.5113 7.5496 48.6758 7.27651C48.8401 7.00343 49.0354 6.75575 49.2622 6.53305C49.4888 6.31078 49.7389 6.11988 50.0128 5.96091C50.2866 5.80194 50.5812 5.67846 50.8965 5.5906C51.2119 5.5026 51.5376 5.45874 51.8738 5.45874C52.293 5.45874 52.6896 5.52233 53.0634 5.64936C53.4374 5.77668 53.7696 5.94871 54.0606 6.16558L54.0549 6.16005C54.1076 6.21256 54.1598 6.25827 54.2108 6.29758C54.2617 6.33676 54.2873 6.39751 54.2873 6.47997C54.2873 6.5024 54.2862 6.52851 54.2845 6.55832C54.2824 6.58841 54.2721 6.61651 54.2534 6.64249L53.7887 7.34393C53.7129 7.45592 53.6299 7.51198 53.5392 7.51198C53.4751 7.51198 53.4035 7.48047 53.3241 7.41703C53.1314 7.25593 52.9067 7.12507 52.6499 7.02401C52.3929 6.92309 52.1286 6.87271 51.8567 6.87271C51.5622 6.87271 51.2856 6.93331 51.0269 7.05481C50.7681 7.17645 50.5405 7.34109 50.344 7.54846C50.1478 7.75625 49.9928 7.9974 49.8795 8.27247C49.7664 8.54726 49.7098 8.83624 49.7098 9.13927C49.7098 9.44983 49.7664 9.74151 49.8795 10.0144C49.9928 10.2875 50.1468 10.5251 50.3412 10.727C50.5357 10.9291 50.7633 11.089 51.0242 11.2067C51.2846 11.3245 51.5622 11.3834 51.8567 11.3834C52.1778 11.3834 52.4554 11.3283 52.6896 11.2179C52.9236 11.1076 53.1372 10.9758 53.3298 10.8223ZM56.7344 9.12238C56.7344 9.42187 56.7876 9.70503 56.8932 9.97243C56.9988 10.2397 57.1462 10.4746 57.3352 10.6763C57.524 10.8784 57.7458 11.0384 58.0008 11.156C58.2558 11.274 58.5342 11.3329 58.8365 11.3329C59.1423 11.3329 59.4286 11.274 59.6948 11.156C59.9609 11.0384 60.1922 10.8784 60.3888 10.6763C60.5853 10.4746 60.7401 10.2397 60.8532 9.97243C60.9665 9.70503 61.0232 9.42187 61.0232 9.12238C61.0232 8.82687 60.9665 8.54556 60.8532 8.27815C60.7401 8.0106 60.5853 7.77598 60.3888 7.57387C60.1922 7.37203 59.9609 7.21122 59.6948 7.09143C59.4286 6.97163 59.1423 6.91188 58.8365 6.91188C58.5342 6.91188 58.2558 6.97163 58.0008 7.09143C57.7458 7.21122 57.524 7.37203 57.3352 7.57387C57.1462 7.77598 56.9988 8.0106 56.8932 8.27815C56.7876 8.54556 56.7344 8.82687 56.7344 9.12238ZM62.6266 12.3598C62.6266 12.4271 62.6125 12.4821 62.5841 12.5251C62.5558 12.5683 62.519 12.6019 62.4736 12.6262C62.4283 12.6506 62.3763 12.6675 62.3176 12.6766C62.2592 12.6861 62.1978 12.6906 62.1338 12.6906H61.4255C61.3046 12.6906 61.2205 12.659 61.1734 12.5953C61.1261 12.5317 61.0912 12.4513 61.0686 12.3541L61.0345 11.8772C60.9023 12.0081 60.756 12.1307 60.5955 12.2445C60.435 12.3587 60.2621 12.4579 60.0771 12.5419C59.8922 12.6262 59.6956 12.6915 59.4877 12.7385C59.2802 12.785 59.0668 12.8086 58.8478 12.8086C58.5079 12.8086 58.1802 12.7643 57.8648 12.6766C57.5495 12.5889 57.2539 12.4654 56.9783 12.3064C56.7026 12.1475 56.4522 11.9558 56.2276 11.7313C56.0027 11.5069 55.8103 11.2582 55.6497 10.9851C55.4892 10.7121 55.3645 10.4184 55.276 10.1043C55.187 9.78991 55.1427 9.46289 55.1427 9.12238C55.1427 8.78202 55.187 8.45472 55.276 8.14047C55.3645 7.82637 55.4892 7.53271 55.6497 7.25976C55.8103 6.98668 56.0027 6.73886 56.2276 6.51645C56.4522 6.29389 56.7026 6.10313 56.9783 5.94416C57.2539 5.7852 57.5495 5.66157 57.8648 5.57385C58.1802 5.48585 58.5079 5.442 58.8478 5.442C59.0895 5.442 59.3198 5.46712 59.5389 5.51765C59.7579 5.56818 59.963 5.63914 60.1536 5.73083C60.3442 5.82267 60.5207 5.93295 60.6833 6.06197C60.8457 6.19085 60.9931 6.33222 61.1252 6.48551L61.2046 5.88512C61.2235 5.8177 61.2414 5.76263 61.2585 5.71962C61.2754 5.67662 61.296 5.64198 61.3205 5.61573C61.3452 5.58975 61.3764 5.57187 61.4141 5.56264C61.452 5.55313 61.499 5.54859 61.5557 5.54859H62.1224C62.1826 5.54859 62.2433 5.55427 62.3036 5.56548C62.3641 5.57669 62.4187 5.59429 62.4678 5.61856C62.5169 5.64298 62.5558 5.67662 62.5841 5.71962C62.6125 5.76263 62.6266 5.816 62.6266 5.87958V12.3598ZM63.4867 11.6078C63.4867 11.5032 63.5008 11.4134 63.5293 11.3386C63.5575 11.2638 63.6263 11.2263 63.7361 11.2263H64.6255C64.6708 11.2263 64.717 11.2283 64.7641 11.232C64.8116 11.2358 64.8549 11.2459 64.8946 11.2628C64.9341 11.2795 64.9672 11.3041 64.9937 11.3357C65.02 11.3677 65.0334 11.4134 65.0334 11.4733V12.3036C65.0334 12.3558 65.0313 12.4046 65.0278 12.4496C65.0238 12.4942 65.0135 12.5355 64.9966 12.5728C64.9796 12.6102 64.954 12.6394 64.9201 12.6598C64.886 12.6806 64.8388 12.6906 64.7783 12.6906H63.8889C63.7566 12.6906 63.6567 12.6766 63.5888 12.6486C63.5207 12.6205 63.4867 12.5504 63.4867 12.4384V11.6078ZM65.8391 9.21578C65.8391 9.1661 65.8534 9.12423 65.8825 9.09087C65.9117 9.05738 65.9541 9.04049 66.0103 9.04049H66.4919C66.5134 9.04049 66.5349 9.04489 66.5572 9.05326C66.5796 9.06192 66.5992 9.07441 66.6169 9.09087C66.6342 9.1072 66.6488 9.12579 66.6604 9.14665C66.672 9.16794 66.6776 9.19094 66.6776 9.21578V12.5182C66.6776 12.6333 66.6169 12.6906 66.495 12.6906H66.0132C65.897 12.6906 65.8391 12.6333 65.8391 12.5182V9.21578ZM65.8391 7.94318C65.8391 7.82765 65.896 7.77002 66.0103 7.77002H66.4978C66.5519 7.77002 66.5955 7.7845 66.6285 7.81345C66.6611 7.84227 66.6776 7.88527 66.6776 7.94318V8.37296C66.6776 8.41711 66.6623 8.45898 66.6313 8.49858C66.6004 8.53789 66.557 8.55748 66.5006 8.55748H66.0132C65.897 8.55748 65.8391 8.49602 65.8391 8.37296V7.94318ZM68.2305 10.8715C68.2305 11.0247 68.2576 11.1699 68.3118 11.3066C68.3662 11.4437 68.4413 11.5631 68.5382 11.6646C68.635 11.7662 68.7495 11.8467 68.8822 11.9062C69.0146 11.9655 69.1592 11.9952 69.316 11.9952C69.469 11.9952 69.6106 11.9655 69.7411 11.9062C69.8718 11.8467 69.9845 11.7662 70.0794 11.6646C70.1741 11.5631 70.2479 11.4437 70.3014 11.3066C70.3545 11.1699 70.3812 11.0247 70.3812 10.8715C70.3812 10.72 70.3545 10.5754 70.3014 10.4373C70.2479 10.2992 70.1741 10.1784 70.0794 10.0736C69.9845 9.96931 69.8718 9.88585 69.7411 9.82369C69.6106 9.76138 69.469 9.73015 69.316 9.73015C69.1592 9.73015 69.0146 9.76138 68.8822 9.82369C68.7495 9.88585 68.635 9.96931 68.5382 10.0736C68.4413 10.1784 68.3662 10.2992 68.3118 10.4373C68.2576 10.5754 68.2305 10.72 68.2305 10.8715ZM67.4122 10.8715C67.4122 10.697 67.4349 10.5288 67.4802 10.3669C67.5255 10.2051 67.5902 10.054 67.6733 9.9141C67.7563 9.77443 67.856 9.64726 67.972 9.53329C68.0878 9.41945 68.2165 9.32166 68.3576 9.24033C68.4988 9.15872 68.65 9.0957 68.8114 9.05042C68.9729 9.00557 69.1415 8.98286 69.3173 8.98286C69.4916 8.98286 69.6596 9.00557 69.8221 9.05042C69.9845 9.0957 70.1357 9.15872 70.2759 9.24033C70.416 9.32166 70.5442 9.41945 70.6603 9.53329C70.7762 9.64726 70.8757 9.77443 70.9589 9.9141C71.0418 10.054 71.1064 10.2051 71.1517 10.3669C71.1971 10.5288 71.2199 10.697 71.2199 10.8715C71.2199 11.0456 71.1971 11.2134 71.1517 11.3742C71.1064 11.5353 71.0418 11.6853 70.9589 11.8241C70.8757 11.9629 70.7762 12.09 70.6603 12.2048C70.5442 12.32 70.416 12.4181 70.2759 12.4995C70.1357 12.5809 69.9845 12.6442 69.8221 12.6891C69.6596 12.7344 69.4916 12.7568 69.3173 12.7568C69.1415 12.7568 68.9729 12.7344 68.8114 12.6891C68.65 12.6442 68.4988 12.5809 68.3576 12.4995C68.2165 12.4181 68.0878 12.32 67.972 12.2048C67.856 12.09 67.7563 11.9629 67.6733 11.8241C67.5902 11.6853 67.5255 11.5353 67.4802 11.3742C67.4349 11.2134 67.4122 11.0456 67.4122 10.8715Z" fill="white"/>
<path fill-rule="evenodd" clip-rule="evenodd" d="M18.711 18.218C18.5145 18.218 18.3385 18.185 18.1833 18.1193C18.0283 18.0539 17.8955 17.9633 17.7854 17.8483C17.6751 17.7336 17.591 17.5986 17.5331 17.4436C17.475 17.2889 17.446 17.1234 17.446 16.9474C17.446 16.7786 17.4762 16.6167 17.5367 16.4618C17.5968 16.3068 17.6816 16.1708 17.7906 16.0536C17.8995 15.9361 18.0306 15.843 18.1833 15.7737C18.3362 15.7045 18.5061 15.67 18.6934 15.67C18.7976 15.67 18.8928 15.6769 18.9794 15.6912C19.0659 15.7051 19.1464 15.7261 19.2211 15.7543C19.2957 15.7826 19.3656 15.8173 19.4308 15.8582C19.4958 15.8991 19.5592 15.9456 19.6208 15.9971L19.4396 16.2084C19.3922 16.1662 19.3425 16.128 19.2903 16.0939C19.2383 16.0601 19.1821 16.0306 19.1214 16.0059C19.061 15.9814 18.9948 15.962 18.9226 15.9479C18.8502 15.934 18.7703 15.9267 18.6827 15.9267C18.5453 15.9267 18.4184 15.9537 18.3024 16.0079C18.1862 16.062 18.0868 16.1349 18.0039 16.2267C17.9209 16.3183 17.8559 16.4259 17.8085 16.549C17.7611 16.6724 17.7374 16.8035 17.7374 16.9422C17.7374 17.0903 17.7604 17.2272 17.8066 17.3531C17.8529 17.4787 17.9186 17.5872 18.0039 17.679C18.0893 17.7706 18.1923 17.8424 18.3131 17.894C18.4339 17.9457 18.57 17.9716 18.7217 17.9716C18.8639 17.9716 18.9977 17.9475 19.1233 17.8991C19.2487 17.851 19.3542 17.7926 19.4396 17.7243V17.1094H18.6827V16.8629H19.7098V17.8424C19.5936 17.9453 19.4507 18.0337 19.2815 18.1073C19.112 18.181 18.922 18.218 18.711 18.218ZM20.5697 18.1758V15.6064H20.8434V18.1758H20.5697ZM22.5668 18.218C22.4294 18.218 22.3025 18.1926 22.1866 18.1422C22.0706 18.0919 21.9699 18.0238 21.8845 17.9382C21.7992 17.8526 21.7329 17.7521 21.6855 17.6372C21.6381 17.5224 21.6144 17.4002 21.6144 17.2712C21.6144 17.1423 21.6381 17.0195 21.6855 16.9034C21.7329 16.7873 21.7992 16.6859 21.8845 16.5991C21.9699 16.5123 22.0712 16.4437 22.1884 16.393C22.3057 16.3426 22.434 16.3174 22.5739 16.3174C22.7113 16.3174 22.8386 16.3426 22.9559 16.393C23.0733 16.4437 23.1746 16.5116 23.2598 16.5972C23.3452 16.683 23.4114 16.7831 23.4588 16.8982C23.5062 17.0133 23.5299 17.1352 23.5299 17.2642C23.5299 17.3934 23.5056 17.5159 23.4569 17.6318C23.4085 17.7481 23.3416 17.8495 23.2562 17.9363C23.1711 18.0232 23.0691 18.0919 22.9506 18.1422C22.8321 18.1926 22.7042 18.218 22.5668 18.218ZM22.5668 16.5567C22.4674 16.5567 22.3762 16.5748 22.2933 16.6111C22.2103 16.6475 22.1398 16.6978 22.0817 16.7621C22.0236 16.8265 21.9781 16.9015 21.9449 16.9869C21.9118 17.0723 21.8952 17.1641 21.8952 17.2625C21.8952 17.3608 21.9124 17.4532 21.9466 17.5398C21.981 17.6264 22.0284 17.7012 22.0888 17.7646C22.1492 17.8277 22.221 17.878 22.3038 17.9156C22.3866 17.9529 22.4768 17.9716 22.5739 17.9716C22.6736 17.9716 22.7646 17.9534 22.8477 17.9172C22.9305 17.8811 23.0016 17.8312 23.0607 17.7681C23.1199 17.7047 23.1662 17.6304 23.1994 17.545C23.2325 17.4596 23.2491 17.3678 23.2491 17.2694C23.2491 17.1713 23.2319 17.0787 23.1977 16.9921C23.1633 16.9055 23.1153 16.8301 23.0538 16.7657C22.9922 16.7015 22.9198 16.6504 22.837 16.613C22.7539 16.5754 22.6639 16.5567 22.5668 16.5567ZM25.25 18.2145C25.1646 18.2145 25.0864 18.2039 25.0155 18.1829C24.9444 18.1617 24.8802 18.1334 24.8236 18.0981C24.7668 18.063 24.7152 18.0221 24.6688 17.9752C24.6227 17.9282 24.5818 17.879 24.5463 17.8273V18.1758H24.2726V15.6064H24.5463V16.7221C24.5841 16.6683 24.6262 16.6167 24.6724 16.5673C24.7187 16.5181 24.7701 16.4753 24.8272 16.4389C24.884 16.4024 24.9471 16.3733 25.0172 16.3509C25.087 16.3287 25.1646 16.3174 25.25 16.3174C25.3588 16.3174 25.466 16.3386 25.5715 16.3808C25.677 16.423 25.7712 16.4846 25.854 16.5656C25.9371 16.6464 26.0034 16.7457 26.0531 16.8629C26.1028 16.9804 26.1278 17.114 26.1278 17.2642C26.1278 17.4144 26.1028 17.5481 26.0531 17.6653C26.0034 17.7828 25.9377 17.8817 25.8557 17.9627C25.7741 18.0437 25.6806 18.106 25.5751 18.1494C25.4696 18.1926 25.3612 18.2145 25.25 18.2145ZM25.2001 16.564C25.1149 16.564 25.0325 16.5808 24.9532 16.6147C24.8737 16.6485 24.8026 16.6957 24.7399 16.7563C24.6772 16.817 24.6273 16.8907 24.5908 16.9771C24.5539 17.0635 24.5356 17.1591 24.5356 17.2642C24.5356 17.3693 24.5539 17.4654 24.5908 17.5531C24.6273 17.6405 24.6772 17.7149 24.7399 17.7756C24.8026 17.8362 24.8737 17.8834 24.9532 17.9172C25.0325 17.9511 25.1149 17.9679 25.2001 17.9679C25.2877 17.9679 25.3712 17.9523 25.4507 17.9208C25.53 17.8894 25.5988 17.8439 25.6569 17.7843C25.715 17.7249 25.7611 17.6511 25.7955 17.5635C25.8297 17.476 25.8469 17.3776 25.8469 17.2677C25.8469 17.1603 25.8297 17.0635 25.7955 16.9771C25.7611 16.8907 25.7144 16.8166 25.655 16.7549C25.5959 16.693 25.5273 16.6454 25.4488 16.6128C25.3708 16.5802 25.2877 16.564 25.2001 16.564ZM27.4283 18.2145C27.343 18.2145 27.2595 18.2026 27.1779 18.1791C27.0961 18.1559 27.0225 18.1199 26.9575 18.0718C26.8922 18.0238 26.8402 17.9646 26.8012 17.8942C26.762 17.8237 26.7425 17.7407 26.7425 17.6443C26.7425 17.5481 26.7614 17.4632 26.7993 17.389C26.8373 17.3153 26.891 17.2536 26.961 17.2044C27.0309 17.1549 27.1137 17.1175 27.2098 17.0918C27.3056 17.066 27.4118 17.0529 27.528 17.0529C27.6463 17.0529 27.7494 17.06 27.8371 17.0741C27.9246 17.0882 28.0099 17.1069 28.0928 17.1304V17.0673C28.0928 16.903 28.045 16.7792 27.9489 16.6957C27.8531 16.6126 27.7186 16.5708 27.5456 16.5708C27.4367 16.5708 27.3377 16.5831 27.2488 16.6078C27.1601 16.6325 27.073 16.6647 26.9877 16.7046L26.9059 16.4828C27.0078 16.436 27.1108 16.3991 27.215 16.3721C27.3193 16.3451 27.439 16.3316 27.5741 16.3316C27.8252 16.3316 28.0183 16.393 28.1534 16.5162C28.2885 16.6396 28.3558 16.822 28.3558 17.0635V18.1758H28.0928V17.9012C28.029 17.9835 27.943 18.056 27.8352 18.1193C27.7274 18.1829 27.5917 18.2145 27.4283 18.2145ZM27.5582 17.2536C27.3858 17.2536 27.2534 17.2876 27.1613 17.3556C27.0693 17.4237 27.0231 17.5165 27.0231 17.6337C27.0231 17.6923 27.0355 17.744 27.0605 17.7884C27.0852 17.8331 27.1188 17.8713 27.1613 17.9029C27.2039 17.9345 27.2528 17.9588 27.3084 17.9752C27.3637 17.9916 27.4223 17.9997 27.4837 17.9997C27.5687 17.9997 27.6484 17.9874 27.7228 17.9627C27.7971 17.9382 27.8621 17.9041 27.9177 17.8607C27.973 17.8173 28.0169 17.7658 28.0485 17.706C28.0804 17.6462 28.0964 17.5797 28.0964 17.507V17.3311C28.028 17.3122 27.9493 17.2947 27.8608 17.2783C27.7723 17.2619 27.6714 17.2536 27.5582 17.2536ZM29.2122 18.1758V15.6064H29.4859V18.1758H29.2122ZM32.0126 18.1758H31.7318V15.7122H32.663C32.8027 15.7122 32.93 15.7302 33.0449 15.7668C33.1599 15.8031 33.258 15.8547 33.3398 15.9215C33.4216 15.9884 33.4843 16.0707 33.5284 16.1679C33.572 16.2653 33.594 16.375 33.594 16.4969C33.594 16.6307 33.5678 16.748 33.5158 16.849C33.4636 16.9497 33.3931 17.0342 33.3044 17.1022C33.2154 17.1705 33.1118 17.2214 32.9933 17.2555C32.8748 17.2895 32.7494 17.3063 32.6166 17.3063H32.0126V18.1758ZM32.0126 15.9689V17.0529H32.629C32.7312 17.0529 32.8245 17.0403 32.9088 17.0143C32.9931 16.9885 33.0655 16.9516 33.1261 16.9034C33.1867 16.8554 33.2331 16.7979 33.2652 16.731C33.2972 16.6641 33.3132 16.5897 33.3132 16.5075C33.3132 16.3293 33.2521 16.1949 33.1297 16.1045C33.0074 16.0142 32.8453 15.9689 32.6433 15.9689H32.0126ZM35.0972 18.218C34.9716 18.218 34.8531 18.1949 34.7419 18.1494C34.6306 18.1035 34.533 18.0389 34.4498 17.9559C34.3661 17.8726 34.2998 17.7722 34.2505 17.6549C34.2014 17.5375 34.1769 17.4085 34.1769 17.2677C34.1769 17.1364 34.1987 17.0126 34.2425 16.8963C34.2864 16.7804 34.3474 16.6793 34.4256 16.5937C34.5037 16.5081 34.5968 16.4406 34.7046 16.3914C34.8124 16.3419 34.9303 16.3174 35.0582 16.3174C35.1931 16.3174 35.3141 16.3426 35.4206 16.393C35.5272 16.4437 35.6172 16.5123 35.6906 16.5991C35.7642 16.6859 35.8198 16.7879 35.8577 16.9053C35.8957 17.0226 35.9146 17.1481 35.9146 17.2818V17.3205L35.911 17.3662H34.4575C34.467 17.4648 34.4907 17.5523 34.5286 17.6285C34.5666 17.7047 34.615 17.7691 34.6744 17.8219C34.7335 17.8748 34.7998 17.9147 34.8732 17.9415C34.9468 17.9685 35.0238 17.9822 35.1044 17.9822C35.2323 17.9822 35.3418 17.9588 35.433 17.9118C35.5242 17.8647 35.6077 17.8028 35.6836 17.7253L35.8542 17.8765C35.7617 17.9797 35.6564 18.0626 35.5379 18.1245C35.4194 18.1868 35.2726 18.218 35.0972 18.218ZM35.0511 16.5463C34.971 16.5463 34.8967 16.5621 34.8285 16.5937C34.7602 16.6255 34.7002 16.6689 34.6484 16.7239C34.5966 16.7792 34.5542 16.8442 34.5211 16.9194C34.4881 16.9944 34.467 17.0764 34.4575 17.1655H35.6337C35.6268 17.0837 35.6096 17.005 35.5826 16.9298C35.5555 16.8548 35.518 16.7891 35.4695 16.7326C35.4213 16.6766 35.3625 16.6313 35.2931 16.5972C35.2235 16.5634 35.1429 16.5463 35.0511 16.5463ZM37.4499 18.218C37.3242 18.218 37.2057 18.1949 37.0943 18.1494C36.9832 18.1035 36.8857 18.0389 36.8022 17.9559C36.7187 17.8726 36.6524 17.7722 36.6031 17.6549C36.5541 17.5375 36.5293 17.4085 36.5293 17.2677C36.5293 17.1364 36.5513 17.0126 36.5952 16.8963C36.639 16.7804 36.7 16.6793 36.7783 16.5937C36.8563 16.5081 36.9494 16.4406 37.0572 16.3914C37.1648 16.3419 37.2827 16.3174 37.4108 16.3174C37.5457 16.3174 37.6665 16.3426 37.7733 16.393C37.8798 16.4437 37.9698 16.5123 38.0432 16.5991C38.1166 16.6859 38.1724 16.7879 38.2104 16.9053C38.2481 17.0226 38.2672 17.1481 38.2672 17.2818V17.3205L38.2636 17.3662H36.8102C36.8196 17.4648 36.8433 17.5523 36.8813 17.6285C36.919 17.7047 36.9677 17.7691 37.027 17.8219C37.0862 17.8748 37.1524 17.9147 37.2259 17.9415C37.2993 17.9685 37.3764 17.9822 37.457 17.9822C37.5849 17.9822 37.6944 17.9588 37.7856 17.9118C37.8769 17.8647 37.9604 17.8028 38.0363 17.7253L38.2068 17.8765C38.1143 17.9797 38.009 18.0626 37.8905 18.1245C37.772 18.1868 37.6252 18.218 37.4499 18.218ZM37.4037 16.5463C37.3236 16.5463 37.2493 16.5621 37.181 16.5937C37.1128 16.6255 37.0528 16.6689 37.001 16.7239C36.9492 16.7792 36.9066 16.8442 36.8737 16.9194C36.8408 16.9944 36.8196 17.0764 36.8102 17.1655H37.9864C37.9794 17.0837 37.9622 17.005 37.9352 16.9298C37.9081 16.8548 37.8706 16.7891 37.8221 16.7326C37.7739 16.6766 37.715 16.6313 37.6455 16.5972C37.5761 16.5634 37.4954 16.5463 37.4037 16.5463ZM39.2693 18.1758H38.9956V16.3563H39.2693V16.8313C39.3025 16.7561 39.344 16.6872 39.3937 16.6236C39.4436 16.5602 39.5005 16.5056 39.5642 16.4601C39.6282 16.4142 39.698 16.3797 39.774 16.3563C39.8428 16.3349 39.9162 16.3243 39.9946 16.3243C40.0028 16.3243 40.011 16.3243 40.0192 16.3245V16.6167H39.998C39.8983 16.6167 39.8042 16.6344 39.7152 16.6695C39.6265 16.7046 39.5489 16.7574 39.4826 16.8278C39.4162 16.8982 39.3641 16.9856 39.3262 17.0899C39.2882 17.1944 39.2693 17.3147 39.2693 17.4507V18.1758ZM40.6091 17.2606V16.9757H41.597V17.2606H40.6091ZM42.9972 18.2074C42.9236 18.2074 42.855 18.198 42.7911 18.1791C42.7271 18.1604 42.6719 18.1305 42.6258 18.0894C42.5796 18.0485 42.5434 17.9949 42.5173 17.9293C42.4913 17.8636 42.4783 17.7851 42.4783 17.6935V16.5956H42.2225V16.3563H42.4783V15.8071H42.752V16.3563H43.3347V16.5956H42.752V17.6582C42.752 17.771 42.7804 17.8495 42.8372 17.8942C42.894 17.9388 42.9687 17.961 43.0612 17.961C43.1086 17.961 43.1529 17.9565 43.1944 17.9469C43.2359 17.9376 43.2802 17.9212 43.3278 17.8977V18.1299C43.2802 18.1559 43.2298 18.1752 43.1766 18.1881C43.1233 18.201 43.0635 18.2074 42.9972 18.2074ZM44.8524 18.218C44.7148 18.218 44.5879 18.1926 44.4719 18.1422C44.3559 18.0919 44.2552 18.0238 44.1699 17.9382C44.0845 17.8526 44.0182 17.7521 43.9708 17.6372C43.9234 17.5224 43.8997 17.4002 43.8997 17.2712C43.8997 17.1423 43.9234 17.0195 43.9708 16.9034C44.0182 16.7873 44.0845 16.6859 44.1699 16.5991C44.2552 16.5123 44.3563 16.4437 44.4736 16.393C44.591 16.3426 44.7194 16.3174 44.8593 16.3174C44.9965 16.3174 45.124 16.3426 45.2414 16.393C45.3587 16.4437 45.4598 16.5116 45.5449 16.5972C45.6307 16.683 45.6966 16.7831 45.7442 16.8982C45.7916 17.0133 45.8153 17.1352 45.8153 17.2642C45.8153 17.3934 45.7907 17.5159 45.7425 17.6318C45.6936 17.7481 45.6269 17.8495 45.5418 17.9363C45.4562 18.0232 45.3545 18.0919 45.2362 18.1422C45.1173 18.1926 44.9895 18.218 44.8524 18.218ZM44.8524 16.5567C44.7527 16.5567 44.6615 16.5748 44.5784 16.6111C44.4956 16.6475 44.4251 16.6978 44.367 16.7621C44.3089 16.8265 44.2634 16.9015 44.2303 16.9869C44.1971 17.0723 44.1806 17.1641 44.1806 17.2625C44.1806 17.3608 44.1978 17.4532 44.232 17.5398C44.2664 17.6264 44.3138 17.7012 44.3742 17.7646C44.4346 17.8277 44.5063 17.878 44.5891 17.9156C44.672 17.9529 44.7622 17.9716 44.8593 17.9716C44.9587 17.9716 45.0497 17.9534 45.133 17.9172C45.2156 17.8811 45.2869 17.8312 45.3463 17.7681C45.4052 17.7047 45.4516 17.6304 45.4847 17.545C45.5179 17.4596 45.5344 17.3678 45.5344 17.2694C45.5344 17.1713 45.5172 17.0787 45.4833 16.9921C45.4487 16.9055 45.4004 16.8301 45.339 16.7657C45.2775 16.7015 45.2049 16.6504 45.1223 16.613C45.039 16.5754 44.9495 16.5567 44.8524 16.5567ZM46.4835 17.2606V16.9757H47.4714V17.2606H46.4835ZM49.4062 18.1758H48.303V15.7122H49.3599C49.483 15.7122 49.5939 15.7267 49.6933 15.7562C49.7925 15.7855 49.8777 15.8266 49.9486 15.8794C50.0195 15.9321 50.074 15.9965 50.112 16.0728C50.1495 16.1492 50.1686 16.2344 50.1686 16.328C50.1686 16.4103 50.1575 16.4817 50.1348 16.5426C50.1126 16.6037 50.0822 16.6577 50.0447 16.7046C50.0067 16.7516 49.9647 16.791 49.9186 16.8226C49.8725 16.8542 49.8248 16.8805 49.7749 16.9017C49.8483 16.9227 49.9176 16.9503 49.9826 16.9844C50.0476 17.0185 50.1038 17.0588 50.151 17.1057C50.1984 17.1528 50.2364 17.2091 50.2645 17.2748C50.293 17.3404 50.307 17.4154 50.307 17.5001C50.307 17.6054 50.2859 17.7006 50.2435 17.7851C50.2009 17.8697 50.1399 17.9407 50.0608 17.998C49.9815 18.0553 49.8863 18.0994 49.7749 18.1299C49.664 18.1604 49.5409 18.1758 49.4062 18.1758ZM48.5836 17.0567V17.9293H49.4167C49.6059 17.9293 49.7548 17.8904 49.8632 17.8127C49.9721 17.7348 50.0266 17.6254 50.0266 17.4839C50.0266 17.3475 49.9708 17.242 49.8599 17.1678C49.7487 17.0939 49.5845 17.0567 49.367 17.0567H48.5836ZM48.5836 15.9585V16.8101H49.3173C49.4851 16.8101 49.622 16.7725 49.7284 16.6971C49.8347 16.6217 49.8878 16.511 49.8878 16.365C49.8878 16.24 49.8406 16.1411 49.7462 16.068C49.6514 15.9949 49.5157 15.9585 49.3385 15.9585H48.5836ZM51.7465 18.2145C51.6349 18.2145 51.5361 18.1968 51.4497 18.1617C51.3633 18.1264 51.2897 18.0765 51.2293 18.0119C51.1689 17.9475 51.1227 17.8707 51.0908 17.7816C51.0585 17.6923 51.0426 17.5938 51.0426 17.4858V16.3563H51.3163V17.4191C51.3163 17.5878 51.3601 17.7218 51.4478 17.8204C51.5355 17.9187 51.6609 17.9679 51.8245 17.9679C51.9027 17.9679 51.9757 17.9546 52.043 17.9276C52.1106 17.9006 52.1685 17.862 52.2173 17.8115C52.2658 17.761 52.3044 17.7006 52.3329 17.6304C52.361 17.56 52.3755 17.4825 52.3755 17.3979V16.3563H52.6454V18.1758H52.3755V17.8589C52.3138 17.9575 52.2333 18.0414 52.1336 18.1106C52.0342 18.1798 51.9052 18.2145 51.7465 18.2145ZM54.1167 18.2109C53.984 18.2109 53.8501 18.1868 53.7151 18.1388C53.58 18.0907 53.4605 18.0256 53.3562 17.9434L53.4949 17.75C53.5943 17.825 53.6977 17.8823 53.8057 17.9224C53.9135 17.9623 54.0217 17.9822 54.1308 17.9822C54.2422 17.9822 54.3334 17.9565 54.4045 17.9048C54.4756 17.8532 54.511 17.7828 54.511 17.6935V17.6865C54.511 17.642 54.4987 17.6034 54.4739 17.5703C54.449 17.5375 54.415 17.5089 54.3724 17.4841C54.3298 17.4594 54.2807 17.4378 54.225 17.4191C54.1694 17.4002 54.1119 17.3826 54.0528 17.3662C53.9817 17.3452 53.9099 17.3223 53.8378 17.2976C53.7654 17.2731 53.7002 17.2417 53.6423 17.2044C53.5842 17.1668 53.5368 17.12 53.5001 17.0635C53.4632 17.0072 53.4449 16.937 53.4449 16.8523V16.8454C53.4449 16.768 53.4605 16.6969 53.4911 16.6325C53.5221 16.5679 53.5653 16.5129 53.6209 16.467C53.6765 16.4213 53.7428 16.386 53.8199 16.3615C53.8969 16.3368 53.9804 16.3245 54.0704 16.3245C54.1843 16.3245 54.2992 16.3426 54.415 16.3791C54.5312 16.4155 54.6367 16.4641 54.7315 16.5251L54.6069 16.7293C54.5217 16.6753 54.4322 16.6325 54.3386 16.6008C54.2451 16.5692 54.1532 16.5532 54.0635 16.5532C53.9544 16.5532 53.868 16.5785 53.8038 16.6288C53.74 16.6793 53.7079 16.7422 53.7079 16.8172V16.8242C53.7079 16.8666 53.7209 16.9034 53.7472 16.9352C53.7732 16.9667 53.808 16.9944 53.8518 17.0178C53.8957 17.0413 53.946 17.0625 54.003 17.0812C54.0597 17.1001 54.1188 17.1188 54.1805 17.1375C54.2516 17.1587 54.3221 17.1819 54.3921 17.2079C54.462 17.2336 54.5253 17.2667 54.5821 17.3063C54.6392 17.3462 54.6847 17.3944 54.7191 17.4507C54.7533 17.507 54.7707 17.5764 54.7707 17.6582V17.6653C54.7707 17.7521 54.7533 17.8291 54.7191 17.896C54.6847 17.9627 54.6386 18.0196 54.5805 18.0666C54.5224 18.1137 54.4536 18.1494 54.3743 18.1739C54.2948 18.1987 54.209 18.2109 54.1167 18.2109ZM55.5677 18.1758V16.3563H55.8579V18.1758H55.5677ZM55.5346 15.9585V15.6592H55.8248V15.9585H55.5346ZM58.3174 18.1758H58.0437V17.1128C58.0437 16.9439 57.9996 16.8101 57.9122 16.7117C57.8245 16.613 57.6991 16.564 57.5353 16.564C57.4572 16.564 57.3845 16.5773 57.3167 16.6043C57.2494 16.6313 57.1907 16.6699 57.1409 16.7206C57.0912 16.7709 57.0526 16.8313 57.0256 16.9017C56.9983 16.9721 56.9845 17.0496 56.9845 17.1339V18.1758H56.711V16.3563H56.9845V16.6728C57.0461 16.5744 57.1267 16.4905 57.2263 16.4213C57.3257 16.3521 57.4549 16.3174 57.6135 16.3174C57.7251 16.3174 57.8239 16.3351 57.9103 16.3702C57.9969 16.4055 58.0703 16.4554 58.1307 16.52C58.1911 16.5843 58.2373 16.6612 58.2691 16.7503C58.3012 16.8396 58.3174 16.9381 58.3174 17.0461V18.1758ZM59.9554 18.218C59.8298 18.218 59.7113 18.1949 59.6001 18.1494C59.4888 18.1035 59.3912 18.0389 59.3078 17.9559C59.2243 17.8726 59.158 17.7722 59.1087 17.6549C59.0596 17.5375 59.0351 17.4085 59.0351 17.2677C59.0351 17.1364 59.0569 17.0126 59.1007 16.8963C59.1446 16.7804 59.2056 16.6793 59.2836 16.5937C59.3619 16.5081 59.455 16.4406 59.5626 16.3914C59.6706 16.3419 59.7883 16.3174 59.9164 16.3174C60.0513 16.3174 60.1723 16.3426 60.2788 16.393C60.3854 16.4437 60.4756 16.5123 60.5488 16.5991C60.6224 16.6859 60.6782 16.7879 60.7159 16.9053C60.7539 17.0226 60.7728 17.1481 60.7728 17.2818V17.3205L60.7692 17.3662H59.3159C59.3254 17.4648 59.3489 17.5523 59.3868 17.6285C59.4248 17.7047 59.4734 17.7691 59.5326 17.8219C59.5917 17.8748 59.658 17.9147 59.7316 17.9415C59.805 17.9685 59.882 17.9822 59.9626 17.9822C60.0905 17.9822 60.2 17.9588 60.2912 17.9118C60.3825 17.8647 60.4659 17.8028 60.5416 17.7253L60.7124 17.8765C60.6199 17.9797 60.5144 18.0626 60.3961 18.1245C60.2776 18.1868 60.1308 18.218 59.9554 18.218ZM59.9093 16.5463C59.8292 16.5463 59.7549 16.5621 59.6865 16.5937C59.6184 16.6255 59.5584 16.6689 59.5066 16.7239C59.4548 16.7792 59.4124 16.8442 59.3793 16.9194C59.3463 16.9944 59.3252 17.0764 59.3159 17.1655H60.4921C60.485 17.0837 60.468 17.005 60.4408 16.9298C60.4137 16.8548 60.376 16.7891 60.3279 16.7326C60.2795 16.6766 60.2205 16.6313 60.1511 16.5972C60.0817 16.5634 60.0009 16.5463 59.9093 16.5463ZM62.109 18.2109C61.9763 18.2109 61.8424 18.1868 61.7074 18.1388C61.5723 18.0907 61.4528 18.0256 61.3485 17.9434L61.4871 17.75C61.5868 17.825 61.6902 17.8823 61.7982 17.9224C61.9058 17.9623 62.0142 17.9822 62.1231 17.9822C62.2347 17.9822 62.3257 17.9565 62.3968 17.9048C62.4679 17.8532 62.5035 17.7828 62.5035 17.6935V17.6865C62.5035 17.642 62.491 17.6034 62.4662 17.5703C62.4412 17.5375 62.4075 17.5089 62.3649 17.4841C62.3223 17.4594 62.273 17.4378 62.2175 17.4191C62.1617 17.4002 62.1044 17.3826 62.0451 17.3662C61.974 17.3452 61.9024 17.3223 61.8301 17.2976C61.7577 17.2731 61.6927 17.2417 61.6346 17.2044C61.5765 17.1668 61.5291 17.12 61.4926 17.0635C61.4557 17.0072 61.4374 16.937 61.4374 16.8523V16.8454C61.4374 16.768 61.4528 16.6969 61.4836 16.6325C61.5144 16.5679 61.5576 16.5129 61.6134 16.467C61.6688 16.4213 61.7353 16.386 61.8122 16.3615C61.8892 16.3368 61.9729 16.3245 62.0627 16.3245C62.1766 16.3245 62.2915 16.3426 62.4075 16.3791C62.5237 16.4155 62.6292 16.4641 62.724 16.5251L62.5994 16.7293C62.5142 16.6753 62.4247 16.6325 62.3311 16.6008C62.2374 16.5692 62.1457 16.5532 62.0557 16.5532C61.9469 16.5532 61.8603 16.5785 61.7963 16.6288C61.7323 16.6793 61.7005 16.7422 61.7005 16.8172V16.8242C61.7005 16.8666 61.7132 16.9034 61.7395 16.9352C61.7655 16.9667 61.8003 16.9944 61.8441 17.0178C61.888 17.0413 61.9385 17.0625 61.9953 17.0812C62.052 17.1001 62.1113 17.1188 62.173 17.1375C62.2441 17.1587 62.3144 17.1819 62.3844 17.2079C62.4543 17.2336 62.5176 17.2667 62.5746 17.3063C62.6315 17.3462 62.677 17.3944 62.7114 17.4507C62.7456 17.507 62.763 17.5764 62.763 17.6582V17.6653C62.763 17.7521 62.7456 17.8291 62.7114 17.896C62.677 17.9627 62.6309 18.0196 62.5728 18.0666C62.5149 18.1137 62.4459 18.1494 62.3666 18.1739C62.2873 18.1987 62.2013 18.2109 62.109 18.2109ZM64.0919 18.2109C63.9591 18.2109 63.8255 18.1868 63.6902 18.1388C63.5552 18.0907 63.4356 18.0256 63.3314 17.9434L63.47 17.75C63.5696 17.825 63.673 17.8823 63.7811 17.9224C63.8887 17.9623 63.9971 17.9822 64.1062 17.9822C64.2175 17.9822 64.3086 17.9565 64.3797 17.9048C64.4508 17.8532 64.4864 17.7828 64.4864 17.6935V17.6865C64.4864 17.642 64.4738 17.6034 64.4491 17.5703C64.4241 17.5375 64.3903 17.5089 64.3478 17.4841C64.3052 17.4594 64.2559 17.4378 64.2003 17.4191C64.1445 17.4002 64.0873 17.3826 64.0279 17.3662C63.957 17.3452 63.8853 17.3223 63.8129 17.2976C63.7406 17.2731 63.6756 17.2417 63.6175 17.2044C63.5594 17.1668 63.512 17.12 63.4755 17.0635C63.4386 17.0072 63.4203 16.937 63.4203 16.8523V16.8454C63.4203 16.768 63.4356 16.6969 63.4665 16.6325C63.4973 16.5679 63.5405 16.5129 63.5963 16.467C63.6519 16.4213 63.7181 16.386 63.7951 16.3615C63.8721 16.3368 63.9558 16.3245 64.0455 16.3245C64.1594 16.3245 64.2744 16.3426 64.3903 16.3791C64.5065 16.4155 64.612 16.4641 64.7068 16.5251L64.5823 16.7293C64.4971 16.6753 64.4075 16.6325 64.314 16.6008C64.2203 16.5692 64.1286 16.5532 64.0386 16.5532C63.9298 16.5532 63.8431 16.5785 63.7792 16.6288C63.7152 16.6793 63.6833 16.7422 63.6833 16.8172V16.8242C63.6833 16.8666 63.6961 16.9034 63.7223 16.9352C63.7483 16.9667 63.7832 16.9944 63.827 17.0178C63.8708 17.0413 63.9214 17.0625 63.9782 17.0812C64.0351 17.1001 64.0942 17.1188 64.1559 17.1375C64.227 17.1587 64.2974 17.1819 64.3675 17.2079C64.4373 17.2336 64.5005 17.2667 64.5575 17.3063C64.6143 17.3462 64.6599 17.3944 64.6943 17.4507C64.7284 17.507 64.7459 17.5764 64.7459 17.6582V17.6653C64.7459 17.7521 64.7284 17.8291 64.6943 17.896C64.6599 17.9627 64.6137 18.0196 64.5556 18.0666C64.4977 18.1137 64.4287 18.1494 64.3497 18.1739C64.2702 18.1987 64.1844 18.2109 64.0919 18.2109ZM67.1444 18.1758H66.8638V15.7122H67.7946C67.9345 15.7122 68.0618 15.7302 68.177 15.7668C68.2919 15.8031 68.3901 15.8547 68.4719 15.9215C68.5537 15.9884 68.6162 16.0707 68.66 16.1679C68.7038 16.2653 68.7259 16.375 68.7259 16.4969C68.7259 16.6307 68.6998 16.748 68.6478 16.849C68.5956 16.9497 68.5251 17.0342 68.4362 17.1022C68.3473 17.1705 68.2437 17.2214 68.1254 17.2555C68.0069 17.2895 67.8812 17.3063 67.7487 17.3063H67.1444V18.1758ZM67.1444 15.9689V17.0529H67.7608C67.8632 17.0529 67.9563 17.0403 68.0406 17.0143C68.125 16.9885 68.1973 16.9516 68.2579 16.9034C68.3185 16.8554 68.3649 16.7979 68.397 16.731C68.4291 16.6641 68.4452 16.5897 68.4452 16.5075C68.4452 16.3293 68.384 16.1949 68.2617 16.1045C68.1392 16.0142 67.9773 15.9689 67.7753 15.9689H67.1444ZM69.7139 18.1758H69.4402V16.3563H69.7139V16.8313C69.7471 16.7561 69.7884 16.6872 69.8383 16.6236C69.888 16.5602 69.9449 16.5056 70.0088 16.4601C70.073 16.4142 70.1428 16.3797 70.2186 16.3563C70.2871 16.3349 70.3608 16.3243 70.4392 16.3243C70.4474 16.3243 70.4556 16.3243 70.4637 16.3245V16.6167H70.4424C70.3429 16.6167 70.2488 16.6344 70.16 16.6695C70.0711 16.7046 69.9935 16.7574 69.927 16.8278C69.8608 16.8982 69.8087 16.9856 69.7708 17.0899C69.733 17.1944 69.7139 17.3147 69.7139 17.4507V18.1758ZM71.8889 18.218C71.7515 18.218 71.6246 18.1926 71.5085 18.1422C71.3925 18.0919 71.2918 18.0238 71.2066 17.9382C71.1213 17.8526 71.0548 17.7521 71.0076 17.6372C70.96 17.5224 70.9365 17.4002 70.9365 17.2712C70.9365 17.1423 70.96 17.0195 71.0076 16.9034C71.0548 16.7873 71.1213 16.6859 71.2066 16.5991C71.2918 16.5123 71.3931 16.4437 71.5103 16.393C71.6278 16.3426 71.7562 16.3174 71.8961 16.3174C72.0332 16.3174 72.1607 16.3426 72.278 16.393C72.3952 16.4437 72.4965 16.5116 72.5819 16.5972C72.6673 16.683 72.7333 16.7831 72.7809 16.8982C72.8281 17.0133 72.852 17.1352 72.852 17.2642C72.852 17.3934 72.8275 17.5159 72.779 17.6318C72.7306 17.7481 72.6635 17.8495 72.5783 17.9363C72.493 18.0232 72.391 18.0919 72.2727 18.1422C72.1542 18.1926 72.0263 18.218 71.8889 18.218ZM71.8889 16.5567C71.7893 16.5567 71.6983 16.5748 71.6152 16.6111C71.5324 16.6475 71.4619 16.6978 71.4038 16.7621C71.3457 16.8265 71.3 16.9015 71.267 16.9869C71.2337 17.0723 71.2173 17.1641 71.2173 17.2625C71.2173 17.3608 71.2343 17.4532 71.2687 17.5398C71.3031 17.6264 71.3503 17.7012 71.4109 17.7646C71.4713 17.8277 71.5429 17.878 71.6259 17.9156C71.7088 17.9529 71.7987 17.9716 71.8961 17.9716C71.9955 17.9716 72.0865 17.9534 72.1698 17.9172C72.2524 17.8811 72.3235 17.8312 72.3829 17.7681C72.4422 17.7047 72.4881 17.6304 72.5215 17.545C72.5546 17.4596 72.5712 17.3678 72.5712 17.2694C72.5712 17.1713 72.554 17.0787 72.5198 16.9921C72.4854 16.9055 72.4372 16.8301 72.3757 16.7657C72.3141 16.7015 72.2419 16.6504 72.1589 16.613C72.0758 16.5754 71.986 16.5567 71.8889 16.5567ZM75.0658 18.1758H74.7495L74.1812 17.433L73.609 18.1758H73.3034L74.0249 17.2501L73.3317 16.3563H73.6444L74.1883 17.06L74.7321 16.3563H75.0377L74.341 17.243L75.0658 18.1758ZM76.0078 18.7493C75.9318 18.7493 75.863 18.7416 75.8016 18.7265C75.7399 18.7113 75.6783 18.6882 75.6168 18.6579L75.7093 18.4433C75.7542 18.4666 75.7987 18.4836 75.8423 18.4942C75.8863 18.5048 75.9379 18.51 75.9971 18.51C76.0799 18.51 76.1498 18.4855 76.2068 18.4361C76.2634 18.3869 76.3192 18.2975 76.3738 18.1685L75.5386 16.3563H75.8408L76.5088 17.873L77.0988 16.3563H77.3899L76.6189 18.2356C76.5409 18.4232 76.4537 18.5559 76.3578 18.6334C76.262 18.7107 76.1451 18.7493 76.0078 18.7493ZM81.5373 18.1758H81.3133L79.7071 16.1556V18.1758H79.4336V15.7122H79.6966L81.2636 17.6865V15.7122H81.5373V18.1758ZM83.2502 18.218C83.1244 18.218 83.0061 18.1949 82.8947 18.1494C82.7834 18.1035 82.6858 18.0389 82.6026 17.9559C82.5189 17.8726 82.4526 17.7722 82.4035 17.6549C82.3542 17.5375 82.3297 17.4085 82.3297 17.2677C82.3297 17.1364 82.3517 17.0126 82.3956 16.8963C82.4394 16.7804 82.5004 16.6793 82.5785 16.5937C82.6567 16.5081 82.7496 16.4406 82.8574 16.3914C82.9652 16.3419 83.0831 16.3174 83.211 16.3174C83.3461 16.3174 83.4669 16.3426 83.5737 16.393C83.6802 16.4437 83.7702 16.5123 83.8436 16.5991C83.917 16.6859 83.9728 16.7879 84.0108 16.9053C84.0485 17.0226 84.0674 17.1481 84.0674 17.2818V17.3205L84.064 17.3662H82.6105C82.62 17.4648 82.6435 17.5523 82.6816 17.6285C82.7196 17.7047 82.7681 17.7691 82.8272 17.8219C82.8866 17.8748 82.9528 17.9147 83.0262 17.9415C83.0997 17.9685 83.1766 17.9822 83.2572 17.9822C83.3851 17.9822 83.4948 17.9588 83.5858 17.9118C83.6771 17.8647 83.7605 17.8028 83.8365 17.7253L84.007 17.8765C83.9147 17.9797 83.8092 18.0626 83.6907 18.1245C83.5724 18.1868 83.4256 18.218 83.2502 18.218ZM83.2039 16.5463C83.1238 16.5463 83.0497 16.5621 82.9814 16.5937C82.913 16.6255 82.853 16.6689 82.8012 16.7239C82.7494 16.7792 82.707 16.8442 82.6741 16.9194C82.6412 16.9944 82.6198 17.0764 82.6105 17.1655H83.7868C83.7796 17.0837 83.7626 17.005 83.7354 16.9298C83.7083 16.8548 83.6708 16.7891 83.6225 16.7326C83.5743 16.6766 83.5151 16.6313 83.4459 16.5972C83.3763 16.5634 83.2958 16.5463 83.2039 16.5463ZM85.411 18.2074C85.3374 18.2074 85.2688 18.198 85.2046 18.1791C85.1406 18.1604 85.0857 18.1305 85.0395 18.0894C84.9932 18.0485 84.9571 17.9949 84.9309 17.9293C84.9051 17.8636 84.8921 17.7851 84.8921 17.6935V16.5956H84.636V16.3563H84.8921V15.8071H85.1658V16.3563H85.7484V16.5956H85.1658V17.6582C85.1658 17.771 85.1939 17.8495 85.2509 17.8942C85.3078 17.9388 85.3824 17.961 85.4747 17.961C85.5221 17.961 85.5666 17.9565 85.6081 17.9469C85.6494 17.9376 85.6939 17.9212 85.7413 17.8977V18.1299C85.6939 18.1559 85.6436 18.1752 85.5903 18.1881C85.537 18.201 85.477 18.2074 85.411 18.2074ZM88.4385 18.1897H88.2005L87.7066 16.7538L87.2091 18.1897H86.9674L86.3242 16.3563H86.6155L87.0987 17.8167L87.5929 16.3492H87.8202L88.3177 17.8167L88.8012 16.3563H89.0854L88.4385 18.1897ZM90.5389 18.218C90.4015 18.218 90.2746 18.1926 90.1584 18.1422C90.0424 18.0919 89.9417 18.0238 89.8566 17.9382C89.7712 17.8526 89.7047 17.7521 89.6575 17.6372C89.6099 17.5224 89.5864 17.4002 89.5864 17.2712C89.5864 17.1423 89.6099 17.0195 89.6575 16.9034C89.7047 16.7873 89.7712 16.6859 89.8566 16.5991C89.9417 16.5123 90.043 16.4437 90.1603 16.393C90.2777 16.3426 90.4061 16.3174 90.546 16.3174C90.6832 16.3174 90.8107 16.3426 90.9279 16.393C91.0452 16.4437 91.1465 16.5116 91.2316 16.5972C91.3172 16.683 91.3833 16.7831 91.4309 16.8982C91.4781 17.0133 91.502 17.1352 91.502 17.2642C91.502 17.3934 91.4775 17.5159 91.429 17.6318C91.3803 17.7481 91.3134 17.8495 91.2283 17.9363C91.1429 18.0232 91.041 18.0919 90.9227 18.1422C90.804 18.1926 90.6762 18.218 90.5389 18.218ZM90.5389 16.5567C90.4392 16.5567 90.3482 16.5748 90.2652 16.6111C90.1823 16.6475 90.1118 16.6978 90.0537 16.7621C89.9956 16.8265 89.9499 16.9015 89.917 16.9869C89.8836 17.0723 89.8673 17.1641 89.8673 17.2625C89.8673 17.3608 89.8843 17.4532 89.9187 17.5398C89.9531 17.6264 90.0003 17.7012 90.0607 17.7646C90.1213 17.8277 90.1928 17.878 90.2759 17.9156C90.3587 17.9529 90.4487 17.9716 90.546 17.9716C90.6454 17.9716 90.7364 17.9534 90.8197 17.9172C90.9023 17.8811 90.9734 17.8312 91.0328 17.7681C91.0922 17.7047 91.1381 17.6304 91.1712 17.545C91.2046 17.4596 91.2211 17.3678 91.2211 17.2694C91.2211 17.1713 91.2039 17.0787 91.1698 16.9921C91.1354 16.9055 91.0871 16.8301 91.0257 16.7657C90.964 16.7015 90.8917 16.6504 90.8088 16.613C90.7257 16.5754 90.636 16.5567 90.5389 16.5567ZM92.5182 18.1758H92.2447V16.3563H92.5182V16.8313C92.5515 16.7561 92.5928 16.6872 92.6425 16.6236C92.6923 16.5602 92.7493 16.5056 92.8133 16.4601C92.8772 16.4142 92.9471 16.3797 93.023 16.3563C93.0916 16.3349 93.165 16.3243 93.2434 16.3243C93.2516 16.3243 93.2598 16.3243 93.268 16.3245V16.6167H93.2468C93.1472 16.6167 93.053 16.6344 92.9643 16.6695C92.8754 16.7046 92.7978 16.7574 92.7315 16.8278C92.6652 16.8982 92.613 16.9856 92.5752 17.0899C92.5373 17.1944 92.5182 17.3147 92.5182 17.4507V18.1758ZM95.5638 18.1758H95.2368L94.5795 17.3275L94.2061 17.7006V18.1758H93.9324V15.6064H94.2061V17.3803L95.1978 16.3563H95.539L94.7676 17.1375L95.5638 18.1758Z" fill="white" stroke="white" stroke-width="0.225025" stroke-linecap="round" stroke-linejoin="round"/>
</g>
<defs>
<linearGradient id="paint0_linear_2717_17457" x1="5.45318" y1="0" x2="5.45318" y2="21.8818" gradientUnits="userSpaceOnUse">
<stop stop-color="#E237B7"/>
<stop offset="1" stop-color="#705CDE"/>
</linearGradient>
<linearGradient id="paint1_linear_2717_17457" x1="5.47359" y1="2.62524" x2="5.47359" y2="21.8836" gradientUnits="userSpaceOnUse">
<stop stop-color="#E237B7"/>
<stop offset="1" stop-color="#705CDE"/>
</linearGradient>
<clipPath id="clip0_2717_17457">
<rect width="96" height="22" fill="white"/>
</clipPath>
</defs>
</svg>
