<svg width="41" height="40" viewBox="0 0 41 40" fill="none" xmlns="http://www.w3.org/2000/svg">
<rect x="10.1033" y="4.44385" width="20.0608" height="31.1111" rx="2.44033" fill="#E9F3FD"/>
<path d="M21.8054 13.3333V5" stroke="#218AEF" stroke-width="0.915125" stroke-linecap="round" stroke-linejoin="round"/>
<path d="M30.1643 5V13.3333" stroke="#218AEF" stroke-width="0.915125" stroke-linecap="round" stroke-linejoin="round"/>
<path d="M27.6567 7.5L30.1643 5L32.6719 7.5" stroke="#218AEF" stroke-width="0.915125" stroke-linecap="round" stroke-linejoin="round"/>
<path d="M19.2979 10.833L21.8055 13.333L24.3131 10.833" stroke="#218AEF" stroke-width="0.915125" stroke-linecap="round" stroke-linejoin="round"/>
<path d="M30.1641 20V31.6667C30.1641 32.5507 29.8118 33.3986 29.1848 34.0237C28.5578 34.6488 27.7073 35 26.8206 35H13.4467C12.56 35 11.7096 34.6488 11.0825 34.0237C10.4555 33.3986 10.1033 32.5507 10.1033 31.6667V8.33333C10.1033 7.44928 10.4555 6.60143 11.0825 5.97631C11.7096 5.35119 12.56 5 13.4467 5H15.1185" stroke="#218AEF" stroke-width="0.915125" stroke-linecap="round" stroke-linejoin="round"/>
<path d="M16.7903 29.9995H23.4772" stroke="#218AEF" stroke-width="0.915125" stroke-linecap="round" stroke-linejoin="round"/>
</svg>
