<svg width="68" height="69" viewBox="0 0 68 69" fill="none" xmlns="http://www.w3.org/2000/svg">
<g filter="url(#filter0_d_2828_11597)">
<path d="M25.9083 55.9751C24.9217 55.652 24.1204 55.0985 23.9051 54.0241C23.6447 52.7105 23.4694 51.3806 23.2478 50.0007C25.7293 49.5079 28.1445 48.7262 30.4442 47.6715C32.7629 46.5938 34.9696 45.2897 37.0321 43.7783C36.9796 44.4508 36.9345 45.0193 36.8894 45.5878C36.8268 46.3805 36.7705 47.1744 36.7004 47.967C36.6641 48.5229 36.4979 49.0625 36.2153 49.5425C35.9326 50.0225 35.5413 50.4295 35.0728 50.7307C32.6606 52.3436 30.2401 53.9435 27.8113 55.5305C27.5183 55.7221 27.1703 55.8285 26.8473 55.9751H25.9083Z" fill="#434396"/>
<path d="M2.00439 31.1332C2.31489 30.5609 2.58782 29.9661 2.94088 29.4226C4.30179 27.3289 5.69524 25.2615 7.06116 23.1615C7.81235 22.0094 8.81393 21.3407 10.2036 21.2455C11.4944 21.1579 12.784 21.0477 14.1987 20.9375C12.6813 23.055 11.3767 25.1951 10.3276 27.4854C9.26459 29.7929 8.47871 32.2183 7.98637 34.7108L5.10681 34.2713C5.0308 34.2538 4.9539 34.2404 4.87645 34.2312C3.43541 34.1485 2.43007 33.4924 2.00565 32.0648L2.00439 31.1332Z" fill="#434396"/>
<path d="M2.00565 54.1942C2.30612 53.8185 2.57655 53.4253 2.91083 53.0897C5.62597 50.3557 8.35195 47.6321 11.0888 44.9189C11.364 44.6507 11.7066 44.4621 12.0804 44.3729C12.6425 44.2477 13.1245 44.5082 13.4275 45.0091C13.5785 45.2399 13.6546 45.5117 13.6454 45.7873C13.6362 46.063 13.5422 46.3291 13.3762 46.5493C13.2551 46.7118 13.1194 46.8627 12.9705 47.0001C10.2913 49.6824 7.60953 52.3618 4.92527 55.0382C4.57847 55.3838 4.17408 55.6643 3.78722 55.9749H3.03603C2.58206 55.7628 2.21694 55.3981 2.00439 54.9443L2.00565 54.1942Z" fill="#34CCA9"/>
<path d="M2.00501 45.945C2.26292 45.5693 2.472 45.1348 2.7875 44.8092C4.14715 43.4092 5.54186 42.043 6.91904 40.658C7.32218 40.2523 7.78291 40.0319 8.35257 40.1722C9.39296 40.4226 9.81739 41.6886 9.0687 42.4663C7.53126 44.0616 5.96253 45.629 4.36249 47.1684C3.6426 47.8634 2.50079 47.5441 2.1252 46.6199C2.08388 46.5197 2.04507 46.4196 2 46.3194L2.00501 45.945Z" fill="#34CCA9"/>
<path d="M11.6596 55.9743C11.5745 55.9393 11.4906 55.9017 11.4092 55.8692C10.4239 55.4935 10.1109 54.3314 10.8421 53.5813C12.3683 52.0148 13.9195 50.4745 15.4744 48.9406C15.7343 48.6851 16.0841 48.542 16.4485 48.542C16.8128 48.542 17.1626 48.6851 17.4225 48.9406C17.5549 49.0637 17.6613 49.212 17.7357 49.3768C17.81 49.5416 17.8508 49.7195 17.8556 49.9003C17.8603 50.081 17.8291 50.2608 17.7635 50.4293C17.698 50.5978 17.5995 50.7515 17.4738 50.8815C15.9347 52.4568 14.3777 54.0138 12.8027 55.5523C12.6024 55.7489 12.2931 55.8341 12.034 55.9706L11.6596 55.9743Z" fill="#34CCA9"/>
<path d="M13.5579 27.2778C14.9237 24.6636 16.6056 22.2273 18.5658 20.0236C21.1574 17.0934 24.0745 14.5363 27.4399 12.5302C30.4596 10.7345 33.7261 9.57871 37.149 8.84616C40.3144 8.17881 43.5484 7.89294 46.7818 7.99464C47.0159 8.0009 47.25 8.01593 47.4829 8.03346C48.964 8.14866 49.8454 8.99517 49.9393 10.4678C50.079 12.9345 49.9779 15.4089 49.6375 17.856C49.1756 21.3898 48.2666 24.7983 46.7692 28.0379C44.9201 32.0362 42.2158 35.4047 39.047 38.4214C36.6218 40.7478 33.8871 42.7283 30.9204 44.3069C30.839 44.3494 30.7551 44.3907 30.6975 44.4195L13.5579 27.2778ZM27.8605 23.1016C27.8618 24.4924 28.2755 25.8517 29.0493 27.0073C29.8232 28.163 30.9224 29.063 32.2078 29.5937C33.4933 30.1243 34.9072 30.2616 36.2707 29.9882C37.6342 29.7148 38.8859 29.043 39.8676 28.0578C40.8492 27.0727 41.5166 25.8184 41.7853 24.4537C42.054 23.089 41.912 21.6753 41.3771 20.3914C40.8423 19.1075 39.9387 18.0112 38.7806 17.2411C37.6226 16.471 36.2622 16.0618 34.8716 16.0653C33.9481 16.0624 33.0332 16.2427 32.1797 16.5956C31.3263 16.9485 30.5512 17.467 29.8993 18.1213C29.2474 18.7756 28.7315 19.5525 28.3816 20.4074C28.0317 21.2622 27.8546 22.1779 27.8605 23.1016Z" fill="#434396"/>
<path d="M12.2504 30.1641L27.8676 45.7819C26.6945 46.1438 25.5164 46.5332 24.3257 46.8676C23.6822 47.0504 23.0149 47.1481 22.3589 47.2883C21.9617 47.3872 21.5456 47.3799 21.1521 47.2674C20.7586 47.1549 20.4015 46.941 20.1166 46.6472C17.1811 43.7312 14.2548 40.8047 11.3377 37.8678C10.7254 37.2517 10.475 36.4791 10.6979 35.6275C11.1474 33.912 11.6369 32.2052 12.1139 30.4934C12.1518 30.3806 12.1974 30.2706 12.2504 30.1641Z" fill="#434396"/>
<path d="M30.6761 23.0697C30.6794 22.2342 30.9308 21.4185 31.3984 20.7262C31.866 20.0338 32.5288 19.496 33.3026 19.1811C34.0763 18.8662 34.9262 18.7883 35.7443 18.9573C36.5624 19.1263 37.3118 19.5347 37.8975 20.1305C38.4831 20.7263 38.8786 21.4827 39.0336 22.3037C39.1887 23.1248 39.0964 23.9733 38.7684 24.7418C38.4404 25.5102 37.8915 26.1639 37.1915 26.6197C36.4914 27.0756 35.6717 27.3132 34.8364 27.3023C33.7251 27.2881 32.6643 26.8354 31.8851 26.0426C31.1059 25.2499 30.6713 24.1814 30.6761 23.0697Z" fill="#34CCA9"/>
</g>
<defs>
<filter id="filter0_d_2828_11597" x="0" y="0.974609" width="68" height="68" filterUnits="userSpaceOnUse" color-interpolation-filters="sRGB">
<feFlood flood-opacity="0" result="BackgroundImageFix"/>
<feColorMatrix in="SourceAlpha" type="matrix" values="0 0 0 0 0 0 0 0 0 0 0 0 0 0 0 0 0 0 127 0" result="hardAlpha"/>
<feOffset dx="8" dy="3"/>
<feGaussianBlur stdDeviation="5"/>
<feComposite in2="hardAlpha" operator="out"/>
<feColorMatrix type="matrix" values="0 0 0 0 0.235294 0 0 0 0 0.160784 0 0 0 0 0.631373 0 0 0 0.08 0"/>
<feBlend mode="normal" in2="BackgroundImageFix" result="effect1_dropShadow_2828_11597"/>
<feBlend mode="normal" in="SourceGraphic" in2="effect1_dropShadow_2828_11597" result="shape"/>
</filter>
</defs>
</svg>
