<svg width="112" height="85" viewBox="0 0 112 85" fill="none" xmlns="http://www.w3.org/2000/svg">
<g filter="url(#filter0_d_2806_17811)">
<path d="M21.9119 32.5147L22.9073 30.8978C23.3448 30.7879 24.0416 30.7906 24.1569 30.5368C24.3167 30.1757 24.0443 29.6263 23.9552 29.1554L25.0764 27.6458C25.8125 27.9075 26.2867 27.5987 26.7425 27.0127C29.9931 22.7811 33.9811 19.1696 38.5151 16.3515C47.2856 10.9176 56.7267 8.40072 67.0506 10.2975C75.7897 11.9039 82.6845 16.4117 87.2375 24.1087C92.1807 32.4807 92.5527 41.3968 89.9802 50.5615C89.5139 52.2281 88.2093 53.2458 86.4804 53.4525C85.2204 53.6016 83.9341 53.5153 82.661 53.5022C82.4402 53.4719 82.2352 53.371 82.0768 53.2144C81.4926 52.6912 80.9294 52.1679 80.3609 51.6237C82.3545 51.6106 84.348 51.5923 86.3416 51.595C87.3291 51.595 87.9709 51.1423 88.2172 50.2031C89.6056 44.9706 89.9985 39.6623 88.8302 34.3382C86.8629 25.3802 81.7808 18.7768 73.5656 14.6274C72.9081 14.2977 72.1275 13.7091 71.483 14.6509C71.0587 15.2736 71.4333 15.7864 72.6592 16.3803C77.9587 18.9494 81.972 22.8607 84.5916 28.1089C87.9107 34.7594 88.246 41.7317 86.5171 48.8767C86.3704 49.4836 86.0822 49.6406 85.5006 49.638C82.2628 49.6249 79.0275 49.638 75.7897 49.6563H72.096L58.8145 49.6014L61.3241 45.9517L75.1584 45.9909C75.3391 46.7575 75.8473 46.9956 76.6044 46.9851C78.7001 46.9563 80.7958 46.9485 82.8732 46.9851C83.8188 47.0034 84.2249 46.5875 84.3349 45.677C84.7043 42.5846 84.7541 39.4948 84.1384 36.4312C82.7003 29.2784 78.9228 23.745 72.6409 19.9488C71.9677 19.5407 71.3311 19.3052 70.7548 20.0718L69.0415 19.2869C69.1097 18.7035 69.0153 18.0861 68.3735 18.0154C67.9754 17.971 67.53 18.3608 67.103 18.5544L65.3164 18.0965C65.2902 17.3117 64.8711 16.9218 64.0931 16.8643C62.3379 16.7335 60.5828 16.4483 58.8302 16.4692C51.2831 16.5582 44.5821 19.143 38.6591 23.7162C31.5259 29.2313 26.8944 36.3553 25.1707 45.2689C24.9087 46.577 25.2152 46.9459 26.5486 46.9511C28.6443 46.9511 30.74 46.9511 32.82 46.9511C33.5378 46.9511 34.0224 46.7104 34.1429 45.9543H49.7847C49.714 47.2624 49.955 48.5025 50.7461 49.5909L37.3362 49.6275L33.1186 49.7793C32.7807 49.6938 32.4364 49.6361 32.0891 49.6066C28.626 49.5935 25.1628 49.6066 21.6971 49.6066C21.5006 49.6066 21.257 49.5386 21.1181 49.6275C20.7933 49.8394 20.3322 50.0932 20.2772 50.3941C20.2222 50.695 20.5392 51.1607 20.8143 51.383C21.0579 51.5714 21.4927 51.5609 21.8438 51.5636C24.2302 51.5819 26.6141 51.5819 29.0006 51.5871C27.7222 53.2615 26.0378 53.8161 23.9788 53.5127C23.2453 53.4054 22.483 53.497 21.7311 53.497C18.4749 53.497 17.5895 52.5342 17.8855 49.311C17.8855 49.2456 17.9012 49.1828 17.9065 49.1174C18.3364 43.9165 19.7826 38.8502 22.1634 34.2048C22.483 33.5821 22.5799 33.0039 21.9119 32.5147Z" fill="#434396"/>
<path d="M33.1077 49.802L37.3253 49.6503L41.9332 51.6072C42.5043 52.1305 43.0545 52.6982 43.657 53.1927C43.9041 53.3845 44.206 53.4926 44.5188 53.5014C51.2862 53.5206 58.0518 53.5206 64.8157 53.5014C65.1288 53.4914 65.4303 53.3804 65.6749 53.1848C66.2722 52.6877 66.8197 52.1383 67.3855 51.5942L72.0825 49.6477H75.7762L80.3474 51.6334C80.9159 52.1566 81.4791 52.7087 82.0633 53.2241C82.2217 53.3806 82.4267 53.4816 82.6475 53.5119C83.9206 53.5249 85.2068 53.6113 86.4669 53.4621C88.1958 53.2555 89.5004 52.2377 89.9667 50.5712C92.5392 41.4143 92.1672 32.4798 87.2239 24.1183C82.671 16.4082 75.7762 11.9005 67.0502 10.2967C56.7394 8.40254 47.2982 10.9194 38.5277 16.3533C33.9938 19.1714 30.0058 22.7829 26.7551 27.0145C26.2993 27.6006 25.8252 27.9067 25.0891 27.6476C24.4237 26.9727 24.7118 26.3918 25.2148 25.7666C33.1418 15.9295 43.1776 9.64263 55.8277 8.02056C64.7973 6.87203 73.222 8.57259 80.6225 13.9987C87.8972 19.3306 91.9393 26.6273 93.1783 35.5095C93.8961 40.6635 93.3722 45.7128 91.9995 50.7151C91.6529 52.0862 90.8549 53.3011 89.7337 54.1647C88.6124 55.0283 87.2331 55.4903 85.8172 55.4767C85.144 55.4767 84.4707 55.4767 83.7687 55.4767C85.7936 61.7557 84.7274 66.2608 80.5229 69.4369C78.685 70.8209 76.4604 71.5975 74.1594 71.6585C71.8583 71.7195 69.5956 71.0617 67.6868 69.7771C65.4292 68.2812 63.8157 65.9939 63.1653 63.3673C62.4659 60.6804 62.809 58.0798 64.0298 55.5185H45.2838C46.1673 57.3041 46.582 59.2847 46.4888 61.2743C46.2059 68.1184 39.2272 73.1572 32.6179 71.2866C31.811 71.059 31.4364 70.6692 31.5517 69.8399C31.9892 69.2747 32.5183 69.1963 33.1994 69.3925C33.8295 69.5644 34.4795 69.6524 35.1327 69.6541C38.9521 69.6933 41.8389 68.0399 43.5496 64.6388C45.2025 61.3554 44.9484 58.072 42.6798 55.1601C40.3222 52.1436 37.1236 50.9741 33.3645 51.7773C27.8344 52.9572 24.8271 59.1629 27.1952 64.3667C27.4913 65.0181 27.7689 65.6198 27.1952 66.2477C26.3517 66.5329 25.8461 66.198 25.4925 65.4184C24.167 62.4777 24.0334 59.5109 25.2069 56.4944L25.6182 55.461C23.8709 55.461 22.2127 55.4897 20.5781 55.461C17.6965 55.3982 15.8077 53.4308 15.8627 50.5869C15.8863 49.5116 15.957 48.4337 16.088 47.3663C16.6982 42.4762 18.1508 37.7283 20.3816 33.3327C20.7064 32.6865 21.1046 32.2392 21.9088 32.506C22.5768 32.9953 22.4799 33.5708 22.1498 34.2223C19.7691 38.8677 18.3228 43.934 17.893 49.1349C17.893 49.2003 17.8772 49.2631 17.872 49.3285C17.576 52.5517 18.4614 53.5145 21.7176 53.5145C22.4694 53.5145 23.2317 53.4229 23.9652 53.5302C26.0243 53.8337 27.7087 53.2686 28.9871 51.6046L33.1077 49.802ZM73.9032 69.6855C75.693 69.6684 77.4378 69.1227 78.9176 68.1169C80.3973 67.1112 81.5459 65.6905 82.2186 64.034C82.8913 62.3774 83.0579 60.559 82.6975 58.808C82.3372 57.057 81.4659 55.4517 80.1935 54.1944C78.9211 52.9371 77.3045 52.084 75.5475 51.7428C73.7905 51.4015 71.9716 51.5873 70.3202 52.2767C68.6687 52.9661 67.2585 54.1283 66.2673 55.6168C65.2761 57.1053 64.7482 58.8535 64.7502 60.6411C64.756 61.8354 64.9974 63.0167 65.4607 64.1177C65.9239 65.2187 66.5999 66.2178 67.4499 67.0577C68.3 67.8977 69.3074 68.5621 70.4147 69.013C71.522 69.4638 72.7074 69.6924 73.9032 69.6855Z" fill="#434396"/>
<path d="M27.1928 66.2634C27.7691 65.6355 27.4914 65.0338 27.1928 64.3823C24.8351 59.1786 27.8319 52.9729 33.362 51.7929C37.1238 50.9924 40.3302 52.1566 42.6878 55.1758C44.9564 58.0876 45.2105 61.371 43.5576 64.6544C41.8469 68.0555 38.9601 69.709 35.1407 69.6698C34.4875 69.6681 33.8375 69.5801 33.2074 69.4081C32.5263 69.2119 31.9972 69.2904 31.5597 69.8555L29.9276 69.0078C29.8333 68.55 29.8831 67.9012 29.6028 67.6997C29.3225 67.4983 28.7279 67.7704 28.2694 67.8358L27.1928 66.2634ZM35.4341 55.2752C34.3663 55.2779 33.3234 55.5977 32.4381 56.194C31.5528 56.7902 30.865 57.6359 30.4622 58.6236C30.0594 59.6113 29.9599 60.6962 30.1762 61.7406C30.3925 62.7849 30.9148 63.7414 31.6769 64.4884C32.439 65.2355 33.4063 65.7393 34.4558 65.9358C35.5053 66.1324 36.5896 66.0127 37.5709 65.5922C38.5522 65.1716 39.3861 64.4691 39.9665 63.574C40.5469 62.6788 40.8477 61.6315 40.8305 60.5652C40.8275 59.8625 40.6851 59.1673 40.4118 58.5198C40.1384 57.8723 39.7394 57.2852 39.2377 56.7925C38.736 56.2997 38.1416 55.9111 37.4888 55.6488C36.836 55.3866 36.1377 55.2561 35.4341 55.2647V55.2752Z" fill="#434396"/>
<path d="M9.50864 32.6825C11.4711 32.6825 13.4335 32.6825 15.396 32.6825C15.9279 32.6825 16.4905 32.7116 16.5001 33.6523C16.5097 34.5929 15.9759 34.6828 15.4286 34.6801C11.4781 34.6801 7.5289 34.6801 3.58096 34.6801C3.10475 34.6801 2.64198 34.6511 2.51908 33.8425C2.41155 33.1317 2.76871 32.6931 3.47919 32.6878C5.49348 32.6746 7.50394 32.6825 9.50864 32.6825Z" fill="#34CCA9"/>
<path d="M8.53792 41.6651C7.1842 41.6651 5.82883 41.6651 4.47182 41.6651C4.28872 41.6651 4.05119 41.7327 3.93407 41.5818C3.73778 41.3215 3.50519 40.9337 3.50024 40.5901C3.50024 40.3116 3.77572 39.9524 3.98026 39.7572C4.11717 39.6245 4.33986 39.7078 4.5246 39.7078H12.4704C12.5941 39.7078 12.7492 39.6349 12.8333 39.726C13.0774 39.9863 13.4321 40.27 13.4849 40.637C13.5756 41.2564 13.2523 41.6416 12.8498 41.6572C12.1718 41.6885 11.4939 41.6703 10.8176 41.6703L8.53792 41.6651Z" fill="#34CCA9"/>
<path d="M7.98081 48.6697C7.04767 48.6697 6.11324 48.6697 5.17881 48.6697C4.8208 48.6697 4.4964 48.4988 4.50028 47.65C4.50416 46.8011 4.8389 46.6776 5.19302 46.6802C7.06189 46.6907 8.93032 46.6907 10.7983 46.6802C11.1473 46.6802 11.4924 46.7538 11.5001 47.629C11.5079 48.554 11.1512 48.6802 10.7841 48.6802C9.85355 48.6644 8.91524 48.6697 7.98081 48.6697Z" fill="#34CCA9"/>
<path d="M23.9548 29.1548C24.0439 29.6257 24.3163 30.1751 24.1565 30.5362C24.0412 30.7978 23.3444 30.7978 22.9069 30.8972C22.7943 30.4367 22.4564 29.8376 22.6319 29.5525C22.8074 29.2673 23.4937 29.2751 23.9548 29.1548Z" fill="#34CCA9"/>
<path d="M28.262 67.8177C28.7204 67.7523 29.3334 67.4854 29.5954 67.6817C29.8573 67.8779 29.8259 68.5424 29.9202 68.9898C29.4487 69.0578 28.8383 69.3351 28.5527 69.1389C28.2672 68.9427 28.3458 68.2808 28.262 67.8177Z" fill="#34CCA9"/>
<path d="M65.3035 18.1119C64.9472 18.7843 64.4364 18.9491 63.6741 18.8078C62.5214 18.5933 61.3452 18.5227 60.0459 18.3761C59.7656 20.1003 59.4958 21.7537 59.2233 23.4098C59.0976 24.1816 58.9614 24.9508 58.854 25.7252C58.7596 26.4185 58.4139 26.8449 57.6908 26.7272C56.9678 26.6095 56.8028 26.0548 56.9049 25.3929L58.0052 18.5619C53.1563 18.0386 43.1126 22.0075 39.1072 26.0287L42.6882 30.2696C42.8978 30.5312 43.2305 30.7431 43.2881 31.0257C43.3798 31.4731 43.4663 32.0957 43.2331 32.3992C42.8376 32.9225 42.2246 32.7603 41.8028 32.2658C40.658 30.9263 39.5316 29.5711 38.3973 28.2237C38.1353 27.9228 37.8734 27.6324 37.5616 27.2609C32.3224 32.1219 28.7414 37.8933 27.2141 45.0069C29.1029 45.0069 30.8947 45.0226 32.6839 45.0069C33.4174 45.0069 33.978 45.177 34.143 45.9828C34.0225 46.7389 33.5379 46.9848 32.8201 46.9796C30.7244 46.9639 28.6287 46.9796 26.5487 46.9796C25.2154 46.9796 24.9193 46.5976 25.1708 45.2973C26.8945 36.3838 31.526 29.2597 38.6593 23.7447C44.5796 19.1715 51.2806 16.5866 58.8304 16.4977C60.5829 16.4768 62.3381 16.7593 64.0932 16.8927C64.8581 16.9372 65.2773 17.3244 65.3035 18.1119Z" fill="#34CCA9"/>
<path d="M80.348 51.6328L75.7768 49.6654C79.0146 49.6654 82.2499 49.634 85.4877 49.6471C86.0693 49.6471 86.3574 49.4927 86.5041 48.8858C88.2331 41.7408 87.8978 34.758 84.5787 28.118C81.9591 22.8698 77.9458 18.9611 72.6463 16.3894C71.4203 15.7955 71.0457 15.2827 71.4701 14.66C72.1145 13.7182 72.8952 14.3068 73.5527 14.6365C81.7678 18.7858 86.8499 25.3892 88.8172 34.3473C89.9856 39.6713 89.6031 44.9719 88.2043 50.2122C87.958 51.1514 87.3162 51.604 86.3286 51.604C84.3403 51.5883 82.3415 51.6067 80.348 51.6328Z" fill="#434396"/>
<path d="M75.1453 45.9846C75.3365 45.2154 75.8578 44.9878 76.607 44.9983C78.4984 45.0244 80.3898 44.9983 82.4016 44.9983C83.1587 38.4916 81.9065 32.5632 77.9483 27.2078L72.709 31.7234C72.4628 31.9379 72.2165 32.1525 71.9624 32.3592C71.4621 32.7673 70.9303 32.8249 70.4876 32.3225C70.0449 31.8202 70.2047 31.276 70.6867 30.8679C72.2165 29.5415 73.7543 28.2255 75.2894 26.9043C75.7321 26.5249 76.1695 26.1403 76.6673 25.7087C75.1716 24.0599 73.4192 22.6632 71.4778 21.5724C70.8779 21.227 70.5033 20.8137 70.7417 20.0759C71.3259 19.3093 71.9546 19.5526 72.6278 19.9529C78.9149 23.7439 82.6872 29.2772 84.1253 36.4353C84.741 39.4989 84.6912 42.5887 84.3218 45.6811C84.2118 46.5863 83.7979 46.9892 82.8601 46.9892C80.7644 46.9526 78.6687 46.9604 76.5913 46.9892C75.8342 46.9892 75.326 46.7511 75.1453 45.9846Z" fill="#34CCA9"/>
<path d="M49.7746 45.9795C50.2305 43.4862 51.6975 41.7935 54.0158 40.8857C57.2013 39.6482 60.4234 38.5075 63.6482 37.3799C64.0045 37.257 64.6829 37.3538 64.8637 37.5997C64.9702 37.7997 65.0305 38.0211 65.04 38.2475C65.0495 38.4739 65.0081 38.6995 64.9187 38.9078C63.7582 41.2624 62.5217 43.6014 61.3115 45.9403L58.8019 49.5899C57.6231 50.1734 56.4835 50.8614 55.2523 51.2931C54.5712 51.5312 53.7355 51.3376 52.9706 51.3402L50.7361 49.6083C49.9449 48.5278 49.7039 47.2929 49.7746 45.9795ZM62.3227 40.2238L62.0345 39.936C59.035 41.0374 55.8548 41.7674 53.209 43.6615C51.4931 44.8964 51.2521 47.3112 52.4807 48.5748C53.7093 49.8385 56.2661 49.7155 57.4894 47.9783C59.2394 45.4824 60.7247 42.8086 62.3358 40.2159L62.3227 40.2238Z" fill="#1C1C20"/>
<path d="M52.9698 51.3455C53.7348 51.3455 54.5704 51.5365 55.2515 51.2984C56.4828 50.8667 57.6223 50.1786 58.8011 49.5952L72.0826 49.6502L67.3856 51.5966H65.9213L52.9358 51.5496L52.9698 51.3455Z" fill="#434396"/>
<path d="M52.9708 51.346C52.9708 51.4114 52.9472 51.4768 52.9368 51.5449L41.9343 51.6103L37.3264 49.6533L50.7363 49.6167L52.9708 51.346Z" fill="#434396"/>
<path d="M33.1083 49.8016L28.9903 51.6016C26.6038 51.6016 24.2199 51.6016 21.8335 51.578C21.4824 51.578 21.0476 51.578 20.8039 51.3975C20.5184 51.1751 20.2145 50.7068 20.2669 50.4085C20.3193 50.1103 20.7908 49.8539 21.1078 49.642C21.2467 49.553 21.4903 49.6211 21.6868 49.6211C25.1525 49.6211 28.6157 49.6211 32.0788 49.6211C32.4263 49.6531 32.7707 49.7135 33.1083 49.8016Z" fill="#434396"/>
<path d="M69.0284 19.3019C68.5935 19.4771 68.067 19.8879 67.7474 19.7649C67.4278 19.642 67.302 18.9801 67.0898 18.5693C67.5168 18.3757 67.9622 17.9859 68.3604 18.0304C69.0022 18.101 69.0965 18.7184 69.0284 19.3019Z" fill="#34CCA9"/>
<path d="M73.9032 69.6863C72.1124 69.6899 70.3608 69.1637 68.8691 68.1743C67.3774 67.1849 66.2125 65.7764 65.5213 64.1266C64.83 62.4768 64.6435 60.6595 64.9851 58.9039C65.3268 57.1484 66.1813 55.5332 67.441 54.262C68.7006 52.9909 70.309 52.1208 72.0632 51.7614C73.8174 51.402 75.6388 51.5694 77.2978 52.2426C78.9569 52.9158 80.3791 54.0645 81.3853 55.544C82.3914 57.0234 82.9363 58.7673 82.9513 60.5556C82.9535 62.9616 82.0039 65.2711 80.3093 66.9812C78.6146 68.6913 76.3122 69.6635 73.9032 69.6863ZM73.8219 55.2682C72.7545 55.2746 71.713 55.5978 70.8299 56.1967C69.9468 56.7956 69.262 57.6432 68.8624 58.6318C68.4628 59.6204 68.3664 60.7053 68.5857 61.7486C68.8049 62.792 69.3298 63.7467 70.0936 64.4915C70.8574 65.2362 71.8257 65.7374 72.8753 65.9312C73.925 66.1251 75.0087 66.0029 75.9887 65.5802C76.9687 65.1575 77.8007 64.4534 78.379 63.5573C78.9574 62.6612 79.2559 61.6137 79.2367 60.5478C79.2112 59.133 78.6286 57.7853 77.6151 56.7965C76.6015 55.8078 75.2387 55.2578 73.8219 55.2656V55.2682Z" fill="#434396"/>
<path d="M41.9336 51.6108L52.936 51.5454L65.9215 51.5925H67.3859C66.82 52.1157 66.2725 52.6861 65.6753 53.1832C65.4307 53.3787 65.1292 53.4898 64.816 53.4997C58.0522 53.5189 51.2865 53.5189 44.5192 53.4997C44.2078 53.4947 43.9061 53.3912 43.6573 53.2041C43.0548 52.7018 42.5047 52.1576 41.9336 51.6108Z" fill="#434396"/>
<path d="M35.4344 55.265C36.8418 55.2892 38.1837 55.863 39.1726 56.8634C40.1615 57.8638 40.7187 59.2112 40.7249 60.617C40.731 62.0228 40.1856 63.375 39.2056 64.384C38.2255 65.3931 36.8887 65.9786 35.4815 66.0151C34.765 66.0337 34.052 65.9093 33.3843 65.649C32.7166 65.3888 32.1077 64.998 31.5933 64.4995C31.0788 64.0011 30.6692 63.4051 30.3884 62.7465C30.1077 62.0879 29.9614 61.3799 29.9583 60.6641C29.9552 59.9483 30.0952 59.2391 30.3701 58.578C30.6451 57.917 31.0495 57.3174 31.5595 56.8145C32.0696 56.3116 32.6751 55.9155 33.3405 55.6494C34.0059 55.3833 34.7177 55.2526 35.4344 55.265ZM35.4763 57.2428C34.8071 57.2403 34.1521 57.4357 33.5939 57.8043C33.0357 58.1729 32.5992 58.6982 32.3394 59.3142C32.0797 59.9301 32.0083 60.609 32.1342 61.2654C32.2602 61.9218 32.5779 62.5263 33.0472 63.0027C33.5166 63.4791 34.1166 63.806 34.7717 63.9424C35.4269 64.0788 36.1077 64.0185 36.7286 63.7691C37.3494 63.5196 37.8825 63.0922 38.2605 62.5408C38.6386 61.9893 38.8447 61.3384 38.853 60.6701C38.8718 60.2197 38.7978 59.7702 38.6354 59.3495C38.4731 58.9289 38.226 58.546 37.9094 58.2246C37.5928 57.9033 37.2135 57.6503 36.7949 57.4814C36.3764 57.3126 35.9276 57.2313 35.4763 57.2428Z" fill="#34CCA9"/>
<path d="M62.3354 40.216C60.7375 42.8087 59.2521 45.4825 57.5022 47.9706C56.2789 49.7078 53.7483 49.8595 52.4935 48.5671C51.2387 47.2746 51.5059 44.8886 53.2218 43.6538C55.8676 41.7491 59.0478 41.0375 62.0473 39.9282L62.3354 40.216ZM54.8643 47.1857L55.3122 47.2197C55.6397 46.7723 56.0981 46.359 56.2343 45.8566C56.2946 45.6369 55.7392 45.0247 55.3987 44.9619C55.2463 44.9306 55.0888 44.9346 54.9381 44.9734C54.7875 45.0122 54.6477 45.0848 54.5295 45.1857C54.4112 45.2867 54.3176 45.4133 54.2558 45.5558C54.1939 45.6984 54.1655 45.8532 54.1727 46.0084C54.1753 46.4008 54.618 46.7854 54.8643 47.1857Z" fill="#434396"/>
<path d="M73.8229 55.2647C74.526 55.2547 75.2241 55.3835 75.8772 55.6436C76.5303 55.9038 77.1255 56.2903 77.6287 56.7809C78.1318 57.2715 78.5329 57.8565 78.8091 58.5023C79.0852 59.1481 79.2308 59.8421 79.2377 60.5443C79.2584 61.6124 78.9606 62.6625 78.382 63.5611C77.8035 64.4597 76.9703 65.166 75.9886 65.5903C75.0069 66.0146 73.921 66.1376 72.8691 65.9437C71.8171 65.7498 70.8467 65.2478 70.0813 64.5015C69.3159 63.7552 68.7901 62.7984 68.5708 61.7528C68.3515 60.7072 68.4486 59.62 68.8498 58.6297C69.2509 57.6393 69.938 56.7906 70.8236 56.1914C71.7092 55.5921 72.7532 55.2696 73.8229 55.2647ZM73.8229 57.2426C73.3706 57.2367 72.9217 57.3212 72.5027 57.4912C72.0836 57.6612 71.7029 57.9133 71.3829 58.2325C71.0629 58.5518 70.8101 58.9317 70.6394 59.3501C70.4687 59.7684 70.3835 60.2166 70.3889 60.6683C70.3943 61.12 70.4902 61.566 70.6709 61.9801C70.8516 62.3942 71.1135 62.7681 71.441 63.0796C71.7686 63.391 72.1553 63.6339 72.5783 63.7939C73.0013 63.9538 73.4521 64.0276 73.9041 64.0108C74.3564 64.0167 74.8053 63.9322 75.2243 63.7622C75.6434 63.5922 76.0241 63.3401 76.3441 63.0209C76.6641 62.7016 76.9169 62.3217 77.0876 61.9033C77.2583 61.485 77.3435 61.0368 77.3381 60.5851C77.3327 60.1334 77.2368 59.6874 77.0561 59.2733C76.8754 58.8591 76.6135 58.4853 76.286 58.1738C75.9584 57.8624 75.5717 57.6195 75.1487 57.4595C74.7257 57.2996 74.2749 57.2258 73.8229 57.2426Z" fill="#34CCA9"/>
<path d="M35.4762 57.2429C36.1453 57.246 36.7985 57.4468 37.3536 57.8199C37.9086 58.1931 38.3406 58.722 38.5953 59.34C38.8499 59.9579 38.9157 60.6373 38.7844 61.2926C38.6531 61.9478 38.3306 62.5496 37.8574 63.0221C37.3843 63.4946 36.7818 63.8167 36.1257 63.9478C35.4696 64.079 34.7893 64.0132 34.1706 63.759C33.5518 63.5047 33.0222 63.0732 32.6486 62.5189C32.2749 61.9646 32.0738 61.3122 32.0707 60.644C32.0588 60.1941 32.1388 59.7465 32.3057 59.3285C32.4727 58.9105 32.7231 58.5308 33.0417 58.2126C33.3603 57.8944 33.7405 57.6443 34.1591 57.4775C34.5776 57.3108 35.0258 57.231 35.4762 57.2429Z" fill="#434396"/>
<path d="M54.8648 47.1855C54.6185 46.7957 54.1758 46.4007 54.1732 46.0161C54.166 45.8609 54.1945 45.7061 54.2563 45.5635C54.3181 45.421 54.4117 45.2944 54.53 45.1934C54.6482 45.0925 54.788 45.0199 54.9386 44.9811C55.0893 44.9423 55.2468 44.9383 55.3992 44.9696C55.7397 45.0324 56.2951 45.6446 56.2348 45.8643C56.0986 46.3666 55.6402 46.78 55.3127 47.2274L54.8648 47.1855Z" fill="#34CCA9"/>
<path d="M73.8175 57.243C74.2695 57.2263 74.7203 57.3001 75.1433 57.46C75.5663 57.6199 75.953 57.8628 76.2806 58.1743C76.6082 58.4858 76.87 58.8596 77.0507 59.2737C77.2314 59.6878 77.3273 60.1339 77.3327 60.5856C77.3381 61.0373 77.253 61.4855 77.0822 61.9038C76.9115 62.3221 76.6587 62.7021 76.3387 63.0213C76.0187 63.3406 75.638 63.5926 75.2189 63.7626C74.7999 63.9327 74.351 64.0172 73.8987 64.0113C73.4467 64.028 72.9959 63.9542 72.5729 63.7943C72.1499 63.6344 71.7632 63.3915 71.4356 63.08C71.1081 62.7685 70.8462 62.3947 70.6655 61.9806C70.4848 61.5665 70.389 61.1204 70.3835 60.6687C70.3781 60.217 70.4633 59.7688 70.634 59.3505C70.8047 58.9322 71.0575 58.5522 71.3775 58.233C71.6975 57.9137 72.0782 57.6617 72.4973 57.4917C72.9164 57.3217 73.3652 57.2371 73.8175 57.243Z" fill="#434396"/>
</g>
<defs>
<filter id="filter0_d_2806_17811" x="0.500244" y="0.680176" width="111" height="84" filterUnits="userSpaceOnUse" color-interpolation-filters="sRGB">
<feFlood flood-opacity="0" result="BackgroundImageFix"/>
<feColorMatrix in="SourceAlpha" type="matrix" values="0 0 0 0 0 0 0 0 0 0 0 0 0 0 0 0 0 0 127 0" result="hardAlpha"/>
<feOffset dx="8" dy="3"/>
<feGaussianBlur stdDeviation="5"/>
<feComposite in2="hardAlpha" operator="out"/>
<feColorMatrix type="matrix" values="0 0 0 0 0.235294 0 0 0 0 0.160784 0 0 0 0 0.631373 0 0 0 0.08 0"/>
<feBlend mode="normal" in2="BackgroundImageFix" result="effect1_dropShadow_2806_17811"/>
<feBlend mode="normal" in="SourceGraphic" in2="effect1_dropShadow_2806_17811" result="shape"/>
</filter>
</defs>
</svg>
