<svg width="84" height="85" viewBox="0 0 84 85" fill="none" xmlns="http://www.w3.org/2000/svg">
<g filter="url(#filter0_d_2806_17756)">
<path d="M10.2587 31.573C10.3528 31.3277 10.4439 31.0809 10.5349 30.8341C10.7231 30.3243 10.9113 29.8144 11.1261 29.3164C12.9237 25.1617 16.2609 22.9422 20.485 21.9145C23.1673 21.2584 25.8258 21.3612 28.3954 22.4939C28.5236 22.5355 28.6559 22.5627 28.79 22.5748C28.8823 22.6361 28.9766 22.6954 29.0712 22.7549C29.2702 22.88 29.4708 23.0061 29.6574 23.1543C30.6631 23.9725 31.6562 24.8035 32.647 25.6325L32.6932 25.6712L32.6629 44.3258C32.5903 44.7712 32.5214 45.2173 32.4525 45.6635C32.3154 46.5514 32.1783 47.4397 32.0123 48.3231C31.3098 52.2263 30.2776 56.0246 28.1764 59.4292C26.5913 61.9898 24.5334 63.936 21.4174 64.4236C20.9425 64.498 20.6975 64.4236 20.4828 63.9447C18.9049 60.4147 17.3182 56.8895 15.7313 53.3641C14.4833 50.5913 13.2352 47.8184 11.9913 45.043C10.7231 42.238 10.0361 39.2013 9.97247 36.1192C9.94851 35.0757 10.0445 34.0281 10.1405 32.9807C10.1835 32.5113 10.2265 32.042 10.2587 31.573Z" fill="#434396"/>
<path d="M10.2587 31.573C10.3528 31.3277 10.4439 31.0809 10.5349 30.8341C10.7231 30.3243 10.9113 29.8144 11.1261 29.3164C12.9237 25.1617 16.2609 22.9422 20.485 21.9145C23.1673 21.2584 25.8258 21.3612 28.3954 22.4939C28.5236 22.5355 28.6559 22.5627 28.79 22.5748C28.8823 22.6361 28.9766 22.6954 29.0712 22.7549C29.2702 22.88 29.4708 23.0061 29.6574 23.1543C30.6631 23.9725 31.6562 24.8035 32.647 25.6325L32.6932 25.6712L32.6629 44.3258C32.5903 44.7712 32.5214 45.2173 32.4525 45.6635C32.3154 46.5514 32.1783 47.4397 32.0123 48.3231C31.3098 52.2263 30.2776 56.0246 28.1764 59.4292C26.5913 61.9898 24.5334 63.936 21.4174 64.4236C20.9425 64.498 20.6975 64.4236 20.4828 63.9447C18.9049 60.4147 17.3182 56.8895 15.7313 53.3641C14.4833 50.5913 13.2352 47.8184 11.9913 45.043C10.7231 42.238 10.0361 39.2013 9.97247 36.1192C9.94851 35.0757 10.0445 34.0281 10.1405 32.9807C10.1835 32.5113 10.2265 32.042 10.2587 31.573Z" stroke="black"/>
<path d="M41.779 21.7596C46.3523 21.0008 50.4115 22.162 53.9222 25.1752C55.8543 26.8349 56.945 29.0435 57.5478 31.4576C61.0173 32.1267 63.8124 33.6683 65.2262 37.0686C66.2302 39.474 66.176 42.0018 65.5276 44.4618C65.0484 46.3304 64.395 48.1491 63.576 49.8935C61.7918 53.6225 59.9452 57.3282 58.0993 61.0328C57.3472 62.5419 56.5953 64.0509 55.8478 65.5611C55.7674 65.7232 55.692 65.887 55.6077 66.07C55.5556 66.1832 55.5001 66.3037 55.438 66.4358H59.0852C60.1521 66.4358 60.5923 66.8972 60.6031 67.9883V69.9564C60.6031 71.2684 60.2063 71.6773 58.9269 71.6773H40.0942C38.2244 71.6773 36.3558 71.668 34.4867 71.6588C33.7849 71.6553 33.0831 71.6518 32.3811 71.6489C33.8947 71.4448 35.4075 71.2399 36.9196 71.0344C40.955 70.4834 44.9428 69.6765 48.7635 68.2442C49.607 67.9282 50.425 67.5415 51.2426 67.155C51.619 66.9771 51.9953 66.7992 52.374 66.6282L52.2937 66.4096H35.2716V64.1507C35.49 64.091 35.7124 64.0404 35.9349 63.9897C36.4215 63.8789 36.9083 63.7681 37.3533 63.5625C40.7772 61.9859 43.2449 59.3444 45.0013 56.0687C45.9068 54.3819 46.692 52.6283 47.4771 50.8749C47.837 50.0711 48.1969 49.2673 48.5684 48.47C50.2186 44.945 51.7343 41.3982 52.0617 37.425C52.3479 33.9263 51.9316 30.6179 50.0884 27.6134C48.3537 24.8013 45.7711 23.1044 42.6486 22.1882C42.3462 22.0727 42.0552 21.9292 41.779 21.7596Z" fill="#39398C"/>
<path d="M41.779 21.7596C46.3523 21.0008 50.4115 22.162 53.9222 25.1752C55.8543 26.8349 56.945 29.0435 57.5478 31.4576C61.0173 32.1267 63.8124 33.6683 65.2262 37.0686C66.2302 39.474 66.176 42.0018 65.5276 44.4618C65.0484 46.3304 64.395 48.1491 63.576 49.8935C61.7918 53.6225 59.9452 57.3282 58.0993 61.0328C57.3472 62.5419 56.5953 64.0509 55.8478 65.5611C55.7674 65.7232 55.692 65.887 55.6077 66.07C55.5556 66.1832 55.5001 66.3037 55.438 66.4358H59.0852C60.1521 66.4358 60.5923 66.8972 60.6031 67.9883V69.9564C60.6031 71.2684 60.2063 71.6773 58.9269 71.6773H40.0942C38.2244 71.6773 36.3558 71.668 34.4867 71.6588C33.7849 71.6553 33.0831 71.6518 32.3811 71.6489C33.8947 71.4448 35.4075 71.2399 36.9196 71.0344C40.955 70.4834 44.9428 69.6765 48.7635 68.2442C49.607 67.9282 50.425 67.5415 51.2426 67.155C51.619 66.9771 51.9953 66.7992 52.374 66.6282L52.2937 66.4096H35.2716V64.1507C35.49 64.091 35.7124 64.0404 35.9349 63.9897C36.4215 63.8789 36.9083 63.7681 37.3533 63.5625C40.7772 61.9859 43.2449 59.3444 45.0013 56.0687C45.9068 54.3819 46.692 52.6283 47.4771 50.8749C47.837 50.0711 48.1969 49.2673 48.5684 48.47C50.2186 44.945 51.7343 41.3982 52.0617 37.425C52.3479 33.9263 51.9316 30.6179 50.0884 27.6134C48.3537 24.8013 45.7711 23.1044 42.6486 22.1882C42.3462 22.0727 42.0552 21.9292 41.779 21.7596Z" stroke="black"/>
<path d="M41.7791 21.7598C42.0542 21.9323 42.3446 22.0787 42.6465 22.1971C45.769 23.1155 48.3538 24.8124 50.0885 27.6245C51.9317 30.629 52.348 33.944 52.0618 37.4361C51.7344 41.4093 50.2186 44.9561 48.5685 48.4811C48.1843 49.3026 47.8133 50.1311 47.4424 50.9594C46.6681 52.6884 45.8942 54.4166 45.0014 56.0798C43.245 59.3598 40.7773 61.997 37.3534 63.5736C36.9069 63.7792 36.4205 63.89 35.9343 64.0009C35.7121 64.0515 35.49 64.1021 35.2717 64.1618V29.5116C35.2717 28.6973 35.2655 27.8822 35.2594 27.0672C35.2559 26.6019 35.2524 26.1367 35.25 25.6717C35.6605 25.205 36.1017 24.7667 36.5706 24.3597C37.1579 23.9097 37.7734 23.498 38.3895 23.0859C38.6446 22.9153 38.8998 22.7446 39.1532 22.571L41.7791 21.7598Z" fill="#434396"/>
<path d="M41.7791 21.7598C42.0542 21.9323 42.3446 22.0787 42.6465 22.1971C45.769 23.1155 48.3538 24.8124 50.0885 27.6245C51.9317 30.629 52.348 33.944 52.0618 37.4361C51.7344 41.4093 50.2186 44.9561 48.5685 48.4811C48.1843 49.3026 47.8133 50.1311 47.4424 50.9594C46.6681 52.6884 45.8942 54.4166 45.0014 56.0798C43.245 59.3598 40.7773 61.997 37.3534 63.5736C36.9069 63.7792 36.4205 63.89 35.9343 64.0009C35.7121 64.0515 35.49 64.1021 35.2717 64.1618V29.5116C35.2717 28.6973 35.2655 27.8822 35.2594 27.0672C35.2559 26.6019 35.2524 26.1367 35.25 25.6717C35.6605 25.205 36.1017 24.7667 36.5706 24.3597C37.1579 23.9097 37.7734 23.498 38.3895 23.0859C38.6446 22.9153 38.8998 22.7446 39.1532 22.571L41.7791 21.7598Z" stroke="black"/>
<path d="M35.2651 66.4116H52.2872L52.3674 66.6303C51.9896 66.8008 51.6134 66.9784 51.2371 67.1559C50.4172 67.5428 49.5968 67.93 48.757 68.2462C44.9297 69.6785 40.9507 70.4854 36.9131 71.0364C35.401 71.2449 33.8881 71.4497 32.3746 71.6509C31.7945 71.6509 31.2139 71.658 30.6333 71.6651C30.0527 71.6722 29.4721 71.6793 28.8921 71.6793H9.10304C7.75645 71.6793 7.34879 71.2748 7.34445 69.9431C7.34445 69.7069 7.34253 69.4708 7.3406 69.2346C7.33674 68.7623 7.33289 68.29 7.34445 67.8176C7.37047 66.943 7.85186 66.4597 8.7214 66.4444C9.52164 66.4314 10.3228 66.4356 11.1622 66.4399C11.5965 66.4421 12.041 66.4444 12.501 66.4444C12.4403 66.3125 12.3867 66.1922 12.3364 66.0794C12.2592 65.9061 12.1899 65.7505 12.115 65.5982C9.47529 60.2597 6.83271 54.9184 4.18723 49.5741C2.76257 46.6833 1.85617 43.6438 2.01881 40.39C2.18577 36.8061 3.81859 34.1208 7.07123 32.5289C7.21912 32.4697 7.37235 32.425 7.52877 32.3955C7.51127 32.6072 7.49152 32.8173 7.47184 33.0266C7.43054 33.466 7.38957 33.9018 7.37047 34.3417C7.2014 37.6406 7.75442 40.9366 8.99028 43.9959C9.76518 45.9041 10.6118 47.7817 11.4587 49.6597C11.6735 50.1361 11.8883 50.6125 12.102 51.0895C14.3181 56.0226 16.5487 60.9507 18.7937 65.8737C18.8824 66.0227 19.0037 66.1493 19.1484 66.2437C19.2931 66.3381 19.4574 66.3978 19.6286 66.4182C23.4369 66.443 27.2468 66.4327 31.0556 66.4225C31.5993 66.421 32.1431 66.4195 32.6868 66.4182L35.2651 66.4116Z" fill="#434396"/>
<path d="M35.2651 66.4116H52.2872L52.3674 66.6303C51.9896 66.8008 51.6134 66.9784 51.2371 67.1559C50.4172 67.5428 49.5968 67.93 48.757 68.2462C44.9297 69.6785 40.9507 70.4854 36.9131 71.0364C35.401 71.2449 33.8881 71.4497 32.3746 71.6509C31.7945 71.6509 31.2139 71.658 30.6333 71.6651C30.0527 71.6722 29.4721 71.6793 28.8921 71.6793H9.10304C7.75645 71.6793 7.34879 71.2748 7.34445 69.9431C7.34445 69.7069 7.34253 69.4708 7.3406 69.2346C7.33674 68.7623 7.33289 68.29 7.34445 67.8176C7.37047 66.943 7.85186 66.4597 8.7214 66.4444C9.52164 66.4314 10.3228 66.4356 11.1622 66.4399C11.5965 66.4421 12.041 66.4444 12.501 66.4444C12.4403 66.3125 12.3867 66.1922 12.3364 66.0794C12.2592 65.9061 12.1899 65.7505 12.115 65.5982C9.47529 60.2597 6.83271 54.9184 4.18723 49.5741C2.76257 46.6833 1.85617 43.6438 2.01881 40.39C2.18577 36.8061 3.81859 34.1208 7.07123 32.5289C7.21912 32.4697 7.37235 32.425 7.52877 32.3955C7.51127 32.6072 7.49152 32.8173 7.47184 33.0266C7.43054 33.466 7.38957 33.9018 7.37047 34.3417C7.2014 37.6406 7.75442 40.9366 8.99028 43.9959C9.76518 45.9041 10.6118 47.7817 11.4587 49.6597C11.6735 50.1361 11.8883 50.6125 12.102 51.0895C14.3181 56.0226 16.5487 60.9507 18.7937 65.8737C18.8824 66.0227 19.0037 66.1493 19.1484 66.2437C19.2931 66.3381 19.4574 66.3978 19.6286 66.4182C23.4369 66.443 27.2468 66.4327 31.0556 66.4225C31.5993 66.421 32.1431 66.4195 32.6868 66.4182L35.2651 66.4116Z" stroke="black"/>
<path d="M32.6763 66.4125C31.2257 66.4125 29.7749 66.4152 28.324 66.4178C25.4219 66.4232 22.5195 66.4285 19.6181 66.4125C19.4469 66.3921 19.2827 66.3325 19.1379 66.2381C18.9932 66.1437 18.8719 66.0171 18.7832 65.868C16.5237 60.9523 14.2932 56.0257 12.0915 51.0882C11.8778 50.6112 11.663 50.1348 11.4482 49.6584C10.6013 47.7803 9.75469 45.9028 8.9798 43.9946C7.74763 40.9345 7.19832 37.6385 7.37083 34.3404C7.39025 33.8884 7.43232 33.4427 7.47433 32.9975C7.4933 32.7965 7.51226 32.5956 7.52913 32.3942L10.27 31.5742C10.2374 32.0488 10.1938 32.5238 10.1501 32.9989C10.0544 34.0407 9.95859 35.0826 9.97944 36.1203C10.0477 39.202 10.7391 42.2371 12.0113 45.0398C13.3706 48.0799 14.7386 51.1169 16.1066 54.1541C17.5754 57.4151 19.0444 60.6763 20.5028 63.9415C20.7196 64.4204 20.9625 64.4948 21.4374 64.4204C24.5534 63.9328 26.6113 61.9866 28.1964 59.426C30.3019 56.0214 31.3297 52.2231 32.0323 48.3199C32.1924 47.437 32.3314 46.5494 32.4703 45.662C32.5403 45.2152 32.6102 44.7686 32.6828 44.3226L32.6763 66.4125Z" fill="#39398C"/>
<path d="M32.6763 66.4125C31.2257 66.4125 29.7749 66.4152 28.324 66.4178C25.4219 66.4232 22.5195 66.4285 19.6181 66.4125C19.4469 66.3921 19.2827 66.3325 19.1379 66.2381C18.9932 66.1437 18.8719 66.0171 18.7832 65.868C16.5237 60.9523 14.2932 56.0257 12.0915 51.0882C11.8778 50.6112 11.663 50.1348 11.4482 49.6584C10.6013 47.7803 9.75469 45.9028 8.9798 43.9946C7.74763 40.9345 7.19832 37.6385 7.37083 34.3404C7.39025 33.8884 7.43232 33.4427 7.47433 32.9975C7.4933 32.7965 7.51226 32.5956 7.52913 32.3942L10.27 31.5742C10.2374 32.0488 10.1938 32.5238 10.1501 32.9989C10.0544 34.0407 9.95859 35.0826 9.97944 36.1203C10.0477 39.202 10.7391 42.2371 12.0113 45.0398C13.3706 48.0799 14.7386 51.1169 16.1066 54.1541C17.5754 57.4151 19.0444 60.6763 20.5028 63.9415C20.7196 64.4204 20.9625 64.4948 21.4374 64.4204C24.5534 63.9328 26.6113 61.9866 28.1964 59.426C30.3019 56.0214 31.3297 52.2231 32.0323 48.3199C32.1924 47.437 32.3314 46.5494 32.4703 45.662C32.5403 45.2152 32.6102 44.7686 32.6828 44.3226L32.6763 66.4125Z" stroke="black"/>
<path d="M30.2291 21.5368L32.0332 18.1671C31.5349 18.0709 31.0458 17.9755 30.5636 17.8814C29.0943 17.5949 27.6883 17.3207 26.2761 17.0737C26.0428 17.0313 25.8011 17.0334 25.5593 17.0355C25.3403 17.0374 25.1211 17.0393 24.9078 17.0081C24.6301 16.9764 24.3753 16.8377 24.1966 16.6211C24.1012 16.4593 24.1966 16.0766 24.3418 15.8929C25.6971 14.1217 27.1261 12.8009 29.9797 13.914C30.0049 13.7041 30.0185 13.4897 30.0321 13.2754C30.0632 12.7864 30.0943 12.2977 30.2616 11.8629C30.5023 11.2375 30.9902 10.6296 31.4456 10.0851C32.008 9.42901 32.6083 8.80692 33.2432 8.22203C33.5237 8.01036 33.8271 7.83137 34.1475 7.68848C34.3039 7.95502 34.4545 8.22589 34.6051 8.49681C34.9326 9.08602 35.2603 9.6754 35.648 10.2207C35.7365 10.3438 35.8264 10.4663 35.9162 10.5887C36.7834 11.771 37.6458 12.9469 37.2548 14.6093C37.5083 14.55 37.7544 14.4904 37.9959 14.4319C38.4486 14.3223 38.8851 14.2166 39.3235 14.1239C40.0001 13.9959 40.6994 14.0758 41.3304 14.3535C41.9614 14.6311 42.4952 15.0935 42.8624 15.6808C43.2332 16.2778 43.0662 16.5883 42.4287 16.7239C42.1373 16.7885 41.8402 16.8393 41.5424 16.8902C41.3968 16.9151 41.2511 16.94 41.1059 16.9666C40.826 16.9829 40.546 16.9998 40.266 17.0167C39.6069 17.0564 38.9475 17.0962 38.287 17.1284C38.1136 17.137 37.9419 17.1574 37.7705 17.1777C37.2455 17.2401 36.7238 17.3021 36.1663 17.0234C35.5461 16.7107 34.9736 17.3514 35.1254 18.0927C35.1741 18.3328 35.2586 18.5648 35.3433 18.7971C35.3982 18.9478 35.4532 19.0985 35.4984 19.2517C36.0557 21.1147 35.7694 22.8181 34.5573 24.4188L30.2291 21.5368Z" fill="#34CCA9"/>
<path d="M30.2291 21.5368L32.0332 18.1671C31.5349 18.0709 31.0458 17.9755 30.5636 17.8814C29.0943 17.5949 27.6883 17.3207 26.2761 17.0737C26.0428 17.0313 25.8011 17.0334 25.5593 17.0355C25.3403 17.0374 25.1211 17.0393 24.9078 17.0081C24.6301 16.9764 24.3753 16.8377 24.1966 16.6211C24.1012 16.4593 24.1966 16.0766 24.3418 15.8929C25.6971 14.1217 27.1261 12.8009 29.9797 13.914C30.0049 13.7041 30.0185 13.4897 30.0321 13.2754C30.0632 12.7864 30.0943 12.2977 30.2616 11.8629C30.5023 11.2375 30.9902 10.6296 31.4456 10.0851C32.008 9.42901 32.6083 8.80692 33.2432 8.22203C33.5237 8.01036 33.8271 7.83137 34.1475 7.68848C34.3039 7.95502 34.4545 8.22589 34.6051 8.49681C34.9326 9.08602 35.2603 9.6754 35.648 10.2207C35.7365 10.3438 35.8264 10.4663 35.9162 10.5887C36.7834 11.771 37.6458 12.9469 37.2548 14.6093C37.5083 14.55 37.7544 14.4904 37.9959 14.4319C38.4486 14.3223 38.8851 14.2166 39.3235 14.1239C40.0001 13.9959 40.6994 14.0758 41.3304 14.3535C41.9614 14.6311 42.4952 15.0935 42.8624 15.6808C43.2332 16.2778 43.0662 16.5883 42.4287 16.7239C42.1373 16.7885 41.8402 16.8393 41.5424 16.8902C41.3968 16.9151 41.2511 16.94 41.1059 16.9666C40.826 16.9829 40.546 16.9998 40.266 17.0167C39.6069 17.0564 38.9475 17.0962 38.287 17.1284C38.1136 17.137 37.9419 17.1574 37.7705 17.1777C37.2455 17.2401 36.7238 17.3021 36.1663 17.0234C35.5461 16.7107 34.9736 17.3514 35.1254 18.0927C35.1741 18.3328 35.2586 18.5648 35.3433 18.7971C35.3982 18.9478 35.4532 19.0985 35.4984 19.2517C36.0557 21.1147 35.7694 22.8181 34.5573 24.4188L30.2291 21.5368Z" stroke="black"/>
<path d="M30.2304 21.5371L34.5673 24.4258C35.7794 22.8251 36.0657 21.1217 35.5084 19.2586C35.4632 19.1055 35.4082 18.9547 35.3533 18.804C35.2686 18.5718 35.1841 18.3397 35.1354 18.0997C34.9836 17.3584 35.5561 16.7177 36.1762 17.0304C36.7337 17.309 37.2555 17.247 37.7805 17.1847C37.9519 17.1643 38.1236 17.144 38.297 17.1353C38.9503 17.1034 39.6037 17.064 40.2578 17.0246C40.5437 17.0074 40.8297 16.9902 41.1159 16.9735V17.1266L36.0331 18.1828L36.0335 18.1837C36.6839 19.8147 37.3822 21.5658 39.1535 22.5758C38.9085 22.7432 38.6621 22.908 38.4159 23.0726C37.7906 23.4908 37.1668 23.9079 36.5709 24.3645C36.102 24.7715 35.6608 25.2098 35.2503 25.6765L33.9731 27.0542L32.6981 25.6765C32.3812 25.4136 32.0649 25.1505 31.749 24.8877C31.0531 24.3088 30.3587 23.7311 29.6623 23.1597C29.4669 22.9995 29.2506 22.8651 29.0329 22.7299C28.9534 22.6805 28.8738 22.6311 28.7949 22.5802L30.2304 21.5371Z" fill="#20B895"/>
<path d="M30.2304 21.5371L34.5673 24.4258C35.7794 22.8251 36.0657 21.1217 35.5084 19.2586C35.4632 19.1055 35.4082 18.9547 35.3533 18.804C35.2686 18.5718 35.1841 18.3397 35.1354 18.0997C34.9836 17.3584 35.5561 16.7177 36.1762 17.0304C36.7337 17.309 37.2555 17.247 37.7805 17.1847C37.9519 17.1643 38.1236 17.144 38.297 17.1353C38.9503 17.1034 39.6037 17.064 40.2578 17.0246C40.5437 17.0074 40.8297 16.9902 41.1159 16.9735V17.1266L36.0331 18.1828L36.0335 18.1837C36.6839 19.8147 37.3822 21.5658 39.1535 22.5758C38.9085 22.7432 38.6621 22.908 38.4159 23.0726C37.7906 23.4908 37.1668 23.9079 36.5709 24.3645C36.102 24.7715 35.6608 25.2098 35.2503 25.6765L33.9731 27.0542L32.6981 25.6765C32.3812 25.4136 32.0649 25.1505 31.749 24.8877C31.0531 24.3088 30.3587 23.7311 29.6623 23.1597C29.4669 22.9995 29.2506 22.8651 29.0329 22.7299C28.9534 22.6805 28.8738 22.6311 28.7949 22.5802L30.2304 21.5371Z" stroke="black"/>
<path d="M41.1128 17.1262V16.9731C41.2678 16.9442 41.4251 16.9172 41.5832 16.8901C41.8673 16.8414 42.1541 16.7922 42.4355 16.7304C43.0665 16.5948 43.2335 16.293 42.8692 15.6873C42.504 15.0973 41.9712 14.6317 41.34 14.3513C40.7088 14.0709 40.0085 13.9886 39.3303 14.1151C38.8919 14.2078 38.4554 14.3135 38.0027 14.4231C37.7612 14.4816 37.5151 14.5412 37.2617 14.6005C37.6506 12.9553 36.8083 11.799 35.9501 10.6205C35.8513 10.4849 35.7522 10.3489 35.6548 10.2119C35.2671 9.66661 34.9395 9.07724 34.6119 8.48802C34.4613 8.21711 34.3107 7.94623 34.1543 7.67969C34.2012 7.72224 34.2481 7.76418 34.2947 7.8059C34.4638 7.95715 34.6297 8.10556 34.781 8.27009C34.9176 8.41822 35.0442 8.58039 35.1707 8.74234C35.4177 9.05853 35.6639 9.37387 35.9823 9.5821C37.524 10.5814 38.0444 12.0137 37.923 13.7171C38.1945 13.6966 38.4639 13.6634 38.7308 13.6305C39.3166 13.5584 39.8906 13.4877 40.4492 13.5553C41.9866 13.7434 42.9473 14.8433 43.7387 16.0831C44.0206 16.5205 43.8406 16.925 43.3441 16.995C42.8321 17.0646 42.3118 17.0818 41.7961 17.0989C41.567 17.1065 41.3389 17.1141 41.1128 17.1262Z" fill="#20B895"/>
<path d="M41.1128 17.1262V16.9731C41.2678 16.9442 41.4251 16.9172 41.5832 16.8901C41.8673 16.8414 42.1541 16.7922 42.4355 16.7304C43.0665 16.5948 43.2335 16.293 42.8692 15.6873C42.504 15.0973 41.9712 14.6317 41.34 14.3513C40.7088 14.0709 40.0085 13.9886 39.3303 14.1151C38.8919 14.2078 38.4554 14.3135 38.0027 14.4231C37.7612 14.4816 37.5151 14.5412 37.2617 14.6005C37.6506 12.9553 36.8083 11.799 35.9501 10.6205C35.8513 10.4849 35.7522 10.3489 35.6548 10.2119C35.2671 9.66661 34.9395 9.07724 34.6119 8.48802C34.4613 8.21711 34.3107 7.94623 34.1543 7.67969C34.2012 7.72224 34.2481 7.76418 34.2947 7.8059C34.4638 7.95715 34.6297 8.10556 34.781 8.27009C34.9176 8.41822 35.0442 8.58039 35.1707 8.74234C35.4177 9.05853 35.6639 9.37387 35.9823 9.5821C37.524 10.5814 38.0444 12.0137 37.923 13.7171C38.1945 13.6966 38.4639 13.6634 38.7308 13.6305C39.3166 13.5584 39.8906 13.4877 40.4492 13.5553C41.9866 13.7434 42.9473 14.8433 43.7387 16.0831C44.0206 16.5205 43.8406 16.925 43.3441 16.995C42.8321 17.0646 42.3118 17.0818 41.7961 17.0989C41.567 17.1065 41.3389 17.1141 41.1128 17.1262Z" stroke="black"/>
<path d="M32.6966 25.6719L33.9716 27.0495L35.2488 25.6719C35.2488 26.3115 35.2542 26.9516 35.2597 27.5918C35.2651 28.2319 35.2705 28.8721 35.2705 29.5117V64.1619V66.4207H32.6771L32.6641 44.3265L32.6966 25.6719Z" fill="#2F2F82"/>
<path d="M32.6966 25.6719L33.9716 27.0495L35.2488 25.6719C35.2488 26.3115 35.2542 26.9516 35.2597 27.5918C35.2651 28.2319 35.2705 28.8721 35.2705 29.5117V64.1619V66.4207H32.6771L32.6641 44.3265L32.6966 25.6719Z" stroke="black"/>
</g>
<defs>
<filter id="filter0_d_2806_17756" x="0" y="0.679688" width="84" height="83.9995" filterUnits="userSpaceOnUse" color-interpolation-filters="sRGB">
<feFlood flood-opacity="0" result="BackgroundImageFix"/>
<feColorMatrix in="SourceAlpha" type="matrix" values="0 0 0 0 0 0 0 0 0 0 0 0 0 0 0 0 0 0 127 0" result="hardAlpha"/>
<feOffset dx="8" dy="3"/>
<feGaussianBlur stdDeviation="5"/>
<feComposite in2="hardAlpha" operator="out"/>
<feColorMatrix type="matrix" values="0 0 0 0 0.235294 0 0 0 0 0.160784 0 0 0 0 0.631373 0 0 0 0.08 0"/>
<feBlend mode="normal" in2="BackgroundImageFix" result="effect1_dropShadow_2806_17756"/>
<feBlend mode="normal" in="SourceGraphic" in2="effect1_dropShadow_2806_17756" result="shape"/>
</filter>
</defs>
</svg>
