<svg width="85" height="85" viewBox="0 0 85 85" fill="none" xmlns="http://www.w3.org/2000/svg">
<g filter="url(#filter0_d_2806_17847)">
<path d="M7.34961 58.4305V34.1017H17.23V45.1929L21.0118 41.7371L24.5696 44.9461V34.0954H20.8956C20.8956 26.2825 20.8956 18.4695 20.8956 10.6566C20.8956 9.73635 20.8956 9.73635 21.9209 9.73635H30.7732V18.4419L31.0127 18.5451L34.5886 15.2114C35.7848 16.2979 36.9516 17.3579 38.1716 18.4683V9.73257C41.2092 9.73257 44.2477 9.73257 47.2872 9.73257C47.65 9.73257 47.9876 9.71243 48.0548 10.143C47.9717 10.3948 47.89 10.6466 47.8097 10.8983C47.4231 13.2425 46.818 15.54 45.8585 17.7482C44.7302 20.358 43.189 22.8079 41.2825 25.0223C38.5944 28.1797 35.2223 30.8148 31.3699 32.7685C30.5197 33.1978 29.654 33.6031 28.7954 34.0199L28.8375 34.1092H44.3192C44.3152 34.1481 44.319 34.1874 44.3304 34.2251C44.3304 37.7786 44.3304 41.333 44.3304 44.8882L44.3668 45.0506L44.5895 44.8907L48.1612 41.7711L51.7162 45.0355V34.1029H61.4173C61.4752 34.3102 61.534 34.5201 61.5938 34.7324C61.5107 35.0228 61.429 35.3145 61.3486 35.6074C61.2996 35.8088 61.2562 36.0127 61.2002 36.2129C60.6749 38.1189 60.3303 40.0854 59.581 41.9184C57.9215 45.9856 55.2009 49.6357 51.6475 52.5626C49.3618 54.4891 46.7697 56.0988 43.9564 57.339C43.1062 57.7167 42.2476 58.0642 41.3917 58.4255L34.5172 58.4078C34.5172 50.6428 34.5172 42.8794 34.5172 35.1176V34.4882L34.408 34.4731L34.2679 35.1139C34.2189 35.3367 34.167 35.5595 34.1208 35.7836C33.5101 38.7446 32.5268 41.5974 30.9623 44.265C29.0742 47.4829 26.679 50.3532 23.6311 52.7767C21.45 54.5306 19.0276 56.0258 16.4232 57.2257C15.4974 57.6475 14.5491 58.0314 13.6121 58.433L7.34961 58.4305ZM23.3538 48.5177C21.7598 48.5177 20.2373 48.5101 18.7147 48.529C18.6365 48.546 18.5644 48.5805 18.5051 48.6294C18.4458 48.6783 18.4013 48.7399 18.3758 48.8085C18.3435 49.4027 18.3604 49.9995 18.3604 50.6063H23.3538V48.5177ZM36.8507 24.0416V21.9618H32.0884V24.0416H36.8507ZM45.6134 50.6151H50.3897V48.5618H45.6134V50.6151Z" fill="#434396"/>
<path d="M7.34941 58.431H13.6203C20.1923 58.431 26.7642 58.4339 33.3362 58.4398C33.7312 58.4398 34.1248 58.4222 34.5184 58.4121L41.393 58.4297C43.973 58.4297 46.5531 58.4423 49.1331 58.4398C53.2483 58.4398 57.3626 58.4335 61.4759 58.4209L61.616 58.4322H66.4973C66.4973 59.8599 66.5114 61.2258 66.4749 62.5867C66.4749 62.7126 66.1528 62.9203 65.9665 62.9329C65.3208 62.9795 64.6695 62.9568 64.021 62.9606C63.8097 62.8987 63.5919 62.8565 63.371 62.8347C61.9451 62.8247 60.5192 62.8347 59.0934 62.8347H9.85383C8.42794 62.8347 7.00344 62.8247 5.57755 62.8347C5.35715 62.8566 5.13984 62.8988 4.92904 62.9606H2.50586V58.4285L7.34941 58.431Z" fill="#434396"/>
<path d="M64.0333 67.332H66.4481V71.6804H2.5V67.332H4.66965H4.9596H64.0333Z" fill="#434396"/>
<path d="M44.3187 34.1035H28.8369L28.7949 34.0141C29.6535 33.5974 30.5192 33.192 31.3694 32.7627C35.2218 30.809 38.5939 28.1739 41.282 25.0165C43.1885 22.8022 44.7297 20.3523 45.858 17.7424C46.8175 15.5343 47.4226 13.2367 47.8092 10.8926H48.0445C48.0501 15.1553 48.0557 19.4181 48.0613 23.6808C48.0613 27.1504 48.0571 30.6192 48.0487 34.0871L44.4503 34.106C44.4084 34.09 44.3613 34.0891 44.3187 34.1035Z" fill="#39398C"/>
<path d="M61.4755 58.4167C57.3613 58.4243 53.247 58.4306 49.1327 58.4356C46.5527 58.4356 43.9726 58.4293 41.3926 58.4255C42.2484 58.0642 43.107 57.7105 43.9572 57.3391C46.7705 56.0989 49.3626 54.4891 51.6484 52.5627C55.2017 49.6358 57.9223 45.9856 59.5818 41.9184C60.3312 40.0854 60.6757 38.119 61.201 36.213C61.257 36.0128 61.3005 35.8089 61.3495 35.6074H61.5806C61.5871 40.3737 61.5932 45.14 61.5988 49.9063C61.5988 52.7075 61.5876 55.5086 61.5806 58.3097L61.4755 58.4167Z" fill="#39398C"/>
<path d="M20.8952 34.0957H24.572V44.9489L21.0143 41.7399L17.2324 45.1957V34.1045L20.8952 34.0957Z" fill="#20B895"/>
<path d="M44.4501 34.1078L48.0485 34.0889L51.7168 34.104V45.0302L48.1619 41.7658L44.5902 44.8855H44.3311C44.3311 41.3311 44.3311 37.7767 44.3311 34.2223C44.3703 34.182 44.4095 34.1443 44.4501 34.1078Z" fill="#20B895"/>
<path d="M38.1714 9.733V18.4687C36.9514 17.3583 35.7903 16.2983 34.5885 15.2119L31.0139 18.5417L30.7744 18.4385V7.67969H38.1714V9.733Z" fill="#20B895"/>
<path d="M9.85078 67.332H4.9596L4.90918 67.2061C4.91572 65.7936 4.92225 64.3806 4.92879 62.9673C5.1396 62.9055 5.35691 62.8633 5.5773 62.8414C7.0032 62.8313 8.42769 62.8414 9.85358 62.8414C9.85265 64.3378 9.85171 65.8347 9.85078 67.332Z" fill="#34CCA9"/>
<path d="M64.0333 67.332H59.0959C59.0959 65.8347 59.0959 64.3378 59.0959 62.8414C60.5218 62.8414 61.9477 62.8313 63.3736 62.8414C63.5945 62.8632 63.8123 62.9054 64.0235 62.9673L64.0333 67.332Z" fill="#34CCA9"/>
<path d="M61.5807 35.6064H61.344C61.4252 35.3143 61.5069 35.0227 61.5891 34.7314L61.5807 35.6064Z" fill="#9E805A"/>
<path d="M48.0449 10.894H47.8096C47.8908 10.6422 47.9725 10.3905 48.0547 10.1387C48.051 10.3921 48.0477 10.6439 48.0449 10.894Z" fill="#A88B65"/>
<path d="M4.90944 67.2061L4.95986 67.3319H4.66992L4.90944 67.2061Z" fill="#EBDECA"/>
<path d="M61.4756 58.4169L61.5862 58.3086C61.6091 58.345 61.6198 58.3865 61.6171 58.4282L61.4756 58.4169Z" fill="#9E805A"/>
<path d="M34.5183 58.4077C34.1247 58.4178 33.7311 58.4354 33.3361 58.4354C26.7641 58.4354 20.1921 58.4325 13.6201 58.4266C14.5572 58.025 15.5054 57.641 16.4313 57.2193C19.0357 56.0194 21.4581 54.5242 23.6392 52.7702C26.6871 50.3468 29.0822 47.4764 30.9703 44.2586C32.5349 41.5909 33.5182 38.7382 34.1289 35.7772C34.1751 35.5531 34.2269 35.3303 34.276 35.1074H34.5197C34.5197 42.8759 34.5192 50.6426 34.5183 58.4077Z" fill="#39398C"/>
<path d="M23.3533 48.5181V50.6067H18.3599C18.3599 49.9999 18.343 49.4031 18.3753 48.8089C18.4008 48.7403 18.4453 48.6787 18.5046 48.6298C18.5639 48.5809 18.636 48.5464 18.7142 48.5294C20.2368 48.5105 21.7593 48.5181 23.3533 48.5181Z" fill="#39398C"/>
<path d="M36.8502 24.0417H32.0879V21.9619H36.8502V24.0417Z" fill="#39398C"/>
<path d="M45.6135 50.6148V48.5615H50.3898V50.6148H45.6135Z" fill="#39398C"/>
<path d="M34.5201 35.1135H34.2764C34.3212 34.8994 34.366 34.6867 34.4164 34.4727L34.5243 34.484L34.5201 35.1135Z" fill="#A48357"/>
<path d="M44.3311 44.8818H44.5902L44.3675 45.048L44.3311 44.8818Z" fill="#E3D0B4"/>
<path d="M44.4506 34.1071C44.41 34.1436 44.3708 34.1814 44.3301 34.2191C44.3187 34.1814 44.3149 34.1422 44.3189 34.1033C44.3617 34.0894 44.4089 34.0907 44.4506 34.1071Z" fill="#E3D0B4"/>
<path d="M36.9416 62.8398V67.3317H32.0098V62.8398H36.9416Z" fill="#34CCA9"/>
</g>
<defs>
<filter id="filter0_d_2806_17847" x="0.5" y="0.679688" width="84" height="84.001" filterUnits="userSpaceOnUse" color-interpolation-filters="sRGB">
<feFlood flood-opacity="0" result="BackgroundImageFix"/>
<feColorMatrix in="SourceAlpha" type="matrix" values="0 0 0 0 0 0 0 0 0 0 0 0 0 0 0 0 0 0 127 0" result="hardAlpha"/>
<feOffset dx="8" dy="3"/>
<feGaussianBlur stdDeviation="5"/>
<feComposite in2="hardAlpha" operator="out"/>
<feColorMatrix type="matrix" values="0 0 0 0 0.235294 0 0 0 0 0.160784 0 0 0 0 0.631373 0 0 0 0.08 0"/>
<feBlend mode="normal" in2="BackgroundImageFix" result="effect1_dropShadow_2806_17847"/>
<feBlend mode="normal" in="SourceGraphic" in2="effect1_dropShadow_2806_17847" result="shape"/>
</filter>
</defs>
</svg>
