<svg width="68" height="69" viewBox="0 0 68 69" fill="none" xmlns="http://www.w3.org/2000/svg">
<g filter="url(#filter0_d_2828_11670)">
<path d="M42.1412 55.9741H9.84064L9.53495 55.8625C7.9668 55.0872 7.37887 53.9641 7.82618 52.5991C11.3925 52.5991 14.9588 52.6131 18.5251 52.5906C19.6591 52.5878 20.792 52.5252 21.9182 52.4031C25.3154 52.0188 28.2193 50.6397 30.7137 48.521C32.3132 47.1593 33.5879 45.5069 34.4573 43.6685C35.3002 41.9095 35.7712 40.0189 35.8451 38.0978C35.947 35.6866 35.2338 33.4047 34.7243 31.0872C34.6621 30.806 34.4706 30.7544 34.2087 30.7553C33.3599 30.7553 32.5111 30.7553 31.6613 30.7553C31.6613 30.2397 31.6664 29.7241 31.6501 29.2103C31.5982 27.5557 30.246 26.0416 28.4557 25.8935C26.8358 25.7625 25.2066 25.76 23.5862 25.886C21.8744 26.0172 20.5385 27.3672 20.3643 28.93C20.297 29.5328 20.3388 30.1488 20.3307 30.7544H16.8978C16.8978 30.2538 16.8856 29.7541 16.8978 29.2544C16.9814 26.0407 19.5206 23.3303 22.985 22.9844C24.8612 22.8122 26.7501 22.7928 28.63 22.9263C32.0261 23.1419 34.6631 25.5588 35.0269 28.63C35.1094 29.3228 35.1013 30.0241 35.137 30.7713H36.5187C38.2091 30.7713 39.2515 31.5691 39.604 33.0766C41.1141 39.5278 42.6299 45.9781 44.1516 52.4275C44.5439 54.0878 44.0711 55.0731 42.4489 55.8625L42.1412 55.9741Z" fill="#20B895"/>
<path d="M6.88569 7.97461H21.9661C21.8784 8.57367 21.803 9.17367 21.7032 9.77086C21.3873 11.6712 21.0623 13.5715 20.7413 15.4718L20.6333 15.4859C20.6039 15.4821 20.574 15.4821 20.5446 15.4859H2.06812C2.11841 15.3716 2.17521 15.2599 2.23828 15.1512C3.7864 12.7555 5.33553 10.3634 6.88569 7.97461Z" fill="#434396"/>
<path d="M30.5251 7.97461H45.198C45.2693 8.11336 45.3294 8.25586 45.414 8.38992C46.9254 10.7468 48.4382 13.103 49.9523 15.4587C49.6304 15.4587 49.3084 15.4699 48.9854 15.4709L32.1555 15.4849C32.126 15.4812 32.0962 15.4812 32.0668 15.4849L31.9588 15.4709C31.4785 12.9721 31.0007 10.4734 30.5251 7.97461Z" fill="#434396"/>
<path d="M30.525 7.97461C31.0005 10.4746 31.476 12.9746 31.9515 15.4746C31.7324 15.4849 31.5133 15.5037 31.2943 15.5037C27.9949 15.5037 24.6956 15.5037 21.3962 15.5037C21.1772 15.5037 20.9581 15.4849 20.739 15.4746C21.06 13.5743 21.385 11.674 21.7009 9.77367C21.8028 9.17648 21.8762 8.57648 21.9638 7.97742L30.525 7.97461Z" fill="#39398C"/>
<path d="M20.743 15.4713C20.9621 15.4816 21.1812 15.5003 21.4003 15.5003C24.6996 15.5003 27.9989 15.5003 31.2983 15.5003C31.5174 15.5003 31.7364 15.4816 31.9555 15.4713L32.0635 15.4853H32.1522L48.9882 15.4731C49.3112 15.4731 49.6332 15.4647 49.9552 15.4609C49.9705 15.6625 50 15.8641 50 16.0656C50 28.8412 50 41.6169 50 54.3925C50 55.5316 49.623 55.8841 48.4003 55.8822C46.414 55.8784 44.4281 55.8725 42.4425 55.8644C44.0646 55.075 44.5374 54.0897 44.1451 52.4294C42.6228 45.9806 41.107 39.5303 39.5976 33.0784C39.245 31.5709 38.2027 30.7759 36.5122 30.7731H35.1326C35.0969 30.0231 35.1051 29.3247 35.0225 28.6319C34.6588 25.5606 32.0217 23.1437 28.6256 22.9281C26.7472 22.7942 24.8596 22.813 22.9847 22.9844C19.5203 23.3312 16.9852 26.0416 16.8996 29.2609C16.8863 29.7606 16.8996 30.2603 16.8996 30.7609C16.3402 30.7722 15.7787 30.7787 15.2224 30.7966C13.7663 30.8425 12.7056 31.6131 12.4101 32.8816C10.8797 39.4534 9.35463 46.0262 7.83504 52.6C7.38773 53.965 7.97566 55.0881 9.54381 55.8634C7.43867 55.8691 5.33353 55.8841 3.22636 55.8737C2.50494 55.8737 2.03623 55.405 2.00362 54.7375C1.99547 54.5969 2.00362 54.4562 2.00362 54.3156C2.00362 41.5831 2.00362 28.8512 2.00362 16.12C2.01512 15.9052 2.03927 15.6911 2.07597 15.4788H20.5525H20.6411L20.743 15.4713Z" fill="#39398C"/>
<path d="M7.83008 52.5988C9.35442 46.0257 10.8794 39.4529 12.4051 32.8804C12.7006 31.612 13.7614 30.8413 15.2174 30.7954C15.7768 30.7776 16.3383 30.771 16.8946 30.7598H20.3274H31.6581C32.5069 30.7598 33.3557 30.7598 34.2055 30.7598C34.4673 30.7598 34.6589 30.8085 34.7211 31.0916C35.2356 33.4091 35.9489 35.691 35.8419 38.1023C35.768 40.0234 35.297 41.9139 34.4541 43.6729C33.5847 45.5113 32.3099 47.1637 30.7105 48.5254C28.2161 50.6441 25.3101 52.0232 21.915 52.4076C20.7887 52.5296 19.6559 52.5922 18.5219 52.5951C14.9596 52.6091 11.3954 52.5988 7.83008 52.5988ZM28.1815 43.357C28.1815 42.7007 28.1601 42.0445 28.1866 41.3882C28.2141 40.7048 28.5687 40.3195 29.231 40.1751C30.2295 39.9576 30.9204 40.3523 31.1293 41.3001C31.2251 41.7341 31.5369 41.8045 31.9149 41.782C32.2929 41.7595 32.5364 41.5382 32.458 41.1885C32.3642 40.7723 32.2735 40.312 32.0178 39.9763C31.3565 39.1082 29.7863 38.8026 28.478 39.201C27.4254 39.5226 26.8599 40.297 26.8477 41.4904C26.8354 42.6838 26.8334 43.8632 26.8477 45.0529C26.8629 46.6363 27.617 47.4463 29.3206 47.5841C30.8216 47.7079 32.1625 47.1848 32.405 45.7091C32.5252 44.976 32.4702 44.2157 32.4671 43.4676C32.4671 43.1451 32.191 43.0644 31.8955 43.0616C31.2842 43.0616 30.6728 43.0616 30.0614 43.0616C29.7017 43.0616 29.4551 43.2144 29.4551 43.5557C29.4551 43.9148 29.6926 44.0638 30.0869 44.0732C31.2077 44.1004 31.2077 44.1098 31.1405 45.1551C31.1379 45.2333 31.1298 45.3113 31.116 45.3885C30.9622 46.1666 30.4028 46.5529 29.5153 46.5032C28.7001 46.4582 28.2232 46.0223 28.1906 45.2329C28.158 44.6066 28.1815 43.9841 28.1815 43.357ZM22.4377 43.776C23.262 44.9263 24.0445 46.0204 24.8302 47.1135C25.1572 47.5682 25.5312 47.6695 25.9225 47.4191C26.3137 47.1688 26.3249 46.9504 25.9785 46.4638C25.1695 45.3276 24.3645 44.1885 23.5422 43.0607C23.3608 42.8123 23.3619 42.6313 23.5707 42.3988C24.23 41.6648 24.8699 40.9157 25.5159 40.1723C25.895 39.7363 25.895 39.4954 25.5159 39.2198C25.1369 38.9441 24.8566 38.9985 24.5041 39.427C23.6733 40.4351 22.8439 41.4435 22.0158 42.4523C21.9139 42.5769 21.7937 42.6895 21.6816 42.8076C21.6035 42.6483 21.5685 42.4739 21.5797 42.2995C21.5797 41.4088 21.5655 40.5182 21.5858 39.6295C21.596 39.1785 21.3219 39.0501 20.9184 39.0557C20.5149 39.0613 20.2194 39.1888 20.2439 39.6351C20.2581 39.8844 20.2439 40.1348 20.2439 40.3851C20.2439 42.4938 20.2439 44.6016 20.2439 46.7085C20.2439 47.3216 20.4161 47.526 20.9286 47.5288C21.4411 47.5316 21.5767 47.3535 21.5777 46.6973C21.5777 46.2913 21.6317 45.8779 21.5665 45.4785C21.4473 44.7398 21.9078 44.287 22.4367 43.776H22.4377Z" fill="#34CCA9"/>
<path d="M31.6576 30.7599H20.327C20.3351 30.1514 20.2934 29.5411 20.3606 28.9355C20.5348 27.3727 21.8707 26.0227 23.5825 25.8914C25.2029 25.7655 26.8321 25.768 28.452 25.8989C30.2423 26.0471 31.5945 27.5611 31.6464 29.2158C31.6627 29.7296 31.6546 30.2443 31.6576 30.7599Z" fill="#434396"/>
<path d="M20.635 15.4855H20.5464C20.5758 15.4814 20.6056 15.4814 20.635 15.4855Z" fill="#FEDA93"/>
<path d="M32.1555 15.4855H32.0669C32.0963 15.4814 32.1261 15.4814 32.1555 15.4855Z" fill="#FEDA93"/>
<path d="M28.1813 43.3588C28.1813 43.9832 28.1599 44.6085 28.1813 45.2338C28.2139 46.0232 28.6907 46.4591 29.5059 46.5041C30.3975 46.5538 30.9528 46.1675 31.1066 45.3894C31.1204 45.3122 31.1286 45.2342 31.1311 45.156C31.1943 44.1107 31.1943 44.1013 30.0775 44.0741C29.6832 44.0647 29.4458 43.9157 29.4458 43.5566C29.4458 43.2154 29.6924 43.0635 30.052 43.0626C30.6634 43.0626 31.2748 43.0626 31.8861 43.0626C32.1816 43.0626 32.4567 43.146 32.4578 43.4685C32.4578 44.2185 32.5158 44.9769 32.3956 45.7101C32.1531 47.1876 30.8122 47.7107 29.3113 47.5851C27.6076 47.4454 26.8536 46.6354 26.8383 45.0538C26.8271 43.8669 26.825 42.6801 26.8383 41.4913C26.8515 40.3026 27.4201 39.5226 28.4686 39.2019C29.7769 38.8035 31.3471 39.1082 32.0084 39.9772C32.2642 40.3129 32.3549 40.7732 32.4486 41.1894C32.5271 41.5391 32.2907 41.7604 31.9055 41.7829C31.5203 41.8054 31.2157 41.7351 31.1199 41.301C30.911 40.3541 30.2202 39.9594 29.2216 40.176C28.5593 40.3204 28.2027 40.7057 28.1772 41.3891C28.1588 42.0463 28.1813 42.7035 28.1813 43.3588Z" fill="#434396"/>
<path d="M22.4372 43.7771C21.9084 44.288 21.4478 44.7408 21.5691 45.4815C21.6343 45.878 21.5813 46.2915 21.5803 46.7002C21.5803 47.3565 21.4407 47.5336 20.9312 47.5318C20.4218 47.5299 20.2465 47.3246 20.2465 46.7115C20.2465 44.604 20.2465 42.4961 20.2465 40.388C20.2465 40.1386 20.2587 39.8883 20.2465 39.638C20.2221 39.1918 20.5226 39.0633 20.9211 39.0587C21.3195 39.054 21.5986 39.1815 21.5885 39.6324C21.5681 40.5221 21.5823 41.4136 21.5823 42.3024C21.5711 42.4769 21.6061 42.6512 21.6842 42.8105C21.7963 42.6924 21.9155 42.5799 22.0185 42.4552C22.8499 41.4483 23.6793 40.4399 24.5067 39.4299C24.8593 39.0015 25.1395 38.9462 25.5185 39.2227C25.8976 39.4993 25.8966 39.7393 25.5185 40.1752C24.8725 40.9186 24.2326 41.6677 23.5734 42.4018C23.3645 42.6343 23.3635 42.8152 23.5448 43.0636C24.3671 44.1886 25.1751 45.3305 25.9811 46.4668C26.3276 46.9533 26.3133 47.1736 25.9251 47.4221C25.5369 47.6705 25.1599 47.5711 24.8328 47.1165C24.0441 46.0215 23.2616 44.9274 22.4372 43.7771Z" fill="#434396"/>
</g>
<defs>
<filter id="filter0_d_2828_11670" x="0" y="0.974609" width="68" height="67.999" filterUnits="userSpaceOnUse" color-interpolation-filters="sRGB">
<feFlood flood-opacity="0" result="BackgroundImageFix"/>
<feColorMatrix in="SourceAlpha" type="matrix" values="0 0 0 0 0 0 0 0 0 0 0 0 0 0 0 0 0 0 127 0" result="hardAlpha"/>
<feOffset dx="8" dy="3"/>
<feGaussianBlur stdDeviation="5"/>
<feComposite in2="hardAlpha" operator="out"/>
<feColorMatrix type="matrix" values="0 0 0 0 0.235294 0 0 0 0 0.160784 0 0 0 0 0.631373 0 0 0 0.08 0"/>
<feBlend mode="normal" in2="BackgroundImageFix" result="effect1_dropShadow_2828_11670"/>
<feBlend mode="normal" in="SourceGraphic" in2="effect1_dropShadow_2828_11670" result="shape"/>
</filter>
</defs>
</svg>
