<svg width="84" height="85" viewBox="0 0 84 85" fill="none" xmlns="http://www.w3.org/2000/svg">
<g filter="url(#filter0_d_2806_17774)">
<path d="M31.3819 7.67969H36.5093C36.6298 7.73595 36.7567 7.77763 36.8871 7.80384C39.2108 7.98308 41.5032 8.44999 43.7119 9.19388C56.042 13.5799 63.3958 22.2063 65.6627 35.1242C65.7976 35.8908 65.8894 36.6627 66 37.4347V42.061C65.9568 42.2283 65.9002 42.393 65.8732 42.563C65.7139 43.5698 65.5628 44.5765 65.409 45.5833C65.1904 45.3917 64.961 45.2135 64.7559 45.0084L55.4753 35.7342C55.2864 35.5426 55.0759 35.3726 54.8735 35.1944C54.6036 35.1944 54.3338 35.1728 54.0639 35.1728H38.4874V18.8567H29.4631V35.1809H13.2173C13.1873 35.2352 13.1646 35.2933 13.1499 35.3537C13.1499 38.1859 13.1499 41.0182 13.1499 43.8505C13.1499 43.9746 13.2902 44.0961 13.3658 44.2176C13.4621 44.4318 13.5835 44.6338 13.7274 44.8195C18.7774 49.883 23.832 54.9402 28.891 59.9912C29.0762 60.1548 29.2719 60.3062 29.4766 60.4446L29.6251 60.5769C29.7905 60.8139 29.9707 61.0402 30.1648 61.2543C33.2232 64.3133 36.2817 67.3723 39.3402 70.4313C39.5452 70.6365 39.7261 70.8659 39.915 71.0845C39.8623 71.1154 39.8061 71.1398 39.7477 71.1574C35.5581 71.927 31.2565 71.8453 27.0991 70.9172C9.82785 67.0412 -1.07195 49.9586 2.77091 32.776C4.17346 26.4328 7.47325 20.6668 12.2316 16.2446C16.9899 11.8225 22.9813 8.95374 29.4092 8.01977C30.0622 7.9226 30.7207 7.79305 31.3819 7.67969Z" fill="#434396"/>
<path d="M13.3624 44.2173C13.2868 44.0958 13.1465 43.9744 13.1465 43.8502C13.1465 41.0198 13.1465 38.1875 13.1465 35.3534C13.1612 35.2931 13.1839 35.235 13.214 35.1807H29.4598V18.8564H38.484V35.1699H54.0659C54.3358 35.1699 54.6057 35.1834 54.8755 35.1915V44.2173H38.5029V60.5766H29.6217L29.4732 60.4444C29.4732 55.1163 29.4777 49.7883 29.4867 44.4602C29.4772 44.387 29.4581 44.3153 29.4301 44.247C29.382 44.2287 29.3323 44.2151 29.2816 44.2065L13.3624 44.2173Z" fill="#20B895"/>
<path d="M29.623 60.5765H38.5043V44.2172H54.8796V35.1914C55.082 35.3722 55.2925 35.5423 55.4814 35.7312L64.762 45.0081C64.9671 45.2132 65.1965 45.3913 65.4151 45.583C65.0157 47.1647 64.7539 48.7976 64.1926 50.3199C60.9407 59.1622 54.9956 65.5159 46.3141 69.2137C44.4764 69.9964 42.4983 70.4445 40.5795 71.0329C40.3575 71.0784 40.1315 71.1019 39.9049 71.1031C39.716 70.8844 39.5351 70.655 39.33 70.4499C36.2716 67.3909 33.2131 64.3319 30.1547 61.2729C29.9628 61.0524 29.7852 60.8198 29.623 60.5765Z" fill="#39398C"/>
<path d="M13.363 44.2178H29.285C29.3357 44.2264 29.3854 44.24 29.4334 44.2583C29.4615 44.3266 29.4805 44.3983 29.4901 44.4715C29.4901 49.7995 29.4856 55.1276 29.4766 60.4556C29.2718 60.3173 29.0762 60.1658 28.891 60.0022C23.8391 54.9422 18.7837 49.8814 13.7247 44.8197C13.5807 44.634 13.4593 44.432 13.363 44.2178Z" fill="#39398C"/>
</g>
<defs>
<filter id="filter0_d_2806_17774" x="0" y="0.679688" width="84" height="84" filterUnits="userSpaceOnUse" color-interpolation-filters="sRGB">
<feFlood flood-opacity="0" result="BackgroundImageFix"/>
<feColorMatrix in="SourceAlpha" type="matrix" values="0 0 0 0 0 0 0 0 0 0 0 0 0 0 0 0 0 0 127 0" result="hardAlpha"/>
<feOffset dx="8" dy="3"/>
<feGaussianBlur stdDeviation="5"/>
<feComposite in2="hardAlpha" operator="out"/>
<feColorMatrix type="matrix" values="0 0 0 0 0.235294 0 0 0 0 0.160784 0 0 0 0 0.631373 0 0 0 0.08 0"/>
<feBlend mode="normal" in2="BackgroundImageFix" result="effect1_dropShadow_2806_17774"/>
<feBlend mode="normal" in="SourceGraphic" in2="effect1_dropShadow_2806_17774" result="shape"/>
</filter>
</defs>
</svg>
