<svg width="84" height="85" viewBox="0 0 84 85" fill="none" xmlns="http://www.w3.org/2000/svg">
<g filter="url(#filter0_d_2806_17791)">
<path d="M55.5216 71.6803H12.4542L12.0466 71.5315C9.95573 70.4978 9.17182 69.0003 9.76824 67.1803C14.5233 67.1803 19.2784 67.199 24.0335 67.169C25.5455 67.1652 27.056 67.0817 28.5576 66.919C33.0871 66.4065 36.9591 64.5678 40.285 61.7428C42.4175 59.9272 44.1172 57.7241 45.2764 55.2728C46.4003 52.9275 47.0283 50.4068 47.1268 47.8453C47.2627 44.6303 46.3117 41.5878 45.6324 38.4978C45.5495 38.1228 45.2941 38.0541 44.9449 38.0553C43.8132 38.0553 42.6815 38.0553 41.5485 38.0553C41.5485 37.3678 41.5552 36.6803 41.5335 35.9953C41.4642 33.7891 39.6614 31.7703 37.2743 31.5728C35.1144 31.3982 32.9422 31.3949 30.7816 31.5628C28.4992 31.7378 26.7181 33.5378 26.4857 35.6216C26.3961 36.4253 26.4518 37.2466 26.4409 38.0541H21.8638C21.8638 37.3866 21.8475 36.7203 21.8638 36.0541C21.9752 31.7691 25.3608 28.1553 29.98 27.6941C32.4815 27.4645 35.0002 27.4385 37.5066 27.6166C42.0348 27.9041 45.5509 31.1266 46.0359 35.2216C46.1459 36.1453 46.1351 37.0803 46.1826 38.0765H48.0249C50.2788 38.0765 51.6686 39.1403 52.1387 41.1503C54.1521 49.752 56.1733 58.3524 58.2021 66.9515C58.7251 69.1653 58.0948 70.479 55.9319 71.5315L55.5216 71.6803Z" fill="#20B895"/>
<path d="M8.51327 7.68018H28.6204C28.5036 8.47893 28.4031 9.27893 28.2699 10.0752C27.8488 12.6089 27.4154 15.1427 26.9874 17.6764L26.8434 17.6952C26.8042 17.6902 26.7644 17.6902 26.7252 17.6952H2.08984C2.15691 17.5429 2.23264 17.3939 2.31673 17.2489C4.38088 14.0548 6.4464 10.8652 8.51327 7.68018Z" fill="#434396"/>
<path d="M40.0332 7.68018H59.5969C59.692 7.86518 59.7722 8.05518 59.885 8.23393C61.9002 11.3764 63.9173 14.5181 65.9361 17.6589C65.5068 17.6589 65.0775 17.6739 64.6468 17.6752L42.207 17.6939C42.1677 17.6889 42.128 17.6889 42.0888 17.6939L41.9447 17.6752C41.3044 14.3435 40.6672 11.0118 40.0332 7.68018Z" fill="#434396"/>
<path d="M40.0323 7.68018C40.6663 11.0135 41.3003 14.3468 41.9343 17.6802C41.6422 17.6939 41.3501 17.7189 41.058 17.7189C36.6589 17.7189 32.2598 17.7189 27.8607 17.7189C27.5686 17.7189 27.2765 17.6939 26.9844 17.6802C27.4123 15.1464 27.8457 12.6127 28.2669 10.0789C28.4027 9.28268 28.5006 8.48268 28.6174 7.68393L40.0323 7.68018Z" fill="#39398C"/>
<path d="M26.9907 17.6759C27.2828 17.6896 27.5749 17.7146 27.867 17.7146C32.2661 17.7146 36.6653 17.7146 41.0644 17.7146C41.3565 17.7146 41.6486 17.6896 41.9407 17.6759L42.0847 17.6946H42.2029L64.6509 17.6784C65.0816 17.6784 65.5109 17.6671 65.9402 17.6621C65.9606 17.9309 66 18.1996 66 18.4684C66 35.5025 66 52.5367 66 69.5709C66 71.0896 65.4973 71.5596 63.867 71.5571C61.2187 71.5521 58.5708 71.5442 55.9233 71.5333C58.0862 70.4809 58.7166 69.1671 58.1935 66.9534C56.1638 58.355 54.1427 49.7546 52.1301 41.1521C51.66 39.1421 50.2702 38.0821 48.0163 38.0784H46.1768C46.1292 37.0784 46.1401 36.1471 46.03 35.2234C45.545 31.1284 42.029 27.9059 37.5008 27.6184C34.9962 27.4398 32.4794 27.4649 29.9796 27.6934C25.3604 28.1559 21.9802 31.7696 21.8661 36.0621C21.8484 36.7284 21.8661 37.3946 21.8661 38.0621C21.1202 38.0771 20.3717 38.0859 19.6299 38.1096C17.6884 38.1709 16.2741 39.1984 15.8801 40.8896C13.8395 49.6521 11.8062 58.4159 9.78006 67.1809C9.18364 69.0009 9.96754 70.4984 12.0584 71.5321C9.25157 71.5396 6.44471 71.5596 3.63514 71.5459C2.67326 71.5459 2.04831 70.9209 2.00483 70.0309C1.99396 69.8434 2.00483 69.6559 2.00483 69.4684C2.00483 52.4917 2.00483 35.5159 2.00483 18.5409C2.02016 18.2545 2.05236 17.969 2.10129 17.6859H26.7367H26.8549L26.9907 17.6759Z" fill="#39398C"/>
<path d="M9.77319 67.1803C11.8056 58.4161 13.839 49.6524 15.8733 40.889C16.2673 39.1978 17.6816 38.1703 19.623 38.109C20.3689 38.0853 21.1174 38.0765 21.8592 38.0615H26.4363H41.5439C42.6756 38.0615 43.8073 38.0615 44.9404 38.0615C45.2895 38.0615 45.5449 38.1265 45.6278 38.504C46.3139 41.594 47.2649 44.6365 47.1223 47.8515C47.0237 50.413 46.3957 52.9338 45.2719 55.279C44.1127 57.7303 42.413 59.9334 40.2804 61.749C36.9546 64.574 33.0799 66.4128 28.553 66.9253C27.0514 67.088 25.5409 67.1714 24.0289 67.1753C19.2793 67.194 14.5269 67.1803 9.77319 67.1803ZM36.9084 54.8578C36.9084 53.9828 36.8798 53.1078 36.9152 52.2328C36.9518 51.3215 37.4246 50.8078 38.3077 50.6153C39.6391 50.3253 40.5603 50.8515 40.8388 52.1153C40.9665 52.694 41.3822 52.7878 41.8863 52.7578C42.3903 52.7278 42.715 52.4328 42.6104 51.9665C42.4854 51.4115 42.3645 50.7978 42.0235 50.3503C41.1418 49.1928 39.0482 48.7853 37.3037 49.3165C35.9003 49.7453 35.1463 50.7778 35.13 52.369C35.1137 53.9603 35.111 55.5328 35.13 57.119C35.1504 59.2303 36.1557 60.3103 38.4273 60.494C40.4285 60.659 42.2164 59.9615 42.5397 57.994C42.7001 57.0165 42.6267 56.0028 42.6226 55.0053C42.6226 54.5753 42.2544 54.4678 41.8604 54.464C41.0453 54.464 40.2301 54.464 39.415 54.464C38.9354 54.464 38.6066 54.6678 38.6066 55.1228C38.6066 55.6015 38.9232 55.8003 39.4489 55.8128C40.9434 55.849 40.9434 55.8615 40.8537 57.2553C40.8503 57.3596 40.8394 57.4635 40.8211 57.5665C40.616 58.604 39.8701 59.119 38.6868 59.0528C37.5999 58.9928 36.9641 58.4115 36.9206 57.359C36.8771 56.524 36.9084 55.694 36.9084 54.8578ZM29.25 55.4165C30.3491 56.9503 31.3925 58.409 32.44 59.8665C32.8761 60.4728 33.3747 60.6078 33.8964 60.274C34.4181 59.9403 34.433 59.649 33.9711 59.0003C32.8924 57.4853 31.8191 55.9665 30.7227 54.4628C30.4809 54.1315 30.4822 53.8903 30.7607 53.5803C31.6398 52.6015 32.4929 51.6028 33.3543 50.6115C33.8597 50.0303 33.8597 49.709 33.3543 49.3415C32.8489 48.974 32.4753 49.0465 32.0052 49.6178C30.8975 50.9619 29.7916 52.3065 28.6875 53.6515C28.5517 53.8178 28.3914 53.9678 28.2419 54.1253C28.1377 53.9129 28.0911 53.6804 28.106 53.4478C28.106 52.2603 28.087 51.0728 28.1142 49.8878C28.1278 49.2865 27.7623 49.1153 27.2243 49.1228C26.6863 49.1303 26.2923 49.3003 26.3249 49.8953C26.344 50.2278 26.3249 50.5615 26.3249 50.8953C26.3249 53.7069 26.3249 56.5174 26.3249 59.3265C26.3249 60.144 26.5545 60.4165 27.2379 60.4203C27.9213 60.424 28.102 60.1865 28.1033 59.3115C28.1033 58.7703 28.1753 58.219 28.0884 57.6865C27.9294 56.7015 28.5435 56.0978 29.2486 55.4165H29.25Z" fill="#34CCA9"/>
<path d="M41.5445 38.061H26.437C26.4478 37.2498 26.3921 36.436 26.4818 35.6285C26.7141 33.5448 28.4952 31.7448 30.7777 31.5698C32.9382 31.4019 35.1104 31.4052 37.2704 31.5798C39.6574 31.7773 41.4603 33.796 41.5296 36.0023C41.5513 36.6873 41.5404 37.3735 41.5445 38.061Z" fill="#434396"/>
<path d="M26.8467 17.694H26.7285C26.7677 17.6886 26.8075 17.6886 26.8467 17.694Z" fill="#FEDA93"/>
<path d="M42.2061 17.694H42.0879C42.1271 17.6886 42.1669 17.6886 42.2061 17.694Z" fill="#FEDA93"/>
<path d="M36.9083 54.8581C36.9083 55.6906 36.8798 56.5244 36.9083 57.3581C36.9518 58.4106 37.5876 58.9919 38.6745 59.0519C39.8633 59.1181 40.6037 58.6031 40.8089 57.5656C40.8272 57.4626 40.8381 57.3587 40.8415 57.2544C40.9257 55.8606 40.9257 55.8481 39.4367 55.8119C38.9109 55.7994 38.5944 55.6006 38.5944 55.1219C38.5944 54.6669 38.9231 54.4644 39.4027 54.4631C40.2179 54.4631 41.033 54.4631 41.8482 54.4631C42.2422 54.4631 42.609 54.5744 42.6104 55.0044C42.6104 56.0044 42.6878 57.0156 42.5275 57.9931C42.2041 59.9631 40.4162 60.6606 38.415 60.4931C36.1435 60.3069 35.1381 59.2269 35.1177 57.1181C35.1028 55.5356 35.1001 53.9531 35.1177 52.3681C35.1354 50.7831 35.8935 49.7431 37.2915 49.3156C39.0359 48.7844 41.1295 49.1906 42.0112 50.3494C42.3522 50.7969 42.4731 51.4106 42.5981 51.9656C42.7027 52.4319 42.3875 52.7269 41.874 52.7569C41.3605 52.7869 40.9542 52.6931 40.8265 52.1144C40.548 50.8519 39.6269 50.3256 38.2955 50.6144C37.4124 50.8069 36.9369 51.3206 36.9029 52.2319C36.8785 53.1081 36.9083 53.9844 36.9083 54.8581Z" fill="#434396"/>
<path d="M29.249 55.4168C28.5439 56.0981 27.9298 56.7018 28.0915 57.6893C28.1784 58.2181 28.1078 58.7693 28.1064 59.3143C28.1064 60.1893 27.9203 60.4256 27.241 60.4231C26.5617 60.4206 26.328 60.1468 26.328 59.3293C26.328 56.5193 26.328 53.7089 26.328 50.8981C26.328 50.5656 26.3443 50.2318 26.328 49.8981C26.2954 49.3031 26.6962 49.1318 27.2274 49.1256C27.7586 49.1193 28.1309 49.2893 28.1173 49.8906C28.0901 51.0768 28.1091 52.2656 28.1091 53.4506C28.0942 53.6832 28.1408 53.9157 28.245 54.1281C28.3945 53.9706 28.5534 53.8206 28.6906 53.6543C29.7992 52.3118 30.9051 50.9672 32.0083 49.6206C32.4784 49.0493 32.852 48.9756 33.3574 49.3443C33.8628 49.7131 33.8614 50.0331 33.3574 50.6143C32.496 51.6056 31.6428 52.6043 30.7638 53.5831C30.4853 53.8931 30.484 54.1343 30.7258 54.4656C31.8222 55.9656 32.8995 57.4881 33.9742 59.0031C34.4361 59.6518 34.4171 59.9456 33.8995 60.2768C33.3818 60.6081 32.8792 60.4756 32.4431 59.8693C31.3915 58.4093 30.3481 56.9506 29.249 55.4168Z" fill="#434396"/>
</g>
<defs>
<filter id="filter0_d_2806_17791" x="0" y="0.680176" width="84" height="84" filterUnits="userSpaceOnUse" color-interpolation-filters="sRGB">
<feFlood flood-opacity="0" result="BackgroundImageFix"/>
<feColorMatrix in="SourceAlpha" type="matrix" values="0 0 0 0 0 0 0 0 0 0 0 0 0 0 0 0 0 0 127 0" result="hardAlpha"/>
<feOffset dx="8" dy="3"/>
<feGaussianBlur stdDeviation="5"/>
<feComposite in2="hardAlpha" operator="out"/>
<feColorMatrix type="matrix" values="0 0 0 0 0.235294 0 0 0 0 0.160784 0 0 0 0 0.631373 0 0 0 0.08 0"/>
<feBlend mode="normal" in2="BackgroundImageFix" result="effect1_dropShadow_2806_17791"/>
<feBlend mode="normal" in="SourceGraphic" in2="effect1_dropShadow_2806_17791" result="shape"/>
</filter>
</defs>
</svg>
