<svg width="55" height="70" viewBox="0 0 55 70" fill="none" xmlns="http://www.w3.org/2000/svg">
<path d="M0 19.8897C0 15.9009 2.92768 12.5165 6.875 11.9424C11.3905 11.2856 15.6783 9.53997 19.3686 6.85615L24.7166 2.96665C26.376 1.75984 28.624 1.75984 30.2834 2.96665L34.1543 5.78188C38.8147 9.17127 44.2299 11.3758 49.9324 12.2053C52.842 12.6285 55 15.1231 55 18.0633V34.6765C55 46.6044 48.6574 57.6326 38.3475 63.6311L29.5116 68.772C28.2681 69.4955 26.7319 69.4955 25.4884 68.772L16.6525 63.6311C6.34257 57.6326 0 46.6044 0 34.6765V19.8897Z" fill="#434396"/>
<circle cx="27" cy="35.9424" r="16" fill="#34CCA9"/>
<path d="M33.5963 31.7991L29.7395 36.3954L26.2269 40.5816C26.0408 40.8034 25.7058 40.8212 25.4971 40.6205L21.5497 36.8213" stroke="white" stroke-width="3.5" stroke-linecap="round"/>
</svg>
