<svg width="64" height="63" viewBox="0 0 64 63" fill="none" xmlns="http://www.w3.org/2000/svg">
<path d="M31.8138 48.0875C33.5322 48.2948 35.2589 48.4192 36.9629 48.7094C43.791 49.8412 49.4397 52.9526 53.3886 58.7796C53.7929 59.3954 54.0089 60.1158 54.0104 60.8525C53.9856 61.9926 52.9408 62.8673 51.7904 62.9648C51.5333 62.9876 51.2721 62.9751 51.013 62.9751H7.25188C6.18434 62.9606 5.24946 62.6808 4.71257 61.6588C4.17569 60.6369 4.42651 59.6813 5.06289 58.7568C8.86668 53.2408 14.1837 50.0962 20.6781 48.8649C22.6515 48.4917 24.6664 48.3404 26.6626 48.0854L31.8138 48.0875Z" fill="#434396"/>
<path d="M35.8022 24.6429C34.0817 20.3146 34.4528 16.144 36.8387 12.1723C39.179 8.2835 42.6739 5.66335 46.658 3.6547C49.9146 2.01296 53.3183 0.856279 57.0226 0.8853C61.3757 0.918466 63.9854 3.51789 64 7.85441C64.0165 12.3091 62.4411 16.3015 60.2376 20.0638C58.4612 23.0965 56.2991 25.8161 53.2561 27.7211C49.587 30.0159 45.6775 30.7662 41.4778 29.5868C40.7212 29.3795 40.0268 28.9359 39.3054 28.6001C39.3797 28.4093 39.472 28.226 39.5811 28.0528C41.3866 25.7084 43.5632 23.7412 45.8164 21.8465C47.4934 20.4411 49.1704 19.0336 50.7914 17.5701C51.2617 17.1737 51.5579 16.6087 51.6164 15.9964C51.6749 15.3841 51.4911 14.7733 51.1044 14.2949C50.1986 13.1652 48.8346 12.9102 47.6738 13.7456C46.8612 14.3302 46.1294 15.0287 45.3687 15.6859C42.7174 17.966 39.8755 20.039 37.5766 22.713C37.0169 23.3867 36.3992 24.0086 35.8022 24.6429Z" fill="#434396"/>
<path d="M23.0392 34.5535C22.4837 34.6571 21.9323 34.7732 21.3809 34.8644C16.5179 35.6666 12.2415 34.398 8.63669 31.0731C3.95607 26.7511 1.1224 21.3926 0.137774 15.1117C-0.056452 13.835 -0.0452543 12.5355 0.170941 11.2623C0.747209 7.87932 3.07301 5.99504 6.55135 5.86238C9.94055 5.73386 13.0955 6.66874 16.1344 8.03686C20.1807 9.8548 23.7731 12.3153 26.3746 15.9719C29.6124 20.5323 30.2861 25.3809 27.7157 30.501C27.5498 30.7879 27.3671 31.0648 27.1685 31.3301C27.0897 31.2721 26.9798 31.2306 26.9322 31.1518C26.3455 30.1838 25.7838 29.1971 25.1847 28.2353C22.7573 24.3506 19.6148 21.1024 16.1551 18.1402C15.3446 17.4458 14.3973 17.2468 13.4147 17.6614C11.717 18.3786 11.3315 20.4204 12.6581 21.7491C13.5287 22.6218 14.5237 23.3784 15.413 24.2366C18.5228 27.2173 21.1018 30.7062 23.0392 34.5535Z" fill="#434396"/>
<path d="M23.0391 34.5532C21.0987 30.702 18.5154 27.2102 15.4004 24.228C14.505 23.3781 13.5162 22.6215 12.6456 21.7405C11.3189 20.4118 11.7045 18.37 13.4022 17.6528C14.3847 17.2382 15.332 17.4455 16.1425 18.1316C19.6022 21.0938 22.7448 24.3503 25.1721 28.2267C25.7712 29.1885 26.333 30.1752 26.9196 31.1432C26.9673 31.222 27.0771 31.2635 27.1559 31.3215C27.1623 31.4965 27.1909 31.6699 27.2409 31.8377C27.8918 33.2887 28.5551 34.7397 29.2371 36.2447C29.3163 36.1356 29.3857 36.0198 29.4444 35.8985C30.9317 32.0194 32.9877 28.3831 35.5449 25.109C35.6425 24.9607 35.7278 24.8048 35.7999 24.6426C36.3969 24.0021 37.0146 23.3802 37.5847 22.7169C39.8835 20.0407 42.7255 17.972 45.3767 15.6897C46.1375 15.0326 46.8692 14.334 47.6818 13.7495C48.8426 12.9203 50.2066 13.1691 51.1125 14.2988C51.502 14.7774 51.6877 15.3899 51.6295 16.0042C51.5713 16.6185 51.274 17.1853 50.8015 17.5823C49.1743 19.0458 47.4973 20.4533 45.8266 21.8587C43.5733 23.7533 41.3968 25.7205 39.5913 28.065C39.4822 28.2382 39.3899 28.4214 39.3156 28.6122C39.0844 28.8043 38.8702 29.0159 38.675 29.2445C34.6486 34.7497 32.2756 41.2891 31.8344 48.0955H26.6625C26.3507 43.3881 25.1197 38.7873 23.0391 34.5532Z" fill="#34CCA9"/>
</svg>
