<svg width="49" height="24" viewBox="0 0 49 24" fill="none" xmlns="http://www.w3.org/2000/svg">
<path d="M0.854004 0H48.9999V24H0.854004L8.55735 12.3243L0.854004 0Z" fill="#218AEF"/>
<path d="M14.6036 15H15.8536V12.69H17.5936C19.0636 12.69 20.1636 11.75 20.1636 10.41C20.1636 9.07 19.0636 8.13 17.5936 8.13H14.6036V15ZM15.8536 11.54V9.28H17.4536C18.3036 9.28 18.8936 9.71 18.8936 10.41C18.8936 11.11 18.3036 11.54 17.4536 11.54H15.8536ZM22.3565 10.83V9.83H21.1365V15H22.3565V12.39C22.3565 11.41 23.0965 10.75 24.2065 10.75V9.71C23.3565 9.71 22.6865 10.14 22.3565 10.83ZM27.4835 15.12C28.9835 15.12 30.2535 13.88 30.2535 12.41C30.2535 10.94 28.9835 9.71 27.4835 9.71C25.9835 9.71 24.7135 10.94 24.7135 12.41C24.7135 13.88 25.9835 15.12 27.4835 15.12ZM27.4835 14.08C26.6235 14.08 25.9035 13.32 25.9035 12.41C25.9035 11.51 26.6235 10.75 27.4835 10.75C28.3335 10.75 29.0535 11.51 29.0535 12.41C29.0535 13.32 28.3335 14.08 27.4835 14.08ZM36.0516 15L34.1116 12.35L35.9616 9.83H34.6316L33.4516 11.44L32.2716 9.83H30.9316L32.7816 12.36L30.8416 15H32.1716L33.4416 13.27L34.7016 15H36.0516ZM37.9671 16.8C38.7471 16.79 39.3471 16.34 39.7371 15.36L41.9271 9.83H40.6671L39.2471 13.69L37.7371 9.83H36.4471L38.6371 15.04L38.4171 15.5C38.2671 15.75 38.0471 15.84 37.7571 15.84C37.5671 15.84 37.3171 15.77 37.0971 15.65L36.8371 16.53C37.1471 16.7 37.5771 16.8 37.9671 16.8Z" fill="white"/>
</svg>
