<svg width="120" height="114" viewBox="0 0 120 114" fill="none" xmlns="http://www.w3.org/2000/svg">
<path d="M76.586 0.217285H119.066C119.582 0.217285 120 0.628574 120 1.13593V17.4155C120 17.9228 119.582 18.3341 119.066 18.3341H76.586C76.0703 18.3341 75.6522 17.9228 75.6522 17.4155V1.13593C75.6522 0.628574 76.0703 0.217285 76.586 0.217285Z" fill="#434396"/>
<path d="M112.896 3.84033C114.058 3.84033 115.001 4.76791 115.001 5.91083C115.001 7.05374 114.058 7.98132 112.896 7.98132C111.735 7.98132 110.792 7.05374 110.792 5.91083C110.792 4.76791 111.735 3.84033 112.896 3.84033ZM113.317 6.94607L114.37 5.91083L114.073 5.61889L113.317 6.36012L111.72 4.78862L111.423 5.08263L113.317 6.94607Z" fill="#34CCA9"/>
<path d="M112.896 10.1812C114.058 10.1812 115.001 11.1087 115.001 12.2516C115.001 13.3946 114.058 14.3221 112.896 14.3221C111.735 14.3221 110.792 13.3946 110.792 12.2516C110.792 11.1087 111.735 10.1812 112.896 10.1812ZM113.317 13.2869L114.37 12.2516L114.073 11.9597L113.317 12.7009L111.72 11.1294L111.423 11.4234L113.317 13.2869Z" fill="#34CCA9"/>
<path d="M94.3137 4.66968H108.72V5.45509H94.3137V4.66968Z" fill="#34CCA9"/>
<path d="M80.699 6.4541H108.72V7.23947H80.699V6.4541Z" fill="white"/>
<path d="M101.363 10.9214H108.72V11.7068H101.363V10.9214Z" fill="#34CCA9"/>
<path d="M80.699 12.7097H108.72V13.4951H80.699V12.7097Z" fill="white"/>
<path d="M52.2729 113.137C26.806 113.137 6.16106 92.3772 6.16106 66.7684C6.16106 41.1595 26.806 20.3994 52.2729 20.3994C77.7398 20.3994 98.3848 41.1595 98.3848 66.7684C98.3848 92.3772 77.7398 113.137 52.2729 113.137Z" fill="#34CCA9"/>
<path d="M75.2683 26.8057C75.2683 26.5301 75.2683 26.2595 75.2277 25.9737C74.3698 12.891 56.1718 11.0329 51.0855 20.2873L65.3596 37.3669C65.8503 38.554 66.6111 39.6089 67.5808 40.4467C68.5506 41.2845 69.7023 41.8818 70.9434 42.1906C71.9591 42.4558 73.0168 42.5166 74.0559 42.3695C75.095 42.2223 76.0949 41.8702 76.9982 41.3332C77.9015 40.7963 78.6904 40.0851 79.3196 39.2406C79.9487 38.3962 80.4057 37.435 80.6643 36.4123C81.1319 34.4221 80.8362 32.3277 79.836 30.5471C78.8358 28.7664 77.2048 27.4305 75.2683 26.8057V26.8057Z" fill="#FF7977"/>
<path d="M67.7915 30.1748L70.9133 49.1685C71.2184 50.8438 70.8783 52.573 69.962 54.0054C69.0457 55.4377 67.6218 56.4659 65.9793 56.8813V56.8813C65.0509 57.106 64.0853 57.1267 63.1482 56.9419C62.2112 56.7571 61.3248 56.3713 60.5495 55.8107C59.7742 55.2501 59.1283 54.528 58.6559 53.6935C58.1834 52.8591 57.8955 51.932 57.8117 50.9755L56.0402 33.0792L67.7915 30.1748Z" fill="#FDC2AB"/>
<path d="M57.2374 45.1663L56.9226 42.5375C56.9226 42.5375 62.344 42.9714 65.9785 37.5862C65.9785 37.5862 64.4252 43.099 57.2374 45.1663Z" fill="#1C1C20"/>
<path d="M64.1509 16.2245C64.9353 16.5745 65.6599 17.0465 66.2982 17.6231C72.2728 22.9726 69.1205 33.9931 64.2017 39.1129C61.4809 41.951 57.3844 43.3905 53.6991 42.1756C48.3083 40.3839 46.3793 34.3505 47.222 28.8734C47.8463 24.7898 49.8869 20.8747 53.0494 18.3582C56.2118 15.8417 60.5672 14.637 64.1509 16.2245Z" fill="#FDC2AB"/>
<path d="M65.9578 35.759C66.5174 36.2451 67.1958 36.5723 67.923 36.7068C68.6502 36.8414 69.3999 36.7786 70.0949 36.5247C70.7767 36.2223 71.3747 35.7567 71.8365 35.1686C72.2984 34.5805 72.6102 33.8877 72.7447 33.1506C72.9934 31.7979 72.5924 30.2921 71.5873 29.5162C71.0512 29.1174 70.3829 28.9416 69.7212 29.0253C69.0595 29.1089 68.4553 29.4456 68.034 29.9654L65.9578 35.759Z" fill="#FDC2AB"/>
<path d="M68.6595 33.6045C69.4413 33.6505 70.1063 33.1911 70.1367 32.5836C70.1315 32.3417 70.0508 32.1075 69.906 31.9142C69.7611 31.7209 69.5595 31.5783 69.3296 31.5066" stroke="#D67374" stroke-width="0.8697" stroke-miterlimit="10" stroke-linecap="round"/>
<path d="M52.045 30.5929C52.017 30.3496 51.952 30.112 51.8521 29.8885C51.7633 29.6696 51.6545 29.4595 51.5273 29.2606L51.2836 29.7711C51.6742 29.6917 52.0296 29.4897 52.2988 29.1943C52.5402 28.9371 52.7237 28.6307 52.8369 28.2959L51.974 28.8063C51.7339 28.9528 51.4688 29.0532 51.1922 29.1024L50.6846 29.1483L50.9384 29.6077C51.0479 29.8159 51.1753 30.014 51.3191 30.1999C51.4629 30.3939 51.6338 30.5658 51.8268 30.7103L52.045 30.5929Z" fill="#D67374"/>
<path d="M50.2829 32.0382C50.4207 32.5224 50.7177 32.9453 51.1255 33.2377C51.5654 33.5571 52.1112 33.6924 52.6483 33.6155C53.1558 33.5273 53.6298 33.3014 54.0189 32.9621C54.199 32.8033 54.3686 32.6328 54.5265 32.4517C54.6658 32.2556 54.793 32.051 54.9072 31.8391C54.689 31.9514 54.4961 32.0841 54.3032 32.2066C54.1103 32.3291 53.9072 32.4312 53.7245 32.5486C53.3628 32.752 52.9699 32.8935 52.562 32.9672C52.1703 33.0243 51.7705 32.9677 51.4098 32.8039C50.9969 32.609 50.6167 32.3507 50.2829 32.0382Z" fill="#D67374"/>
<path d="M56.6852 26.019C56.4008 26.6005 56.2285 27.231 56.1776 27.877C56.1383 28.2291 56.2055 28.5849 56.3705 28.8979C56.4653 29.0605 56.5953 29.1995 56.7508 29.3046C56.9064 29.4098 57.0834 29.4784 57.2689 29.5053C57.636 29.5497 58.0068 29.4611 58.3146 29.2552C58.598 29.0702 58.8457 28.835 59.0456 28.561C59.4295 28.0422 59.7246 27.4625 59.9187 26.8459C59.9249 26.8258 59.9271 26.8046 59.9251 26.7837C59.923 26.7627 59.9169 26.7424 59.907 26.7238C59.897 26.7053 59.8835 26.6889 59.8672 26.6757C59.8509 26.6625 59.8322 26.6527 59.8121 26.6468C59.7763 26.6345 59.7372 26.6361 59.7025 26.6512C59.6678 26.6663 59.6399 26.6939 59.6243 26.7285V26.7285C59.3769 27.2757 59.0632 27.7901 58.6902 28.2598C58.3197 28.6988 57.8375 29.0919 57.34 29C57.2248 28.9928 57.1127 28.9591 57.0124 28.9016C56.9121 28.8441 56.8262 28.7642 56.7613 28.6682C56.6395 28.4269 56.5835 28.1574 56.5989 27.8872C56.6241 27.2868 56.7369 26.6935 56.9339 26.1262V26.1262C56.9394 26.1094 56.9415 26.0917 56.9402 26.0741C56.9388 26.0566 56.934 26.0394 56.9259 26.0237C56.9179 26.008 56.9068 25.9941 56.8934 25.9828C56.8799 25.9715 56.8644 25.9629 56.8476 25.9577C56.8177 25.9475 56.7851 25.9481 56.7555 25.9592C56.7259 25.9704 56.7011 25.9915 56.6852 26.019V26.019Z" fill="#1C1C20"/>
<path d="M49.3699 23.7025C49.1311 24.1835 48.9733 24.701 48.9029 25.2339C48.8625 25.5321 48.8974 25.8358 49.0045 26.117C49.0715 26.2756 49.1792 26.4134 49.3165 26.5166C49.4539 26.6197 49.6159 26.6843 49.7862 26.704C50.1008 26.7373 50.4163 26.6498 50.6694 26.459C50.8942 26.2838 51.0895 26.0736 51.2481 25.8362C51.5506 25.384 51.7833 24.8883 51.9384 24.3661C51.9496 24.3255 51.9448 24.2821 51.9249 24.245C51.9051 24.2079 51.8717 24.18 51.8318 24.167C51.7954 24.1562 51.7563 24.1591 51.7218 24.1751C51.6872 24.191 51.6596 24.219 51.644 24.2538V24.2538C51.4378 24.712 51.1861 25.1481 50.8928 25.5555C50.6034 25.9383 50.2227 26.2956 49.8522 26.2242C49.7649 26.2162 49.6812 26.1857 49.6092 26.1356C49.5371 26.0856 49.4792 26.0176 49.441 25.9383C49.362 25.7284 49.3291 25.5037 49.3445 25.2798C49.379 24.7787 49.4727 24.2834 49.6237 23.8046V23.8046C49.6333 23.7701 49.629 23.7332 49.612 23.7018C49.5949 23.6703 49.5664 23.6468 49.5324 23.6361C49.502 23.6241 49.4682 23.6242 49.4379 23.6366C49.4077 23.6489 49.3833 23.6726 49.3699 23.7025V23.7025Z" fill="#1C1C20"/>
<path d="M53.0907 18.0361C53.0907 18.0361 61.3293 30.103 69.1619 29.1485L71.3345 27.903C71.3345 27.903 74.3751 16.0453 62.7557 14.662C57.776 14.0648 53.0907 18.0361 53.0907 18.0361Z" fill="#FF7977"/>
<path d="M16.2729 66.4015C15.9023 64.7119 15.481 60.9806 16.415 59.3063C16.2237 59.1591 15.9908 59.0768 15.7499 59.0713C15.5091 59.0658 15.2727 59.1374 15.0749 59.2757C13.5775 60.6079 13.5927 62.7978 13.5927 62.7978C13.5927 62.7978 6.4353 56.2079 5.97845 56.9889C5.52159 57.7699 9.07998 60.7815 9.07998 60.7815C9.07998 60.7815 3.96829 56.7285 3.82108 57.6218C3.75001 57.9689 4.73478 58.0659 7.18657 61.2919C7.18657 61.2919 2.36421 58.0353 2.61802 59.1123C2.93274 60.465 5.7094 62.6038 5.7094 62.6038C5.7094 62.6038 2.18655 60.9653 2.44543 61.8228C2.62818 62.4558 7.82109 67.5449 10.0901 70.1737C10.9937 69.699 16.4963 66.6414 16.2729 66.4015Z" fill="#FDC2AB"/>
<path d="M14.0247 64.8699L36.3598 79.7647L37.8827 78.3406L49.5781 88.5801C49.5781 88.5801 39.2684 99.2995 37.6187 98.5389C29.5578 94.8892 9.96886 70.1479 9.96886 70.1479L14.0247 64.8699Z" fill="#FDC2AB"/>
<path d="M59.1974 51.746C52.5628 57.6416 54.0755 57.1057 36.045 76.7578L49.8471 96.1548C49.8471 96.1548 68.5578 78.5189 71.5324 57.8713C72.7101 49.6225 68.035 43.8953 59.1974 51.746Z" fill="#7519C8"/>
<path d="M74.3233 52.5628C73.7151 51.5464 73.0003 50.5983 72.1913 49.7349C71.0981 48.5527 69.6267 47.7939 68.034 47.591H67.9984C62.9781 46.9581 57.973 49.1887 55.3588 53.206C49.7141 61.9397 48.7597 71.2247 49.044 79.1315L55.1354 112.979C55.8765 112.933 56.6176 112.867 57.3638 112.785C67.6701 111.668 77.2972 107.077 84.6787 99.7587C84.3538 78.2331 79.7244 63.8794 76.0492 55.8194C75.5401 54.6997 74.9637 53.6122 74.3233 52.5628V52.5628Z" fill="#8D21EF"/>
<path d="M14.9069 79.5246C14.1861 77.9524 12.978 74.4201 13.5313 72.5621C13.3127 72.4589 13.0672 72.428 12.8301 72.4738C12.593 72.5197 12.3764 72.6399 12.2115 72.8173C11.0338 74.4456 11.5211 76.5793 11.5211 76.5793C11.5211 76.5793 3.12011 71.6892 2.89168 72.5417C2.66325 73.3941 6.72925 75.5788 6.72925 75.5788C6.72925 75.5788 0.876444 72.7203 0.896748 73.634C0.896748 73.9811 1.88152 73.8688 4.95767 76.4925C4.95767 76.4925 -0.44335 74.3487 0.0287314 75.3491C0.622641 76.6048 3.79523 78.0953 3.79523 78.0953C3.79523 78.0953 0.0084206 77.2429 0.434817 78.0341C0.744462 78.6109 6.90183 82.4647 9.67849 84.5423C10.4501 83.8787 15.176 79.7134 14.9069 79.5246Z" fill="#FDC2AB"/>
<path d="M14.0293 78.9072L35.9837 95.0935L43.7756 85.64L53.8467 95.6754C53.8467 95.6754 43.8416 112.326 40.8365 111.657C30.4202 109.35 9.49118 84.2618 9.49118 84.2618L14.0293 78.9072Z" fill="#FDC2AB"/>
<path d="M53.09 56.1405C47.5062 64.2209 48.2626 62.7763 31.3843 89.5645L52.6078 104C67.1408 84.4448 78.8921 75.8182 74.4759 58.1568C72.2017 49.0504 60.557 45.3752 53.09 56.1405Z" fill="#8D21EF"/>
<path d="M52.6088 104C52.6088 104 63.2281 96.813 72.3145 75.5989" stroke="#7519C8" stroke-width="0.8474" stroke-linecap="round" stroke-linejoin="round"/>
</svg>
