<svg width="41" height="40" viewBox="0 0 41 40" fill="none" xmlns="http://www.w3.org/2000/svg">
<path d="M20.1335 5.55518L34.6219 17.2218V33.333H7.31689V16.1107L20.1335 5.55518Z" fill="#EBFAF6"/>
<path d="M5.08789 17.8259L18.3532 6.48985C18.849 6.06615 19.4805 5.83325 20.1335 5.83325C20.7865 5.83325 21.418 6.06615 21.9138 6.48985L35.1791 17.8259" stroke="#34CCA9" stroke-width="0.916667" stroke-linecap="round" stroke-linejoin="round"/>
<path d="M33.0301 16.0208V6.36339C33.0301 6.18431 32.9947 6.00699 32.926 5.84155C32.8572 5.67611 32.7565 5.52578 32.6295 5.39915C32.5025 5.27253 32.3517 5.17209 32.1857 5.10356C32.0198 5.03503 31.8419 4.99976 31.6623 4.99976H27.5589C27.1962 4.99976 26.8483 5.14342 26.5918 5.39915C26.3353 5.65489 26.1912 6.00173 26.1912 6.36339V10.1764" stroke="#34CCA9" stroke-width="0.916667" stroke-linecap="round" stroke-linejoin="round"/>
<path d="M30.1637 21.6663C31.4863 21.6663 32.7791 22.0573 33.8788 22.7898C34.9785 23.5223 35.8355 24.5635 36.3417 25.7817C36.8478 26.9999 36.9802 28.3403 36.7222 29.6335C36.4642 30.9267 35.8273 32.1146 34.8921 33.047C33.9569 33.9793 32.7654 34.6143 31.4683 34.8715C30.1712 35.1287 28.8266 34.9967 27.6048 34.4921C26.3829 33.9875 25.3385 33.1331 24.6038 32.0367C23.869 30.9404 23.4768 29.6515 23.4768 28.3329C23.4768 26.5648 24.1813 24.8691 25.4354 23.6189C26.6894 22.3686 28.3903 21.6663 30.1637 21.6663Z" fill="white" stroke="#34CCA9" stroke-width="0.916667" stroke-linecap="round" stroke-linejoin="round"/>
<path d="M16.0303 33.3328V24.6964C16.0303 24.3347 16.1744 23.9879 16.4309 23.7322C16.6874 23.4764 17.0353 23.3328 17.3981 23.3328H20.1336" stroke="#34CCA9" stroke-width="0.916667" stroke-linecap="round" stroke-linejoin="round"/>
<path d="M7.23682 16.0205V33.3328" stroke="#34CCA9" stroke-width="0.916667" stroke-linecap="round" stroke-linejoin="round"/>
<path d="M20.1335 33.3328H5.08789" stroke="#34CCA9" stroke-width="0.916667" stroke-linecap="round" stroke-linejoin="round"/>
<path d="M32.4374 27.1663L29.5955 29.9996L27.887 28.3013" stroke="#34CCA9" stroke-width="0.916667" stroke-linecap="round" stroke-linejoin="round"/>
</svg>
