<svg width="15" height="14" viewBox="0 0 15 14" fill="none" xmlns="http://www.w3.org/2000/svg">
<path d="M7.07275 9.33276V10.7902" stroke="#7D7D82" stroke-width="0.611111" stroke-linecap="round" stroke-linejoin="round"/>
<path d="M7.94751 11.6663H11.7392" stroke="#7D7D82" stroke-width="0.611111" stroke-linecap="round" stroke-linejoin="round"/>
<path d="M2.40601 11.6663H6.19767" stroke="#7D7D82" stroke-width="0.611111" stroke-linecap="round" stroke-linejoin="round"/>
<path d="M7.69054 11.0474C8.03204 11.3889 8.03204 11.9426 7.69054 12.284C7.34905 12.6255 6.79537 12.6255 6.45388 12.284C6.11238 11.9426 6.11238 11.3889 6.45388 11.0474C6.79537 10.7059 7.34904 10.7059 7.69054 11.0474Z" stroke="#7D7D82" stroke-width="0.611111" stroke-linecap="round" stroke-linejoin="round"/>
<path d="M7.07275 1.74976C9.17159 1.74976 10.8644 3.44259 10.8644 5.54142C10.8644 7.64026 9.17159 9.33309 7.07275 9.33309" stroke="#7D7D82" stroke-width="0.611111" stroke-linecap="round" stroke-linejoin="round"/>
<path d="M7.07292 9.33309C4.97408 9.33309 3.28125 7.64026 3.28125 5.54142C3.28125 3.44259 4.97408 1.74976 7.07292 1.74976" stroke="#7D7D82" stroke-width="0.611111" stroke-linecap="round" stroke-linejoin="round"/>
<path d="M6.301 2.19601C5.08359 4.22892 5.08359 6.85392 6.301 8.88684C6.65742 9.48184 7.48867 9.48184 7.84509 8.88684C9.0625 6.85392 9.0625 4.22892 7.84509 2.19601C7.48809 1.60101 6.65742 1.60101 6.301 2.19601Z" stroke="#7D7D82" stroke-width="0.611111" stroke-linecap="round" stroke-linejoin="round"/>
<path d="M3.28125 5.5415H10.8646" stroke="#7D7D82" stroke-width="0.611111" stroke-linecap="round" stroke-linejoin="round"/>
</svg>
