<svg width="15" height="14" viewBox="0 0 15 14" fill="none" xmlns="http://www.w3.org/2000/svg">
<path d="M7.07275 11.3749V6.77075" stroke="#7D7D82" stroke-width="0.611111" stroke-linecap="round" stroke-linejoin="round"/>
<path d="M1.82275 6.77075V11.3749" stroke="#7D7D82" stroke-width="0.611111" stroke-linecap="round" stroke-linejoin="round"/>
<path d="M7.07275 6.77219C7.07275 6.28818 5.89751 5.896 4.44775 5.896C2.998 5.896 1.82275 6.28818 1.82275 6.77219" stroke="#7D7D82" stroke-width="0.611111" stroke-linecap="round" stroke-linejoin="round"/>
<path d="M1.82275 11.375C1.82275 11.859 2.998 12.2512 4.44775 12.2512C5.89751 12.2512 7.07275 11.859 7.07275 11.375" stroke="#7D7D82" stroke-width="0.611111" stroke-linecap="round" stroke-linejoin="round"/>
<path d="M1.82275 9.33325C1.82275 9.81726 2.998 10.2094 4.44775 10.2094C5.89751 10.2094 7.07275 9.81726 7.07275 9.33325" stroke="#7D7D82" stroke-width="0.611111" stroke-linecap="round" stroke-linejoin="round"/>
<path d="M1.82275 7.29175C1.82275 7.77576 2.998 8.16794 4.44775 8.16794C5.89751 8.16794 7.07275 7.77576 7.07275 7.29175" stroke="#7D7D82" stroke-width="0.611111" stroke-linecap="round" stroke-linejoin="round"/>
<path d="M9.40617 8.16675C11.017 8.16675 12.3228 7.7005 12.3228 7.12508V2.20841C12.3228 1.633 11.017 1.16675 9.40617 1.16675C7.79533 1.16675 6.4895 1.633 6.4895 2.20841V4.08341" stroke="#7D7D82" stroke-width="0.611111" stroke-linecap="round" stroke-linejoin="round"/>
<path d="M12.3229 4.8855C12.3229 5.4617 11.0171 5.92858 9.40625 5.92858" stroke="#7D7D82" stroke-width="0.611111" stroke-linecap="round" stroke-linejoin="round"/>
<path d="M12.3228 2.698C12.3228 3.2742 11.017 3.74108 9.40617 3.74108C7.79533 3.74108 6.4895 3.2742 6.4895 2.698" stroke="#7D7D82" stroke-width="0.611111" stroke-linecap="round" stroke-linejoin="round"/>
<path d="M3.57167 1.75024L1.82275 3.49916" stroke="#7D7D82" stroke-width="0.611111" stroke-linecap="round" stroke-linejoin="round"/>
<path d="M1.82275 1.75024H3.57167" stroke="#7D7D82" stroke-width="0.611111" stroke-linecap="round" stroke-linejoin="round"/>
<path d="M3.57251 3.49916V1.75024" stroke="#7D7D82" stroke-width="0.611111" stroke-linecap="round" stroke-linejoin="round"/>
<path d="M9.9895 12.2489L11.7384 10.5" stroke="#7D7D82" stroke-width="0.611111" stroke-linecap="round" stroke-linejoin="round"/>
<path d="M11.7384 12.2502H9.9895" stroke="#7D7D82" stroke-width="0.611111" stroke-linecap="round" stroke-linejoin="round"/>
<path d="M9.9895 10.5V12.2489" stroke="#7D7D82" stroke-width="0.611111" stroke-linecap="round" stroke-linejoin="round"/>
</svg>
