<svg width="31" height="81" viewBox="0 0 31 81" fill="none" xmlns="http://www.w3.org/2000/svg">
<path d="M0.5 80.6797L0.5 0.67968H30.5L30.5 80.6797L15.9054 67.8797L0.5 80.6797Z" fill="#34CCA9"/>
<path d="M19 61.6336V57.9003C19 56.535 18.1787 55.5643 17.0053 55.5643C16.2053 55.5643 15.5333 56.0656 15.128 56.9083C14.776 56.2576 14.2533 55.8736 13.5067 55.8736C12.44 55.8736 11.672 56.7696 11.672 58.039V61.6336H19ZM14.6693 60.311H12.824V58.359C12.824 57.7083 13.208 57.239 13.752 57.239C14.2853 57.239 14.6693 57.7083 14.6693 58.359V60.311ZM17.848 60.311H15.7573V58.167C15.7573 57.4416 16.1947 56.9296 16.8027 56.9296C17.4107 56.9296 17.848 57.4416 17.848 58.167V60.311ZM17.976 51.7954C17.976 52.5847 17.4427 53.1607 16.6853 53.3207V49.1607C14.648 49.1607 13.3573 50.1527 13.3573 51.8594C13.3573 53.4274 14.5733 54.6647 16.2267 54.6647C17.9227 54.6647 19.128 53.3634 19.128 51.7847C19.128 50.9847 18.7867 50.0247 18.2747 49.5447L17.4213 50.3661C17.7413 50.6754 17.976 51.2834 17.976 51.7954ZM14.5093 51.8061C14.5093 51.0274 15 50.5581 15.6933 50.4087V53.3101C14.968 53.1181 14.5093 52.5314 14.5093 51.8061ZM19.128 45.9954C19.128 44.7047 18.4453 43.8301 17.3893 43.8301C16.2373 43.8301 15.9173 44.8327 15.6613 45.7607C15.416 46.6034 15.3093 46.8914 14.9573 46.8914C14.648 46.8914 14.4667 46.5394 14.4667 46.0807C14.4667 45.6007 14.6373 45.0354 14.968 44.5127L14.0187 43.9687C13.624 44.5661 13.3573 45.3234 13.3573 46.0807C13.3573 47.3074 14.0613 48.1607 15.096 48.1607C16.0773 48.1501 16.4187 47.3927 16.728 46.1981C16.8987 45.5687 17.0373 45.0887 17.464 45.0887C17.8053 45.0887 18.0293 45.4514 18.0293 45.9741C18.0293 46.6674 17.7733 47.2861 17.3893 47.8194L18.296 48.4061C18.8293 47.7447 19.128 46.8381 19.128 45.9954ZM17.816 39.9474C17.9333 40.0647 18.0187 40.2674 18.0187 40.4914C18.0187 40.8007 17.752 41.0354 17.3787 41.0354H14.5627V39.7874H13.4853V41.0354H11.9707V42.3047H13.4853V43.1047H14.5627V42.3047H17.5387C18.4667 42.3047 19.128 41.6647 19.128 40.7474C19.128 40.3314 18.9573 39.8834 18.6907 39.5741L17.816 39.9474ZM11.672 29.9218L17.2293 32.2471L11.672 34.5725L11.672 36.0445L19 32.9831V31.5005L11.672 28.4391V29.9218ZM13.3573 25.4765C13.3573 26.1698 13.5493 26.8951 13.9333 27.6738L14.84 27.2258C14.6053 26.7565 14.424 26.2551 14.424 25.7325C14.424 24.7298 15.0427 24.3778 15.6827 24.3778H15.832C15.64 24.8791 15.5333 25.4231 15.5333 25.9245C15.5333 27.1618 16.28 28.1751 17.368 28.1751C18.4347 28.1751 19.128 27.2898 19.128 26.1165C19.128 25.4765 18.8507 24.7831 18.3387 24.3778H19V23.1085H15.6827C14.2853 23.1085 13.3573 24.0151 13.3573 25.4765ZM18.1787 25.8285C18.1787 26.4471 17.848 26.9058 17.3253 26.9058C16.8027 26.9058 16.44 26.3831 16.44 25.7325C16.44 25.2418 16.5147 24.7831 16.6533 24.3778H17.272C17.8587 24.5271 18.1787 25.1991 18.1787 25.8285ZM19 21.6994V20.3981H11.544V21.6994H19ZM13.4853 15.2265H16.9733C17.56 15.3118 18.0187 15.8771 18.0187 16.5598C18.0187 17.2425 17.4853 17.7225 16.7387 17.7225H13.4853V18.9811H16.9947C18.2427 18.9811 19.128 18.1385 19.128 16.9331C19.128 16.2078 18.776 15.5678 18.264 15.2265H19V13.9251H13.4853V15.2265ZM17.976 9.9204C17.976 10.7097 17.4427 11.2857 16.6853 11.4457V7.28573C14.648 7.28573 13.3573 8.27773 13.3573 9.9844C13.3573 11.5524 14.5733 12.7897 16.2267 12.7897C17.9227 12.7897 19.128 11.4884 19.128 9.90973C19.128 9.10973 18.7867 8.14973 18.2747 7.66973L17.4213 8.49106C17.7413 8.8004 17.976 9.4084 17.976 9.9204ZM14.5093 9.93106C14.5093 9.1524 15 8.68306 15.6933 8.53373L15.6933 11.4351C14.968 11.2431 14.5093 10.6564 14.5093 9.93106Z" fill="white"/>
</svg>
