<svg width="20" height="37" viewBox="0 0 20 37" fill="none" xmlns="http://www.w3.org/2000/svg">
<path d="M0 36.3389L0 0.338867H20V36.3389L10.2703 30.5789L0 36.3389Z" fill="#CF2F2F"/>
<path d="M13.5005 23.2124V21.8897H7.38849V19.5431H6.17249V25.5591H7.38849V23.2124H13.5005ZM13.6285 15.7805C13.6285 14.1805 12.3058 12.8258 10.7378 12.8258C9.16982 12.8258 7.85782 14.1805 7.85782 15.7805C7.85782 17.3805 9.16982 18.7352 10.7378 18.7352C12.3058 18.7352 13.6285 17.3805 13.6285 15.7805ZM12.5192 15.7805C12.5192 16.6978 11.7085 17.4658 10.7378 17.4658C9.77782 17.4658 8.96715 16.6978 8.96715 15.7805C8.96715 14.8738 9.77782 14.1058 10.7378 14.1058C11.7085 14.1058 12.5192 14.8738 12.5192 15.7805ZM7.85782 8.44382C7.85782 9.26516 8.23115 9.92649 8.86049 10.3638H7.98582V11.6652H15.3352V10.3638H12.6258C13.2552 9.92649 13.6285 9.26516 13.6285 8.44382C13.6285 6.98249 12.4338 5.91582 10.7378 5.91582C9.05249 5.91582 7.85782 6.98249 7.85782 8.44382ZM12.5192 8.79582C12.5192 9.71316 11.7725 10.3532 10.7378 10.3532C9.70315 10.3532 8.96715 9.71316 8.96715 8.79582C8.96715 7.86782 9.70315 7.20649 10.7378 7.20649C11.7725 7.20649 12.5192 7.86782 12.5192 8.79582Z" fill="white"/>
</svg>
