<svg width="48" height="12" viewBox="0 0 48 12" fill="none" xmlns="http://www.w3.org/2000/svg">
<path d="M12.6116 4.2312H17.5057V5.17161H15.6233V10.2498H14.4939V5.17161H12.6116V4.2312ZM17.2233 5.82989H18.1645V6.67625C18.1645 6.58221 18.2586 6.48817 18.3528 6.30009C18.4469 6.11201 18.541 6.11201 18.6351 6.01797C18.7292 5.92393 18.9175 5.82989 19.0116 5.82989C19.1057 5.73585 19.2939 5.73585 19.4822 5.73585C19.5763 5.73585 19.6704 5.73585 19.6704 5.73585H19.7645V6.67625C19.6704 6.67625 19.6704 6.67625 19.5763 6.67625C19.4822 6.67625 19.4822 6.67625 19.3881 6.67625C19.1998 6.67625 19.1057 6.67625 18.9175 6.77029C18.7292 6.86433 18.6351 6.95838 18.541 7.05242C18.4469 7.14646 18.3528 7.33454 18.2586 7.52262C18.1645 7.7107 18.1645 7.89878 18.1645 8.1809V10.2498H17.2233V5.82989ZM24.1881 10.2498H23.2469V9.68555C23.1528 9.87363 22.9645 10.0617 22.6822 10.2498C22.4939 10.3438 22.2116 10.4379 21.9292 10.4379C21.3645 10.4379 20.9881 10.3438 20.7057 9.96767C20.4233 9.59151 20.3292 9.21535 20.3292 8.6511V5.92393H21.2704V8.55706C21.2704 8.93323 21.3645 9.21535 21.4586 9.40343C21.6469 9.59151 21.8351 9.68555 22.1175 9.68555C22.3057 9.68555 22.4939 9.68555 22.5881 9.59151C22.6822 9.49747 22.8704 9.40343 22.8704 9.30939C22.9645 9.21535 23.0586 9.12131 23.0586 8.93323C23.0586 8.74514 23.1528 8.6511 23.1528 8.46302V5.92393H24.0939V10.2498H24.1881ZM25.7881 8.83918C25.7881 9.12131 25.8822 9.30939 26.0704 9.40343C26.2586 9.49747 26.4469 9.59151 26.7292 9.59151C26.8234 9.59151 26.9175 9.59151 27.0116 9.59151C27.1057 9.59151 27.1998 9.59151 27.2939 9.49747C27.3881 9.49747 27.4822 9.40343 27.5763 9.30939C27.6704 9.21535 27.6704 9.12131 27.6704 9.02727C27.6704 8.93323 27.5763 8.83918 27.5763 8.74514C27.4822 8.6511 27.3881 8.6511 27.2939 8.55706C27.1998 8.55706 27.0116 8.46302 26.8233 8.46302C26.6351 8.46302 26.4469 8.36898 26.3528 8.36898C26.1645 8.36898 25.9763 8.27494 25.8822 8.1809C25.7881 8.08686 25.5998 8.08686 25.4116 7.99282C25.3175 7.89878 25.1292 7.80474 25.1292 7.61666C25.0351 7.42858 25.0351 7.2405 25.0351 7.05242C25.0351 6.77029 25.1292 6.58221 25.2234 6.48817C25.3175 6.39413 25.5057 6.20605 25.6939 6.11201C25.8822 6.01797 26.0704 5.92393 26.2586 5.92393C26.4469 5.92393 26.7292 5.82989 26.9175 5.82989C27.1057 5.82989 27.3881 5.82989 27.5763 5.92393C27.7645 5.92393 27.9528 6.01797 28.141 6.11201C28.3292 6.20605 28.4234 6.39413 28.5175 6.48817C28.6116 6.67625 28.7057 6.86434 28.7057 7.14646H27.6704C27.6704 6.95838 27.4822 6.77029 27.3881 6.67625C27.1057 6.58221 26.9175 6.48817 26.7292 6.48817C26.6351 6.48817 26.541 6.48817 26.4469 6.48817C26.3528 6.48817 26.2586 6.48817 26.1645 6.58221C26.0704 6.58221 25.9763 6.67625 25.9763 6.67625C25.8822 6.77029 25.8822 6.77029 25.8822 6.86433C25.8822 6.95837 25.8822 7.05242 25.9763 7.14646C26.0704 7.2405 26.1645 7.2405 26.2586 7.33454C26.3528 7.33454 26.541 7.42858 26.7292 7.42858C26.9175 7.42858 27.1057 7.52262 27.2939 7.52262C27.4822 7.52262 27.6704 7.61666 27.7645 7.7107C27.9528 7.80474 28.0469 7.80474 28.2351 7.89878C28.4234 7.99282 28.5175 8.08686 28.5175 8.27494C28.6116 8.46302 28.6116 8.55706 28.6116 8.83918C28.6116 9.12131 28.5175 9.30939 28.4234 9.49747C28.3292 9.68555 28.141 9.77959 27.9528 9.96767C27.8586 10.1558 27.6704 10.2498 27.4822 10.2498C27.2939 10.2498 27.0116 10.3438 26.8233 10.3438C26.541 10.3438 26.2586 10.3438 26.0704 10.2498C25.8822 10.1558 25.5998 10.0617 25.5057 9.96767C25.3175 9.87363 25.2233 9.68555 25.1292 9.49747C24.941 9.30939 24.8469 9.12131 24.8469 8.83918H25.7881ZM28.9881 5.82989H29.741V4.60736H30.6822V5.92393H31.5292V6.67625H30.6822V9.02727C30.6822 9.12131 30.6822 9.21535 30.6822 9.30939C30.6822 9.40343 30.6822 9.40343 30.7763 9.49747C30.8704 9.59151 30.8704 9.59151 30.8704 9.59151C30.9645 9.59151 31.0586 9.59151 31.1528 9.59151C31.2469 9.59151 31.2469 9.59151 31.341 9.59151C31.4351 9.59151 31.4351 9.59151 31.5292 9.59151V10.2498C31.4351 10.2498 31.341 10.2498 31.2469 10.2498C31.1528 10.2498 31.0586 10.2498 30.9645 10.2498C30.6822 10.2498 30.4939 10.2498 30.3998 10.1558C30.2116 10.1558 30.1175 10.0617 30.0234 9.96767C29.9292 9.87363 29.8351 9.77959 29.8351 9.59151C29.8351 9.49747 29.741 9.30939 29.741 9.1213V6.58221H28.9881V5.82989ZM32.1881 5.82989H33.1292V6.48817C33.2234 6.20605 33.4116 6.01797 33.6939 5.92393C33.9763 5.82989 34.1645 5.73585 34.4469 5.73585C34.8234 5.73585 35.1057 5.82989 35.3881 5.92393C35.6704 6.01797 35.8587 6.20605 36.0469 6.39413C36.2351 6.58221 36.3292 6.86434 36.4234 7.14646C36.5175 7.42858 36.5175 7.7107 36.5175 8.08686C36.5175 8.36898 36.5175 8.6511 36.4234 8.93323C36.3292 9.21535 36.2351 9.40343 36.0469 9.68555C35.8587 9.87363 35.6704 10.0617 35.4822 10.1558C35.1998 10.2498 35.0116 10.3438 34.6351 10.3438C34.541 10.3438 34.3528 10.3438 34.2587 10.3438C34.1645 10.3438 33.9763 10.2498 33.8822 10.2498C33.7881 10.1558 33.5998 10.1558 33.5057 10.0617C33.4116 9.96767 33.3175 9.87363 33.2234 9.77959V11.9425H32.2822V5.82989H32.1881ZM35.5763 8.08686C35.5763 7.89878 35.5763 7.7107 35.4822 7.52262C35.3881 7.33454 35.3881 7.14646 35.2939 7.05242C35.1998 6.95838 35.1057 6.77029 34.9175 6.67625C34.7292 6.58221 34.6351 6.58221 34.3528 6.58221C33.9763 6.58221 33.5998 6.67625 33.4116 6.95837C33.2234 7.2405 33.1292 7.61666 33.1292 8.08686C33.1292 8.27494 33.1292 8.55706 33.2234 8.6511C33.3175 8.83918 33.3175 9.02726 33.5057 9.1213C33.5998 9.21535 33.6939 9.40343 33.8822 9.40343C34.0704 9.49747 34.1645 9.49747 34.3528 9.49747C34.541 9.49747 34.7292 9.49747 34.9175 9.40343C35.1057 9.30939 35.1998 9.21535 35.2939 9.02727C35.3881 8.83919 35.4822 8.74514 35.4822 8.55706C35.4822 8.46302 35.5763 8.27494 35.5763 8.08686ZM37.2704 4.2312H38.2116V5.17161H37.2704V4.2312ZM37.2704 5.82989H38.2116V10.2498H37.2704V5.82989ZM39.0587 4.2312H39.9998V10.2498H39.0587V4.2312ZM42.9175 10.3438C42.541 10.3438 42.2587 10.2498 41.9763 10.1558C41.694 10.0617 41.5057 9.87363 41.3175 9.68555C41.1292 9.49747 40.941 9.21535 40.8469 8.93323C40.7528 8.6511 40.6587 8.36898 40.6587 7.99282C40.6587 7.61666 40.7528 7.33454 40.8469 7.05242C40.941 6.77029 41.1292 6.48817 41.3175 6.30009C41.5057 6.11201 41.694 5.92393 41.9763 5.82989C42.2587 5.73585 42.541 5.64181 42.9175 5.64181C43.294 5.64181 43.5763 5.73585 43.8587 5.82989C44.141 5.92393 44.3293 6.11201 44.5175 6.30009C44.7057 6.48817 44.894 6.77029 44.9881 7.05242C45.0822 7.33454 45.1763 7.61666 45.1763 7.99282C45.1763 8.36898 45.0822 8.6511 44.9881 8.93323C44.894 9.21535 44.7057 9.49747 44.5175 9.68555C44.3293 9.87363 44.141 10.0617 43.8587 10.1558C43.5763 10.2498 43.294 10.3438 42.9175 10.3438ZM42.9175 9.59151C43.1057 9.59151 43.294 9.59151 43.4822 9.49747C43.6704 9.40343 43.7645 9.30939 43.8587 9.1213C43.9528 8.93322 44.0469 8.83918 44.0469 8.6511C44.0469 8.46302 44.141 8.27494 44.141 8.08686C44.141 7.89878 44.141 7.7107 44.0469 7.52262C44.0469 7.33454 43.9528 7.14646 43.8587 7.05242C43.7645 6.95838 43.6704 6.77029 43.4822 6.67625C43.294 6.58221 43.1057 6.58221 42.9175 6.58221C42.7292 6.58221 42.541 6.58221 42.3528 6.67625C42.1645 6.77029 42.0704 6.86433 41.9763 7.05242C41.8822 7.2405 41.7881 7.33454 41.7881 7.52262C41.7881 7.7107 41.694 7.89878 41.694 8.08686C41.694 8.27494 41.694 8.46302 41.7881 8.6511C41.7881 8.83918 41.8822 9.02726 41.9763 9.1213C42.0704 9.30939 42.1645 9.40343 42.3528 9.49747C42.541 9.49747 42.7292 9.59151 42.9175 9.59151ZM45.4587 5.82989H46.2116V4.60736H47.1528V5.92393H47.9998V6.67625H47.1528V9.02727C47.1528 9.12131 47.1528 9.21535 47.1528 9.30939C47.1528 9.40343 47.1528 9.40343 47.2469 9.49747C47.341 9.59151 47.341 9.59151 47.341 9.59151C47.4351 9.59151 47.5293 9.59151 47.6234 9.59151C47.7175 9.59151 47.7175 9.59151 47.8116 9.59151C47.9057 9.59151 47.9057 9.59151 47.9998 9.59151V10.2498C47.9057 10.2498 47.8116 10.2498 47.7175 10.2498C47.6234 10.2498 47.5293 10.2498 47.4351 10.2498C47.1528 10.2498 46.9645 10.2498 46.8704 10.1558C46.6822 10.1558 46.5881 10.0617 46.494 9.96767C46.3998 9.87363 46.3057 9.77959 46.3057 9.59151C46.3057 9.49747 46.2116 9.30939 46.2116 9.1213V6.58221H45.4587V5.82989Z" fill="white"/>
<path d="M11.4824 4.23182H7.05883L5.74118 0L4.32942 4.23182H0L3.48236 6.77091L2.16471 11.0027L5.74118 8.3696L9.22354 11.0027L7.90589 6.77091L11.4824 4.23182Z" fill="#00B67A"/>
<path d="M8.18827 7.71116L7.90592 6.77075L5.74121 8.36944L8.18827 7.71116Z" fill="#005128"/>
</svg>
