<svg width="65" height="17" viewBox="0 0 65 17" fill="none" xmlns="http://www.w3.org/2000/svg">
<path d="M17.4153 5.97363H23.8979V7.21927H21.4046V13.9457H19.9086V7.21927H17.4153V5.97363ZM23.5239 8.09121H24.7706V9.21228C24.7706 9.08772 24.8952 8.96315 25.0199 8.71403C25.1446 8.4649 25.2692 8.4649 25.3939 8.34034C25.5186 8.21577 25.7679 8.09121 25.8926 8.09121C26.0172 7.96665 26.2665 7.96665 26.5159 7.96665C26.6405 7.96665 26.7652 7.96665 26.7652 7.96665H26.8899V9.21228C26.7652 9.21228 26.7652 9.21228 26.6405 9.21228C26.5159 9.21228 26.5159 9.21228 26.3912 9.21228C26.1419 9.21228 26.0172 9.21228 25.7679 9.33684C25.5186 9.46141 25.3939 9.58597 25.2692 9.71053C25.1446 9.8351 25.0199 10.0842 24.8952 10.3334C24.7706 10.5825 24.7706 10.8316 24.7706 11.2053V13.9457H23.5239V8.09121ZM32.7492 13.9457H31.5025V13.1983C31.3778 13.4474 31.1285 13.6966 30.7545 13.9457C30.5052 14.0703 30.1312 14.1948 29.7572 14.1948C29.0092 14.1948 28.5105 14.0703 28.1365 13.572C27.7625 13.0737 27.6379 12.5755 27.6379 11.8281V8.21577H28.8845V11.7035C28.8845 12.2018 29.0092 12.5755 29.1339 12.8246C29.3832 13.0737 29.6325 13.1983 30.0065 13.1983C30.2559 13.1983 30.5052 13.1983 30.6299 13.0737C30.7545 12.9492 31.0038 12.8246 31.0038 12.7001C31.1285 12.5755 31.2532 12.4509 31.2532 12.2018C31.2532 11.9527 31.3778 11.8281 31.3778 11.579V8.21577H32.6245V13.9457H32.7492ZM34.8685 12.0772C34.8685 12.4509 34.9931 12.7001 35.2425 12.8246C35.4918 12.9492 35.7411 13.0737 36.1151 13.0737C36.2398 13.0737 36.3645 13.0737 36.4891 13.0737C36.6138 13.0737 36.7385 13.0737 36.8631 12.9492C36.9878 12.9492 37.1125 12.8246 37.2371 12.7001C37.3618 12.5755 37.3618 12.4509 37.3618 12.3264C37.3618 12.2018 37.2371 12.0772 37.2371 11.9527C37.1125 11.8281 36.9878 11.8281 36.8631 11.7035C36.7385 11.7035 36.4891 11.579 36.2398 11.579C35.9905 11.579 35.7411 11.4544 35.6165 11.4544C35.3671 11.4544 35.1178 11.3299 34.9931 11.2053C34.8685 11.0807 34.6192 11.0807 34.3698 10.9562C34.2452 10.8316 33.9958 10.707 33.9958 10.4579C33.8712 10.2088 33.8712 9.95966 33.8712 9.71053C33.8712 9.33684 33.9958 9.08772 34.1205 8.96315C34.2452 8.83859 34.4945 8.58946 34.7438 8.4649C34.9932 8.34034 35.2425 8.21577 35.4918 8.21577C35.7411 8.21577 36.1151 8.09121 36.3645 8.09121C36.6138 8.09121 36.9878 8.09121 37.2371 8.21577C37.4865 8.21577 37.7358 8.34034 37.9851 8.4649C38.2345 8.58946 38.3591 8.83859 38.4838 8.96315C38.6085 9.21228 38.7331 9.46141 38.7331 9.8351H37.3618C37.3618 9.58597 37.1125 9.33684 36.9878 9.21228C36.6138 9.08772 36.3645 8.96315 36.1151 8.96315C35.9905 8.96315 35.8658 8.96315 35.7411 8.96315C35.6165 8.96315 35.4918 8.96315 35.3671 9.08772C35.2425 9.08772 35.1178 9.21228 35.1178 9.21228C34.9932 9.33684 34.9931 9.33684 34.9931 9.46141C34.9931 9.58597 34.9932 9.71054 35.1178 9.8351C35.2425 9.95966 35.3671 9.95966 35.4918 10.0842C35.6165 10.0842 35.8658 10.2088 36.1151 10.2088C36.3645 10.2088 36.6138 10.3334 36.8631 10.3334C37.1125 10.3334 37.3618 10.4579 37.4865 10.5825C37.7358 10.707 37.8605 10.707 38.1098 10.8316C38.3591 10.9562 38.4838 11.0807 38.4838 11.3299C38.6085 11.579 38.6085 11.7035 38.6085 12.0772C38.6085 12.4509 38.4838 12.7001 38.3591 12.9492C38.2345 13.1983 37.9851 13.3229 37.7358 13.572C37.6111 13.8211 37.3618 13.9457 37.1125 13.9457C36.8631 13.9457 36.4891 14.0703 36.2398 14.0703C35.8658 14.0703 35.4918 14.0703 35.2425 13.9457C34.9931 13.8211 34.6192 13.6966 34.4945 13.572C34.2452 13.4474 34.1205 13.1983 33.9958 12.9492C33.7465 12.7001 33.6218 12.4509 33.6218 12.0772H34.8685ZM39.1071 8.09121H40.1044V6.47189H41.3511V8.21577H42.4731V9.21228H41.3511V12.3264C41.3511 12.4509 41.3511 12.5755 41.3511 12.7001C41.3511 12.8246 41.3511 12.8246 41.4758 12.9492C41.6004 13.0737 41.6004 13.0737 41.6004 13.0737C41.7251 13.0737 41.8498 13.0737 41.9744 13.0737C42.0991 13.0737 42.0991 13.0737 42.2238 13.0737C42.3484 13.0737 42.3484 13.0737 42.4731 13.0737V13.9457C42.3484 13.9457 42.2238 13.9457 42.0991 13.9457C41.9744 13.9457 41.8498 13.9457 41.7251 13.9457C41.3511 13.9457 41.1018 13.9457 40.9771 13.8211C40.7278 13.8211 40.6031 13.6966 40.4784 13.572C40.3538 13.4474 40.2291 13.3229 40.2291 13.0737C40.2291 12.9492 40.1044 12.7001 40.1044 12.4509V9.08772H39.1071V8.09121ZM43.3458 8.09121H44.5924V8.96315C44.7171 8.58946 44.9664 8.34034 45.3404 8.21577C45.7144 8.09121 45.9637 7.96665 46.3377 7.96665C46.8364 7.96665 47.2104 8.09121 47.5844 8.21577C47.9584 8.34034 48.2077 8.58946 48.4571 8.83859C48.7064 9.08772 48.831 9.46141 48.9557 9.8351C49.0804 10.2088 49.0804 10.5825 49.0804 11.0807C49.0804 11.4544 49.0804 11.8281 48.9557 12.2018C48.831 12.5755 48.7064 12.8246 48.4571 13.1983C48.2077 13.4474 47.9584 13.6966 47.7091 13.8211C47.3351 13.9457 47.0857 14.0703 46.5871 14.0703C46.4624 14.0703 46.2131 14.0703 46.0884 14.0703C45.9637 14.0703 45.7144 13.9457 45.5897 13.9457C45.4651 13.8211 45.2157 13.8211 45.0911 13.6966C44.9664 13.572 44.8417 13.4474 44.7171 13.3229V16.1878H43.4704V8.09121H43.3458ZM47.8337 11.0807C47.8337 10.8316 47.8337 10.5825 47.7091 10.3334C47.5844 10.0842 47.5844 9.8351 47.4597 9.71053C47.3351 9.58597 47.2104 9.33684 46.9611 9.21228C46.7117 9.08772 46.5871 9.08772 46.2131 9.08772C45.7144 9.08772 45.2157 9.21228 44.9664 9.58597C44.7171 9.95966 44.5924 10.4579 44.5924 11.0807C44.5924 11.3299 44.5924 11.7035 44.7171 11.8281C44.8417 12.0772 44.8417 12.3264 45.0911 12.4509C45.2157 12.5755 45.3404 12.8246 45.5897 12.8246C45.8391 12.9492 45.9637 12.9492 46.2131 12.9492C46.4624 12.9492 46.7117 12.9492 46.9611 12.8246C47.2104 12.7001 47.3351 12.5755 47.4597 12.3264C47.5844 12.0772 47.7091 11.9527 47.7091 11.7035C47.7091 11.579 47.8337 11.3299 47.8337 11.0807ZM50.0777 5.97363H51.3244V7.21927H50.0777V5.97363ZM50.0777 8.09121H51.3244V13.9457H50.0777V8.09121ZM52.4464 5.97363H53.693V13.9457H52.4464V5.97363ZM57.5576 14.0703C57.059 14.0703 56.685 13.9457 56.311 13.8211C55.937 13.6966 55.6877 13.4474 55.4383 13.1983C55.189 12.9492 54.9397 12.5755 54.815 12.2018C54.6903 11.8281 54.5657 11.4544 54.5657 10.9562C54.5657 10.4579 54.6903 10.0842 54.815 9.71053C54.9397 9.33684 55.189 8.96315 55.4383 8.71403C55.6877 8.4649 55.937 8.21577 56.311 8.09121C56.685 7.96665 57.059 7.84208 57.5576 7.84208C58.0563 7.84208 58.4303 7.96665 58.8043 8.09121C59.1783 8.21577 59.4276 8.4649 59.677 8.71403C59.9263 8.96315 60.1756 9.33684 60.3003 9.71053C60.425 10.0842 60.5496 10.4579 60.5496 10.9562C60.5496 11.4544 60.425 11.8281 60.3003 12.2018C60.1756 12.5755 59.9263 12.9492 59.677 13.1983C59.4276 13.4474 59.1783 13.6966 58.8043 13.8211C58.4303 13.9457 58.0563 14.0703 57.5576 14.0703ZM57.5576 13.0737C57.807 13.0737 58.0563 13.0737 58.3056 12.9492C58.555 12.8246 58.6796 12.7001 58.8043 12.4509C58.929 12.2018 59.0536 12.0772 59.0536 11.8281C59.0536 11.579 59.1783 11.3299 59.1783 11.0807C59.1783 10.8316 59.1783 10.5825 59.0536 10.3334C59.0536 10.0842 58.929 9.8351 58.8043 9.71053C58.6796 9.58597 58.555 9.33684 58.3056 9.21228C58.0563 9.08772 57.807 9.08772 57.5576 9.08772C57.3083 9.08772 57.059 9.08772 56.8097 9.21228C56.5603 9.33684 56.4357 9.46141 56.311 9.71053C56.1863 9.95966 56.0617 10.0842 56.0617 10.3334C56.0617 10.5825 55.937 10.8316 55.937 11.0807C55.937 11.3299 55.937 11.579 56.0617 11.8281C56.0617 12.0772 56.1863 12.3264 56.311 12.4509C56.4357 12.7001 56.5603 12.8246 56.8097 12.9492C57.059 12.9492 57.3083 13.0737 57.5576 13.0737ZM60.9236 8.09121H61.9209V6.47189H63.1676V8.21577H64.2896V9.21228H63.1676V12.3264C63.1676 12.4509 63.1676 12.5755 63.1676 12.7001C63.1676 12.8246 63.1676 12.8246 63.2923 12.9492C63.4169 13.0737 63.4169 13.0737 63.4169 13.0737C63.5416 13.0737 63.6663 13.0737 63.7909 13.0737C63.9156 13.0737 63.9156 13.0737 64.0403 13.0737C64.1649 13.0737 64.1649 13.0737 64.2896 13.0737V13.9457C64.1649 13.9457 64.0403 13.9457 63.9156 13.9457C63.7909 13.9457 63.6663 13.9457 63.5416 13.9457C63.1676 13.9457 62.9183 13.9457 62.7936 13.8211C62.5443 13.8211 62.4196 13.6966 62.2949 13.572C62.1703 13.4474 62.0456 13.3229 62.0456 13.0737C62.0456 12.9492 61.9209 12.7001 61.9209 12.4509V9.08772H60.9236V8.09121Z" fill="white"/>
<path d="M15.9194 5.97449H10.0601L8.31482 0.369141L6.44483 5.97449H0.710205L5.32284 9.3377L3.57752 14.9431L8.31482 11.4553L12.9274 14.9431L11.1821 9.3377L15.9194 5.97449Z" fill="#00B67A"/>
<path d="M11.5563 10.583L11.1823 9.3374L8.31494 11.455L11.5563 10.583Z" fill="#005128"/>
</svg>
