<svg width="120" height="30" viewBox="0 0 120 30" fill="none" xmlns="http://www.w3.org/2000/svg">
<path d="M31.5295 10.6289H43.7648V12.9912H39.059V25.7477H36.2354V12.9912H31.5295V10.6289ZM43.059 14.6448H45.4119V16.7709C45.4119 16.5347 45.6472 16.2985 45.8825 15.826C46.1178 15.3535 46.3531 15.3535 46.5884 15.1173C46.8237 14.8811 47.2943 14.6448 47.5296 14.6448C47.7648 14.4086 48.2354 14.4086 48.706 14.4086C48.9413 14.4086 49.1766 14.4086 49.1766 14.4086H49.4119V16.7709C49.1766 16.7709 49.1766 16.7709 48.9413 16.7709C48.706 16.7709 48.706 16.7709 48.4707 16.7709C48.0001 16.7709 47.7649 16.7709 47.2943 17.0072C46.8237 17.2434 46.5884 17.4796 46.3531 17.7159C46.1178 17.9521 45.8825 18.4246 45.6472 18.897C45.4119 19.3695 45.4119 19.8419 45.4119 20.5506V25.7477H43.059V14.6448ZM60.4707 25.7477H58.1178V24.3303C57.8825 24.8028 57.4119 25.2753 56.706 25.7477C56.2354 25.984 55.5296 26.2202 54.8237 26.2202C53.4119 26.2202 52.4707 25.984 51.7649 25.039C51.059 24.0941 50.8237 23.1492 50.8237 21.7318V14.8811H53.1766V21.4956C53.1766 22.4405 53.4119 23.1492 53.6472 23.6217C54.1178 24.0941 54.5884 24.3303 55.2943 24.3303C55.7649 24.3303 56.2354 24.3303 56.4707 24.0941C56.706 23.8579 57.1766 23.6216 57.1766 23.3854C57.4119 23.1492 57.6472 22.913 57.6472 22.4405C57.6472 21.968 57.8825 21.7318 57.8825 21.2593V14.8811H60.2355V25.7477H60.4707ZM64.4707 22.2043C64.4707 22.913 64.706 23.3854 65.1766 23.6217C65.6472 23.8579 66.1178 24.0941 66.8237 24.0941C67.059 24.0941 67.2943 24.0941 67.5296 24.0941C67.7649 24.0941 68.0002 24.0941 68.2355 23.8579C68.4707 23.8579 68.7061 23.6216 68.9413 23.3854C69.1766 23.1492 69.1766 22.913 69.1766 22.6767C69.1766 22.4405 68.9413 22.2043 68.9413 21.968C68.7061 21.7318 68.4707 21.7318 68.2355 21.4956C68.0002 21.4956 67.5296 21.2593 67.059 21.2593C66.5884 21.2593 66.1178 21.0231 65.8825 21.0231C65.4119 21.0231 64.9413 20.7869 64.706 20.5506C64.4707 20.3144 64.0002 20.3144 63.5296 20.0782C63.2943 19.8419 62.8237 19.6057 62.8237 19.1332C62.5884 18.6608 62.5884 18.1883 62.5884 17.7159C62.5884 17.0072 62.8237 16.5347 63.059 16.2985C63.2943 16.0622 63.7649 15.5898 64.2355 15.3535C64.706 15.1173 65.1766 14.8811 65.6472 14.8811C66.1178 14.8811 66.8237 14.6448 67.2943 14.6448C67.7649 14.6448 68.4708 14.6448 68.9413 14.8811C69.4119 14.8811 69.8825 15.1173 70.3531 15.3535C70.8237 15.5898 71.059 16.0622 71.2943 16.2985C71.5296 16.7709 71.7649 17.2434 71.7649 17.9521H69.1766C69.1766 17.4796 68.706 17.0072 68.4708 16.7709C67.7649 16.5347 67.2943 16.2985 66.8237 16.2985C66.5884 16.2985 66.3531 16.2985 66.1178 16.2985C65.8825 16.2985 65.6472 16.2985 65.4119 16.5347C65.1766 16.5347 64.9413 16.7709 64.9413 16.7709C64.706 17.0072 64.706 17.0072 64.706 17.2434C64.706 17.4796 64.706 17.7159 64.9413 17.9521C65.1766 18.1883 65.4119 18.1883 65.6472 18.4246C65.8825 18.4246 66.3531 18.6608 66.8237 18.6608C67.2943 18.6608 67.7649 18.897 68.2355 18.897C68.706 18.897 69.1766 19.1332 69.4119 19.3695C69.8825 19.6057 70.1178 19.6057 70.5884 19.8419C71.059 20.0782 71.2943 20.3144 71.2943 20.7869C71.5296 21.2593 71.5296 21.4956 71.5296 22.2043C71.5296 22.913 71.2943 23.3854 71.059 23.8579C70.8237 24.3303 70.3531 24.5666 69.8825 25.039C69.6472 25.5115 69.1766 25.7477 68.706 25.7477C68.2355 25.7477 67.5296 25.984 67.059 25.984C66.3531 25.984 65.6472 25.984 65.1766 25.7477C64.706 25.5115 64.0002 25.2753 63.7649 25.039C63.2943 24.8028 63.059 24.3303 62.8237 23.8579C62.3531 23.3854 62.1178 22.913 62.1178 22.2043H64.4707ZM72.4708 14.6448H74.3531V11.5738H76.7061V14.8811H78.8237V16.7709H76.7061V22.6767C76.7061 22.913 76.7061 23.1492 76.7061 23.3854C76.7061 23.6216 76.7061 23.6217 76.9413 23.8579C77.1766 24.0941 77.1766 24.0941 77.1766 24.0941C77.4119 24.0941 77.6472 24.0941 77.8825 24.0941C78.1178 24.0941 78.1178 24.0941 78.3531 24.0941C78.5884 24.0941 78.5884 24.0941 78.8237 24.0941V25.7477C78.5884 25.7477 78.3531 25.7477 78.1178 25.7477C77.8825 25.7477 77.6472 25.7477 77.4119 25.7477C76.7061 25.7477 76.2355 25.7477 76.0002 25.5115C75.5296 25.5115 75.2943 25.2753 75.059 25.039C74.8237 24.8028 74.5884 24.5666 74.5884 24.0941C74.5884 23.8579 74.3531 23.3854 74.3531 22.913V16.5347H72.4708V14.6448ZM80.4708 14.6448H82.8237V16.2985C83.059 15.5898 83.5296 15.1173 84.2355 14.8811C84.9414 14.6448 85.4119 14.4086 86.1178 14.4086C87.059 14.4086 87.7649 14.6448 88.4708 14.8811C89.1767 15.1173 89.6472 15.5898 90.1178 16.0622C90.5884 16.5347 90.8237 17.2434 91.059 17.9521C91.2943 18.6608 91.2943 19.3695 91.2943 20.3144C91.2943 21.0231 91.2943 21.7318 91.059 22.4405C90.8237 23.1492 90.5884 23.6216 90.1178 24.3303C89.6472 24.8028 89.1767 25.2753 88.7061 25.5115C88.0002 25.7477 87.5296 25.984 86.5884 25.984C86.3531 25.984 85.8825 25.984 85.6472 25.984C85.4119 25.984 84.9414 25.7477 84.7061 25.7477C84.4708 25.5115 84.0002 25.5115 83.7649 25.2753C83.5296 25.039 83.2943 24.8028 83.059 24.5666V29.9999H80.7061V14.6448H80.4708ZM88.9414 20.3144C88.9414 19.8419 88.9414 19.3695 88.7061 18.897C88.4708 18.4246 88.4708 17.9521 88.2355 17.7159C88.0002 17.4796 87.7649 17.0072 87.2943 16.7709C86.8237 16.5347 86.5884 16.5347 85.8825 16.5347C84.9414 16.5347 84.0002 16.7709 83.5296 17.4796C83.059 18.1883 82.8237 19.1332 82.8237 20.3144C82.8237 20.7869 82.8237 21.4956 83.059 21.7318C83.2943 22.2043 83.2943 22.6767 83.7649 22.913C84.0002 23.1492 84.2355 23.6217 84.7061 23.6217C85.1766 23.8579 85.4119 23.8579 85.8825 23.8579C86.3531 23.8579 86.8237 23.8579 87.2943 23.6217C87.7649 23.3854 88.0002 23.1492 88.2355 22.6767C88.4708 22.2043 88.7061 21.968 88.7061 21.4956C88.7061 21.2593 88.9414 20.7869 88.9414 20.3144ZM93.1767 10.6289H95.5296V12.9912H93.1767V10.6289ZM93.1767 14.6448H95.5296V25.7477H93.1767V14.6448ZM97.6472 10.6289H100V25.7477H97.6472V10.6289ZM107.294 25.984C106.353 25.984 105.647 25.7477 104.941 25.5115C104.235 25.2753 103.765 24.8028 103.294 24.3303C102.824 23.8579 102.353 23.1492 102.118 22.4405C101.883 21.7318 101.647 21.0231 101.647 20.0782C101.647 19.1332 101.883 18.4246 102.118 17.7159C102.353 17.0072 102.824 16.2985 103.294 15.826C103.765 15.3535 104.235 14.8811 104.941 14.6448C105.647 14.4086 106.353 14.1724 107.294 14.1724C108.235 14.1724 108.941 14.4086 109.647 14.6448C110.353 14.8811 110.824 15.3535 111.294 15.826C111.765 16.2985 112.236 17.0072 112.471 17.7159C112.706 18.4246 112.941 19.1332 112.941 20.0782C112.941 21.0231 112.706 21.7318 112.471 22.4405C112.236 23.1492 111.765 23.8579 111.294 24.3303C110.824 24.8028 110.353 25.2753 109.647 25.5115C108.941 25.7477 108.235 25.984 107.294 25.984ZM107.294 24.0941C107.765 24.0941 108.235 24.0941 108.706 23.8579C109.177 23.6217 109.412 23.3854 109.647 22.913C109.883 22.4405 110.118 22.2043 110.118 21.7318C110.118 21.2593 110.353 20.7869 110.353 20.3144C110.353 19.8419 110.353 19.3695 110.118 18.897C110.118 18.4246 109.883 17.9521 109.647 17.7159C109.412 17.4796 109.177 17.0072 108.706 16.7709C108.235 16.5347 107.765 16.5347 107.294 16.5347C106.824 16.5347 106.353 16.5347 105.883 16.7709C105.412 17.0072 105.177 17.2434 104.941 17.7159C104.706 18.1883 104.471 18.4246 104.471 18.897C104.471 19.3695 104.235 19.8419 104.235 20.3144C104.235 20.7869 104.235 21.2593 104.471 21.7318C104.471 22.2043 104.706 22.6767 104.941 22.913C105.177 23.3854 105.412 23.6217 105.883 23.8579C106.353 23.8579 106.824 24.0941 107.294 24.0941ZM113.647 14.6448H115.53V11.5738H117.883V14.8811H120V16.7709H117.883V22.6767C117.883 22.913 117.883 23.1492 117.883 23.3854C117.883 23.6216 117.883 23.6217 118.118 23.8579C118.353 24.0941 118.353 24.0941 118.353 24.0941C118.588 24.0941 118.824 24.0941 119.059 24.0941C119.294 24.0941 119.294 24.0941 119.53 24.0941C119.765 24.0941 119.765 24.0941 120 24.0941V25.7477C119.765 25.7477 119.53 25.7477 119.294 25.7477C119.059 25.7477 118.824 25.7477 118.588 25.7477C117.883 25.7477 117.412 25.7477 117.177 25.5115C116.706 25.5115 116.471 25.2753 116.236 25.039C116 24.8028 115.765 24.5666 115.765 24.0941C115.765 23.8579 115.53 23.3854 115.53 22.913V16.5347H113.647V14.6448Z" fill="white"/>
<path d="M28.7059 10.6304H17.6471L14.353 0L10.8235 10.6304H0L8.70589 17.0087L5.41177 27.6391L14.353 21.0246L23.0588 27.6391L19.7647 17.0087L28.7059 10.6304Z" fill="#00B67A"/>
<path d="M20.4704 19.3711L19.7646 17.0088L14.3528 21.0247L20.4704 19.3711Z" fill="#005128"/>
</svg>
