<svg width="88" height="17" viewBox="0 0 88 17" fill="none" xmlns="http://www.w3.org/2000/svg">
<path d="M15.9654 0.974609H0V16.9746H15.9654V0.974609Z" fill="#00B67A"/>
<path d="M7.81623 11.6416L10.3108 10.9749L11.3087 14.1416L7.81623 11.6416ZM13.4706 7.6416H9.14667L7.81623 3.6416L6.48578 7.6416H2.32812L5.82055 10.1416L4.4901 14.1416L7.98253 11.6416L10.1445 10.1416L13.4706 7.6416Z" fill="white"/>
<path d="M33.9742 0.974609H18.0088V16.9746H33.9742V0.974609Z" fill="#00B67A"/>
<path d="M25.825 11.6416L28.3196 10.9749L29.3174 14.1416L25.825 11.6416ZM31.4794 7.6416H27.1555L25.825 3.6416L24.4946 7.6416H20.3369L23.8293 10.1416L22.4989 14.1416L25.9913 11.6416L28.1533 10.1416L31.4794 7.6416Z" fill="white"/>
<path d="M51.9827 0.974609H36.0173V16.9746H51.9827V0.974609Z" fill="#00B67A"/>
<path d="M43.834 11.6416L46.3286 10.9749L47.3265 14.1416L43.834 11.6416ZM49.4885 7.6416H45.1645L43.834 3.6416L42.5036 7.6416H38.3459L41.8384 10.1416L40.5079 14.1416L44.0004 11.6416L46.1623 10.1416L49.4885 7.6416Z" fill="white"/>
<path d="M69.9913 0.974609H54.0259V16.9746H69.9913V0.974609Z" fill="#00B67A"/>
<path d="M61.8426 11.6416L64.3372 10.9749L65.335 14.1416L61.8426 11.6416ZM67.497 7.6416H63.173L61.8426 3.6416L60.5121 7.6416H56.3545L59.8469 10.1416L58.5165 14.1416L62.0089 11.6416L64.1709 10.1416L67.497 7.6416Z" fill="white"/>
<path d="M88.0001 0.974609H72.0347V16.9746H88.0001V0.974609Z" fill="#00B67A"/>
<path d="M79.8509 11.6416L82.3455 10.9749L83.3433 14.1416L79.8509 11.6416ZM85.5053 7.6416H81.1813L79.8509 3.6416L78.5204 7.6416H74.3628L77.8552 10.1416L76.5248 14.1416L80.0172 11.6416L82.1792 10.1416L85.5053 7.6416Z" fill="white"/>
</svg>
