<svg width="32" height="33" viewBox="0 0 32 33" fill="none" xmlns="http://www.w3.org/2000/svg">
<circle cx="16.0002" cy="16.4033" r="16" fill="#3E2FB7"/>
<path d="M24.0002 10.9816C23.4116 11.2494 22.7789 11.4303 22.115 11.5117C22.7926 11.0951 23.3132 10.4355 23.5582 9.64942C22.9239 10.0352 22.2214 10.3153 21.4737 10.4662C20.875 9.81201 20.0218 9.40332 19.0777 9.40332C17.2649 9.40332 15.795 10.9104 15.795 12.7692C15.795 13.0331 15.8241 13.29 15.8801 13.5363C13.1519 13.396 10.7332 12.0559 9.11414 10.0194C8.83158 10.5165 8.66966 11.0947 8.66966 11.7116C8.66966 12.8794 9.24918 13.9097 10.13 14.5133C9.5919 14.4958 9.08574 14.3444 8.64318 14.0923C8.6428 14.1063 8.6428 14.1204 8.6428 14.1346C8.6428 15.7654 9.77433 17.1258 11.276 17.4352C11.0006 17.5122 10.7106 17.5533 10.4112 17.5533C10.1997 17.5533 9.99409 17.5321 9.79361 17.4929C10.2114 18.8301 11.4236 19.8033 12.8601 19.8304C11.7367 20.7332 10.3213 21.2714 8.78329 21.2714C8.51832 21.2714 8.25704 21.2554 8.00024 21.2243C9.45297 22.1794 11.1784 22.7367 13.0322 22.7367C19.07 22.7367 22.3719 17.6077 22.3719 13.1595C22.3719 13.0135 22.3687 12.8684 22.3623 12.724C23.0036 12.2495 23.5601 11.6567 24.0002 10.9816H24.0002Z" fill="white"/>
</svg>
