<svg width="16" height="17" viewBox="0 0 16 17" fill="none" xmlns="http://www.w3.org/2000/svg">
<g clip-path="url(#clip0_2717_20551)">
<path fill-rule="evenodd" clip-rule="evenodd" d="M1.62178 10.8302C1.06966 10.6671 0.666748 10.1562 0.666748 9.55127V8.21794C0.666748 7.61296 1.06966 7.1021 1.62178 6.93903C2.2668 4.82172 3.9372 3.15132 6.05451 2.5063C6.21758 1.95418 6.72844 1.55127 7.33342 1.55127H8.66675C9.27172 1.55127 9.78259 1.95418 9.94565 2.5063C12.063 3.15132 13.7334 4.82172 14.3784 6.93903C14.9305 7.1021 15.3334 7.61296 15.3334 8.21794V9.55127C15.3334 10.1562 14.9305 10.6671 14.3784 10.8302C13.7334 12.9475 12.063 14.6179 9.94565 15.2629C9.78259 15.815 9.27172 16.2179 8.66675 16.2179H7.33342C6.72844 16.2179 6.21758 15.815 6.05451 15.2629C3.9372 14.6179 2.2668 12.9475 1.62178 10.8302ZM8.00008 12.2179L9.19093 11.2713C9.70836 11.0126 10.1299 10.5906 10.388 10.0728L11.3334 8.8846L10.3865 7.69338C10.1285 7.17738 9.708 6.75677 9.1921 6.49854L8.00008 5.55127L6.80867 6.49823C6.29251 6.75643 5.87181 7.17716 5.61364 7.69333L4.66675 8.8846L5.6122 10.073C5.8701 10.5902 6.29108 11.0118 6.80781 11.2705L8.00008 12.2179Z" fill="#301F87"/>
<path fill-rule="evenodd" clip-rule="evenodd" d="M10.982 2.92078C10.0847 2.47125 9.07185 2.21826 7.99992 2.21826C6.92799 2.21826 5.91514 2.47125 5.01784 2.92078L6.80709 6.49927C7.16601 6.31946 7.57115 6.21826 7.99992 6.21826C8.42869 6.21826 8.83383 6.31946 9.19275 6.49927L10.982 2.92078ZM2.03577 5.90285C1.58624 6.80015 1.33325 7.813 1.33325 8.88493C1.33325 9.95686 1.58624 10.9697 2.03577 11.867L5.61426 10.0778C5.43445 9.71884 5.33325 9.3137 5.33325 8.88493C5.33325 8.45616 5.43445 8.05102 5.61426 7.6921L2.03577 5.90285ZM6.80709 11.2706C7.16601 11.4504 7.57115 11.5516 7.99992 11.5516C8.42869 11.5516 8.83383 11.4504 9.19275 11.2706L10.982 14.8491C10.0847 15.2986 9.07185 15.5516 7.99992 15.5516C6.92799 15.5516 5.91514 15.2986 5.01784 14.8491L6.80709 11.2706ZM14.6666 8.88493C14.6666 7.813 14.4136 6.80015 13.9641 5.90285L10.3856 7.6921C10.5654 8.05102 10.6666 8.45616 10.6666 8.88493C10.6666 9.3137 10.5654 9.71884 10.3856 10.0778L13.9641 11.867C14.4136 10.9697 14.6666 9.95686 14.6666 8.88493Z" fill="#34CCA9"/>
</g>
<defs>
<clipPath id="clip0_2717_20551">
<rect width="16" height="16" fill="white" transform="translate(0 0.884766)"/>
</clipPath>
</defs>
</svg>
