<svg width="227" height="401" viewBox="0 0 227 401" fill="none" xmlns="http://www.w3.org/2000/svg">
<rect x="1.72925" y="0.680176" width="50.7999" height="50.9091" fill="#34CCA9"/>
<rect x="89.1147" y="0.680176" width="50.7999" height="50.9091" fill="#D3CFF2" fill-opacity="0.2"/>
<rect x="176.2" y="87.9531" width="50.7999" height="50.9091" fill="#D3CFF2" fill-opacity="0.2"/>
<path d="M89.1147 113.363C89.1147 99.3294 100.491 87.9531 114.524 87.9531H139.915V138.862H89.1147V113.363Z" fill="#D3CFF2" fill-opacity="0.2"/>
<path d="M89.1147 287.908C89.1147 273.875 100.491 262.499 114.524 262.499H139.915V313.408H89.1147V287.908Z" fill="#D3CFF2" fill-opacity="0.2"/>
<path d="M88.2078 375.181C88.2078 361.147 99.5841 349.771 113.617 349.771H139.008V400.68H88.2078V375.181Z" fill="#D3CFF2" fill-opacity="0.2"/>
<path d="M176.2 200.635C176.2 186.602 187.577 175.226 201.61 175.226H227V226.135H176.2V200.635Z" fill="#D3CFF2" fill-opacity="0.2"/>
<path d="M1.72925 200.635C1.72925 186.602 13.1056 175.226 27.1389 175.226H52.5292V226.135H1.72925V200.635Z" fill="#D3CFF2" fill-opacity="0.2"/>
<ellipse cx="201.6" cy="26.1347" rx="25.4" ry="25.4545" fill="#D3CFF2" fill-opacity="0.2"/>
<ellipse cx="114.515" cy="200.68" rx="25.4" ry="25.4545" fill="#D3CFF2" fill-opacity="0.2"/>
<ellipse cx="201.6" cy="287.953" rx="25.4" ry="25.4545" fill="#D3CFF2" fill-opacity="0.2"/>
<ellipse cx="200.694" cy="375.226" rx="25.4" ry="25.4545" fill="#D3CFF2" fill-opacity="0.2"/>
<ellipse cx="27.1302" cy="113.408" rx="25.4" ry="25.4545" fill="#D3CFF2" fill-opacity="0.2"/>
<ellipse cx="27.1292" cy="287.953" rx="25.4" ry="25.4545" fill="#D3CFF2" fill-opacity="0.2"/>
<ellipse cx="26.2222" cy="375.226" rx="25.4" ry="25.4545" fill="#D3CFF2" fill-opacity="0.2"/>
</svg>
