<svg width="227" height="401" viewBox="0 0 227 401" fill="none" xmlns="http://www.w3.org/2000/svg">
<rect width="50.7999" height="50.9091" transform="matrix(1 0 0 -1 0.906982 400.885)" fill="#51429C"/>
<rect width="50.7999" height="50.9091" transform="matrix(1 0 0 -1 88.2925 400.885)" fill="#D3CFF2" fill-opacity="0.2"/>
<rect width="50.7999" height="50.9091" transform="matrix(1 0 0 -1 175.378 313.612)" fill="#D3CFF2" fill-opacity="0.2"/>
<path d="M88.2925 113.657C88.2925 127.69 99.6688 139.066 113.702 139.066H139.092V88.1573H88.2925V113.657Z" fill="#D3CFF2" fill-opacity="0.2"/>
<path d="M87.3855 26.3842C87.3855 40.4176 98.7618 51.7939 112.795 51.7939H138.185V0.884857H87.3855V26.3842Z" fill="#D3CFF2" fill-opacity="0.2"/>
<path d="M175.378 200.93C175.378 214.963 186.754 226.339 200.788 226.339H226.178V175.43H175.378V200.93Z" fill="#D3CFF2" fill-opacity="0.2"/>
<path d="M0.906982 200.93C0.906982 214.963 12.2833 226.339 26.3167 226.339H51.7069V175.43H0.906982V200.93Z" fill="#D3CFF2" fill-opacity="0.2"/>
<ellipse rx="25.4" ry="25.4545" transform="matrix(1 0 0 -1 200.778 375.43)" fill="#34CCA9"/>
<ellipse rx="25.4" ry="25.4545" transform="matrix(1 0 0 -1 113.692 200.885)" fill="#D3CFF2" fill-opacity="0.2"/>
<ellipse rx="25.4" ry="25.4545" transform="matrix(1 0 0 -1 200.778 113.612)" fill="#D3CFF2" fill-opacity="0.2"/>
<ellipse rx="25.4" ry="25.4545" transform="matrix(1 0 0 -1 199.872 26.3394)" fill="#D3CFF2" fill-opacity="0.2"/>
<ellipse rx="25.4" ry="25.4545" transform="matrix(1 0 0 -1 26.3069 113.612)" fill="#D3CFF2" fill-opacity="0.2"/>
<ellipse rx="25.4" ry="25.4545" transform="matrix(1 0 0 -1 25.4 26.3394)" fill="#D3CFF2" fill-opacity="0.2"/>
</svg>
