<svg width="41" height="40" viewBox="0 0 41 40" fill="none" xmlns="http://www.w3.org/2000/svg">
<path d="M24.3584 29.2346H16.6033" stroke="#CF2F2F" stroke-width="0.910573" stroke-linecap="round" stroke-linejoin="round"/>
<path d="M30.1643 34.9995C33.3709 34.9995 35.9703 32.4184 35.9703 29.2345C35.9703 26.0506 33.3709 23.4695 30.1643 23.4695C26.9578 23.4695 24.3584 26.0506 24.3584 29.2345C24.3584 32.4184 26.9578 34.9995 30.1643 34.9995Z" fill="#FAEAEA" stroke="#CF2F2F" stroke-width="0.910573" stroke-linecap="round" stroke-linejoin="round"/>
<path d="M30.1641 16.6665V23.4698" stroke="#CF2F2F" stroke-width="0.910573" stroke-linecap="round" stroke-linejoin="round"/>
<path d="M10.1035 16.5295C13.3101 16.5295 15.9095 13.9484 15.9095 10.7645C15.9095 7.58059 13.3101 4.99951 10.1035 4.99951C6.89701 4.99951 4.29761 7.58059 4.29761 10.7645C4.29761 13.9484 6.89701 16.5295 10.1035 16.5295Z" fill="#FAEAEA" stroke="#CF2F2F" stroke-width="0.910573" stroke-linecap="round" stroke-linejoin="round"/>
<path d="M10.103 23.3332V16.6665" stroke="#CF2F2F" stroke-width="0.910573" stroke-linecap="round" stroke-linejoin="round"/>
<path d="M13.4469 34.9992H6.75997C4.9127 34.9992 3.4165 33.5075 3.4165 31.6659C3.4165 29.8242 4.9127 28.3325 6.75997 28.3325H13.4469C15.2942 28.3325 16.7904 29.8242 16.7904 31.6659C16.7904 33.5075 15.2942 34.9992 13.4469 34.9992Z" stroke="#CF2F2F" stroke-width="0.910573" stroke-linecap="round" stroke-linejoin="round"/>
<path d="M3.42798 31.3894L3.82251 26.4044C3.95792 24.6694 5.41065 23.3328 7.15427 23.3328H13.0505C14.7958 23.3328 16.2468 24.6694 16.3839 26.4044L16.7784 31.3894" stroke="#CF2F2F" stroke-width="0.910573" stroke-linecap="round" stroke-linejoin="round"/>
<path d="M33.5072 16.6664H26.8203C24.973 16.6664 23.4768 15.1748 23.4768 13.3331C23.4768 11.4914 24.973 9.99976 26.8203 9.99976H33.5072C35.3545 9.99976 36.8507 11.4914 36.8507 13.3331C36.8507 15.1748 35.3545 16.6664 33.5072 16.6664Z" stroke="#CF2F2F" stroke-width="0.910573" stroke-linecap="round" stroke-linejoin="round"/>
<path d="M23.4888 13.0562L23.8833 8.07118C24.0187 6.33618 25.4714 4.99951 27.2151 4.99951H33.1113C34.8565 4.99951 36.3076 6.33618 36.4447 8.07118L36.8392 13.0562" stroke="#CF2F2F" stroke-width="0.910573" stroke-linecap="round" stroke-linejoin="round"/>
</svg>
