<svg width="41" height="40" viewBox="0 0 41 40" fill="none" xmlns="http://www.w3.org/2000/svg">
<g clip-path="url(#clip0_2717_19793)">
<path d="M30.7728 9.3934C36.6485 15.2513 36.6485 24.7487 30.7728 30.6066C24.8971 36.4644 15.3708 36.4644 9.49513 30.6066C3.61946 24.7487 3.61946 15.2512 9.49513 9.3934C15.3708 3.53553 24.8971 3.53553 30.7728 9.3934Z" fill="#ECECF5"/>
<path d="M30.7728 9.3934C36.6485 15.2513 36.6485 24.7487 30.7728 30.6066C24.8971 36.4644 15.3708 36.4644 9.49513 30.6066C3.61946 24.7487 3.61946 15.2512 9.49513 9.3934C15.3708 3.53553 24.8971 3.53553 30.7728 9.3934" stroke="#434396" stroke-width="0.915125" stroke-linecap="round" stroke-linejoin="round"/>
<path d="M24.9702 15.1782C27.641 17.8409 27.641 22.158 24.9702 24.8208C22.2994 27.4835 17.9691 27.4835 15.2983 24.8208C12.6275 22.1581 12.6275 17.8409 15.2983 15.1782C17.9691 12.5155 22.2993 12.5155 24.9702 15.1782Z" fill="white"/>
<path d="M24.9702 15.1782C27.641 17.8409 27.641 22.158 24.9702 24.8208C22.2994 27.4835 17.9691 27.4835 15.2983 24.8208C12.6275 22.1581 12.6275 17.8409 15.2983 15.1782C17.9691 12.5155 22.2993 12.5155 24.9702 15.1782" stroke="#434396" stroke-width="0.915125" stroke-linecap="round" stroke-linejoin="round"/>
<path d="M26.0586 23.408L19.4102 34.9996" stroke="#434396" stroke-width="0.915125" stroke-linecap="round" stroke-linejoin="round"/>
<path d="M7.47852 11.8997L14.2156 23.4163" stroke="#434396" stroke-width="0.915125" stroke-linecap="round" stroke-linejoin="round"/>
<path d="M20.1343 13.1829H33.5416" stroke="#434396" stroke-width="0.915125" stroke-linecap="round" stroke-linejoin="round"/>
</g>
<defs>
<clipPath id="clip0_2717_19793">
<rect width="40.1216" height="40" fill="white" transform="translate(0.072998)"/>
</clipPath>
</defs>
</svg>
