<svg width="32" height="33" viewBox="0 0 32 33" fill="none" xmlns="http://www.w3.org/2000/svg">
<circle cx="16.0002" cy="16.4033" r="16" fill="#3E2FB7"/>
<path d="M20.6772 10.4033H11.3232C9.488 10.4033 8.00024 11.8911 8.00024 13.7263V18.4023C8.00024 20.2376 9.488 21.7253 11.3232 21.7253H20.6772C22.5125 21.7253 24.0002 20.2376 24.0002 18.4023V13.7263C24.0002 11.8911 22.5125 10.4033 20.6772 10.4033ZM18.4299 16.2918L14.0548 18.3785C13.9382 18.4341 13.8035 18.3491 13.8035 18.22V13.9162C13.8035 13.7852 13.9417 13.7003 14.0585 13.7595L18.4337 15.9766C18.5638 16.0425 18.5615 16.2291 18.4299 16.2918Z" fill="white"/>
</svg>
